  0
SECTION
  2
HEADER
  9
$ACADVER
  1
AC1009
  0
ENDSEC
  0
SECTION
  2
BLOCKS
  0
ENDSEC
  0
SECTION
  2
ENTITIES
  0
LINE
  8
CutLine
  6
CONTINUOUS
 62
8
 10
75.880804
 20
749.217521
 11
11.192014
 21
750.532103
  0
LINE
  8
CutLine
  6
CONTINUOUS
 62
8
 10
11.192014
 20
750.532103
 11
18.850086
 21
734.954346
  0
LINE
  8
CutLine
  6
CONTINUOUS
 62
8
 10
132.903985
 20
734.924183
 11
140.570117
 21
750.496160
  0
LINE
  8
CutLine
  6
CONTINUOUS
 62
8
 10
140.570117
 20
750.496160
 11
75.880804
 21
749.217521
  0
LINE
  8
CutLine
  6
CONTINUOUS
 62
8
 10
18.850044
 20
734.954346
 11
75.876818
 21
734.815044
  0
LINE
  8
CutLine
  6
CONTINUOUS
 62
8
 10
75.876818
 20
734.815044
 11
132.903985
 21
734.924183
  0
LINE
  8
CutLine
  6
CONTINUOUS
 62
8
 10
267.277137
 20
207.612394
 11
267.277137
 21
121.061528
  0
LINE
  8
CutLine
  6
CONTINUOUS
 62
8
 10
267.277137
 20
121.061528
 11
285.306713
 21
116.361740
  0
LINE
  8
CutLine
  6
CONTINUOUS
 62
8
 10
285.306713
 20
116.361740
 11
267.277137
 21
207.612394
  0
LINE
  8
CutLine
  6
CONTINUOUS
 62
8
 10
152.261577
 20
608.123319
 11
142.738672
 21
730.976060
  0
LINE
  8
CutLine
  6
CONTINUOUS
 62
8
 10
28.694788
 20
730.996222
 11
19.143574
 21
608.137820
  0
LINE
  8
CutLine
  6
CONTINUOUS
 62
8
 10
19.143574
 20
608.137820
 11
85.702498
 21
607.721792
  0
LINE
  8
CutLine
  6
CONTINUOUS
 62
8
 10
85.711506
 20
730.866921
 11
28.684731
 21
731.006223
  0
LINE
  8
CutLine
  6
CONTINUOUS
 62
8
 10
142.738672
 20
730.976060
 11
85.711506
 21
730.866921
  0
LINE
  8
CutLine
  6
CONTINUOUS
 62
8
 10
85.702498
 20
607.721792
 11
152.261577
 21
608.123319
  0
LINE
  8
CutLine
  6
CONTINUOUS
 62
8
 10
157.498151
 20
749.452456
 11
146.575668
 21
735.963371
  0
LINE
  8
CutLine
  6
CONTINUOUS
 62
8
 10
156.098572
 20
613.110629
 11
172.221324
 21
604.335912
  0
LINE
  8
CutLine
  6
CONTINUOUS
 62
8
 10
172.221324
 20
604.335912
 11
157.498151
 21
749.452456
  0
LINE
  8
CutLine
  6
CONTINUOUS
 62
8
 10
146.575668
 20
735.963371
 11
156.098572
 21
613.110629
  0
LINE
  8
CutLine
  6
CONTINUOUS
 62
8
 10
14.565424
 20
604.404560
 11
2.224261
 21
590.851152
  0
LINE
  8
CutLine
  6
CONTINUOUS
 62
8
 10
81.168838
 20
589.795714
 11
159.026030
 21
589.841234
  0
LINE
  8
CutLine
  6
CONTINUOUS
 62
8
 10
159.026030
 20
589.841234
 11
160.105771
 21
591.290716
  0
LINE
  8
CutLine
  6
CONTINUOUS
 62
8
 10
81.125647
 20
604.404235
 11
14.565424
 21
604.404560
  0
LINE
  8
CutLine
  6
CONTINUOUS
 62
8
 10
160.105771
 20
591.290716
 11
147.684727
 21
604.805762
  0
LINE
  8
CutLine
  6
CONTINUOUS
 62
8
 10
147.684727
 20
604.805762
 11
81.125647
 21
604.404235
  0
LINE
  8
CutLine
  6
CONTINUOUS
 62
8
 10
3.313257
 20
589.411406
 11
81.168838
 21
589.795714
  0
LINE
  8
CutLine
  6
CONTINUOUS
 62
8
 10
2.224261
 20
590.851152
 11
3.313257
 21
589.411406
  0
LINE
  8
CutLine
  6
CONTINUOUS
 62
8
 10
199.037728
 20
138.037525
 11
199.037728
 21
257.875405
  0
LINE
  8
CutLine
  6
CONTINUOUS
 62
8
 10
199.037728
 20
257.875405
 11
186.779624
 21
267.262404
  0
LINE
  8
CutLine
  6
CONTINUOUS
 62
8
 10
186.779624
 20
267.262404
 11
199.037728
 21
138.037525
  0
LINE
  8
CutLine
  6
CONTINUOUS
 62
8
 10
201.974830
 20
257.180460
 11
201.974830
 21
137.352339
  0
LINE
  8
CutLine
  6
CONTINUOUS
 62
8
 10
214.254674
 20
266.550782
 11
201.974830
 21
257.180460
  0
LINE
  8
CutLine
  6
CONTINUOUS
 62
8
 10
201.974830
 20
137.352339
 11
214.254674
 21
266.550782
  0
LINE
  8
CutLine
  6
CONTINUOUS
 62
8
 10
254.636373
 20
289.664648
 11
251.242364
 21
289.819357
  0
LINE
  8
CutLine
  6
CONTINUOUS
 62
8
 10
254.636373
 20
196.661427
 11
254.636373
 21
289.664648
  0
LINE
  8
CutLine
  6
CONTINUOUS
 62
8
 10
251.242364
 20
289.819357
 11
251.768641
 21
192.840796
  0
LINE
  8
CutLine
  6
CONTINUOUS
 62
8
 10
251.768641
 20
192.840796
 11
254.636373
 21
196.661427
  0
LINE
  8
CutLine
  6
CONTINUOUS
 62
8
 10
264.684739
 20
207.973328
 11
246.634054
 21
116.738619
  0
LINE
  8
CutLine
  6
CONTINUOUS
 62
8
 10
246.634054
 20
116.738619
 11
264.684739
 21
121.426739
  0
LINE
  8
CutLine
  6
CONTINUOUS
 62
8
 10
264.684739
 20
121.426739
 11
264.684739
 21
207.973328
  0
LINE
  8
CutLine
  6
CONTINUOUS
 62
8
 10
318.106253
 20
177.021154
 11
318.107423
 21
136.021559
  0
LINE
  8
CutLine
  6
CONTINUOUS
 62
8
 10
348.471855
 20
121.398100
 11
348.890226
 21
177.003276
  0
LINE
  8
CutLine
  6
CONTINUOUS
 62
8
 10
348.890226
 20
177.003276
 11
348.471855
 21
232.609943
  0
LINE
  8
CutLine
  6
CONTINUOUS
 62
8
 10
318.129788
 20
218.020633
 11
318.106253
 21
177.021154
  0
LINE
  8
CutLine
  6
CONTINUOUS
 62
8
 10
318.107423
 20
136.021559
 11
348.471855
 21
121.398100
  0
LINE
  8
CutLine
  6
CONTINUOUS
 62
8
 10
348.471855
 20
232.609943
 11
318.129788
 21
218.020633
  0
LINE
  8
CutLine
  6
CONTINUOUS
 62
8
 10
258.689772
 20
287.701512
 11
255.801485
 21
291.506921
  0
LINE
  8
CutLine
  6
CONTINUOUS
 62
8
 10
255.801485
 20
291.506921
 11
255.801485
 21
194.514923
  0
LINE
  8
CutLine
  6
CONTINUOUS
 62
8
 10
255.801485
 20
194.514923
 11
259.194598
 21
194.688112
  0
LINE
  8
CutLine
  6
CONTINUOUS
 62
8
 10
259.194598
 20
194.688112
 11
258.689772
 21
287.701512
  0
LINE
  8
CutLine
  6
CONTINUOUS
 62
8
 10
731.363899
 20
429.215790
 11
796.156023
 21
429.195094
  0
LINE
  8
CutLine
  6
CONTINUOUS
 62
8
 10
809.227898
 20
447.601534
 11
731.371228
 21
447.312789
  0
LINE
  8
CutLine
  6
CONTINUOUS
 62
8
 10
810.512518
 20
446.429829
 11
809.227898
 21
447.601534
  0
LINE
  8
CutLine
  6
CONTINUOUS
 62
8
 10
731.371228
 20
447.312789
 11
653.515338
 21
447.628113
  0
LINE
  8
CutLine
  6
CONTINUOUS
 62
8
 10
666.565465
 20
429.195094
 11
731.361737
 21
429.215791
  0
LINE
  8
CutLine
  6
CONTINUOUS
 62
8
 10
653.515338
 20
447.628113
 11
652.229148
 21
446.454982
  0
LINE
  8
CutLine
  6
CONTINUOUS
 62
8
 10
652.229148
 20
446.454982
 11
666.565465
 21
429.195094
  0
LINE
  8
CutLine
  6
CONTINUOUS
 62
8
 10
796.158185
 20
429.194557
 11
810.512518
 21
446.429829
  0
LINE
  8
CutLine
  6
CONTINUOUS
 62
8
 10
732.191425
 20
411.286167
 11
787.799528
 21
411.699465
  0
LINE
  8
CutLine
  6
CONTINUOUS
 62
8
 10
787.795409
 20
411.700386
 11
796.973398
 21
424.125698
  0
LINE
  8
CutLine
  6
CONTINUOUS
 62
8
 10
796.973398
 20
424.125698
 11
732.181275
 21
424.146394
  0
LINE
  8
CutLine
  6
CONTINUOUS
 62
8
 10
676.582034
 20
411.726032
 11
732.191425
 21
411.286167
  0
LINE
  8
CutLine
  6
CONTINUOUS
 62
8
 10
667.382841
 20
424.125698
 11
676.582034
 21
411.726032
  0
LINE
  8
CutLine
  6
CONTINUOUS
 62
8
 10
732.179112
 20
424.146394
 11
667.382841
 21
424.125698
  0
LINE
  8
CutLine
  6
CONTINUOUS
 62
8
 10
391.604554
 20
163.435188
 11
395.738335
 21
161.040827
  0
LINE
  8
CutLine
  6
CONTINUOUS
 62
8
 10
391.462284
 20
202.040165
 11
391.604554
 21
163.435188
  0
LINE
  8
CutLine
  6
CONTINUOUS
 62
8
 10
391.604787
 20
240.644676
 11
391.462284
 21
202.040165
  0
LINE
  8
CutLine
  6
CONTINUOUS
 62
8
 10
395.738335
 20
243.039904
 11
391.604787
 21
240.644676
  0
LINE
  8
CutLine
  6
CONTINUOUS
 62
8
 10
395.725982
 20
202.040420
 11
395.738335
 21
243.039904
  0
LINE
  8
CutLine
  6
CONTINUOUS
 62
8
 10
395.738335
 20
161.040827
 11
395.725982
 21
202.040420
  0
LINE
  8
CutLine
  6
CONTINUOUS
 62
8
 10
218.915215
 20
279.429090
 11
218.915215
 21
159.591210
  0
LINE
  8
CutLine
  6
CONTINUOUS
 62
8
 10
241.016285
 20
254.031616
 11
218.915215
 21
279.429090
  0
LINE
  8
CutLine
  6
CONTINUOUS
 62
8
 10
218.915215
 20
159.591210
 11
241.016285
 21
254.031616
  0
LINE
  8
CutLine
  6
CONTINUOUS
 62
8
 10
218.855691
 20
148.920512
 11
246.809408
 21
167.746928
  0
LINE
  8
CutLine
  6
CONTINUOUS
 62
8
 10
249.814343
 20
264.680352
 11
218.855691
 21
148.920512
  0
LINE
  8
CutLine
  6
CONTINUOUS
 62
8
 10
246.809408
 20
167.746928
 11
249.814343
 21
264.680352
  0
LINE
  8
CutLine
  6
CONTINUOUS
 62
8
 10
833.000895
 20
308.753187
 11
867.002055
 21
310.619024
  0
LINE
  8
CutLine
  6
CONTINUOUS
 62
8
 10
571.711626
 20
313.938868
 11
604.412901
 21
313.667946
  0
LINE
  8
CutLine
  6
CONTINUOUS
 62
8
 10
604.412901
 20
313.667946
 11
644.860594
 21
312.514388
  0
LINE
  8
CutLine
  6
CONTINUOUS
 62
8
 10
644.551270
 20
318.818364
 11
604.267566
 21
316.627186
  0
LINE
  8
CutLine
  6
CONTINUOUS
 62
8
 10
644.860594
 20
312.514388
 11
697.097559
 21
310.785596
  0
LINE
  8
CutLine
  6
CONTINUOUS
 62
8
 10
696.569361
 20
321.552620
 11
644.551270
 21
318.818364
  0
LINE
  8
CutLine
  6
CONTINUOUS
 62
8
 10
767.161473
 20
319.973608
 11
732.084644
 21
320.760225
  0
LINE
  8
CutLine
  6
CONTINUOUS
 62
8
 10
697.097559
 20
310.785596
 11
732.222681
 21
309.589305
  0
LINE
  8
CutLine
  6
CONTINUOUS
 62
8
 10
732.084644
 20
320.760225
 11
696.569361
 21
321.552620
  0
LINE
  8
CutLine
  6
CONTINUOUS
 62
8
 10
732.222681
 20
309.589305
 11
767.730269
 21
308.374951
  0
LINE
  8
CutLine
  6
CONTINUOUS
 62
8
 10
767.730269
 20
308.374951
 11
808.750781
 21
307.608578
  0
LINE
  8
CutLine
  6
CONTINUOUS
 62
8
 10
808.270019
 20
317.414339
 11
767.161473
 21
319.973608
  0
LINE
  8
CutLine
  6
CONTINUOUS
 62
8
 10
808.750781
 20
307.608578
 11
833.000895
 21
308.753187
  0
LINE
  8
CutLine
  6
CONTINUOUS
 62
8
 10
832.963213
 20
315.637153
 11
808.270019
 21
317.414339
  0
LINE
  8
CutLine
  6
CONTINUOUS
 62
8
 10
604.267566
 20
316.627186
 11
571.711626
 21
313.938868
  0
LINE
  8
CutLine
  6
CONTINUOUS
 62
8
 10
866.842774
 20
313.848601
 11
832.963213
 21
315.637153
  0
LINE
  8
CutLine
  6
CONTINUOUS
 62
8
 10
867.002055
 20
310.619024
 11
895.830294
 21
313.938868
  0
LINE
  8
CutLine
  6
CONTINUOUS
 62
8
 10
895.830294
 20
313.938868
 11
866.842774
 21
313.848601
  0
LINE
  8
CutLine
  6
CONTINUOUS
 62
8
 10
36.662320
 20
411.512045
 11
79.606174
 21
411.538176
  0
LINE
  8
CutLine
  6
CONTINUOUS
 62
8
 10
40.746547
 20
415.499622
 11
36.662320
 21
411.512045
  0
LINE
  8
CutLine
  6
CONTINUOUS
 62
8
 10
79.607057
 20
471.835358
 11
79.619590
 21
550.266256
  0
LINE
  8
CutLine
  6
CONTINUOUS
 62
8
 10
79.619590
 20
550.266256
 11
40.391713
 21
550.099082
  0
LINE
  8
CutLine
  6
CONTINUOUS
 62
8
 10
40.968090
 20
471.901566
 11
40.746547
 21
415.499622
  0
LINE
  8
CutLine
  6
CONTINUOUS
 62
8
 10
40.391713
 20
550.099082
 11
40.968090
 21
471.901566
  0
LINE
  8
CutLine
  6
CONTINUOUS
 62
8
 10
122.550027
 20
411.512037
 11
118.465797
 21
415.499611
  0
LINE
  8
CutLine
  6
CONTINUOUS
 62
8
 10
79.603260
 20
411.538258
 11
122.550027
 21
411.512037
  0
LINE
  8
CutLine
  6
CONTINUOUS
 62
8
 10
118.246024
 20
471.901554
 11
118.822402
 21
550.099082
  0
LINE
  8
CutLine
  6
CONTINUOUS
 62
8
 10
118.467568
 20
415.499610
 11
118.246024
 21
471.901554
  0
LINE
  8
CutLine
  6
CONTINUOUS
 62
8
 10
118.822402
 20
550.099082
 11
79.594201
 21
550.266256
  0
LINE
  8
CutLine
  6
CONTINUOUS
 62
8
 10
79.594201
 20
550.266256
 11
79.607057
 21
471.835358
  0
LINE
  8
CutLine
  6
CONTINUOUS
 62
8
 10
722.217716
 20
548.328492
 11
758.056214
 21
547.633271
  0
LINE
  8
CutLine
  6
CONTINUOUS
 62
8
 10
758.056214
 20
547.633271
 11
781.418566
 21
545.897696
  0
LINE
  8
CutLine
  6
CONTINUOUS
 62
8
 10
781.418566
 20
545.897696
 11
817.310323
 21
541.259038
  0
LINE
  8
CutLine
  6
CONTINUOUS
 62
8
 10
817.310323
 20
541.259038
 11
851.103151
 21
532.798155
  0
LINE
  8
CutLine
  6
CONTINUOUS
 62
8
 10
923.748716
 20
556.458124
 11
892.670104
 21
576.853885
  0
LINE
  8
CutLine
  6
CONTINUOUS
 62
8
 10
851.103151
 20
532.798155
 11
884.178519
 21
521.827202
  0
LINE
  8
CutLine
  6
CONTINUOUS
 62
8
 10
962.354286
 20
539.031621
 11
923.748716
 21
556.458124
  0
LINE
  8
CutLine
  6
CONTINUOUS
 62
8
 10
884.178519
 20
521.827202
 11
909.135601
 21
510.328312
  0
LINE
  8
CutLine
  6
CONTINUOUS
 62
8
 10
1009.968523
 20
520.714772
 11
962.354286
 21
539.031621
  0
LINE
  8
CutLine
  6
CONTINUOUS
 62
8
 10
686.379490
 20
547.627018
 11
722.217716
 21
548.328492
  0
LINE
  8
CutLine
  6
CONTINUOUS
 62
8
 10
663.017487
 20
545.887580
 11
686.379490
 21
547.627018
  0
LINE
  8
CutLine
  6
CONTINUOUS
 62
8
 10
627.126048
 20
541.245148
 11
663.017487
 21
545.887580
  0
LINE
  8
CutLine
  6
CONTINUOUS
 62
8
 10
560.257407
 20
521.814129
 11
593.333183
 21
532.783892
  0
LINE
  8
CutLine
  6
CONTINUOUS
 62
8
 10
593.333183
 20
532.783892
 11
627.126048
 21
541.245148
  0
LINE
  8
CutLine
  6
CONTINUOUS
 62
8
 10
551.764454
 20
576.856430
 11
520.684942
 21
556.462103
  0
LINE
  8
CutLine
  6
CONTINUOUS
 62
8
 10
595.731124
 20
593.240549
 11
551.764454
 21
576.856430
  0
LINE
  8
CutLine
  6
CONTINUOUS
 62
8
 10
535.298063
 20
510.323335
 11
560.257407
 21
521.814129
  0
LINE
  8
CutLine
  6
CONTINUOUS
 62
8
 10
520.684942
 20
556.462103
 11
482.077358
 21
539.040060
  0
LINE
  8
CutLine
  6
CONTINUOUS
 62
8
 10
487.322521
 20
487.840598
 11
535.298063
 21
510.323335
  0
LINE
  8
CutLine
  6
CONTINUOUS
 62
8
 10
452.917546
 20
465.045289
 11
487.322521
 21
487.840598
  0
LINE
  8
CutLine
  6
CONTINUOUS
 62
8
 10
434.460364
 20
520.730876
 11
384.717330
 21
507.290797
  0
LINE
  8
CutLine
  6
CONTINUOUS
 62
8
 10
423.046974
 20
439.595834
 11
452.917546
 21
465.045289
  0
LINE
  8
CutLine
  6
CONTINUOUS
 62
8
 10
384.717330
 20
507.290797
 11
283.294141
 21
481.454103
  0
LINE
  8
CutLine
  6
CONTINUOUS
 62
8
 10
283.294141
 20
481.454103
 11
423.046974
 21
439.595834
  0
LINE
  8
CutLine
  6
CONTINUOUS
 62
8
 10
482.077358
 20
539.040060
 11
434.460364
 21
520.730876
  0
LINE
  8
CutLine
  6
CONTINUOUS
 62
8
 10
892.670104
 20
576.853885
 11
848.704207
 21
593.239983
  0
LINE
  8
CutLine
  6
CONTINUOUS
 62
8
 10
909.135601
 20
510.328312
 11
957.104902
 21
487.839180
  0
LINE
  8
CutLine
  6
CONTINUOUS
 62
8
 10
1021.369600
 20
439.579013
 11
1161.090965
 21
481.454103
  0
LINE
  8
CutLine
  6
CONTINUOUS
 62
8
 10
1161.090965
 20
481.454103
 11
1059.708959
 21
507.265434
  0
LINE
  8
CutLine
  6
CONTINUOUS
 62
8
 10
1059.708959
 20
507.265434
 11
1009.968523
 21
520.714772
  0
LINE
  8
CutLine
  6
CONTINUOUS
 62
8
 10
957.104902
 20
487.839180
 11
991.505520
 21
465.037281
  0
LINE
  8
CutLine
  6
CONTINUOUS
 62
8
 10
991.505520
 20
465.037281
 11
1021.369600
 21
439.579013
  0
LINE
  8
CutLine
  6
CONTINUOUS
 62
8
 10
722.217619
 20
582.996977
 11
680.817641
 21
584.193094
  0
LINE
  8
CutLine
  6
CONTINUOUS
 62
8
 10
680.817641
 20
584.193094
 11
651.708598
 21
587.639870
  0
LINE
  8
CutLine
  6
CONTINUOUS
 62
8
 10
651.708598
 20
587.639870
 11
595.731124
 21
593.240549
  0
LINE
  8
CutLine
  6
CONTINUOUS
 62
8
 10
763.617584
 20
584.193328
 11
722.217619
 21
582.996977
  0
LINE
  8
CutLine
  6
CONTINUOUS
 62
8
 10
792.726671
 20
587.639932
 11
763.617584
 21
584.193328
  0
LINE
  8
CutLine
  6
CONTINUOUS
 62
8
 10
848.704207
 20
593.239983
 11
792.726671
 21
587.639932
  0
LINE
  8
CutLine
  6
CONTINUOUS
 62
8
 10
725.048172
 20
614.660190
 11
680.881728
 21
612.423487
  0
LINE
  8
CutLine
  6
CONTINUOUS
 62
8
 10
681.028568
 20
603.065632
 11
725.048174
 21
609.565617
  0
LINE
  8
CutLine
  6
CONTINUOUS
 62
8
 10
680.881728
 20
612.423487
 11
645.704870
 21
606.244561
  0
LINE
  8
CutLine
  6
CONTINUOUS
 62
8
 10
645.657197
 20
593.787809
 11
681.028568
 21
603.065632
  0
LINE
  8
CutLine
  6
CONTINUOUS
 62
8
 10
769.214457
 20
612.423518
 11
725.048172
 21
614.660190
  0
LINE
  8
CutLine
  6
CONTINUOUS
 62
8
 10
725.048174
 20
609.565617
 11
769.067645
 21
603.065382
  0
LINE
  8
CutLine
  6
CONTINUOUS
 62
8
 10
804.391473
 20
606.244570
 11
769.214457
 21
612.423518
  0
LINE
  8
CutLine
  6
CONTINUOUS
 62
8
 10
769.067645
 20
603.065382
 11
804.439107
 21
593.787774
  0
LINE
  8
CutLine
  6
CONTINUOUS
 62
8
 10
645.704870
 20
606.244561
 11
620.665412
 21
597.939332
  0
LINE
  8
CutLine
  6
CONTINUOUS
 62
8
 10
620.665412
 20
597.939332
 11
645.657197
 21
593.787809
  0
LINE
  8
CutLine
  6
CONTINUOUS
 62
8
 10
804.439107
 20
593.787774
 11
829.430778
 21
597.939332
  0
LINE
  8
CutLine
  6
CONTINUOUS
 62
8
 10
829.430778
 20
597.939332
 11
804.391473
 21
606.244570
  0
LINE
  8
CutLine
  6
CONTINUOUS
 62
8
 10
314.047195
 20
155.904841
 11
314.124332
 21
212.307167
  0
LINE
  8
CutLine
  6
CONTINUOUS
 62
8
 10
314.124332
 20
212.307167
 11
313.543857
 21
290.504653
  0
LINE
  8
CutLine
  6
CONTINUOUS
 62
8
 10
313.543857
 20
290.504653
 11
309.387063
 21
294.695754
  0
LINE
  8
CutLine
  6
CONTINUOUS
 62
8
 10
309.387063
 20
294.695754
 11
309.999527
 21
212.437971
  0
LINE
  8
CutLine
  6
CONTINUOUS
 62
8
 10
309.999527
 20
212.437971
 11
309.911429
 21
151.970744
  0
LINE
  8
CutLine
  6
CONTINUOUS
 62
8
 10
309.911429
 20
151.970744
 11
314.047195
 21
155.904841
  0
LINE
  8
CutLine
  6
CONTINUOUS
 62
8
 10
817.982331
 20
361.555884
 11
785.197183
 21
366.323291
  0
LINE
  8
CutLine
  6
CONTINUOUS
 62
8
 10
736.841781
 20
353.646431
 11
778.255406
 21
354.194099
  0
LINE
  8
CutLine
  6
CONTINUOUS
 62
8
 10
785.197183
 20
366.323291
 11
736.841760
 21
367.923382
  0
LINE
  8
CutLine
  6
CONTINUOUS
 62
8
 10
695.428146
 20
354.193945
 11
736.841781
 21
353.646431
  0
LINE
  8
CutLine
  6
CONTINUOUS
 62
8
 10
736.841760
 20
367.923382
 11
688.486328
 21
366.323426
  0
LINE
  8
CutLine
  6
CONTINUOUS
 62
8
 10
666.147391
 20
352.832300
 11
695.428146
 21
354.193945
  0
LINE
  8
CutLine
  6
CONTINUOUS
 62
8
 10
778.255406
 20
354.194099
 11
807.536178
 21
352.832311
  0
LINE
  8
CutLine
  6
CONTINUOUS
 62
8
 10
688.486328
 20
366.323426
 11
655.701227
 21
361.555836
  0
LINE
  8
CutLine
  6
CONTINUOUS
 62
8
 10
611.572405
 20
339.178878
 11
666.147391
 21
352.832300
  0
LINE
  8
CutLine
  6
CONTINUOUS
 62
8
 10
655.701227
 20
361.555836
 11
611.572405
 21
339.178878
  0
LINE
  8
CutLine
  6
CONTINUOUS
 62
8
 10
807.536178
 20
352.832311
 11
862.111162
 21
339.178878
  0
LINE
  8
CutLine
  6
CONTINUOUS
 62
8
 10
862.111162
 20
339.178878
 11
817.982331
 21
361.555884
  0
LINE
  8
CutLine
  6
CONTINUOUS
 62
8
 10
844.236265
 20
459.910985
 11
816.256199
 21
469.108210
  0
LINE
  8
CutLine
  6
CONTINUOUS
 62
8
 10
810.597263
 20
453.154678
 11
836.202038
 21
446.803362
  0
LINE
  8
CutLine
  6
CONTINUOUS
 62
8
 10
730.973271
 20
471.530781
 11
683.693409
 21
471.062066
  0
LINE
  8
CutLine
  6
CONTINUOUS
 62
8
 10
686.775849
 20
457.687630
 11
730.973261
 21
459.193089
  0
LINE
  8
CutLine
  6
CONTINUOUS
 62
8
 10
645.690155
 20
469.108210
 11
617.710184
 21
459.911207
  0
LINE
  8
CutLine
  6
CONTINUOUS
 62
8
 10
625.744351
 20
446.803330
 11
651.349265
 21
453.154682
  0
LINE
  8
CutLine
  6
CONTINUOUS
 62
8
 10
617.710184
 20
459.911207
 11
591.045154
 21
429.041075
  0
LINE
  8
CutLine
  6
CONTINUOUS
 62
8
 10
601.891257
 20
419.168275
 11
625.744351
 21
446.803330
  0
LINE
  8
CutLine
  6
CONTINUOUS
 62
8
 10
572.185297
 20
401.093651
 11
542.149532
 21
321.223810
  0
LINE
  8
CutLine
  6
CONTINUOUS
 62
8
 10
550.872896
 20
318.490396
 11
582.802940
 21
394.417931
  0
LINE
  8
CutLine
  6
CONTINUOUS
 62
8
 10
525.094391
 20
262.212533
 11
550.872896
 21
318.490396
  0
LINE
  8
CutLine
  6
CONTINUOUS
 62
8
 10
542.149532
 20
321.223810
 11
517.506517
 21
265.747865
  0
LINE
  8
CutLine
  6
CONTINUOUS
 62
8
 10
517.506517
 20
265.747865
 11
525.094391
 21
262.212533
  0
LINE
  8
CutLine
  6
CONTINUOUS
 62
8
 10
591.045154
 20
429.041075
 11
572.185297
 21
401.093651
  0
LINE
  8
CutLine
  6
CONTINUOUS
 62
8
 10
582.802940
 20
394.417931
 11
601.891257
 21
419.168275
  0
LINE
  8
CutLine
  6
CONTINUOUS
 62
8
 10
683.693409
 20
471.062066
 11
645.690155
 21
469.108210
  0
LINE
  8
CutLine
  6
CONTINUOUS
 62
8
 10
651.349265
 20
453.154682
 11
686.775849
 21
457.687630
  0
LINE
  8
CutLine
  6
CONTINUOUS
 62
8
 10
778.252990
 20
471.061760
 11
730.973271
 21
471.530781
  0
LINE
  8
CutLine
  6
CONTINUOUS
 62
8
 10
730.973261
 20
459.193089
 11
775.170510
 21
457.687559
  0
LINE
  8
CutLine
  6
CONTINUOUS
 62
8
 10
816.256199
 20
469.108210
 11
778.252990
 21
471.061760
  0
LINE
  8
CutLine
  6
CONTINUOUS
 62
8
 10
775.170510
 20
457.687559
 11
810.597263
 21
453.154678
  0
LINE
  8
CutLine
  6
CONTINUOUS
 62
8
 10
870.901404
 20
429.041284
 11
844.236265
 21
459.910985
  0
LINE
  8
CutLine
  6
CONTINUOUS
 62
8
 10
836.202038
 20
446.803362
 11
860.055351
 21
419.168430
  0
LINE
  8
CutLine
  6
CONTINUOUS
 62
8
 10
919.797822
 20
321.224413
 11
889.761321
 21
401.093573
  0
LINE
  8
CutLine
  6
CONTINUOUS
 62
8
 10
879.143922
 20
394.417886
 11
911.074433
 21
318.490865
  0
LINE
  8
CutLine
  6
CONTINUOUS
 62
8
 10
911.074433
 20
318.490865
 11
936.853357
 21
262.213203
  0
LINE
  8
CutLine
  6
CONTINUOUS
 62
8
 10
944.441293
 20
265.748674
 11
919.797822
 21
321.224413
  0
LINE
  8
CutLine
  6
CONTINUOUS
 62
8
 10
936.853357
 20
262.213203
 11
944.441293
 21
265.748674
  0
LINE
  8
CutLine
  6
CONTINUOUS
 62
8
 10
889.761321
 20
401.093573
 11
870.901404
 21
429.041284
  0
LINE
  8
CutLine
  6
CONTINUOUS
 62
8
 10
860.055351
 20
419.168430
 11
879.143922
 21
394.417886
  0
LINE
  8
CutLine
  6
CONTINUOUS
 62
8
 10
213.596575
 20
717.377644
 11
201.054576
 21
751.661287
  0
LINE
  8
CutLine
  6
CONTINUOUS
 62
8
 10
210.801572
 20
604.794839
 11
219.561202
 21
686.695626
  0
LINE
  8
CutLine
  6
CONTINUOUS
 62
8
 10
175.080278
 20
604.664286
 11
175.720618
 21
543.776516
  0
LINE
  8
CutLine
  6
CONTINUOUS
 62
8
 10
175.720618
 20
543.776516
 11
201.750570
 21
543.559167
  0
LINE
  8
CutLine
  6
CONTINUOUS
 62
8
 10
219.561202
 20
686.695626
 11
213.596575
 21
717.377644
  0
LINE
  8
CutLine
  6
CONTINUOUS
 62
8
 10
173.864027
 20
686.774239
 11
175.080278
 21
604.664286
  0
LINE
  8
CutLine
  6
CONTINUOUS
 62
8
 10
174.975516
 20
717.165550
 11
173.864027
 21
686.774239
  0
LINE
  8
CutLine
  6
CONTINUOUS
 62
8
 10
175.720618
 20
751.563080
 11
174.975516
 21
717.165550
  0
LINE
  8
CutLine
  6
CONTINUOUS
 62
8
 10
201.054576
 20
751.661287
 11
175.720618
 21
751.563080
  0
LINE
  8
CutLine
  6
CONTINUOUS
 62
8
 10
201.750570
 20
543.559167
 11
210.801572
 21
604.794839
  0
LINE
  8
CutLine
  6
CONTINUOUS
 62
8
 10
1166.882037
 20
489.822472
 11
1162.343389
 21
439.231876
  0
LINE
  8
CutLine
  6
CONTINUOUS
 62
8
 10
1166.343410
 20
532.773969
 11
1166.882037
 21
489.822472
  0
LINE
  8
CutLine
  6
CONTINUOUS
 62
8
 10
1130.552932
 20
312.217465
 11
1191.123833
 21
339.975047
  0
LINE
  8
CutLine
  6
CONTINUOUS
 62
8
 10
1162.343389
 20
439.231876
 11
1147.918325
 21
398.254913
  0
LINE
  8
CutLine
  6
CONTINUOUS
 62
8
 10
1147.918325
 20
398.254913
 11
1113.122638
 21
332.885007
  0
LINE
  8
CutLine
  6
CONTINUOUS
 62
8
 10
1113.122638
 20
332.885007
 11
1064.860434
 21
290.111776
  0
LINE
  8
CutLine
  6
CONTINUOUS
 62
8
 10
1064.860434
 20
290.111776
 11
1130.552932
 21
312.217465
  0
LINE
  8
CutLine
  6
CONTINUOUS
 62
8
 10
1189.029838
 20
399.656879
 11
1186.936941
 21
486.983800
  0
LINE
  8
CutLine
  6
CONTINUOUS
 62
8
 10
1191.123833
 20
339.975047
 11
1189.029838
 21
399.656879
  0
LINE
  8
CutLine
  6
CONTINUOUS
 62
8
 10
1160.319736
 20
566.156771
 11
1166.343410
 21
532.773969
  0
LINE
  8
CutLine
  6
CONTINUOUS
 62
8
 10
1195.760729
 20
527.595576
 11
1186.436360
 21
560.108201
  0
LINE
  8
CutLine
  6
CONTINUOUS
 62
8
 10
1191.123833
 20
584.534423
 11
1146.021237
 21
597.467332
  0
LINE
  8
CutLine
  6
CONTINUOUS
 62
8
 10
1146.021237
 20
597.467332
 11
1160.319736
 21
566.156771
  0
LINE
  8
CutLine
  6
CONTINUOUS
 62
8
 10
1186.436360
 20
560.108201
 11
1191.123833
 21
584.534423
  0
LINE
  8
CutLine
  6
CONTINUOUS
 62
8
 10
1186.936941
 20
486.983800
 11
1195.760729
 21
527.595576
  0
LINE
  8
CutLine
  6
CONTINUOUS
 62
8
 10
307.053862
 20
211.001681
 11
306.802305
 21
293.261374
  0
LINE
  8
CutLine
  6
CONTINUOUS
 62
8
 10
302.689912
 20
289.026852
 11
302.930662
 21
210.827570
  0
LINE
  8
CutLine
  6
CONTINUOUS
 62
8
 10
302.930662
 20
210.827570
 11
303.600005
 21
154.429163
  0
LINE
  8
CutLine
  6
CONTINUOUS
 62
8
 10
307.776858
 20
150.538716
 11
307.053862
 21
211.001681
  0
LINE
  8
CutLine
  6
CONTINUOUS
 62
8
 10
303.600005
 20
154.429163
 11
307.776858
 21
150.538716
  0
LINE
  8
CutLine
  6
CONTINUOUS
 62
8
 10
306.802305
 20
293.261374
 11
302.689912
 21
289.026852
  0
LINE
  8
CutLine
  6
CONTINUOUS
 62
8
 10
34.483528
 20
587.740065
 11
31.993926
 21
585.421611
  0
LINE
  8
CutLine
  6
CONTINUOUS
 62
8
 10
1.818696
 20
586.835320
 11
4.424441
 21
556.535549
  0
LINE
  8
CutLine
  6
CONTINUOUS
 62
8
 10
31.993926
 20
585.421611
 11
29.958368
 21
587.623633
  0
LINE
  8
CutLine
  6
CONTINUOUS
 62
8
 10
36.683235
 20
414.116381
 11
36.893423
 21
474.583307
  0
LINE
  8
CutLine
  6
CONTINUOUS
 62
8
 10
4.424441
 20
556.535549
 11
7.845738
 21
474.487868
  0
LINE
  8
CutLine
  6
CONTINUOUS
 62
8
 10
79.609138
 20
587.644463
 11
34.483528
 21
587.740065
  0
LINE
  8
CutLine
  6
CONTINUOUS
 62
8
 10
129.260068
 20
587.623644
 11
127.224674
 21
585.421616
  0
LINE
  8
CutLine
  6
CONTINUOUS
 62
8
 10
154.794002
 20
556.535548
 11
157.399904
 21
586.835325
  0
LINE
  8
CutLine
  6
CONTINUOUS
 62
8
 10
151.372868
 20
474.487882
 11
154.794002
 21
556.535548
  0
LINE
  8
CutLine
  6
CONTINUOUS
 62
8
 10
122.325186
 20
474.583295
 11
122.535370
 21
414.116373
  0
LINE
  8
CutLine
  6
CONTINUOUS
 62
8
 10
127.224674
 20
585.421616
 11
124.734911
 21
587.740063
  0
LINE
  8
CutLine
  6
CONTINUOUS
 62
8
 10
124.734911
 20
587.740063
 11
79.609138
 21
587.644463
  0
LINE
  8
CutLine
  6
CONTINUOUS
 62
8
 10
122.535370
 20
414.116373
 11
147.852315
 21
413.698604
  0
LINE
  8
CutLine
  6
CONTINUOUS
 62
8
 10
11.366125
 20
413.698600
 11
36.683235
 21
414.116381
  0
LINE
  8
CutLine
  6
CONTINUOUS
 62
8
 10
147.852315
 20
413.698604
 11
151.372868
 21
474.487882
  0
LINE
  8
CutLine
  6
CONTINUOUS
 62
8
 10
7.845738
 20
474.487868
 11
11.366125
 21
413.698600
  0
LINE
  8
CutLine
  6
CONTINUOUS
 62
8
 10
29.958368
 20
587.623633
 11
1.818696
 21
586.835320
  0
LINE
  8
CutLine
  6
CONTINUOUS
 62
8
 10
157.399904
 20
586.835325
 11
129.260068
 21
587.623644
  0
LINE
  8
CutLine
  6
CONTINUOUS
 62
8
 10
36.893423
 20
474.583307
 11
36.280958
 21
556.841089
  0
LINE
  8
CutLine
  6
CONTINUOUS
 62
8
 10
36.280958
 20
556.841089
 11
79.609140
 21
557.036532
  0
LINE
  8
CutLine
  6
CONTINUOUS
 62
8
 10
79.609140
 20
557.036532
 11
122.937483
 21
556.841094
  0
LINE
  8
CutLine
  6
CONTINUOUS
 62
8
 10
122.937483
 20
556.841094
 11
122.325186
 21
474.583295
  0
LINE
  8
CutLine
  6
CONTINUOUS
 62
8
 10
13.727747
 20
736.276398
 11
1.503684
 21
748.600555
  0
LINE
  8
CutLine
  6
CONTINUOUS
 62
8
 10
1.503684
 20
602.713719
 11
16.620349
 21
613.081245
  0
LINE
  8
CutLine
  6
CONTINUOUS
 62
8
 10
16.620349
 20
613.081245
 11
13.727747
 21
736.276398
  0
LINE
  8
CutLine
  6
CONTINUOUS
 62
8
 10
1.503684
 20
748.600555
 11
1.503684
 21
602.713719
  0
LINE
  8
CutLine
  6
CONTINUOUS
 62
8
 10
186.607367
 20
329.949544
 11
199.149208
 21
364.233192
  0
LINE
  8
CutLine
  6
CONTINUOUS
 62
8
 10
205.113816
 20
394.914894
 11
196.354300
 21
476.815988
  0
LINE
  8
CutLine
  6
CONTINUOUS
 62
8
 10
199.149208
 20
364.233192
 11
205.113816
 21
394.914894
  0
LINE
  8
CutLine
  6
CONTINUOUS
 62
8
 10
161.273302
 20
537.834286
 11
160.632861
 21
476.946535
  0
LINE
  8
CutLine
  6
CONTINUOUS
 62
8
 10
187.303267
 20
538.051664
 11
161.273302
 21
537.834286
  0
LINE
  8
CutLine
  6
CONTINUOUS
 62
8
 10
160.632861
 20
476.946535
 11
159.416779
 21
394.836559
  0
LINE
  8
CutLine
  6
CONTINUOUS
 62
8
 10
159.416779
 20
394.836559
 11
160.528149
 21
364.445262
  0
LINE
  8
CutLine
  6
CONTINUOUS
 62
8
 10
160.528149
 20
364.445262
 11
161.273302
 21
330.047733
  0
LINE
  8
CutLine
  6
CONTINUOUS
 62
8
 10
196.354300
 20
476.815988
 11
187.303267
 21
538.051664
  0
LINE
  8
CutLine
  6
CONTINUOUS
 62
8
 10
161.273302
 20
330.047733
 11
186.607367
 21
329.949544
  0
LINE
  8
CutLine
  6
CONTINUOUS
 62
8
 10
40.441292
 20
404.221853
 11
79.668384
 21
404.521094
  0
LINE
  8
CutLine
  6
CONTINUOUS
 62
8
 10
79.668366
 20
408.788544
 11
36.340928
 21
408.468179
  0
LINE
  8
CutLine
  6
CONTINUOUS
 62
8
 10
36.340928
 20
408.468179
 11
40.441292
 21
404.221853
  0
LINE
  8
CutLine
  6
CONTINUOUS
 62
8
 10
122.995966
 20
408.468179
 11
79.668366
 21
408.788544
  0
LINE
  8
CutLine
  6
CONTINUOUS
 62
8
 10
79.668384
 20
404.521094
 11
118.895799
 21
404.221818
  0
LINE
  8
CutLine
  6
CONTINUOUS
 62
8
 10
118.895799
 20
404.221818
 11
122.995966
 21
408.468179
  0
LINE
  8
CutLine
  6
CONTINUOUS
 62
8
 10
983.918124
 20
387.203525
 11
919.374896
 21
446.063894
  0
LINE
  8
CutLine
  6
CONTINUOUS
 62
8
 10
911.065627
 20
434.046712
 11
979.365939
 21
382.896527
  0
LINE
  8
CutLine
  6
CONTINUOUS
 62
8
 10
852.838481
 20
490.223592
 11
819.870720
 21
488.744675
  0
LINE
  8
CutLine
  6
CONTINUOUS
 62
8
 10
817.101566
 20
475.979104
 11
845.998722
 21
470.284595
  0
LINE
  8
CutLine
  6
CONTINUOUS
 62
8
 10
731.771659
 20
484.947927
 11
683.013230
 21
486.176727
  0
LINE
  8
CutLine
  6
CONTINUOUS
 62
8
 10
684.492513
 20
475.541933
 11
731.771671
 21
475.006998
  0
LINE
  8
CutLine
  6
CONTINUOUS
 62
8
 10
643.672556
 20
488.744443
 11
610.704814
 21
490.223397
  0
LINE
  8
CutLine
  6
CONTINUOUS
 62
8
 10
617.544540
 20
470.284573
 11
646.441573
 21
475.978877
  0
LINE
  8
CutLine
  6
CONTINUOUS
 62
8
 10
581.403393
 20
451.368803
 11
617.544540
 21
470.284573
  0
LINE
  8
CutLine
  6
CONTINUOUS
 62
8
 10
544.167918
 20
446.064345
 11
479.624002
 21
387.204731
  0
LINE
  8
CutLine
  6
CONTINUOUS
 62
8
 10
484.176168
 20
382.897597
 11
552.477294
 21
434.047328
  0
LINE
  8
CutLine
  6
CONTINUOUS
 62
8
 10
479.624002
 20
387.204731
 11
434.216525
 21
348.417273
  0
LINE
  8
CutLine
  6
CONTINUOUS
 62
8
 10
434.216525
 20
348.417273
 11
484.176168
 21
382.897597
  0
LINE
  8
CutLine
  6
CONTINUOUS
 62
8
 10
575.837750
 20
472.975261
 11
544.167918
 21
446.064345
  0
LINE
  8
CutLine
  6
CONTINUOUS
 62
8
 10
552.477294
 20
434.047328
 11
581.403393
 21
451.368803
  0
LINE
  8
CutLine
  6
CONTINUOUS
 62
8
 10
683.013230
 20
486.176727
 11
643.672556
 21
488.744443
  0
LINE
  8
CutLine
  6
CONTINUOUS
 62
8
 10
646.441573
 20
475.978877
 11
684.492513
 21
475.541933
  0
LINE
  8
CutLine
  6
CONTINUOUS
 62
8
 10
780.530102
 20
486.176634
 11
731.771659
 21
484.947927
  0
LINE
  8
CutLine
  6
CONTINUOUS
 62
8
 10
731.771671
 20
475.006998
 11
779.050691
 21
475.541898
  0
LINE
  8
CutLine
  6
CONTINUOUS
 62
8
 10
819.870720
 20
488.744675
 11
780.530102
 21
486.176634
  0
LINE
  8
CutLine
  6
CONTINUOUS
 62
8
 10
779.050691
 20
475.541898
 11
817.101566
 21
475.979104
  0
LINE
  8
CutLine
  6
CONTINUOUS
 62
8
 10
845.998722
 20
470.284595
 11
882.139496
 21
451.368662
  0
LINE
  8
CutLine
  6
CONTINUOUS
 62
8
 10
919.374896
 20
446.063894
 11
887.705260
 21
472.975039
  0
LINE
  8
CutLine
  6
CONTINUOUS
 62
8
 10
882.139496
 20
451.368662
 11
911.065627
 21
434.046712
  0
LINE
  8
CutLine
  6
CONTINUOUS
 62
8
 10
1029.325252
 20
348.415730
 11
983.918124
 21
387.203525
  0
LINE
  8
CutLine
  6
CONTINUOUS
 62
8
 10
979.365939
 20
382.896527
 11
1029.325252
 21
348.415730
  0
LINE
  8
CutLine
  6
CONTINUOUS
 62
8
 10
887.705260
 20
472.975039
 11
879.698587
 21
505.836961
  0
LINE
  8
CutLine
  6
CONTINUOUS
 62
8
 10
583.844791
 20
505.837121
 11
575.837750
 21
472.975261
  0
LINE
  8
CutLine
  6
CONTINUOUS
 62
8
 10
610.704814
 20
490.223397
 11
583.844791
 21
505.837121
  0
LINE
  8
CutLine
  6
CONTINUOUS
 62
8
 10
879.698587
 20
505.836961
 11
852.838481
 21
490.223592
  0
LINE
  8
CutLine
  6
CONTINUOUS
 62
8
 10
686.157637
 20
536.121196
 11
651.526754
 21
524.377524
  0
LINE
  8
CutLine
  6
CONTINUOUS
 62
8
 10
682.686165
 20
507.358564
 11
687.521210
 21
516.305575
  0
LINE
  8
CutLine
  6
CONTINUOUS
 62
8
 10
651.526754
 20
524.377524
 11
651.569174
 21
489.971951
  0
LINE
  8
CutLine
  6
CONTINUOUS
 62
8
 10
687.521210
 20
516.305575
 11
697.371745
 21
523.540842
  0
LINE
  8
CutLine
  6
CONTINUOUS
 62
8
 10
651.569174
 20
489.971951
 11
679.719753
 21
490.058355
  0
LINE
  8
CutLine
  6
CONTINUOUS
 62
8
 10
679.719753
 20
490.058355
 11
682.686165
 21
507.358564
  0
LINE
  8
CutLine
  6
CONTINUOUS
 62
8
 10
729.918503
 20
544.181104
 11
686.157637
 21
536.121196
  0
LINE
  8
CutLine
  6
CONTINUOUS
 62
8
 10
697.371745
 20
523.540842
 11
712.256508
 21
526.630680
  0
LINE
  8
CutLine
  6
CONTINUOUS
 62
8
 10
712.256508
 20
526.630680
 11
729.864195
 21
527.621702
  0
LINE
  8
CutLine
  6
CONTINUOUS
 62
8
 10
729.864195
 20
527.621702
 11
729.918501
 21
535.796168
  0
LINE
  8
CutLine
  6
CONTINUOUS
 62
8
 10
773.679209
 20
536.120867
 11
729.918503
 21
544.181104
  0
LINE
  8
CutLine
  6
CONTINUOUS
 62
8
 10
808.310239
 20
524.377524
 11
773.679209
 21
536.120867
  0
LINE
  8
CutLine
  6
CONTINUOUS
 62
8
 10
747.580331
 20
526.630674
 11
762.465253
 21
523.540832
  0
LINE
  8
CutLine
  6
CONTINUOUS
 62
8
 10
729.972805
 20
527.621702
 11
747.580331
 21
526.630674
  0
LINE
  8
CutLine
  6
CONTINUOUS
 62
8
 10
808.267835
 20
489.971951
 11
808.310239
 21
524.377524
  0
LINE
  8
CutLine
  6
CONTINUOUS
 62
8
 10
762.465253
 20
523.540832
 11
772.315790
 21
516.305567
  0
LINE
  8
CutLine
  6
CONTINUOUS
 62
8
 10
772.315790
 20
516.305567
 11
777.150836
 21
507.358557
  0
LINE
  8
CutLine
  6
CONTINUOUS
 62
8
 10
777.150836
 20
507.358557
 11
780.117093
 21
490.058347
  0
LINE
  8
CutLine
  6
CONTINUOUS
 62
8
 10
780.117093
 20
490.058347
 11
808.267835
 21
489.971951
  0
LINE
  8
CutLine
  6
CONTINUOUS
 62
8
 10
729.918501
 20
535.796168
 11
729.972805
 21
527.621702
  0
LINE
  8
CutLine
  6
CONTINUOUS
 62
8
 10
242.486239
 20
580.287772
 11
248.509919
 21
613.670640
  0
LINE
  8
CutLine
  6
CONTINUOUS
 62
8
 10
213.068844
 20
575.109386
 11
221.892644
 21
534.497613
  0
LINE
  8
CutLine
  6
CONTINUOUS
 62
8
 10
248.509919
 20
613.670640
 11
262.808370
 21
644.981182
  0
LINE
  8
CutLine
  6
CONTINUOUS
 62
8
 10
262.808370
 20
644.981182
 11
217.705758
 21
632.048210
  0
LINE
  8
CutLine
  6
CONTINUOUS
 62
8
 10
222.393247
 20
607.621972
 11
213.068844
 21
575.109386
  0
LINE
  8
CutLine
  6
CONTINUOUS
 62
8
 10
217.705758
 20
632.048210
 11
222.393247
 21
607.621972
  0
LINE
  8
CutLine
  6
CONTINUOUS
 62
8
 10
246.486310
 20
486.745707
 11
241.947729
 21
537.335986
  0
LINE
  8
CutLine
  6
CONTINUOUS
 62
8
 10
241.947729
 20
537.335986
 11
242.486239
 21
580.287772
  0
LINE
  8
CutLine
  6
CONTINUOUS
 62
8
 10
221.892644
 20
534.497613
 11
219.799707
 21
447.170693
  0
LINE
  8
CutLine
  6
CONTINUOUS
 62
8
 10
260.911345
 20
445.768726
 11
246.486310
 21
486.745707
  0
LINE
  8
CutLine
  6
CONTINUOUS
 62
8
 10
217.705758
 20
387.488906
 11
278.276582
 21
359.730911
  0
LINE
  8
CutLine
  6
CONTINUOUS
 62
8
 10
295.706877
 20
380.398747
 11
260.911345
 21
445.768726
  0
LINE
  8
CutLine
  6
CONTINUOUS
 62
8
 10
219.799707
 20
447.170693
 11
217.705758
 21
387.488906
  0
LINE
  8
CutLine
  6
CONTINUOUS
 62
8
 10
278.276582
 20
359.730911
 11
343.969161
 21
337.625275
  0
LINE
  8
CutLine
  6
CONTINUOUS
 62
8
 10
343.969161
 20
337.625275
 11
295.706877
 21
380.398747
  0
LINE
  8
CutLine
  6
CONTINUOUS
 62
8
 10
850.826291
 20
351.736320
 11
870.267145
 21
367.249731
  0
LINE
  8
CutLine
  6
CONTINUOUS
 62
8
 10
870.267145
 20
367.249731
 11
849.877189
 21
390.691124
  0
LINE
  8
CutLine
  6
CONTINUOUS
 62
8
 10
609.517248
 20
390.691046
 11
589.127346
 21
367.249746
  0
LINE
  8
CutLine
  6
CONTINUOUS
 62
8
 10
589.127346
 20
367.249746
 11
608.568212
 21
351.736320
  0
LINE
  8
CutLine
  6
CONTINUOUS
 62
8
 10
729.697198
 20
392.170232
 11
777.952667
 21
388.674947
  0
LINE
  8
CutLine
  6
CONTINUOUS
 62
8
 10
778.458397
 20
401.571765
 11
729.697199
 21
402.685299
  0
LINE
  8
CutLine
  6
CONTINUOUS
 62
8
 10
681.441710
 20
388.675168
 11
729.697198
 21
392.170232
  0
LINE
  8
CutLine
  6
CONTINUOUS
 62
8
 10
729.697199
 20
402.685299
 11
680.935985
 21
401.571987
  0
LINE
  8
CutLine
  6
CONTINUOUS
 62
8
 10
649.672651
 20
379.277313
 11
681.441710
 21
388.675168
  0
LINE
  8
CutLine
  6
CONTINUOUS
 62
8
 10
680.935985
 20
401.571987
 11
641.658205
 21
398.175651
  0
LINE
  8
CutLine
  6
CONTINUOUS
 62
8
 10
777.952667
 20
388.674947
 11
809.721808
 21
379.277300
  0
LINE
  8
CutLine
  6
CONTINUOUS
 62
8
 10
817.736230
 20
398.175649
 11
778.458397
 21
401.571765
  0
LINE
  8
CutLine
  6
CONTINUOUS
 62
8
 10
608.568212
 20
351.736320
 11
649.672651
 21
379.277313
  0
LINE
  8
CutLine
  6
CONTINUOUS
 62
8
 10
641.658205
 20
398.175651
 11
609.517248
 21
390.691046
  0
LINE
  8
CutLine
  6
CONTINUOUS
 62
8
 10
809.721808
 20
379.277300
 11
850.826291
 21
351.736320
  0
LINE
  8
CutLine
  6
CONTINUOUS
 62
8
 10
849.877189
 20
390.691124
 11
817.736230
 21
398.175649
  0
LINE
  8
MountainLine
  6
CONTINUOUS
 62
5
 10
497.039799
 20
3.850355
 11
497.775948
 21
1.909972
  0
LINE
  8
CutLine
  6
CONTINUOUS
 62
8
 10
497.775948
 20
1.909972
 11
627.867296
 21
21.493093
  0
LINE
  8
CutLine
  6
CONTINUOUS
 62
8
 10
627.867296
 20
21.493093
 11
625.971900
 21
24.081056
  0
LINE
  8
CutLine
  6
CONTINUOUS
 62
8
 10
496.044838
 20
2.421868
 11
497.775948
 21
1.909972
  0
LINE
  8
CutLine
  6
CONTINUOUS
 62
8
 10
497.039799
 20
3.850355
 11
496.044838
 21
2.421868
  0
LINE
  8
CutLine
  6
CONTINUOUS
 62
8
 10
610.589324
 20
201.396083
 11
569.136550
 21
166.261562
  0
LINE
  8
CutLine
  6
CONTINUOUS
 62
8
 10
603.664455
 20
82.817916
 11
601.900204
 21
107.030837
  0
LINE
  8
CutLine
  6
CONTINUOUS
 62
8
 10
545.056080
 20
134.825001
 11
534.349709
 21
112.825203
  0
LINE
  8
CutLine
  6
CONTINUOUS
 62
8
 10
613.149608
 20
50.113297
 11
603.664455
 21
82.817916
  0
LINE
  8
CutLine
  6
CONTINUOUS
 62
8
 10
526.181664
 20
92.045692
 11
497.039799
 21
3.850355
  0
LINE
  8
CutLine
  6
CONTINUOUS
 62
8
 10
534.349709
 20
112.825203
 11
526.181664
 21
92.045692
  0
LINE
  8
CutLine
  6
CONTINUOUS
 62
8
 10
601.900204
 20
107.030837
 11
619.519819
 21
144.082409
  0
LINE
  8
CutLine
  6
CONTINUOUS
 62
8
 10
569.136550
 20
166.261562
 11
545.056080
 21
134.825001
  0
LINE
  8
CutLine
  6
CONTINUOUS
 62
8
 10
632.874672
 20
222.024727
 11
610.589324
 21
201.396083
  0
LINE
  8
CutLine
  6
CONTINUOUS
 62
8
 10
619.519819
 20
144.082409
 11
645.526096
 21
168.288545
  0
LINE
  8
CutLine
  6
CONTINUOUS
 62
8
 10
645.526096
 20
168.288545
 11
675.180916
 21
187.151125
  0
LINE
  8
CutLine
  6
CONTINUOUS
 62
8
 10
990.074906
 20
185.022894
 11
969.400720
 21
215.916949
  0
LINE
  8
CutLine
  6
CONTINUOUS
 62
8
 10
910.201314
 20
143.947597
 11
935.177544
 21
122.149863
  0
LINE
  8
CutLine
  6
CONTINUOUS
 62
8
 10
1014.998522
 20
150.775463
 11
990.074906
 21
185.022894
  0
LINE
  8
CutLine
  6
CONTINUOUS
 62
8
 10
935.177544
 20
122.149863
 11
960.863164
 21
95.120240
  0
LINE
  8
CutLine
  6
CONTINUOUS
 62
8
 10
1049.140148
 20
112.868290
 11
1014.998522
 21
150.775463
  0
LINE
  8
CutLine
  6
CONTINUOUS
 62
8
 10
960.863164
 20
95.120240
 11
988.117285
 21
59.454074
  0
LINE
  8
CutLine
  6
CONTINUOUS
 62
8
 10
1085.200270
 20
76.062411
 11
1049.140148
 21
112.868290
  0
LINE
  8
CutLine
  6
CONTINUOUS
 62
8
 10
988.117285
 20
59.454074
 11
1010.534023
 21
28.140844
  0
LINE
  8
CutLine
  6
CONTINUOUS
 62
8
 10
1160.960530
 20
3.850355
 11
1085.200270
 21
76.062411
  0
LINE
  8
CutLine
  6
CONTINUOUS
 62
8
 10
1010.534023
 20
28.140844
 11
1029.426817
 21
1.372524
  0
LINE
  8
CutLine
  6
CONTINUOUS
 62
8
 10
969.400720
 20
215.916949
 11
936.991324
 21
227.511208
  0
LINE
  8
CutLine
  6
CONTINUOUS
 62
8
 10
903.601509
 20
233.496257
 11
861.406423
 21
241.541173
  0
LINE
  8
CutLine
  6
CONTINUOUS
 62
8
 10
936.991324
 20
227.511208
 11
903.601509
 21
233.496257
  0
LINE
  8
CutLine
  6
CONTINUOUS
 62
8
 10
867.444284
 20
171.075147
 11
889.610515
 21
158.069409
  0
LINE
  8
CutLine
  6
CONTINUOUS
 62
8
 10
889.610515
 20
158.069409
 11
910.201314
 21
143.947597
  0
LINE
  8
CutLine
  6
CONTINUOUS
 62
8
 10
835.093149
 20
182.360766
 11
867.444284
 21
171.075147
  0
LINE
  8
CutLine
  6
CONTINUOUS
 62
8
 10
767.107427
 20
193.726464
 11
799.663745
 21
190.638918
  0
LINE
  8
CutLine
  6
CONTINUOUS
 62
8
 10
811.343727
 20
250.126132
 11
767.902370
 21
249.918568
  0
LINE
  8
CutLine
  6
CONTINUOUS
 62
8
 10
799.663745
 20
190.638918
 11
835.093149
 21
182.360766
  0
LINE
  8
CutLine
  6
CONTINUOUS
 62
8
 10
861.406423
 20
241.541173
 11
811.343727
 21
250.126132
  0
LINE
  8
CutLine
  6
CONTINUOUS
 62
8
 10
675.180916
 20
187.151125
 11
726.703475
 21
195.932647
  0
LINE
  8
CutLine
  6
CONTINUOUS
 62
8
 10
726.703475
 20
195.932647
 11
767.107427
 21
193.726464
  0
LINE
  8
CutLine
  6
CONTINUOUS
 62
8
 10
694.315357
 20
241.617081
 11
632.874672
 21
222.024727
  0
LINE
  8
CutLine
  6
CONTINUOUS
 62
8
 10
767.902370
 20
249.918568
 11
694.315357
 21
241.617081
  0
LINE
  8
CutLine
  6
CONTINUOUS
 62
8
 10
1029.426817
 20
1.372524
 11
1160.960530
 21
3.850355
  0
LINE
  8
CutLine
  6
CONTINUOUS
 62
8
 10
625.971900
 20
24.081056
 11
613.149608
 21
50.113297
  0
LINE
  8
CutLine
  6
CONTINUOUS
 62
8
 10
682.633803
 20
655.094667
 11
723.850348
 21
655.492823
  0
LINE
  8
CutLine
  6
CONTINUOUS
 62
8
 10
723.844951
 20
687.155894
 11
682.446794
 21
686.822913
  0
LINE
  8
CutLine
  6
CONTINUOUS
 62
8
 10
650.516315
 20
649.052403
 11
682.633803
 21
655.094667
  0
LINE
  8
CutLine
  6
CONTINUOUS
 62
8
 10
682.446794
 20
686.822913
 11
642.708899
 21
680.184404
  0
LINE
  8
CutLine
  6
CONTINUOUS
 62
8
 10
642.708899
 20
680.184404
 11
630.140323
 21
674.457889
  0
LINE
  8
CutLine
  6
CONTINUOUS
 62
8
 10
639.559043
 20
643.751684
 11
650.516315
 21
649.052403
  0
LINE
  8
MountainLine
  6
CONTINUOUS
 62
5
 10
589.215548
 20
652.137060
 11
599.777543
 21
621.613177
  0
LINE
  8
CutLine
  6
CONTINUOUS
 62
8
 10
599.777543
 20
621.613177
 11
639.559043
 21
643.751684
  0
LINE
  8
CutLine
  6
CONTINUOUS
 62
8
 10
630.140323
 20
674.457889
 11
589.215548
 21
652.137060
  0
LINE
  8
CutLine
  6
CONTINUOUS
 62
8
 10
525.324232
 20
628.184155
 11
495.033208
 21
617.795430
  0
LINE
  8
CutLine
  6
CONTINUOUS
 62
8
 10
534.937414
 20
593.390882
 11
599.777543
 21
621.613177
  0
LINE
  8
CutLine
  6
CONTINUOUS
 62
8
 10
589.215548
 20
652.137060
 11
525.324232
 21
628.184155
  0
LINE
  8
CutLine
  6
CONTINUOUS
 62
8
 10
501.342192
 20
581.308611
 11
534.937414
 21
593.390882
  0
LINE
  8
CutLine
  6
CONTINUOUS
 62
8
 10
458.657508
 20
568.459619
 11
501.342192
 21
581.308611
  0
LINE
  8
CutLine
  6
CONTINUOUS
 62
8
 10
495.033208
 20
617.795430
 11
449.128293
 21
605.692343
  0
LINE
  8
CutLine
  6
CONTINUOUS
 62
8
 10
398.160389
 20
560.713123
 11
420.955721
 21
560.886030
  0
LINE
  8
CutLine
  6
CONTINUOUS
 62
8
 10
411.975115
 20
602.855603
 11
390.489724
 21
605.468910
  0
LINE
  8
CutLine
  6
CONTINUOUS
 62
8
 10
372.809944
 20
561.799195
 11
398.160389
 21
560.713123
  0
LINE
  8
CutLine
  6
CONTINUOUS
 62
8
 10
390.489724
 20
605.468910
 11
365.801233
 21
609.937564
  0
LINE
  8
CutLine
  6
CONTINUOUS
 62
8
 10
365.801233
 20
609.937564
 11
309.550292
 21
623.547705
  0
LINE
  8
CutLine
  6
CONTINUOUS
 62
8
 10
322.324868
 20
571.891808
 11
372.809944
 21
561.799195
  0
LINE
  8
CutLine
  6
CONTINUOUS
 62
8
 10
420.955721
 20
560.886030
 11
458.657508
 21
568.459619
  0
LINE
  8
CutLine
  6
CONTINUOUS
 62
8
 10
449.128293
 20
605.692343
 11
411.975115
 21
602.855603
  0
LINE
  8
CutLine
  6
CONTINUOUS
 62
8
 10
309.550292
 20
623.547705
 11
322.324868
 21
571.891808
  0
LINE
  8
CutLine
  6
CONTINUOUS
 62
8
 10
1074.935931
 20
561.899866
 11
1125.433178
 21
571.913189
  0
LINE
  8
CutLine
  6
CONTINUOUS
 62
8
 10
1125.433178
 20
571.913189
 11
1126.927456
 21
573.415362
  0
LINE
  8
CutLine
  6
CONTINUOUS
 62
8
 10
1126.927456
 20
573.415362
 11
1138.348799
 21
623.547705
  0
LINE
  8
CutLine
  6
CONTINUOUS
 62
8
 10
1138.348799
 20
623.547705
 11
1082.084280
 21
610.005289
  0
LINE
  8
CutLine
  6
CONTINUOUS
 62
8
 10
1049.574365
 20
560.822709
 11
1074.935931
 21
561.899866
  0
LINE
  8
CutLine
  6
CONTINUOUS
 62
8
 10
1082.084280
 20
610.005289
 11
1057.348072
 21
605.557752
  0
LINE
  8
CutLine
  6
CONTINUOUS
 62
8
 10
1035.809504
 20
602.953080
 11
998.590166
 21
605.788976
  0
LINE
  8
CutLine
  6
CONTINUOUS
 62
8
 10
1026.778502
 20
560.992599
 11
1049.574365
 21
560.822709
  0
LINE
  8
CutLine
  6
CONTINUOUS
 62
8
 10
1057.348072
 20
605.557752
 11
1035.809504
 21
602.953080
  0
LINE
  8
CutLine
  6
CONTINUOUS
 62
8
 10
765.243223
 20
686.837439
 11
723.844951
 21
687.155894
  0
LINE
  8
CutLine
  6
CONTINUOUS
 62
8
 10
723.850348
 20
655.492823
 11
765.067191
 21
655.109138
  0
LINE
  8
CutLine
  6
CONTINUOUS
 62
8
 10
804.983294
 20
680.212881
 11
765.243223
 21
686.837439
  0
LINE
  8
CutLine
  6
CONTINUOUS
 62
8
 10
765.067191
 20
655.109138
 11
797.186952
 21
649.078160
  0
LINE
  8
CutLine
  6
CONTINUOUS
 62
8
 10
797.186952
 20
649.078160
 11
808.145948
 21
643.781290
  0
LINE
  8
CutLine
  6
CONTINUOUS
 62
8
 10
817.553868
 20
674.490803
 11
804.983294
 21
680.212881
  0
LINE
  8
CutLine
  6
CONTINUOUS
 62
8
 10
858.486614
 20
652.184399
 11
817.553868
 21
674.490803
  0
LINE
  8
CutLine
  6
CONTINUOUS
 62
8
 10
808.145948
 20
643.781290
 11
847.935408
 21
621.656789
  0
LINE
  8
MountainLine
  6
CONTINUOUS
 62
5
 10
847.935408
 20
621.656789
 11
858.486614
 21
652.184399
  0
LINE
  8
CutLine
  6
CONTINUOUS
 62
8
 10
989.074078
 20
568.552894
 11
1026.778502
 21
560.992599
  0
LINE
  8
CutLine
  6
CONTINUOUS
 62
8
 10
998.590166
 20
605.788976
 11
952.680963
 21
617.875873
  0
LINE
  8
CutLine
  6
CONTINUOUS
 62
8
 10
847.935408
 20
621.656789
 11
912.785399
 21
593.457310
  0
LINE
  8
CutLine
  6
CONTINUOUS
 62
8
 10
922.386377
 20
628.253959
 11
858.486614
 21
652.184399
  0
LINE
  8
CutLine
  6
CONTINUOUS
 62
8
 10
952.680963
 20
617.875873
 11
922.386377
 21
628.253959
  0
LINE
  8
CutLine
  6
CONTINUOUS
 62
8
 10
912.785399
 20
593.457310
 11
946.384845
 21
581.386848
  0
LINE
  8
CutLine
  6
CONTINUOUS
 62
8
 10
946.384845
 20
581.386848
 11
989.074078
 21
568.552894
  0
LINE
  8
CutLine
  6
CONTINUOUS
 62
8
 10
861.807486
 20
606.236943
 11
822.849534
 21
629.925024
  0
LINE
  8
CutLine
  6
CONTINUOUS
 62
8
 10
765.270082
 20
645.108517
 11
723.477828
 21
645.713626
  0
LINE
  8
CutLine
  6
CONTINUOUS
 62
8
 10
765.241945
 20
637.755490
 11
805.474284
 21
629.697042
  0
LINE
  8
CutLine
  6
CONTINUOUS
 62
8
 10
805.474284
 20
629.697042
 11
818.033754
 21
622.965233
  0
LINE
  8
CutLine
  6
CONTINUOUS
 62
8
 10
818.033754
 20
622.965233
 11
857.963802
 21
597.671742
  0
LINE
  8
CutLine
  6
CONTINUOUS
 62
8
 10
807.907026
 20
636.631608
 11
765.270082
 21
645.108517
  0
LINE
  8
CutLine
  6
CONTINUOUS
 62
8
 10
822.849534
 20
629.925024
 11
807.907026
 21
636.631608
  0
LINE
  8
CutLine
  6
CONTINUOUS
 62
8
 10
723.479333
 20
638.353267
 11
765.241945
 21
637.755490
  0
LINE
  8
CutLine
  6
CONTINUOUS
 62
8
 10
921.010671
 20
568.063214
 11
950.628911
 21
553.800083
  0
LINE
  8
CutLine
  6
CONTINUOUS
 62
8
 10
857.963802
 20
597.671742
 11
921.010671
 21
568.063214
  0
LINE
  8
CutLine
  6
CONTINUOUS
 62
8
 10
954.230424
 20
563.372922
 11
924.746504
 21
577.380709
  0
LINE
  8
CutLine
  6
CONTINUOUS
 62
8
 10
1030.118737
 20
518.881208
 11
1054.074142
 21
513.854393
  0
LINE
  8
CutLine
  6
CONTINUOUS
 62
8
 10
1059.817511
 20
523.622315
 11
1036.443959
 21
528.723995
  0
LINE
  8
CutLine
  6
CONTINUOUS
 62
8
 10
950.628911
 20
553.800083
 11
993.893595
 21
532.850183
  0
LINE
  8
CutLine
  6
CONTINUOUS
 62
8
 10
993.893595
 20
532.850183
 11
1030.118737
 21
518.881208
  0
LINE
  8
CutLine
  6
CONTINUOUS
 62
8
 10
999.055801
 20
542.601163
 11
954.230424
 21
563.372922
  0
LINE
  8
CutLine
  6
CONTINUOUS
 62
8
 10
1134.997020
 20
500.796860
 11
1141.986204
 21
513.438463
  0
LINE
  8
CutLine
  6
CONTINUOUS
 62
8
 10
1141.986204
 20
513.438463
 11
1081.857242
 21
519.733439
  0
LINE
  8
CutLine
  6
CONTINUOUS
 62
8
 10
1077.060054
 20
509.671742
 11
1134.997020
 21
500.796860
  0
LINE
  8
CutLine
  6
CONTINUOUS
 62
8
 10
1054.074142
 20
513.854393
 11
1077.060054
 21
509.671742
  0
LINE
  8
CutLine
  6
CONTINUOUS
 62
8
 10
1081.857242
 20
519.733439
 11
1059.817511
 21
523.622315
  0
LINE
  8
CutLine
  6
CONTINUOUS
 62
8
 10
1036.443959
 20
528.723995
 11
999.055801
 21
542.601163
  0
LINE
  8
CutLine
  6
CONTINUOUS
 62
8
 10
924.746504
 20
577.380709
 11
861.807486
 21
606.236943
  0
LINE
  8
CutLine
  6
CONTINUOUS
 62
8
 10
681.717160
 20
637.736264
 11
723.479333
 21
638.353267
  0
LINE
  8
CutLine
  6
CONTINUOUS
 62
8
 10
641.488448
 20
629.660014
 11
681.717160
 21
637.736264
  0
LINE
  8
CutLine
  6
CONTINUOUS
 62
8
 10
628.931993
 20
622.922542
 11
641.488448
 21
629.660014
  0
LINE
  8
CutLine
  6
CONTINUOUS
 62
8
 10
624.113238
 20
629.880175
 11
585.165827
 21
606.174605
  0
LINE
  8
CutLine
  6
CONTINUOUS
 62
8
 10
589.013288
 20
597.611108
 11
628.931993
 21
622.922542
  0
LINE
  8
CutLine
  6
CONTINUOUS
 62
8
 10
681.685690
 20
645.089585
 11
639.052574
 21
636.593471
  0
LINE
  8
CutLine
  6
CONTINUOUS
 62
8
 10
723.477828
 20
645.713626
 11
681.685690
 21
645.089585
  0
LINE
  8
CutLine
  6
CONTINUOUS
 62
8
 10
639.052574
 20
636.593471
 11
624.113238
 21
629.880175
  0
LINE
  8
CutLine
  6
CONTINUOUS
 62
8
 10
393.053956
 20
513.769869
 11
416.955388
 21
518.768620
  0
LINE
  8
CutLine
  6
CONTINUOUS
 62
8
 10
410.666488
 20
528.625945
 11
387.335002
 21
523.549401
  0
LINE
  8
CutLine
  6
CONTINUOUS
 62
8
 10
312.151971
 20
500.796860
 11
370.100531
 21
509.617546
  0
LINE
  8
CutLine
  6
CONTINUOUS
 62
8
 10
365.317677
 20
519.685994
 11
305.182551
 21
513.453225
  0
LINE
  8
CutLine
  6
CONTINUOUS
 62
8
 10
370.100531
 20
509.617546
 11
393.053956
 21
513.769869
  0
LINE
  8
CutLine
  6
CONTINUOUS
 62
8
 10
387.335002
 20
523.549401
 11
365.317677
 21
519.685994
  0
LINE
  8
CutLine
  6
CONTINUOUS
 62
8
 10
585.165827
 20
606.174605
 11
522.239898
 21
577.289947
  0
LINE
  8
CutLine
  6
CONTINUOUS
 62
8
 10
496.368057
 20
553.697674
 11
525.979838
 21
567.974151
  0
LINE
  8
CutLine
  6
CONTINUOUS
 62
8
 10
522.239898
 20
577.289947
 11
492.762277
 21
563.268908
  0
LINE
  8
CutLine
  6
CONTINUOUS
 62
8
 10
453.112851
 20
532.728326
 11
496.368057
 21
553.697674
  0
LINE
  8
CutLine
  6
CONTINUOUS
 62
8
 10
492.762277
 20
563.268908
 11
447.947580
 21
542.477617
  0
LINE
  8
CutLine
  6
CONTINUOUS
 62
8
 10
416.955388
 20
518.768620
 11
453.112851
 21
532.728326
  0
LINE
  8
CutLine
  6
CONTINUOUS
 62
8
 10
447.947580
 20
542.477617
 11
410.666488
 21
528.625945
  0
LINE
  8
CutLine
  6
CONTINUOUS
 62
8
 10
525.979838
 20
567.974151
 11
589.013288
 21
597.611108
  0
LINE
  8
CutLine
  6
CONTINUOUS
 62
8
 10
305.182551
 20
513.453225
 11
312.151971
 21
500.796860
  0
LINE
  8
CutLine
  6
CONTINUOUS
 62
8
 10
297.203811
 20
297.210634
 11
279.313883
 21
283.680964
  0
LINE
  8
CutLine
  6
CONTINUOUS
 62
8
 10
279.313883
 20
283.680964
 11
279.313883
 21
153.892364
  0
LINE
  8
CutLine
  6
CONTINUOUS
 62
8
 10
279.313883
 20
153.892364
 11
297.203811
 21
297.210634
  0
LINE
  8
CutLine
  6
CONTINUOUS
 62
8
 10
281.684710
 20
145.585600
 11
297.426070
 21
129.596749
  0
LINE
  8
CutLine
  6
CONTINUOUS
 62
8
 10
300.655244
 20
273.996850
 11
281.684710
 21
145.585600
  0
LINE
  8
CutLine
  6
CONTINUOUS
 62
8
 10
297.426070
 20
129.596749
 11
300.655244
 21
273.996850
  0
LINE
  8
CutLine
  6
CONTINUOUS
 62
8
 10
684.114135
 20
741.374657
 11
725.877509
 21
741.294432
  0
LINE
  8
CutLine
  6
CONTINUOUS
 62
8
 10
725.898432
 20
750.936961
 11
684.214959
 21
750.972755
  0
LINE
  8
CutLine
  6
CONTINUOUS
 62
8
 10
652.251388
 20
737.300574
 11
684.114135
 21
741.374657
  0
LINE
  8
CutLine
  6
CONTINUOUS
 62
8
 10
684.214959
 20
750.972755
 11
650.948670
 21
746.835082
  0
LINE
  8
CutLine
  6
CONTINUOUS
 62
8
 10
599.994290
 20
715.327670
 11
639.234108
 21
732.957168
  0
LINE
  8
CutLine
  6
CONTINUOUS
 62
8
 10
650.948670
 20
746.835082
 11
639.242770
 21
742.432877
  0
LINE
  8
CutLine
  6
CONTINUOUS
 62
8
 10
639.234108
 20
732.957168
 11
652.251388
 21
737.300574
  0
LINE
  8
CutLine
  6
CONTINUOUS
 62
8
 10
639.242770
 20
742.432877
 11
596.348492
 21
725.022137
  0
LINE
  8
CutLine
  6
CONTINUOUS
 62
8
 10
529.273381
 20
693.411884
 11
599.994290
 21
715.327670
  0
LINE
  8
CutLine
  6
CONTINUOUS
 62
8
 10
527.126149
 20
705.023648
 11
491.337138
 21
697.516803
  0
LINE
  8
CutLine
  6
CONTINUOUS
 62
8
 10
491.520951
 20
685.474289
 11
529.273381
 21
693.411884
  0
LINE
  8
CutLine
  6
CONTINUOUS
 62
8
 10
596.348492
 20
725.022137
 11
527.126149
 21
705.023648
  0
LINE
  8
CutLine
  6
CONTINUOUS
 62
8
 10
447.180997
 20
679.080891
 11
491.520951
 21
685.474289
  0
LINE
  8
CutLine
  6
CONTINUOUS
 62
8
 10
382.460032
 20
682.880016
 11
406.159781
 21
678.205708
  0
LINE
  8
CutLine
  6
CONTINUOUS
 62
8
 10
406.601897
 20
690.361307
 11
382.410194
 21
695.123419
  0
LINE
  8
CutLine
  6
CONTINUOUS
 62
8
 10
356.737854
 20
689.282787
 11
382.460032
 21
682.880016
  0
LINE
  8
CutLine
  6
CONTINUOUS
 62
8
 10
382.410194
 20
695.123419
 11
358.677581
 21
700.894751
  0
LINE
  8
CutLine
  6
CONTINUOUS
 62
8
 10
301.087550
 20
716.864942
 11
356.737854
 21
689.282787
  0
LINE
  8
CutLine
  6
CONTINUOUS
 62
8
 10
311.796445
 20
723.443367
 11
310.749099
 21
725.284150
  0
LINE
  8
CutLine
  6
CONTINUOUS
 62
8
 10
310.749099
 20
725.284150
 11
301.087550
 21
716.864942
  0
LINE
  8
CutLine
  6
CONTINUOUS
 62
8
 10
358.677581
 20
700.894751
 11
311.796445
 21
723.443367
  0
LINE
  8
CutLine
  6
CONTINUOUS
 62
8
 10
406.159781
 20
678.205708
 11
447.180997
 21
679.080891
  0
LINE
  8
CutLine
  6
CONTINUOUS
 62
8
 10
446.580818
 20
691.252006
 11
406.601897
 21
690.361307
  0
LINE
  8
CutLine
  6
CONTINUOUS
 62
8
 10
491.337138
 20
697.516803
 11
446.580818
 21
691.252006
  0
LINE
  8
CutLine
  6
CONTINUOUS
 62
8
 10
767.581822
 20
750.790463
 11
725.898432
 21
750.936961
  0
LINE
  8
CutLine
  6
CONTINUOUS
 62
8
 10
725.877509
 20
741.294432
 11
767.640673
 21
741.192017
  0
LINE
  8
CutLine
  6
CONTINUOUS
 62
8
 10
800.829707
 20
746.507299
 11
767.581822
 21
750.790463
  0
LINE
  8
CutLine
  6
CONTINUOUS
 62
8
 10
767.640673
 20
741.192017
 11
799.485292
 21
736.978259
  0
LINE
  8
CutLine
  6
CONTINUOUS
 62
8
 10
855.333942
 20
724.455718
 11
812.516257
 21
742.053929
  0
LINE
  8
CutLine
  6
CONTINUOUS
 62
8
 10
812.483485
 20
732.577948
 11
851.645792
 21
714.777292
  0
LINE
  8
CutLine
  6
CONTINUOUS
 62
8
 10
812.516257
 20
742.053929
 11
800.829707
 21
746.507299
  0
LINE
  8
CutLine
  6
CONTINUOUS
 62
8
 10
799.485292
 20
736.978259
 11
812.483485
 21
732.577948
  0
LINE
  8
CutLine
  6
CONTINUOUS
 62
8
 10
1150.570291
 20
714.977320
 11
1140.950791
 21
723.443367
  0
LINE
  8
CutLine
  6
CONTINUOUS
 62
8
 10
1140.950791
 20
723.443367
 11
1139.894575
 21
721.607603
  0
LINE
  8
CutLine
  6
CONTINUOUS
 62
8
 10
1094.786114
 20
687.667164
 11
1150.570291
 21
714.977320
  0
LINE
  8
CutLine
  6
CONTINUOUS
 62
8
 10
1139.894575
 20
721.607603
 11
1092.908801
 21
699.286089
  0
LINE
  8
CutLine
  6
CONTINUOUS
 62
8
 10
1069.036049
 20
681.377526
 11
1094.786114
 21
687.667164
  0
LINE
  8
CutLine
  6
CONTINUOUS
 62
8
 10
1092.908801
 20
699.286089
 11
1069.140720
 21
693.620517
  0
LINE
  8
CutLine
  6
CONTINUOUS
 62
8
 10
1004.298998
 20
677.862016
 11
1045.316042
 21
676.806792
  0
LINE
  8
CutLine
  6
CONTINUOUS
 62
8
 10
1044.927155
 20
688.964565
 11
1004.952497
 21
690.030384
  0
LINE
  8
CutLine
  6
CONTINUOUS
 62
8
 10
959.987547
 20
684.449553
 11
1004.298998
 21
677.862016
  0
LINE
  8
CutLine
  6
CONTINUOUS
 62
8
 10
1045.316042
 20
676.806792
 11
1069.036049
 21
681.377526
  0
LINE
  8
CutLine
  6
CONTINUOUS
 62
8
 10
1069.140720
 20
693.620517
 11
1044.927155
 21
688.964565
  0
LINE
  8
CutLine
  6
CONTINUOUS
 62
8
 10
922.270188
 20
692.552273
 11
959.987547
 21
684.449553
  0
LINE
  8
CutLine
  6
CONTINUOUS
 62
8
 10
924.468215
 20
704.154531
 11
855.333942
 21
724.455718
  0
LINE
  8
CutLine
  6
CONTINUOUS
 62
8
 10
851.645792
 20
714.777292
 11
922.270188
 21
692.552273
  0
LINE
  8
CutLine
  6
CONTINUOUS
 62
8
 10
1004.952497
 20
690.030384
 11
960.224038
 21
696.491166
  0
LINE
  8
CutLine
  6
CONTINUOUS
 62
8
 10
960.224038
 20
696.491166
 11
924.468215
 21
704.154531
  0
LINE
  8
CutLine
  6
CONTINUOUS
 62
8
 10
384.447418
 20
191.164993
 11
370.535128
 21
276.574205
  0
LINE
  8
CutLine
  6
CONTINUOUS
 62
8
 10
370.535128
 20
276.574205
 11
370.535128
 21
132.143682
  0
LINE
  8
CutLine
  6
CONTINUOUS
 62
8
 10
380.614275
 20
140.058186
 11
384.447418
 21
191.164993
  0
LINE
  8
CutLine
  6
CONTINUOUS
 62
8
 10
370.535128
 20
132.143682
 11
380.614275
 21
140.058186
  0
LINE
  8
CutLine
  6
CONTINUOUS
 62
8
 10
367.509175
 20
276.153349
 11
353.647374
 21
190.747862
  0
LINE
  8
CutLine
  6
CONTINUOUS
 62
8
 10
353.647374
 20
190.747862
 11
357.429914
 21
139.630250
  0
LINE
  8
CutLine
  6
CONTINUOUS
 62
8
 10
367.509175
 20
131.717146
 11
367.509175
 21
276.153349
  0
LINE
  8
CutLine
  6
CONTINUOUS
 62
8
 10
357.429914
 20
139.630250
 11
367.509175
 21
131.717146
  0
LINE
  8
CutLine
  6
CONTINUOUS
 62
8
 10
291.434377
 20
612.580091
 11
289.262108
 21
614.642368
  0
LINE
  8
CutLine
  6
CONTINUOUS
 62
8
 10
289.262108
 20
614.642368
 11
277.185462
 21
643.100023
  0
LINE
  8
CutLine
  6
CONTINUOUS
 62
8
 10
389.767456
 20
617.023890
 11
427.990872
 21
618.407283
  0
LINE
  8
CutLine
  6
CONTINUOUS
 62
8
 10
424.751718
 20
633.294966
 11
385.292753
 21
633.729837
  0
LINE
  8
CutLine
  6
CONTINUOUS
 62
8
 10
366.975903
 20
620.354311
 11
389.767456
 21
617.023890
  0
LINE
  8
CutLine
  6
CONTINUOUS
 62
8
 10
385.292753
 20
633.729837
 11
361.498726
 21
639.391759
  0
LINE
  8
CutLine
  6
CONTINUOUS
 62
8
 10
342.911294
 20
626.007862
 11
366.975903
 21
620.354311
  0
LINE
  8
CutLine
  6
CONTINUOUS
 62
8
 10
361.498726
 20
639.391759
 11
340.181983
 21
646.036058
  0
LINE
  8
CutLine
  6
CONTINUOUS
 62
8
 10
477.610517
 20
645.774809
 11
424.751718
 21
633.294966
  0
LINE
  8
CutLine
  6
CONTINUOUS
 62
8
 10
427.990872
 20
618.407283
 11
480.499083
 21
631.226298
  0
LINE
  8
CutLine
  6
CONTINUOUS
 62
8
 10
506.846169
 20
653.987992
 11
477.610517
 21
645.774809
  0
LINE
  8
CutLine
  6
CONTINUOUS
 62
8
 10
480.499083
 20
631.226298
 11
508.986663
 21
639.562411
  0
LINE
  8
CutLine
  6
CONTINUOUS
 62
8
 10
277.185462
 20
643.100023
 11
278.245367
 21
644.366290
  0
LINE
  8
CutLine
  6
CONTINUOUS
 62
8
 10
278.245367
 20
644.366290
 11
342.911294
 21
626.007862
  0
LINE
  8
CutLine
  6
CONTINUOUS
 62
8
 10
340.181983
 20
646.036058
 11
251.576678
 21
673.993106
  0
LINE
  8
CutLine
  6
CONTINUOUS
 62
8
 10
508.986663
 20
639.562411
 11
575.934183
 21
660.357169
  0
LINE
  8
CutLine
  6
CONTINUOUS
 62
8
 10
569.418026
 20
683.802897
 11
506.846169
 21
653.987992
  0
LINE
  8
CutLine
  6
CONTINUOUS
 62
8
 10
631.676682
 20
723.869311
 11
623.360558
 21
722.911983
  0
LINE
  8
CutLine
  6
CONTINUOUS
 62
8
 10
617.728906
 20
677.816518
 11
634.387288
 21
685.282080
  0
LINE
  8
CutLine
  6
CONTINUOUS
 62
8
 10
575.934183
 20
660.357169
 11
617.728906
 21
677.816518
  0
LINE
  8
CutLine
  6
CONTINUOUS
 62
8
 10
623.360558
 20
722.911983
 11
569.418026
 21
683.802897
  0
LINE
  8
CutLine
  6
CONTINUOUS
 62
8
 10
683.002623
 20
725.157023
 11
657.682484
 21
725.011493
  0
LINE
  8
CutLine
  6
CONTINUOUS
 62
8
 10
634.387288
 20
685.282080
 11
684.101827
 21
691.495612
  0
LINE
  8
CutLine
  6
CONTINUOUS
 62
8
 10
657.682484
 20
725.011493
 11
631.676682
 21
723.869311
  0
LINE
  8
CutLine
  6
CONTINUOUS
 62
8
 10
684.101827
 20
691.495612
 11
725.949392
 21
691.557124
  0
LINE
  8
CutLine
  6
CONTINUOUS
 62
8
 10
725.949396
 20
725.142253
 11
683.002623
 21
725.157023
  0
LINE
  8
CutLine
  6
CONTINUOUS
 62
8
 10
251.576678
 20
673.993106
 11
293.472010
 21
598.276090
  0
LINE
  8
CutLine
  6
CONTINUOUS
 62
8
 10
293.472010
 20
598.276090
 11
291.434377
 21
612.580091
  0
LINE
  8
CutLine
  6
CONTINUOUS
 62
8
 10
1174.900814
 20
643.121127
 11
1162.827934
 21
614.661554
  0
LINE
  8
CutLine
  6
CONTINUOUS
 62
8
 10
1162.827934
 20
614.661554
 11
1160.655070
 21
612.600435
  0
LINE
  8
CutLine
  6
CONTINUOUS
 62
8
 10
1027.173496
 20
633.288249
 11
974.288195
 21
645.774719
  0
LINE
  8
CutLine
  6
CONTINUOUS
 62
8
 10
971.399621
 20
631.226209
 11
1023.931911
 21
618.401459
  0
LINE
  8
CutLine
  6
CONTINUOUS
 62
8
 10
1085.128263
 20
620.305847
 11
1109.191050
 21
625.967477
  0
LINE
  8
CutLine
  6
CONTINUOUS
 62
8
 10
1111.888407
 20
645.997489
 11
1090.574453
 21
639.347648
  0
LINE
  8
CutLine
  6
CONTINUOUS
 62
8
 10
1062.304162
 20
616.982036
 11
1085.128263
 21
620.305847
  0
LINE
  8
CutLine
  6
CONTINUOUS
 62
8
 10
1090.574453
 20
639.347648
 11
1066.771039
 21
633.689468
  0
LINE
  8
CutLine
  6
CONTINUOUS
 62
8
 10
1066.771039
 20
633.689468
 11
1027.173496
 21
633.288249
  0
LINE
  8
CutLine
  6
CONTINUOUS
 62
8
 10
1023.931911
 20
618.401459
 11
1062.304162
 21
616.982036
  0
LINE
  8
CutLine
  6
CONTINUOUS
 62
8
 10
1109.191050
 20
625.967477
 11
1173.839669
 21
644.386358
  0
LINE
  8
CutLine
  6
CONTINUOUS
 62
8
 10
1200.441091
 20
674.034750
 11
1111.888407
 21
645.997489
  0
LINE
  8
CutLine
  6
CONTINUOUS
 62
8
 10
1173.839669
 20
644.386358
 11
1174.900814
 21
643.121127
  0
LINE
  8
CutLine
  6
CONTINUOUS
 62
8
 10
974.288195
 20
645.774719
 11
945.052504
 21
653.987641
  0
LINE
  8
CutLine
  6
CONTINUOUS
 62
8
 10
942.911918
 20
639.562047
 11
971.399621
 21
631.226209
  0
LINE
  8
CutLine
  6
CONTINUOUS
 62
8
 10
875.964448
 20
660.357159
 11
942.911918
 21
639.562047
  0
LINE
  8
CutLine
  6
CONTINUOUS
 62
8
 10
945.052504
 20
653.987641
 11
882.480589
 21
683.802563
  0
LINE
  8
CutLine
  6
CONTINUOUS
 62
8
 10
828.538172
 20
722.911983
 11
820.221931
 21
723.869309
  0
LINE
  8
CutLine
  6
CONTINUOUS
 62
8
 10
817.511335
 20
685.282074
 11
834.169742
 21
677.816512
  0
LINE
  8
CutLine
  6
CONTINUOUS
 62
8
 10
834.169742
 20
677.816512
 11
875.964448
 21
660.357159
  0
LINE
  8
CutLine
  6
CONTINUOUS
 62
8
 10
794.216142
 20
725.011482
 11
768.896168
 21
725.157009
  0
LINE
  8
CutLine
  6
CONTINUOUS
 62
8
 10
767.796796
 20
691.495605
 11
817.511335
 21
685.282074
  0
LINE
  8
CutLine
  6
CONTINUOUS
 62
8
 10
820.221931
 20
723.869309
 11
794.216142
 21
725.011482
  0
LINE
  8
CutLine
  6
CONTINUOUS
 62
8
 10
882.480589
 20
683.802563
 11
828.538172
 21
722.911983
  0
LINE
  8
CutLine
  6
CONTINUOUS
 62
8
 10
725.949392
 20
691.557124
 11
767.796796
 21
691.495605
  0
LINE
  8
CutLine
  6
CONTINUOUS
 62
8
 10
768.896168
 20
725.157009
 11
725.949396
 21
725.142253
  0
LINE
  8
CutLine
  6
CONTINUOUS
 62
8
 10
1158.597222
 20
598.302740
 11
1200.441091
 21
674.034750
  0
LINE
  8
CutLine
  6
CONTINUOUS
 62
8
 10
1160.655070
 20
612.600435
 11
1158.597222
 21
598.302740
  0
LINE
  8
CutLine
  6
CONTINUOUS
 62
8
 10
141.349994
 20
257.762772
 11
143.235252
 21
260.358144
  0
LINE
  8
CutLine
  6
CONTINUOUS
 62
8
 10
143.235252
 20
260.358144
 11
13.101501
 21
279.425843
  0
LINE
  8
CutLine
  6
CONTINUOUS
 62
8
 10
350.937367
 20
100.045414
 11
315.531076
 21
91.668829
  0
LINE
  8
CutLine
  6
CONTINUOUS
 62
8
 10
405.387249
 20
124.487560
 11
383.257150
 21
111.420498
  0
LINE
  8
CutLine
  6
CONTINUOUS
 62
8
 10
425.938978
 20
138.666273
 11
405.387249
 21
124.487560
  0
LINE
  8
CutLine
  6
CONTINUOUS
 62
8
 10
383.257150
 20
111.420498
 11
350.937367
 21
100.045414
  0
LINE
  8
CutLine
  6
CONTINUOUS
 62
8
 10
503.620526
 20
223.375189
 11
476.465290
 21
187.633917
  0
LINE
  8
CutLine
  6
CONTINUOUS
 62
8
 10
564.791369
 20
170.130423
 11
600.749095
 21
207.036216
  0
LINE
  8
CutLine
  6
CONTINUOUS
 62
8
 10
530.754897
 20
132.128566
 11
564.791369
 21
170.130423
  0
LINE
  8
CutLine
  6
CONTINUOUS
 62
8
 10
485.337472
 20
66.861162
 11
505.925905
 21
97.812473
  0
LINE
  8
CutLine
  6
CONTINUOUS
 62
8
 10
450.854898
 20
160.532876
 11
425.938978
 21
138.666273
  0
LINE
  8
CutLine
  6
CONTINUOUS
 62
8
 10
505.925905
 20
97.812473
 11
530.754897
 21
132.128566
  0
LINE
  8
CutLine
  6
CONTINUOUS
 62
8
 10
476.465290
 20
187.633917
 11
450.854898
 21
160.532876
  0
LINE
  8
CutLine
  6
CONTINUOUS
 62
8
 10
452.960289
 20
55.177140
 11
485.337472
 21
66.861162
  0
LINE
  8
CutLine
  6
CONTINUOUS
 62
8
 10
419.587236
 20
49.099689
 11
452.960289
 21
55.177140
  0
LINE
  8
CutLine
  6
CONTINUOUS
 62
8
 10
377.414895
 20
40.937894
 11
419.587236
 21
49.099689
  0
LINE
  8
CutLine
  6
CONTINUOUS
 62
8
 10
327.375860
 20
32.214211
 11
377.414895
 21
40.937894
  0
LINE
  8
CutLine
  6
CONTINUOUS
 62
8
 10
525.950508
 20
254.750658
 11
503.620526
 21
223.375189
  0
LINE
  8
CutLine
  6
CONTINUOUS
 62
8
 10
544.769984
 20
281.570572
 11
525.950508
 21
254.750658
  0
LINE
  8
CutLine
  6
CONTINUOUS
 62
8
 10
600.749095
 20
207.036216
 11
676.275765
 21
279.425843
  0
LINE
  8
CutLine
  6
CONTINUOUS
 62
8
 10
676.275765
 20
279.425843
 11
544.769984
 21
281.570572
  0
LINE
  8
CutLine
  6
CONTINUOUS
 62
8
 10
315.531076
 20
91.668829
 11
282.983751
 21
88.491410
  0
LINE
  8
CutLine
  6
CONTINUOUS
 62
8
 10
283.934101
 20
32.301387
 11
327.375860
 21
32.214211
  0
LINE
  8
CutLine
  6
CONTINUOUS
 62
8
 10
282.983751
 20
88.491410
 11
242.586029
 21
86.172981
  0
LINE
  8
CutLine
  6
CONTINUOUS
 62
8
 10
191.039176
 20
94.811629
 11
161.332284
 21
113.592043
  0
LINE
  8
CutLine
  6
CONTINUOUS
 62
8
 10
242.586029
 20
86.172981
 11
191.039176
 21
94.811629
  0
LINE
  8
CutLine
  6
CONTINUOUS
 62
8
 10
126.487287
 20
80.387824
 11
148.829881
 21
59.821147
  0
LINE
  8
CutLine
  6
CONTINUOUS
 62
8
 10
161.332284
 20
113.592043
 11
135.258986
 21
137.726028
  0
LINE
  8
CutLine
  6
CONTINUOUS
 62
8
 10
84.958485
 20
115.390077
 11
126.487287
 21
80.387824
  0
LINE
  8
CutLine
  6
CONTINUOUS
 62
8
 10
50.133497
 20
168.631372
 11
60.903114
 21
146.671672
  0
LINE
  8
CutLine
  6
CONTINUOUS
 62
8
 10
117.544897
 20
174.732672
 11
119.240501
 21
198.950202
  0
LINE
  8
CutLine
  6
CONTINUOUS
 62
8
 10
119.240501
 20
198.950202
 11
128.619953
 21
231.685298
  0
LINE
  8
MountainLine
  6
CONTINUOUS
 62
5
 10
13.101501
 20
279.425843
 11
12.376710
 21
277.481465
  0
LINE
  8
CutLine
  6
CONTINUOUS
 62
8
 10
12.376710
 20
277.481465
 11
41.892385
 21
189.383102
  0
LINE
  8
CutLine
  6
CONTINUOUS
 62
8
 10
41.892385
 20
189.383102
 11
50.133497
 21
168.631372
  0
LINE
  8
CutLine
  6
CONTINUOUS
 62
8
 10
135.258986
 20
137.726028
 11
117.544897
 21
174.732672
  0
LINE
  8
CutLine
  6
CONTINUOUS
 62
8
 10
60.903114
 20
146.671672
 11
84.958485
 21
115.390077
  0
LINE
  8
CutLine
  6
CONTINUOUS
 62
8
 10
148.829881
 20
59.821147
 11
210.324374
 21
40.399073
  0
LINE
  8
CutLine
  6
CONTINUOUS
 62
8
 10
210.324374
 20
40.399073
 11
283.934101
 21
32.301387
  0
LINE
  8
CutLine
  6
CONTINUOUS
 62
8
 10
128.619953
 20
231.685298
 11
141.349994
 21
257.762772
  0
LINE
  8
CutLine
  6
CONTINUOUS
 62
8
 10
13.101501
 20
279.425843
 11
11.372073
 21
278.900564
  0
LINE
  8
CutLine
  6
CONTINUOUS
 62
8
 10
11.372073
 20
278.900564
 11
12.376710
 21
277.481465
  0
LINE
  8
CutLine
  6
CONTINUOUS
 62
8
 10
868.425324
 20
294.739130
 11
834.424141
 21
296.604662
  0
LINE
  8
CutLine
  6
CONTINUOUS
 62
8
 10
605.836088
 20
291.690101
 11
573.135154
 21
291.419446
  0
LINE
  8
CutLine
  6
CONTINUOUS
 62
8
 10
605.690758
 20
288.731021
 11
645.974495
 21
286.539969
  0
LINE
  8
CutLine
  6
CONTINUOUS
 62
8
 10
646.283824
 20
292.844108
 11
605.836088
 21
291.690101
  0
LINE
  8
CutLine
  6
CONTINUOUS
 62
8
 10
645.974495
 20
286.539969
 11
697.992579
 21
283.806141
  0
LINE
  8
CutLine
  6
CONTINUOUS
 62
8
 10
698.520924
 20
294.573159
 11
646.283824
 21
292.844108
  0
LINE
  8
CutLine
  6
CONTINUOUS
 62
8
 10
769.153666
 20
296.983170
 11
733.646035
 21
295.768974
  0
LINE
  8
CutLine
  6
CONTINUOUS
 62
8
 10
733.507909
 20
284.598216
 11
768.584771
 21
285.384518
  0
LINE
  8
CutLine
  6
CONTINUOUS
 62
8
 10
697.992579
 20
283.806141
 11
733.507909
 21
284.598216
  0
LINE
  8
CutLine
  6
CONTINUOUS
 62
8
 10
733.646035
 20
295.768974
 11
698.520924
 21
294.573159
  0
LINE
  8
CutLine
  6
CONTINUOUS
 62
8
 10
768.584771
 20
285.384518
 11
809.693315
 21
287.943582
  0
LINE
  8
CutLine
  6
CONTINUOUS
 62
8
 10
810.174318
 20
297.749170
 11
769.153666
 21
296.983170
  0
LINE
  8
CutLine
  6
CONTINUOUS
 62
8
 10
809.693315
 20
287.943582
 11
834.386485
 21
289.720535
  0
LINE
  8
CutLine
  6
CONTINUOUS
 62
8
 10
834.424141
 20
296.604662
 11
810.174318
 21
297.749170
  0
LINE
  8
CutLine
  6
CONTINUOUS
 62
8
 10
834.386485
 20
289.720535
 11
868.266055
 21
291.509391
  0
LINE
  8
CutLine
  6
CONTINUOUS
 62
8
 10
573.135154
 20
291.419446
 11
605.690758
 21
288.731021
  0
LINE
  8
CutLine
  6
CONTINUOUS
 62
8
 10
868.266055
 20
291.509391
 11
897.253579
 21
291.419446
  0
LINE
  8
CutLine
  6
CONTINUOUS
 62
8
 10
897.253579
 20
291.419446
 11
868.425324
 21
294.739130
  0
LINE
  8
CutLine
  6
CONTINUOUS
 62
8
 10
1134.119617
 20
288.448198
 11
1161.868152
 21
276.242627
  0
LINE
  8
CutLine
  6
CONTINUOUS
 62
8
 10
1161.868152
 20
276.242627
 11
1184.155646
 21
259.148602
  0
LINE
  8
CutLine
  6
CONTINUOUS
 62
8
 10
1184.155646
 20
259.148602
 11
1188.376431
 21
267.184444
  0
LINE
  8
CutLine
  6
CONTINUOUS
 62
8
 10
1188.376431
 20
267.184444
 11
1165.361395
 21
284.808085
  0
LINE
  8
CutLine
  6
CONTINUOUS
 62
8
 10
1165.361395
 20
284.808085
 11
1134.596784
 21
299.110671
  0
LINE
  8
CutLine
  6
CONTINUOUS
 62
8
 10
1072.039283
 20
287.528253
 11
1046.392841
 21
263.585311
  0
LINE
  8
CutLine
  6
CONTINUOUS
 62
8
 10
1076.012208
 20
278.747284
 11
1111.084592
 21
293.082678
  0
LINE
  8
CutLine
  6
CONTINUOUS
 62
8
 10
1110.165324
 20
303.112418
 11
1072.039283
 21
287.528253
  0
LINE
  8
CutLine
  6
CONTINUOUS
 62
8
 10
1111.084592
 20
293.082678
 11
1134.119617
 21
288.448198
  0
LINE
  8
CutLine
  6
CONTINUOUS
 62
8
 10
1134.596784
 20
299.110671
 11
1110.165324
 21
303.112418
  0
LINE
  8
CutLine
  6
CONTINUOUS
 62
8
 10
1052.711634
 20
257.404404
 11
1076.012208
 21
278.747284
  0
LINE
  8
CutLine
  6
CONTINUOUS
 62
8
 10
1026.576729
 20
183.163014
 11
1032.662669
 21
230.692649
  0
LINE
  8
CutLine
  6
CONTINUOUS
 62
8
 10
1024.914984
 20
235.289238
 11
1018.298764
 21
183.621255
  0
LINE
  8
CutLine
  6
CONTINUOUS
 62
8
 10
1032.662669
 20
230.692649
 11
1052.711634
 21
257.404404
  0
LINE
  8
CutLine
  6
CONTINUOUS
 62
8
 10
1046.392841
 20
263.585311
 11
1024.914984
 21
235.289238
  0
LINE
  8
CutLine
  6
CONTINUOUS
 62
8
 10
1056.520074
 20
123.517244
 11
1039.804483
 21
148.489003
  0
LINE
  8
CutLine
  6
CONTINUOUS
 62
8
 10
1032.678447
 20
145.927689
 11
1050.849894
 21
118.781906
  0
LINE
  8
CutLine
  6
CONTINUOUS
 62
8
 10
1039.804483
 20
148.489003
 11
1026.576729
 21
183.163014
  0
LINE
  8
CutLine
  6
CONTINUOUS
 62
8
 10
1018.298764
 20
183.621255
 11
1032.678447
 21
145.927689
  0
LINE
  8
CutLine
  6
CONTINUOUS
 62
8
 10
1199.969945
 20
234.234734
 11
1189.302138
 21
265.214135
  0
LINE
  8
CutLine
  6
CONTINUOUS
 62
8
 10
1183.351071
 20
259.780704
 11
1193.702063
 21
229.723949
  0
LINE
  8
CutLine
  6
CONTINUOUS
 62
8
 10
1082.079397
 20
101.908749
 11
1056.520074
 21
123.517244
  0
LINE
  8
CutLine
  6
CONTINUOUS
 62
8
 10
1110.836719
 20
90.295102
 11
1082.079397
 21
101.908749
  0
LINE
  8
CutLine
  6
CONTINUOUS
 62
8
 10
1133.576599
 20
94.851876
 11
1110.836719
 21
90.295102
  0
LINE
  8
CutLine
  6
CONTINUOUS
 62
8
 10
1154.543074
 20
104.566858
 11
1133.576599
 21
94.851876
  0
LINE
  8
CutLine
  6
CONTINUOUS
 62
8
 10
1177.407014
 20
125.254933
 11
1154.543074
 21
104.566858
  0
LINE
  8
CutLine
  6
CONTINUOUS
 62
8
 10
1195.813089
 20
154.498004
 11
1177.407014
 21
125.254933
  0
LINE
  8
CutLine
  6
CONTINUOUS
 62
8
 10
1200.164215
 20
194.893044
 11
1195.813089
 21
154.498004
  0
LINE
  8
CutLine
  6
CONTINUOUS
 62
8
 10
1193.702063
 20
229.723949
 11
1200.164215
 21
194.893044
  0
LINE
  8
CutLine
  6
CONTINUOUS
 62
8
 10
1206.995101
 20
196.370565
 11
1199.969945
 21
234.234734
  0
LINE
  8
CutLine
  6
CONTINUOUS
 62
8
 10
1201.847880
 20
151.779630
 11
1206.995101
 21
196.370565
  0
LINE
  8
CutLine
  6
CONTINUOUS
 62
8
 10
1182.181869
 20
120.099879
 11
1201.847880
 21
151.779630
  0
LINE
  8
CutLine
  6
CONTINUOUS
 62
8
 10
1157.877714
 20
97.555269
 11
1182.181869
 21
120.099879
  0
LINE
  8
CutLine
  6
CONTINUOUS
 62
8
 10
1135.421145
 20
86.641423
 11
1157.877714
 21
97.555269
  0
LINE
  8
CutLine
  6
CONTINUOUS
 62
8
 10
1110.165324
 20
81.884022
 11
1135.421145
 21
86.641423
  0
LINE
  8
CutLine
  6
CONTINUOUS
 62
8
 10
1078.634457
 20
95.291681
 11
1110.165324
 21
81.884022
  0
LINE
  8
CutLine
  6
CONTINUOUS
 62
8
 10
1050.849894
 20
118.781906
 11
1078.634457
 21
95.291681
  0
LINE
  8
CutLine
  6
CONTINUOUS
 62
8
 10
1189.302138
 20
265.214135
 11
1187.487751
 21
267.860163
  0
LINE
  8
CutLine
  6
CONTINUOUS
 62
8
 10
1187.487751
 20
267.860163
 11
1183.351071
 21
259.780704
  0
LINE
  8
CutLine
  6
CONTINUOUS
 62
8
 10
313.532792
 20
298.433556
 11
344.913124
 21
291.402356
  0
LINE
  8
CutLine
  6
CONTINUOUS
 62
8
 10
420.754166
 20
204.210399
 11
416.326396
 21
239.780968
  0
LINE
  8
CutLine
  6
CONTINUOUS
 62
8
 10
416.326396
 20
239.780968
 11
405.572160
 21
260.593350
  0
LINE
  8
CutLine
  6
CONTINUOUS
 62
8
 10
405.572160
 20
260.593350
 11
379.301608
 21
285.485229
  0
LINE
  8
CutLine
  6
CONTINUOUS
 62
8
 10
379.301608
 20
285.485229
 11
347.164344
 21
298.929439
  0
LINE
  8
CutLine
  6
CONTINUOUS
 62
8
 10
344.913124
 20
291.402356
 11
373.710150
 21
278.323102
  0
LINE
  8
CutLine
  6
CONTINUOUS
 62
8
 10
373.710150
 20
278.323102
 11
397.787820
 21
256.228152
  0
LINE
  8
CutLine
  6
CONTINUOUS
 62
8
 10
397.787820
 20
256.228152
 11
408.284631
 21
236.871952
  0
LINE
  8
CutLine
  6
CONTINUOUS
 62
8
 10
408.284631
 20
236.871952
 11
411.740656
 21
204.163806
  0
LINE
  8
CutLine
  6
CONTINUOUS
 62
8
 10
347.164344
 20
298.929439
 11
313.259049
 21
306.977647
  0
LINE
  8
CutLine
  6
CONTINUOUS
 62
8
 10
313.259049
 20
306.977647
 11
285.811861
 21
308.265698
  0
LINE
  8
CutLine
  6
CONTINUOUS
 62
8
 10
288.942990
 20
298.527096
 11
313.532792
 21
298.433556
  0
LINE
  8
CutLine
  6
CONTINUOUS
 62
8
 10
411.740656
 20
204.163806
 11
420.754166
 21
204.210399
  0
LINE
  8
CutLine
  6
CONTINUOUS
 62
8
 10
313.258982
 20
100.071297
 11
347.164339
 21
108.119184
  0
LINE
  8
CutLine
  6
CONTINUOUS
 62
8
 10
313.525241
 20
108.662530
 11
288.941620
 21
108.514766
  0
LINE
  8
CutLine
  6
CONTINUOUS
 62
8
 10
285.810454
 20
98.783367
 11
313.258982
 21
100.071297
  0
LINE
  8
CutLine
  6
CONTINUOUS
 62
8
 10
344.916882
 20
115.629653
 11
313.525241
 21
108.662530
  0
LINE
  8
CutLine
  6
CONTINUOUS
 62
8
 10
420.754955
 20
202.837366
 11
411.741444
 21
202.883722
  0
LINE
  8
CutLine
  6
CONTINUOUS
 62
8
 10
411.741444
 20
202.883722
 11
408.285241
 21
170.175769
  0
LINE
  8
CutLine
  6
CONTINUOUS
 62
8
 10
416.326937
 20
167.266678
 11
420.754955
 21
202.837366
  0
LINE
  8
CutLine
  6
CONTINUOUS
 62
8
 10
408.285241
 20
170.175769
 11
397.788037
 21
150.819669
  0
LINE
  8
CutLine
  6
CONTINUOUS
 62
8
 10
405.572372
 20
146.454397
 11
416.326937
 21
167.266678
  0
LINE
  8
CutLine
  6
CONTINUOUS
 62
8
 10
397.788037
 20
150.819669
 11
373.710220
 21
128.725270
  0
LINE
  8
CutLine
  6
CONTINUOUS
 62
8
 10
379.301662
 20
121.562929
 11
405.572372
 21
146.454397
  0
LINE
  8
CutLine
  6
CONTINUOUS
 62
8
 10
373.710220
 20
128.725270
 11
344.916882
 21
115.629653
  0
LINE
  8
CutLine
  6
CONTINUOUS
 62
8
 10
347.164339
 20
108.119184
 11
379.301662
 21
121.562929
  0
LINE
  8
CutLine
  6
CONTINUOUS
 62
8
 10
158.925736
 20
203.523390
 11
160.181835
 21
138.833635
  0
LINE
  8
CutLine
  6
CONTINUOUS
 62
8
 10
160.181835
 20
138.833635
 11
194.458124
 21
119.725452
  0
LINE
  8
CutLine
  6
CONTINUOUS
 62
8
 10
288.941620
 20
108.514766
 11
241.075823
 21
114.699101
  0
LINE
  8
CutLine
  6
CONTINUOUS
 62
8
 10
233.291005
 20
105.749172
 11
285.810454
 21
98.783367
  0
LINE
  8
CutLine
  6
CONTINUOUS
 62
8
 10
241.075823
 20
114.699101
 11
205.779053
 21
128.023340
  0
LINE
  8
CutLine
  6
CONTINUOUS
 62
8
 10
194.458124
 20
119.725452
 11
233.291005
 21
105.749172
  0
LINE
  8
CutLine
  6
CONTINUOUS
 62
8
 10
205.779053
 20
128.023340
 11
171.686528
 21
143.471226
  0
LINE
  8
CutLine
  6
CONTINUOUS
 62
8
 10
171.686528
 20
143.471226
 11
171.570052
 21
203.523495
  0
LINE
  8
CutLine
  6
CONTINUOUS
 62
8
 10
171.570052
 20
203.523495
 11
171.685708
 21
263.575766
  0
LINE
  8
CutLine
  6
CONTINUOUS
 62
8
 10
160.181835
 20
268.213343
 11
158.925736
 21
203.523390
  0
LINE
  8
CutLine
  6
CONTINUOUS
 62
8
 10
171.685708
 20
263.575766
 11
205.777864
 21
279.024297
  0
LINE
  8
CutLine
  6
CONTINUOUS
 62
8
 10
194.456893
 20
287.322143
 11
160.181835
 21
268.213343
  0
LINE
  8
CutLine
  6
CONTINUOUS
 62
8
 10
285.811861
 20
308.265698
 11
233.289574
 21
301.298956
  0
LINE
  8
CutLine
  6
CONTINUOUS
 62
8
 10
233.289574
 20
301.298956
 11
194.456893
 21
287.322143
  0
LINE
  8
CutLine
  6
CONTINUOUS
 62
8
 10
205.777864
 20
279.024297
 11
241.074606
 21
292.349327
  0
LINE
  8
CutLine
  6
CONTINUOUS
 62
8
 10
241.074606
 20
292.349327
 11
288.942990
 21
298.527096
  0
LINE
  8
CutLine
  6
CONTINUOUS
 62
8
 10
681.758549
 20
14.601880
 11
712.787795
 21
4.389037
  0
LINE
  8
CutLine
  6
CONTINUOUS
 62
8
 10
712.787795
 20
4.389037
 11
752.958493
 21
0.661696
  0
LINE
  8
CutLine
  6
CONTINUOUS
 62
8
 10
750.293732
 20
8.512412
 11
713.340699
 21
11.941249
  0
LINE
  8
CutLine
  6
CONTINUOUS
 62
8
 10
713.340699
 20
11.941249
 11
684.796959
 21
21.335596
  0
LINE
  8
CutLine
  6
CONTINUOUS
 62
8
 10
750.255031
 20
182.003031
 11
781.987289
 21
180.105658
  0
LINE
  8
CutLine
  6
CONTINUOUS
 62
8
 10
785.621875
 20
187.296892
 11
752.916265
 21
189.252314
  0
LINE
  8
CutLine
  6
CONTINUOUS
 62
8
 10
651.668824
 20
35.056193
 11
681.758549
 21
14.601880
  0
LINE
  8
CutLine
  6
CONTINUOUS
 62
8
 10
684.796959
 20
21.335596
 11
657.117409
 21
40.151799
  0
LINE
  8
CutLine
  6
CONTINUOUS
 62
8
 10
630.284851
 20
61.827201
 11
651.668824
 21
35.056193
  0
LINE
  8
CutLine
  6
CONTINUOUS
 62
8
 10
657.117409
 20
40.151799
 11
638.206797
 21
64.732909
  0
LINE
  8
CutLine
  6
CONTINUOUS
 62
8
 10
628.083927
 20
87.432805
 11
630.284851
 21
61.827201
  0
LINE
  8
CutLine
  6
CONTINUOUS
 62
8
 10
638.206797
 20
64.732909
 11
636.488372
 21
87.861143
  0
LINE
  8
CutLine
  6
CONTINUOUS
 62
8
 10
632.564992
 20
111.995513
 11
628.083927
 21
87.432805
  0
LINE
  8
CutLine
  6
CONTINUOUS
 62
8
 10
636.488372
 20
87.861143
 11
640.214594
 21
110.666677
  0
LINE
  8
CutLine
  6
CONTINUOUS
 62
8
 10
647.753520
 20
141.461797
 11
632.564992
 21
111.995513
  0
LINE
  8
CutLine
  6
CONTINUOUS
 62
8
 10
640.214594
 20
110.666677
 11
654.001382
 21
138.247179
  0
LINE
  8
CutLine
  6
CONTINUOUS
 62
8
 10
672.986710
 20
168.914260
 11
647.753520
 21
141.461797
  0
LINE
  8
CutLine
  6
CONTINUOUS
 62
8
 10
654.001382
 20
138.247179
 11
677.226100
 21
163.831398
  0
LINE
  8
CutLine
  6
CONTINUOUS
 62
8
 10
714.556828
 20
185.849070
 11
672.986710
 21
168.914260
  0
LINE
  8
CutLine
  6
CONTINUOUS
 62
8
 10
752.916265
 20
189.252314
 11
714.556828
 21
185.849070
  0
LINE
  8
CutLine
  6
CONTINUOUS
 62
8
 10
714.968083
 20
178.872514
 11
750.255031
 21
182.003031
  0
LINE
  8
CutLine
  6
CONTINUOUS
 62
8
 10
788.658591
 20
186.261620
 11
785.621875
 21
187.296892
  0
LINE
  8
CutLine
  6
CONTINUOUS
 62
8
 10
677.226100
 20
163.831398
 11
714.968083
 21
178.872514
  0
LINE
  8
CutLine
  6
CONTINUOUS
 62
8
 10
781.987289
 20
180.105658
 11
788.658591
 21
186.261620
  0
LINE
  8
CutLine
  6
CONTINUOUS
 62
8
 10
803.615320
 20
163.832782
 11
822.825335
 21
140.382112
  0
LINE
  8
CutLine
  6
CONTINUOUS
 62
8
 10
787.770168
 20
186.934081
 11
781.163273
 21
180.710099
  0
LINE
  8
CutLine
  6
CONTINUOUS
 62
8
 10
810.927784
 20
169.498220
 11
787.770168
 21
186.934081
  0
LINE
  8
CutLine
  6
CONTINUOUS
 62
8
 10
781.163273
 20
180.710099
 11
803.615320
 21
163.832782
  0
LINE
  8
CutLine
  6
CONTINUOUS
 62
8
 10
832.967853
 20
143.705607
 11
810.927784
 21
169.498220
  0
LINE
  8
CutLine
  6
CONTINUOUS
 62
8
 10
829.087804
 20
81.804344
 11
814.787401
 21
53.627527
  0
LINE
  8
CutLine
  6
CONTINUOUS
 62
8
 10
752.958493
 20
0.661696
 11
800.950939
 21
20.912202
  0
LINE
  8
CutLine
  6
CONTINUOUS
 62
8
 10
800.950939
 20
20.912202
 11
822.438322
 21
49.200992
  0
LINE
  8
CutLine
  6
CONTINUOUS
 62
8
 10
814.787401
 20
53.627527
 11
794.442030
 21
27.140760
  0
LINE
  8
CutLine
  6
CONTINUOUS
 62
8
 10
794.442030
 20
27.140760
 11
750.293732
 21
8.512412
  0
LINE
  8
CutLine
  6
CONTINUOUS
 62
8
 10
822.438322
 20
49.200992
 11
838.613167
 21
80.335813
  0
LINE
  8
CutLine
  6
CONTINUOUS
 62
8
 10
838.613167
 20
80.335813
 11
843.384541
 21
121.246648
  0
LINE
  8
CutLine
  6
CONTINUOUS
 62
8
 10
843.384541
 20
121.246648
 11
832.967853
 21
143.705607
  0
LINE
  8
CutLine
  6
CONTINUOUS
 62
8
 10
822.825335
 20
140.382112
 11
833.476721
 21
119.438132
  0
LINE
  8
CutLine
  6
CONTINUOUS
 62
8
 10
833.476721
 20
119.438132
 11
829.087804
 21
81.804344
  0
ENDSEC
  0
EOF
