  0
SECTION
  2
HEADER
  9
$ACADVER
  1
AC1009
  0
ENDSEC
  0
SECTION
  2
BLOCKS
  0
ENDSEC
  0
SECTION
  2
ENTITIES
  0
LINE
  8
CutLine
  6
CONTINUOUS
 62
8
 10
305.022856
 20
58.433345
 11
303.870003
 21
56.951748
  0
LINE
  8
CutLine
  6
CONTINUOUS
 62
8
 10
363.026586
 20
49.350529
 11
305.022856
 21
58.433345
  0
LINE
  8
CutLine
  6
CONTINUOUS
 62
8
 10
695.549596
 20
123.136535
 11
737.754423
 21
123.148960
  0
LINE
  8
CutLine
  6
CONTINUOUS
 62
8
 10
737.827228
 20
137.810285
 11
695.876952
 21
137.808192
  0
LINE
  8
CutLine
  6
CONTINUOUS
 62
8
 10
695.876952
 20
137.808192
 11
647.636206
 21
131.069917
  0
LINE
  8
CutLine
  6
CONTINUOUS
 62
8
 10
652.332074
 20
116.681339
 11
695.549596
 21
123.136535
  0
LINE
  8
CutLine
  6
CONTINUOUS
 62
8
 10
647.636206
 20
131.069917
 11
631.884715
 21
123.196726
  0
LINE
  8
CutLine
  6
CONTINUOUS
 62
8
 10
637.106700
 20
110.088562
 11
652.332074
 21
116.681339
  0
LINE
  8
CutLine
  6
CONTINUOUS
 62
8
 10
631.884715
 20
123.196726
 11
592.300764
 21
104.193806
  0
LINE
  8
CutLine
  6
CONTINUOUS
 62
8
 10
596.005514
 20
89.606945
 11
637.106700
 21
110.088562
  0
LINE
  8
CutLine
  6
CONTINUOUS
 62
8
 10
303.870003
 20
56.951748
 11
314.816433
 21
39.838065
  0
LINE
  8
CutLine
  6
CONTINUOUS
 62
8
 10
374.813580
 20
31.361470
 11
396.460590
 21
30.223098
  0
LINE
  8
CutLine
  6
CONTINUOUS
 62
8
 10
527.139487
 20
79.247807
 11
499.278632
 21
69.069875
  0
LINE
  8
CutLine
  6
CONTINUOUS
 62
8
 10
592.300764
 20
104.193806
 11
527.139487
 21
79.247807
  0
LINE
  8
CutLine
  6
CONTINUOUS
 62
8
 10
532.753225
 20
64.985341
 11
596.005514
 21
89.606945
  0
LINE
  8
CutLine
  6
CONTINUOUS
 62
8
 10
503.491106
 20
53.558683
 11
532.753225
 21
64.985341
  0
LINE
  8
CutLine
  6
CONTINUOUS
 62
8
 10
499.278632
 20
69.069875
 11
448.128088
 21
52.471127
  0
LINE
  8
CutLine
  6
CONTINUOUS
 62
8
 10
457.135750
 20
37.480378
 11
503.491106
 21
53.558683
  0
LINE
  8
CutLine
  6
CONTINUOUS
 62
8
 10
448.128088
 20
52.471127
 11
410.477034
 21
46.571500
  0
LINE
  8
CutLine
  6
CONTINUOUS
 62
8
 10
419.769290
 20
30.330025
 11
457.135750
 21
37.480378
  0
LINE
  8
CutLine
  6
CONTINUOUS
 62
8
 10
410.477034
 20
46.571500
 11
390.926269
 21
46.826931
  0
LINE
  8
CutLine
  6
CONTINUOUS
 62
8
 10
396.460590
 20
30.223098
 11
419.769290
 21
30.330025
  0
LINE
  8
CutLine
  6
CONTINUOUS
 62
8
 10
390.926269
 20
46.826931
 11
363.026586
 21
49.350529
  0
LINE
  8
CutLine
  6
CONTINUOUS
 62
8
 10
317.295408
 20
38.123741
 11
374.813580
 21
31.361470
  0
LINE
  8
CutLine
  6
CONTINUOUS
 62
8
 10
314.816433
 20
39.838065
 11
317.295408
 21
38.123741
  0
LINE
  8
CutLine
  6
CONTINUOUS
 62
8
 10
1160.033076
 20
35.485220
 11
1171.164813
 21
52.478938
  0
LINE
  8
CutLine
  6
CONTINUOUS
 62
8
 10
1157.535634
 20
33.797912
 11
1160.033076
 21
35.485220
  0
LINE
  8
CutLine
  6
CONTINUOUS
 62
8
 10
779.775566
 20
137.390649
 11
737.827228
 21
137.810285
  0
LINE
  8
CutLine
  6
CONTINUOUS
 62
8
 10
737.754423
 20
123.148960
 11
779.957038
 21
122.716453
  0
LINE
  8
CutLine
  6
CONTINUOUS
 62
8
 10
827.946870
 20
130.172527
 11
779.775566
 21
137.390649
  0
LINE
  8
CutLine
  6
CONTINUOUS
 62
8
 10
779.957038
 20
122.716453
 11
823.108005
 21
115.831415
  0
LINE
  8
CutLine
  6
CONTINUOUS
 62
8
 10
843.619165
 20
122.142998
 11
827.946870
 21
130.172527
  0
LINE
  8
CutLine
  6
CONTINUOUS
 62
8
 10
823.108005
 20
115.831415
 11
838.267014
 21
109.087441
  0
LINE
  8
CutLine
  6
CONTINUOUS
 62
8
 10
838.267014
 20
109.087441
 11
879.162314
 21
88.197763
  0
LINE
  8
CutLine
  6
CONTINUOUS
 62
8
 10
883.012074
 20
102.747025
 11
843.619165
 21
122.142998
  0
LINE
  8
CutLine
  6
CONTINUOUS
 62
8
 10
1078.269426
 20
26.762901
 11
1099.947242
 21
27.660295
  0
LINE
  8
CutLine
  6
CONTINUOUS
 62
8
 10
975.680065
 20
66.699044
 11
947.921820
 21
77.153746
  0
LINE
  8
CutLine
  6
CONTINUOUS
 62
8
 10
947.921820
 20
77.153746
 11
883.012074
 21
102.747025
  0
LINE
  8
CutLine
  6
CONTINUOUS
 62
8
 10
879.162314
 20
88.197763
 11
942.166429
 21
62.947852
  0
LINE
  8
CutLine
  6
CONTINUOUS
 62
8
 10
942.166429
 20
62.947852
 11
971.313328
 21
51.230538
  0
LINE
  8
CutLine
  6
CONTINUOUS
 62
8
 10
1026.687086
 20
49.583984
 11
975.680065
 21
66.699044
  0
LINE
  8
CutLine
  6
CONTINUOUS
 62
8
 10
971.313328
 20
51.230538
 11
1017.509662
 21
34.690444
  0
LINE
  8
CutLine
  6
CONTINUOUS
 62
8
 10
1064.420949
 20
43.260193
 11
1026.687086
 21
49.583984
  0
LINE
  8
CutLine
  6
CONTINUOUS
 62
8
 10
1017.509662
 20
34.690444
 11
1054.913550
 21
27.130040
  0
LINE
  8
CutLine
  6
CONTINUOUS
 62
8
 10
1084.003593
 20
43.300044
 11
1064.420949
 21
43.260193
  0
LINE
  8
CutLine
  6
CONTINUOUS
 62
8
 10
1111.928940
 20
45.520668
 11
1084.003593
 21
43.300044
  0
LINE
  8
CutLine
  6
CONTINUOUS
 62
8
 10
1054.913550
 20
27.130040
 11
1078.269426
 21
26.762901
  0
LINE
  8
CutLine
  6
CONTINUOUS
 62
8
 10
1170.027786
 20
53.972812
 11
1111.928940
 21
45.520668
  0
LINE
  8
CutLine
  6
CONTINUOUS
 62
8
 10
1099.947242
 20
27.660295
 11
1157.535634
 21
33.797912
  0
LINE
  8
CutLine
  6
CONTINUOUS
 62
8
 10
1171.164813
 20
52.478938
 11
1170.027786
 21
53.972812
  0
ENDSEC
  0
EOF
