  0
SECTION
  2
HEADER
  9
$ACADVER
  1
AC1009
  0
ENDSEC
  0
SECTION
  2
BLOCKS
  0
ENDSEC
  0
SECTION
  2
ENTITIES
  0
LINE
  8
CutLine
  6
CONTINUOUS
 62
8
 10
48.998929
 20
595.991142
 11
48.999465
 21
631.187541
  0
LINE
  8
CutLine
  6
CONTINUOUS
 62
8
 10
30.663137
 20
634.591176
 11
30.281244
 21
595.992974
  0
LINE
  8
CutLine
  6
CONTINUOUS
 62
8
 10
30.281244
 20
595.992974
 11
30.611244
 21
557.394757
  0
LINE
  8
CutLine
  6
CONTINUOUS
 62
8
 10
48.930492
 20
560.794576
 11
48.998929
 21
595.991142
  0
LINE
  8
CutLine
  6
CONTINUOUS
 62
8
 10
30.611244
 20
557.394757
 11
48.930492
 21
560.794576
  0
LINE
  8
CutLine
  6
CONTINUOUS
 62
8
 10
48.999465
 20
631.187541
 11
30.663137
 21
634.591176
  0
LINE
  8
CutLine
  6
CONTINUOUS
 62
8
 10
182.409840
 20
455.547219
 11
221.787129
 21
471.130589
  0
LINE
  8
CutLine
  6
CONTINUOUS
 62
8
 10
221.740067
 20
473.944341
 11
181.729123
 21
458.142856
  0
LINE
  8
CutLine
  6
CONTINUOUS
 62
8
 10
308.043503
 20
478.487737
 11
266.508527
 21
482.850261
  0
LINE
  8
CutLine
  6
CONTINUOUS
 62
8
 10
266.508527
 20
482.850261
 11
234.680868
 21
478.510566
  0
LINE
  8
CutLine
  6
CONTINUOUS
 62
8
 10
234.981876
 20
475.722712
 11
266.508523
 21
479.968554
  0
LINE
  8
CutLine
  6
CONTINUOUS
 62
8
 10
266.508523
 20
479.968554
 11
307.645993
 21
475.661479
  0
LINE
  8
CutLine
  6
CONTINUOUS
 62
8
 10
221.787129
 20
471.130589
 11
234.981876
 21
475.722712
  0
LINE
  8
CutLine
  6
CONTINUOUS
 62
8
 10
234.680868
 20
478.510566
 11
221.740067
 21
473.944341
  0
LINE
  8
CutLine
  6
CONTINUOUS
 62
8
 10
423.846139
 20
424.090893
 11
389.745440
 21
450.314776
  0
LINE
  8
CutLine
  6
CONTINUOUS
 62
8
 10
388.924049
 20
447.623311
 11
422.475933
 21
421.783741
  0
LINE
  8
CutLine
  6
CONTINUOUS
 62
8
 10
422.475933
 20
421.783741
 11
423.846139
 21
424.090893
  0
LINE
  8
CutLine
  6
CONTINUOUS
 62
8
 10
307.645993
 20
475.661479
 11
348.375375
 21
468.454089
  0
LINE
  8
CutLine
  6
CONTINUOUS
 62
8
 10
349.170263
 20
471.223996
 11
308.043503
 21
478.487737
  0
LINE
  8
CutLine
  6
CONTINUOUS
 62
8
 10
348.375375
 20
468.454089
 11
377.507721
 21
455.676659
  0
LINE
  8
CutLine
  6
CONTINUOUS
 62
8
 10
378.566090
 20
458.273285
 11
349.170263
 21
471.223996
  0
LINE
  8
CutLine
  6
CONTINUOUS
 62
8
 10
389.745440
 20
450.314776
 11
378.566090
 21
458.273285
  0
LINE
  8
CutLine
  6
CONTINUOUS
 62
8
 10
377.507721
 20
455.676659
 11
388.924049
 21
447.623311
  0
LINE
  8
CutLine
  6
CONTINUOUS
 62
8
 10
150.342743
 20
257.642587
 11
166.329763
 21
236.499240
  0
LINE
  8
CutLine
  6
CONTINUOUS
 62
8
 10
166.329763
 20
236.499240
 11
221.561520
 21
208.088243
  0
LINE
  8
CutLine
  6
CONTINUOUS
 62
8
 10
221.561520
 20
208.088243
 11
166.864881
 21
238.946167
  0
LINE
  8
CutLine
  6
CONTINUOUS
 62
8
 10
139.303960
 20
279.129152
 11
150.342743
 21
257.642587
  0
LINE
  8
CutLine
  6
CONTINUOUS
 62
8
 10
166.864881
 20
238.946167
 11
151.199405
 21
258.850390
  0
LINE
  8
CutLine
  6
CONTINUOUS
 62
8
 10
151.199405
 20
258.850390
 11
140.703601
 21
280.101374
  0
LINE
  8
CutLine
  6
CONTINUOUS
 62
8
 10
124.149866
 20
362.814989
 11
126.383153
 21
318.072173
  0
LINE
  8
CutLine
  6
CONTINUOUS
 62
8
 10
126.383153
 20
318.072173
 11
139.303960
 21
279.129152
  0
LINE
  8
CutLine
  6
CONTINUOUS
 62
8
 10
140.703601
 20
280.101374
 11
127.892688
 21
318.697944
  0
LINE
  8
CutLine
  6
CONTINUOUS
 62
8
 10
127.892688
 20
318.697944
 11
125.587986
 21
362.568531
  0
LINE
  8
CutLine
  6
CONTINUOUS
 62
8
 10
181.729123
 20
458.142856
 11
136.883920
 21
399.230579
  0
LINE
  8
CutLine
  6
CONTINUOUS
 62
8
 10
136.883920
 20
399.230579
 11
124.149866
 21
362.814989
  0
LINE
  8
CutLine
  6
CONTINUOUS
 62
8
 10
125.587986
 20
362.568531
 11
138.319098
 21
399.103133
  0
LINE
  8
CutLine
  6
CONTINUOUS
 62
8
 10
138.319098
 20
399.103133
 11
182.409840
 21
455.547219
  0
LINE
  8
CutLine
  6
CONTINUOUS
 62
8
 10
407.629515
 20
669.457522
 11
401.909984
 21
668.209309
  0
LINE
  8
CutLine
  6
CONTINUOUS
 62
8
 10
401.909984
 20
668.209309
 11
414.463797
 21
609.483757
  0
LINE
  8
CutLine
  6
CONTINUOUS
 62
8
 10
432.662971
 20
551.930938
 11
419.516425
 21
610.559993
  0
LINE
  8
CutLine
  6
CONTINUOUS
 62
8
 10
419.516425
 20
610.559993
 11
407.629515
 21
669.457522
  0
LINE
  8
CutLine
  6
CONTINUOUS
 62
8
 10
414.463797
 20
609.483757
 11
426.937262
 21
550.741087
  0
LINE
  8
CutLine
  6
CONTINUOUS
 62
8
 10
426.937262
 20
550.741087
 11
432.662971
 21
551.930938
  0
LINE
  8
CutLine
  6
CONTINUOUS
 62
8
 10
989.082128
 20
38.811013
 11
992.651998
 21
41.301193
  0
LINE
  8
CutLine
  6
CONTINUOUS
 62
8
 10
992.651998
 20
41.301193
 11
973.614441
 21
68.189100
  0
LINE
  8
CutLine
  6
CONTINUOUS
 62
8
 10
970.893746
 20
66.214265
 11
989.082128
 21
38.811013
  0
LINE
  8
CutLine
  6
CONTINUOUS
 62
8
 10
924.836714
 20
200.948343
 11
924.346612
 21
250.650427
  0
LINE
  8
CutLine
  6
CONTINUOUS
 62
8
 10
921.142842
 20
247.994128
 11
921.183612
 21
199.730488
  0
LINE
  8
CutLine
  6
CONTINUOUS
 62
8
 10
973.614441
 20
68.189100
 11
964.075767
 21
87.628546
  0
LINE
  8
CutLine
  6
CONTINUOUS
 62
8
 10
960.946918
 20
85.858871
 11
970.893746
 21
66.214265
  0
LINE
  8
CutLine
  6
CONTINUOUS
 62
8
 10
964.075767
 20
87.628546
 11
949.004769
 21
116.880571
  0
LINE
  8
CutLine
  6
CONTINUOUS
 62
8
 10
947.059006
 20
115.439770
 11
960.946918
 21
85.858871
  0
LINE
  8
CutLine
  6
CONTINUOUS
 62
8
 10
949.004769
 20
116.880571
 11
937.134815
 21
146.313670
  0
LINE
  8
CutLine
  6
CONTINUOUS
 62
8
 10
935.289057
 20
144.799944
 11
947.059006
 21
115.439770
  0
LINE
  8
CutLine
  6
CONTINUOUS
 62
8
 10
937.134815
 20
146.313670
 11
930.175571
 21
176.944288
  0
LINE
  8
CutLine
  6
CONTINUOUS
 62
8
 10
926.456178
 20
175.718486
 11
935.289057
 21
144.799944
  0
LINE
  8
CutLine
  6
CONTINUOUS
 62
8
 10
930.175571
 20
176.944288
 11
924.836714
 21
200.948343
  0
LINE
  8
CutLine
  6
CONTINUOUS
 62
8
 10
921.183612
 20
199.730488
 11
926.456178
 21
175.718486
  0
LINE
  8
CutLine
  6
CONTINUOUS
 62
8
 10
925.487021
 20
285.471126
 11
921.142842
 21
247.994128
  0
LINE
  8
ValleyLine
  6
CONTINUOUS
 62
1
 10
921.142842
 20
247.994128
 11
929.379857
 21
286.603053
  0
LINE
  8
CutLine
  6
CONTINUOUS
 62
8
 10
929.379857
 20
286.603053
 11
935.021187
 21
323.895815
  0
LINE
  8
CutLine
  6
CONTINUOUS
 62
8
 10
929.295479
 20
322.705964
 11
925.487021
 21
285.471126
  0
LINE
  8
CutLine
  6
CONTINUOUS
 62
8
 10
924.346612
 20
250.650427
 11
929.379857
 21
286.603053
  0
LINE
  8
CutLine
  6
CONTINUOUS
 62
8
 10
935.021187
 20
323.895815
 11
929.295479
 21
322.705964
  0
LINE
  8
CutLine
  6
CONTINUOUS
 62
8
 10
519.613150
 20
193.037515
 11
539.237923
 21
148.941990
  0
LINE
  8
CutLine
  6
CONTINUOUS
 62
8
 10
515.879264
 20
367.681777
 11
510.500830
 21
335.234290
  0
LINE
  8
CutLine
  6
CONTINUOUS
 62
8
 10
513.796638
 20
334.545615
 11
520.155723
 21
366.871305
  0
LINE
  8
CutLine
  6
CONTINUOUS
 62
8
 10
510.500830
 20
335.234290
 11
509.461305
 21
313.239633
  0
LINE
  8
CutLine
  6
CONTINUOUS
 62
8
 10
513.050086
 20
312.904849
 11
513.796638
 21
334.545615
  0
LINE
  8
CutLine
  6
CONTINUOUS
 62
8
 10
508.890392
 20
280.565560
 11
510.175845
 21
248.963611
  0
LINE
  8
CutLine
  6
CONTINUOUS
 62
8
 10
509.461305
 20
313.239633
 11
508.890392
 21
280.565560
  0
LINE
  8
CutLine
  6
CONTINUOUS
 62
8
 10
511.268237
 20
280.047019
 11
513.050086
 21
312.904849
  0
LINE
  8
CutLine
  6
CONTINUOUS
 62
8
 10
512.479938
 20
248.327653
 11
511.268237
 21
280.047019
  0
LINE
  8
CutLine
  6
CONTINUOUS
 62
8
 10
518.531286
 20
217.506320
 11
512.479938
 21
248.327653
  0
LINE
  8
CutLine
  6
CONTINUOUS
 62
8
 10
510.175845
 20
248.963611
 11
514.598933
 21
217.110835
  0
LINE
  8
CutLine
  6
CONTINUOUS
 62
8
 10
523.452967
 20
193.416979
 11
518.531286
 21
217.506320
  0
LINE
  8
CutLine
  6
CONTINUOUS
 62
8
 10
514.598933
 20
217.110835
 11
519.613150
 21
193.037515
  0
LINE
  8
CutLine
  6
CONTINUOUS
 62
8
 10
543.252494
 20
147.824385
 11
523.452967
 21
193.416979
  0
LINE
  8
CutLine
  6
CONTINUOUS
 62
8
 10
520.155723
 20
366.871305
 11
515.879264
 21
367.681777
  0
LINE
  8
CutLine
  6
CONTINUOUS
 62
8
 10
539.237923
 20
148.941990
 11
558.468615
 21
116.482834
  0
LINE
  8
ValleyLine
  6
CONTINUOUS
 62
1
 10
562.491459
 20
117.038223
 11
539.237923
 21
148.941990
  0
LINE
  8
CutLine
  6
CONTINUOUS
 62
8
 10
558.468615
 20
116.482834
 11
577.111777
 21
84.027252
  0
LINE
  8
CutLine
  6
CONTINUOUS
 62
8
 10
582.831308
 20
85.275465
 11
562.491459
 21
117.038223
  0
LINE
  8
CutLine
  6
CONTINUOUS
 62
8
 10
562.491459
 20
117.038223
 11
543.252494
 21
147.824385
  0
LINE
  8
CutLine
  6
CONTINUOUS
 62
8
 10
577.111777
 20
84.027252
 11
582.831308
 21
85.275465
  0
LINE
  8
CutLine
  6
CONTINUOUS
 62
8
 10
693.777861
 20
152.901770
 11
706.278500
 21
146.061294
  0
LINE
  8
CutLine
  6
CONTINUOUS
 62
8
 10
707.672748
 20
148.670367
 11
695.518282
 21
155.230170
  0
LINE
  8
CutLine
  6
CONTINUOUS
 62
8
 10
664.304785
 20
181.448449
 11
693.777861
 21
152.901770
  0
LINE
  8
CutLine
  6
CONTINUOUS
 62
8
 10
695.518282
 20
155.230170
 11
666.593765
 21
183.275534
  0
LINE
  8
CutLine
  6
CONTINUOUS
 62
8
 10
641.107534
 20
216.180960
 11
664.304785
 21
181.448449
  0
LINE
  8
CutLine
  6
CONTINUOUS
 62
8
 10
666.593765
 20
183.275534
 11
643.633004
 21
217.724361
  0
LINE
  8
CutLine
  6
CONTINUOUS
 62
8
 10
611.695451
 20
292.407463
 11
611.403757
 21
306.216027
  0
LINE
  8
CutLine
  6
CONTINUOUS
 62
8
 10
608.445925
 20
306.165757
 11
608.829431
 21
291.921093
  0
LINE
  8
CutLine
  6
CONTINUOUS
 62
8
 10
623.454414
 20
253.873260
 11
611.695451
 21
292.407463
  0
LINE
  8
CutLine
  6
CONTINUOUS
 62
8
 10
643.633004
 20
217.724361
 11
623.454414
 21
253.873260
  0
LINE
  8
CutLine
  6
CONTINUOUS
 62
8
 10
620.784252
 20
252.669826
 11
641.107534
 21
216.180960
  0
LINE
  8
CutLine
  6
CONTINUOUS
 62
8
 10
608.829431
 20
291.921093
 11
620.784252
 21
252.669826
  0
LINE
  8
CutLine
  6
CONTINUOUS
 62
8
 10
677.962475
 20
431.955491
 11
719.495848
 21
454.949555
  0
LINE
  8
CutLine
  6
CONTINUOUS
 62
8
 10
676.552166
 20
434.302733
 11
654.641519
 21
409.795580
  0
LINE
  8
CutLine
  6
CONTINUOUS
 62
8
 10
617.015670
 20
352.493145
 11
656.761016
 21
407.956225
  0
LINE
  8
CutLine
  6
CONTINUOUS
 62
8
 10
654.641519
 20
409.795580
 11
614.206918
 21
353.080364
  0
LINE
  8
CutLine
  6
CONTINUOUS
 62
8
 10
656.761016
 20
407.956225
 11
677.962475
 21
431.955491
  0
LINE
  8
CutLine
  6
CONTINUOUS
 62
8
 10
718.588776
 20
457.619138
 11
676.552166
 21
434.302733
  0
LINE
  8
CutLine
  6
CONTINUOUS
 62
8
 10
778.006431
 20
455.422076
 11
801.373489
 21
446.167827
  0
LINE
  8
CutLine
  6
CONTINUOUS
 62
8
 10
802.924899
 20
448.622465
 11
781.270093
 21
457.392647
  0
LINE
  8
CutLine
  6
CONTINUOUS
 62
8
 10
781.270093
 20
457.392647
 11
757.189974
 21
461.783343
  0
LINE
  8
CutLine
  6
CONTINUOUS
 62
8
 10
756.604769
 20
458.980603
 11
778.006431
 21
455.422076
  0
LINE
  8
CutLine
  6
CONTINUOUS
 62
8
 10
719.495848
 20
454.949555
 11
756.604769
 21
458.980603
  0
LINE
  8
CutLine
  6
CONTINUOUS
 62
8
 10
757.189974
 20
461.783343
 11
718.588776
 21
457.619138
  0
LINE
  8
CutLine
  6
CONTINUOUS
 62
8
 10
801.373489
 20
446.167827
 11
849.207781
 21
413.595236
  0
LINE
  8
CutLine
  6
CONTINUOUS
 62
8
 10
849.207781
 20
413.595236
 11
850.685338
 21
414.646062
  0
LINE
  8
CutLine
  6
CONTINUOUS
 62
8
 10
850.685338
 20
414.646062
 11
802.924899
 21
448.622465
  0
LINE
  8
CutLine
  6
CONTINUOUS
 62
8
 10
611.403757
 20
306.216027
 11
617.015670
 21
352.493145
  0
LINE
  8
CutLine
  6
CONTINUOUS
 62
8
 10
614.206918
 20
353.080364
 11
608.445925
 21
306.165757
  0
LINE
  8
CutLine
  6
CONTINUOUS
 62
8
 10
851.374840
 20
148.201973
 11
891.302392
 21
174.969810
  0
LINE
  8
CutLine
  6
CONTINUOUS
 62
8
 10
889.340811
 20
176.994850
 11
849.929765
 21
150.527599
  0
LINE
  8
CutLine
  6
CONTINUOUS
 62
8
 10
849.929765
 20
150.527599
 11
818.900578
 21
142.611711
  0
LINE
  8
CutLine
  6
CONTINUOUS
 62
8
 10
819.570355
 20
139.886318
 11
851.374840
 21
148.201973
  0
LINE
  8
CutLine
  6
CONTINUOUS
 62
8
 10
750.653889
 20
129.782578
 11
819.570355
 21
139.886318
  0
LINE
  8
CutLine
  6
CONTINUOUS
 62
8
 10
818.900578
 20
142.611711
 11
751.412775
 21
132.549985
  0
LINE
  8
CutLine
  6
CONTINUOUS
 62
8
 10
706.278500
 20
146.061294
 11
750.653889
 21
129.782578
  0
LINE
  8
CutLine
  6
CONTINUOUS
 62
8
 10
751.412775
 20
132.549985
 11
707.672748
 21
148.670367
  0
LINE
  8
CutLine
  6
CONTINUOUS
 62
8
 10
921.586366
 20
254.009896
 11
913.160025
 21
312.017110
  0
LINE
  8
CutLine
  6
CONTINUOUS
 62
8
 10
913.160025
 20
312.017110
 11
911.549328
 21
311.181370
  0
LINE
  8
CutLine
  6
CONTINUOUS
 62
8
 10
919.567016
 20
230.771485
 11
921.586366
 21
254.009896
  0
LINE
  8
CutLine
  6
CONTINUOUS
 62
8
 10
911.549328
 20
311.181370
 11
918.695093
 21
253.750174
  0
LINE
  8
CutLine
  6
CONTINUOUS
 62
8
 10
918.695093
 20
253.750174
 11
916.334244
 21
228.771846
  0
LINE
  8
CutLine
  6
CONTINUOUS
 62
8
 10
912.557299
 20
207.380679
 11
919.567016
 21
230.771485
  0
LINE
  8
CutLine
  6
CONTINUOUS
 62
8
 10
916.334244
 20
228.771846
 11
909.796729
 21
208.139049
  0
LINE
  8
CutLine
  6
CONTINUOUS
 62
8
 10
891.302392
 20
174.969810
 11
912.557299
 21
207.380679
  0
LINE
  8
CutLine
  6
CONTINUOUS
 62
8
 10
909.796729
 20
208.139049
 11
889.340811
 21
176.994850
  0
LINE
  8
CutLine
  6
CONTINUOUS
 62
8
 10
323.819105
 20
124.366209
 11
293.139937
 21
123.772969
  0
LINE
  8
CutLine
  6
CONTINUOUS
 62
8
 10
293.541635
 20
120.572323
 11
323.850060
 21
121.169399
  0
LINE
  8
CutLine
  6
CONTINUOUS
 62
8
 10
293.139937
 20
123.772969
 11
265.140280
 21
121.546824
  0
LINE
  8
CutLine
  6
CONTINUOUS
 62
8
 10
265.140280
 20
121.546824
 11
265.541935
 21
118.346358
  0
LINE
  8
CutLine
  6
CONTINUOUS
 62
8
 10
265.541935
 20
118.346358
 11
293.541635
 21
120.572323
  0
LINE
  8
CutLine
  6
CONTINUOUS
 62
8
 10
416.684520
 20
121.546824
 11
384.778506
 21
121.740308
  0
LINE
  8
CutLine
  6
CONTINUOUS
 62
8
 10
385.179005
 20
118.539535
 11
416.776449
 21
118.347796
  0
LINE
  8
CutLine
  6
CONTINUOUS
 62
8
 10
384.778506
 20
121.740308
 11
346.920632
 21
123.270769
  0
LINE
  8
CutLine
  6
CONTINUOUS
 62
8
 10
347.320929
 20
120.069802
 11
385.179005
 21
118.539535
  0
LINE
  8
CutLine
  6
CONTINUOUS
 62
8
 10
346.920632
 20
123.270769
 11
323.819105
 21
124.366209
  0
LINE
  8
CutLine
  6
CONTINUOUS
 62
8
 10
323.850060
 20
121.169399
 11
347.320929
 21
120.069802
  0
LINE
  8
CutLine
  6
CONTINUOUS
 62
8
 10
564.193706
 20
133.293298
 11
534.453854
 21
128.987822
  0
LINE
  8
CutLine
  6
CONTINUOUS
 62
8
 10
534.854466
 20
125.787086
 11
564.594431
 21
130.092222
  0
LINE
  8
CutLine
  6
CONTINUOUS
 62
8
 10
534.453854
 20
128.987822
 11
497.540114
 21
125.161115
  0
LINE
  8
CutLine
  6
CONTINUOUS
 62
8
 10
497.940827
 20
121.960370
 11
534.854466
 21
125.787086
  0
LINE
  8
CutLine
  6
CONTINUOUS
 62
8
 10
497.540114
 20
125.161115
 11
449.774146
 21
121.353594
  0
LINE
  8
CutLine
  6
CONTINUOUS
 62
8
 10
450.174665
 20
118.152666
 11
497.940827
 21
121.960370
  0
LINE
  8
CutLine
  6
CONTINUOUS
 62
8
 10
449.774146
 20
121.353594
 11
416.684520
 21
121.546824
  0
LINE
  8
CutLine
  6
CONTINUOUS
 62
8
 10
416.776449
 20
118.347796
 11
450.174665
 21
118.152666
  0
LINE
  8
CutLine
  6
CONTINUOUS
 62
8
 10
597.649740
 20
134.242680
 11
564.193706
 21
133.293298
  0
LINE
  8
CutLine
  6
CONTINUOUS
 62
8
 10
564.594431
 20
130.092222
 11
598.050433
 21
131.041949
  0
LINE
  8
CutLine
  6
CONTINUOUS
 62
8
 10
628.623390
 20
135.822835
 11
597.649740
 21
134.242680
  0
LINE
  8
CutLine
  6
CONTINUOUS
 62
8
 10
598.050433
 20
131.041949
 11
629.024044
 21
132.621749
  0
LINE
  8
CutLine
  6
CONTINUOUS
 62
8
 10
651.531745
 20
139.437733
 11
628.623390
 21
135.822835
  0
LINE
  8
CutLine
  6
CONTINUOUS
 62
8
 10
629.024044
 20
132.621749
 11
651.932477
 21
136.236999
  0
LINE
  8
CutLine
  6
CONTINUOUS
 62
8
 10
674.035744
 20
144.686031
 11
651.531745
 21
139.437733
  0
LINE
  8
CutLine
  6
CONTINUOUS
 62
8
 10
651.932477
 20
136.236999
 11
674.436460
 21
141.485306
  0
LINE
  8
CutLine
  6
CONTINUOUS
 62
8
 10
703.920402
 20
152.280201
 11
674.035744
 21
144.686031
  0
LINE
  8
CutLine
  6
CONTINUOUS
 62
8
 10
674.436460
 20
141.485306
 11
704.320991
 21
149.079448
  0
LINE
  8
CutLine
  6
CONTINUOUS
 62
8
 10
737.279511
 20
161.287307
 11
703.920402
 21
152.280201
  0
LINE
  8
CutLine
  6
CONTINUOUS
 62
8
 10
704.320991
 20
149.079448
 11
737.679770
 21
158.086816
  0
LINE
  8
CutLine
  6
CONTINUOUS
 62
8
 10
776.261881
 20
172.734484
 11
737.279511
 21
161.287307
  0
LINE
  8
CutLine
  6
CONTINUOUS
 62
8
 10
737.679770
 20
158.086816
 11
776.662526
 21
169.533924
  0
LINE
  8
CutLine
  6
CONTINUOUS
 62
8
 10
840.176912
 20
193.530513
 11
810.017826
 21
183.482646
  0
LINE
  8
CutLine
  6
CONTINUOUS
 62
8
 10
810.418075
 20
180.281679
 11
840.577399
 21
190.329901
  0
LINE
  8
CutLine
  6
CONTINUOUS
 62
8
 10
810.017826
 20
183.482646
 11
776.261881
 21
172.734484
  0
LINE
  8
CutLine
  6
CONTINUOUS
 62
8
 10
776.662526
 20
169.533924
 11
810.418075
 21
180.281679
  0
LINE
  8
CutLine
  6
CONTINUOUS
 62
8
 10
840.577399
 20
190.329901
 11
840.176912
 21
193.530513
  0
LINE
  8
CutLine
  6
CONTINUOUS
 62
8
 10
437.890705
 20
102.297098
 11
437.895115
 21
71.982768
  0
LINE
  8
CutLine
  6
CONTINUOUS
 62
8
 10
441.103098
 20
71.644625
 11
441.087693
 21
102.329830
  0
LINE
  8
CutLine
  6
CONTINUOUS
 62
8
 10
437.895115
 20
71.982768
 11
436.224877
 21
43.944427
  0
LINE
  8
CutLine
  6
CONTINUOUS
 62
8
 10
436.224877
 20
43.944427
 11
439.432517
 21
43.606338
  0
LINE
  8
CutLine
  6
CONTINUOUS
 62
8
 10
439.432517
 20
43.606338
 11
441.103098
 21
71.644625
  0
LINE
  8
CutLine
  6
CONTINUOUS
 62
8
 10
433.228551
 20
195.149435
 11
434.046458
 21
163.562007
  0
LINE
  8
CutLine
  6
CONTINUOUS
 62
8
 10
437.254707
 20
163.225105
 11
436.428450
 21
195.120978
  0
LINE
  8
CutLine
  6
CONTINUOUS
 62
8
 10
434.046458
 20
163.562007
 11
436.325846
 21
125.741789
  0
LINE
  8
CutLine
  6
CONTINUOUS
 62
8
 10
439.534095
 20
125.404809
 11
437.254707
 21
163.225105
  0
LINE
  8
CutLine
  6
CONTINUOUS
 62
8
 10
436.325846
 20
125.741789
 11
437.890705
 21
102.297098
  0
LINE
  8
CutLine
  6
CONTINUOUS
 62
8
 10
441.087693
 20
102.329830
 11
439.534095
 21
125.404809
  0
LINE
  8
CutLine
  6
CONTINUOUS
 62
8
 10
442.040506
 20
343.171293
 11
438.325536
 21
313.351872
  0
LINE
  8
CutLine
  6
CONTINUOUS
 62
8
 10
441.533264
 20
313.014779
 11
445.248573
 21
342.834110
  0
LINE
  8
CutLine
  6
CONTINUOUS
 62
8
 10
438.325536
 20
313.351872
 11
435.231031
 21
276.369341
  0
LINE
  8
CutLine
  6
CONTINUOUS
 62
8
 10
435.231031
 20
276.369341
 11
432.370902
 21
228.537268
  0
LINE
  8
CutLine
  6
CONTINUOUS
 62
8
 10
435.579143
 20
228.200237
 11
438.439091
 21
276.032129
  0
LINE
  8
CutLine
  6
CONTINUOUS
 62
8
 10
438.439091
 20
276.032129
 11
441.533264
 21
313.014779
  0
LINE
  8
CutLine
  6
CONTINUOUS
 62
8
 10
432.370902
 20
228.537268
 11
433.228551
 21
195.149435
  0
LINE
  8
CutLine
  6
CONTINUOUS
 62
8
 10
436.428450
 20
195.120978
 11
435.579143
 21
228.200237
  0
LINE
  8
CutLine
  6
CONTINUOUS
 62
8
 10
442.326955
 20
376.639560
 11
442.040506
 21
343.171293
  0
LINE
  8
CutLine
  6
CONTINUOUS
 62
8
 10
445.248573
 20
342.834110
 11
445.534844
 21
376.302388
  0
LINE
  8
CutLine
  6
CONTINUOUS
 62
8
 10
443.292902
 20
407.638095
 11
442.326955
 21
376.639560
  0
LINE
  8
CutLine
  6
CONTINUOUS
 62
8
 10
445.534844
 20
376.302388
 11
446.501136
 21
407.300947
  0
LINE
  8
CutLine
  6
CONTINUOUS
 62
8
 10
446.453578
 20
430.613697
 11
443.292902
 21
407.638095
  0
LINE
  8
CutLine
  6
CONTINUOUS
 62
8
 10
446.501136
 20
407.300947
 11
449.661641
 21
430.276625
  0
LINE
  8
CutLine
  6
CONTINUOUS
 62
8
 10
451.254703
 20
453.217377
 11
446.453578
 21
430.613697
  0
LINE
  8
CutLine
  6
CONTINUOUS
 62
8
 10
449.661641
 20
430.276625
 11
454.462899
 21
452.880094
  0
LINE
  8
CutLine
  6
CONTINUOUS
 62
8
 10
458.255954
 20
483.246397
 11
451.254703
 21
453.217377
  0
LINE
  8
CutLine
  6
CONTINUOUS
 62
8
 10
454.462899
 20
452.880094
 11
461.463857
 21
482.909287
  0
LINE
  8
CutLine
  6
CONTINUOUS
 62
8
 10
496.804659
 20
620.291666
 11
487.354673
 21
589.939829
  0
LINE
  8
CutLine
  6
CONTINUOUS
 62
8
 10
487.354673
 20
589.939829
 11
477.276442
 21
555.978114
  0
LINE
  8
CutLine
  6
CONTINUOUS
 62
8
 10
480.484302
 20
555.640835
 11
490.562894
 21
589.602658
  0
LINE
  8
CutLine
  6
CONTINUOUS
 62
8
 10
490.562894
 20
589.602658
 11
500.012403
 21
619.954567
  0
LINE
  8
CutLine
  6
CONTINUOUS
 62
8
 10
477.276442
 20
555.978114
 11
466.601812
 21
516.776778
  0
LINE
  8
CutLine
  6
CONTINUOUS
 62
8
 10
469.809746
 20
516.439824
 11
480.484302
 21
555.640835
  0
LINE
  8
CutLine
  6
CONTINUOUS
 62
8
 10
466.601812
 20
516.776778
 11
458.255954
 21
483.246397
  0
LINE
  8
CutLine
  6
CONTINUOUS
 62
8
 10
461.463857
 20
482.909287
 11
469.809746
 21
516.439824
  0
LINE
  8
CutLine
  6
CONTINUOUS
 62
8
 10
500.012403
 20
619.954567
 11
496.804659
 21
620.291666
  0
LINE
  8
CutLine
  6
CONTINUOUS
 62
8
 10
145.193313
 20
697.528215
 11
190.317391
 21
697.144231
  0
LINE
  8
CutLine
  6
CONTINUOUS
 62
8
 10
173.008593
 20
729.843152
 11
157.901967
 21
726.161363
  0
LINE
  8
CutLine
  6
CONTINUOUS
 62
8
 10
190.317549
 20
731.241211
 11
173.008593
 21
729.843152
  0
LINE
  8
CutLine
  6
CONTINUOUS
 62
8
 10
147.230042
 20
713.033291
 11
145.193313
 21
697.528215
  0
LINE
  8
CutLine
  6
CONTINUOUS
 62
8
 10
157.901967
 20
726.161363
 11
147.230042
 21
713.033291
  0
LINE
  8
CutLine
  6
CONTINUOUS
 62
8
 10
222.733131
 20
726.161373
 11
207.626504
 21
729.843158
  0
LINE
  8
CutLine
  6
CONTINUOUS
 62
8
 10
207.626504
 20
729.843158
 11
190.317549
 21
731.241211
  0
LINE
  8
CutLine
  6
CONTINUOUS
 62
8
 10
190.317391
 20
697.144231
 11
235.441631
 21
697.528215
  0
LINE
  8
CutLine
  6
CONTINUOUS
 62
8
 10
233.405060
 20
713.033290
 11
222.733131
 21
726.161373
  0
LINE
  8
CutLine
  6
CONTINUOUS
 62
8
 10
235.441631
 20
697.528215
 11
233.405060
 21
713.033290
  0
LINE
  8
ValleyLine
  6
CONTINUOUS
 62
1
 10
84.816625
 20
605.676395
 11
72.133323
 21
602.992756
  0
LINE
  8
CutLine
  6
CONTINUOUS
 62
8
 10
72.133323
 20
602.992756
 11
73.903768
 21
595.701310
  0
LINE
  8
CutLine
  6
CONTINUOUS
 62
8
 10
73.903768
 20
595.701310
 11
85.895980
 21
595.099320
  0
LINE
  8
CutLine
  6
CONTINUOUS
 62
8
 10
85.895980
 20
595.099320
 11
101.303308
 21
594.948784
  0
LINE
  8
ValleyLine
  6
CONTINUOUS
 62
1
 10
101.303308
 20
606.590121
 11
84.816625
 21
605.676395
  0
LINE
  8
CutLine
  6
CONTINUOUS
 62
8
 10
83.087973
 20
616.757659
 11
67.976643
 21
612.496987
  0
LINE
  8
CutLine
  6
CONTINUOUS
 62
8
 10
67.976643
 20
612.496987
 11
72.133323
 21
602.992756
  0
LINE
  8
CutLine
  6
CONTINUOUS
 62
8
 10
84.816625
 20
605.676395
 11
83.087973
 21
616.757659
  0
LINE
  8
CutLine
  6
CONTINUOUS
 62
8
 10
84.376457
 20
616.883040
 11
84.816625
 21
605.676395
  0
LINE
  8
CutLine
  6
CONTINUOUS
 62
8
 10
100.846458
 20
618.331191
 11
84.376457
 21
616.883040
  0
LINE
  8
CutLine
  6
CONTINUOUS
 62
8
 10
101.303308
 20
606.590121
 11
100.846458
 21
618.331191
  0
LINE
  8
CutLine
  6
CONTINUOUS
 62
8
 10
116.710315
 20
595.098884
 11
128.702538
 21
595.700530
  0
LINE
  8
ValleyLine
  6
CONTINUOUS
 62
1
 10
117.790286
 20
605.676261
 11
101.303308
 21
606.590121
  0
LINE
  8
CutLine
  6
CONTINUOUS
 62
8
 10
101.303308
 20
594.948784
 11
116.710315
 21
595.098884
  0
LINE
  8
CutLine
  6
CONTINUOUS
 62
8
 10
128.702538
 20
595.700530
 11
130.473353
 21
602.992269
  0
LINE
  8
ValleyLine
  6
CONTINUOUS
 62
1
 10
130.473353
 20
602.992269
 11
117.790286
 21
605.676261
  0
LINE
  8
CutLine
  6
CONTINUOUS
 62
8
 10
119.519128
 20
616.757242
 11
117.790286
 21
605.676261
  0
LINE
  8
CutLine
  6
CONTINUOUS
 62
8
 10
130.473353
 20
602.992269
 11
134.630302
 21
612.496311
  0
LINE
  8
CutLine
  6
CONTINUOUS
 62
8
 10
134.630302
 20
612.496311
 11
119.519128
 21
616.757242
  0
LINE
  8
CutLine
  6
CONTINUOUS
 62
8
 10
118.230528
 20
616.882653
 11
101.760399
 21
618.331181
  0
LINE
  8
CutLine
  6
CONTINUOUS
 62
8
 10
101.760399
 20
618.331181
 11
101.303308
 21
606.590121
  0
LINE
  8
CutLine
  6
CONTINUOUS
 62
8
 10
117.790286
 20
605.676261
 11
118.230528
 21
616.882653
  0
LINE
  8
ValleyLine
  6
CONTINUOUS
 62
1
 10
1071.911852
 20
89.576514
 11
1072.586559
 21
86.998078
  0
LINE
  8
CutLine
  6
CONTINUOUS
 62
8
 10
1072.586559
 20
86.998078
 11
1088.285435
 21
86.772471
  0
LINE
  8
CutLine
  6
CONTINUOUS
 62
8
 10
1088.285435
 20
86.772471
 11
1071.911852
 21
89.576514
  0
LINE
  8
ValleyLine
  6
CONTINUOUS
 62
1
 10
1055.051437
 20
88.175426
 11
1056.751314
 21
85.334944
  0
LINE
  8
CutLine
  6
CONTINUOUS
 62
8
 10
1041.285535
 20
80.157232
 11
1056.751314
 21
85.334944
  0
LINE
  8
MountainLine
  6
CONTINUOUS
 62
5
 10
1039.651990
 20
85.452922
 11
1041.285535
 21
80.157232
  0
LINE
  8
CutLine
  6
CONTINUOUS
 62
8
 10
1036.304879
 20
86.061986
 11
1037.955436
 21
79.654464
  0
LINE
  8
CutLine
  6
CONTINUOUS
 62
8
 10
1037.955436
 20
79.654464
 11
1041.285535
 21
80.157232
  0
LINE
  8
CutLine
  6
CONTINUOUS
 62
8
 10
1039.651990
 20
85.452922
 11
1036.304879
 21
86.061986
  0
LINE
  8
CutLine
  6
CONTINUOUS
 62
8
 10
1055.051437
 20
88.175426
 11
1039.651990
 21
85.452922
  0
LINE
  8
CutLine
  6
CONTINUOUS
 62
8
 10
1071.911852
 20
89.576514
 11
1055.051437
 21
88.175426
  0
LINE
  8
CutLine
  6
CONTINUOUS
 62
8
 10
1056.751314
 20
85.334944
 11
1072.586559
 21
86.998078
  0
LINE
  8
CutLine
  6
CONTINUOUS
 62
8
 10
987.580031
 20
87.872518
 11
1004.113575
 21
87.873940
  0
LINE
  8
CutLine
  6
CONTINUOUS
 62
8
 10
986.751202
 20
90.321152
 11
971.206448
 21
90.676561
  0
LINE
  8
CutLine
  6
CONTINUOUS
 62
8
 10
1021.475947
 20
90.321232
 11
1004.113575
 21
90.001012
  0
LINE
  8
CutLine
  6
CONTINUOUS
 62
8
 10
1004.113575
 20
90.001012
 11
986.751202
 21
90.321152
  0
LINE
  8
CutLine
  6
CONTINUOUS
 62
8
 10
1004.113575
 20
87.873940
 11
1020.647279
 21
87.872478
  0
LINE
  8
CutLine
  6
CONTINUOUS
 62
8
 10
1037.020701
 20
90.676715
 11
1021.475947
 21
90.321232
  0
LINE
  8
CutLine
  6
CONTINUOUS
 62
8
 10
1020.647279
 20
87.872478
 11
1036.346074
 21
88.098170
  0
LINE
  8
ValleyLine
  6
CONTINUOUS
 62
1
 10
1036.346074
 20
88.098170
 11
1037.020701
 21
90.676715
  0
LINE
  8
CutLine
  6
CONTINUOUS
 62
8
 10
1053.881225
 20
89.277065
 11
1037.020701
 21
90.676715
  0
LINE
  8
CutLine
  6
CONTINUOUS
 62
8
 10
1036.346074
 20
88.098170
 11
1052.181476
 21
86.436511
  0
LINE
  8
ValleyLine
  6
CONTINUOUS
 62
1
 10
1052.181476
 20
86.436511
 11
1053.881225
 21
89.277065
  0
LINE
  8
MountainLine
  6
CONTINUOUS
 62
5
 10
1067.648262
 20
81.260801
 11
1069.281081
 21
86.556760
  0
LINE
  8
CutLine
  6
CONTINUOUS
 62
8
 10
1052.181476
 20
86.436511
 11
1067.648262
 21
81.260801
  0
LINE
  8
CutLine
  6
CONTINUOUS
 62
8
 10
1072.627983
 20
87.166344
 11
1069.281081
 21
86.556760
  0
LINE
  8
CutLine
  6
CONTINUOUS
 62
8
 10
1067.648262
 20
81.260801
 11
1070.978440
 21
80.758560
  0
LINE
  8
CutLine
  6
CONTINUOUS
 62
8
 10
1070.978440
 20
80.758560
 11
1072.627983
 21
87.166344
  0
LINE
  8
CutLine
  6
CONTINUOUS
 62
8
 10
1069.281081
 20
86.556760
 11
1053.881225
 21
89.277065
  0
LINE
  8
CutLine
  6
CONTINUOUS
 62
8
 10
971.206448
 20
90.676561
 11
987.580031
 21
87.872518
  0
LINE
  8
CutLine
  6
CONTINUOUS
 62
8
 10
108.637863
 20
660.922987
 11
92.515965
 21
665.892083
  0
LINE
  8
CutLine
  6
CONTINUOUS
 62
8
 10
102.674417
 20
646.552643
 11
114.066693
 21
642.759019
  0
LINE
  8
CutLine
  6
CONTINUOUS
 62
8
 10
120.410773
 20
657.257597
 11
108.637863
 21
660.922987
  0
LINE
  8
CutLine
  6
CONTINUOUS
 62
8
 10
114.066693
 20
642.759019
 11
114.063168
 21
635.255709
  0
LINE
  8
CutLine
  6
CONTINUOUS
 62
8
 10
114.063168
 20
635.255709
 11
121.934063
 21
640.022054
  0
LINE
  8
CutLine
  6
CONTINUOUS
 62
8
 10
127.704988
 20
654.888110
 11
120.410773
 21
657.257597
  0
LINE
  8
CutLine
  6
CONTINUOUS
 62
8
 10
131.942931
 20
636.209138
 11
136.953356
 21
651.729919
  0
LINE
  8
MountainLine
  6
CONTINUOUS
 62
5
 10
136.953356
 20
651.729919
 11
127.704988
 21
654.888110
  0
LINE
  8
CutLine
  6
CONTINUOUS
 62
8
 10
136.953356
 20
651.729919
 11
138.906644
 21
654.473457
  0
LINE
  8
CutLine
  6
CONTINUOUS
 62
8
 10
138.906644
 20
654.473457
 11
127.704988
 21
654.888110
  0
LINE
  8
CutLine
  6
CONTINUOUS
 62
8
 10
121.934063
 20
640.022054
 11
114.975468
 21
634.001507
  0
LINE
  8
CutLine
  6
CONTINUOUS
 62
8
 10
114.975468
 20
634.001507
 11
120.449506
 21
625.189964
  0
LINE
  8
CutLine
  6
CONTINUOUS
 62
8
 10
120.449506
 20
625.189964
 11
131.942931
 21
636.209138
  0
LINE
  8
CutLine
  6
CONTINUOUS
 62
8
 10
87.939049
 20
651.055679
 11
102.674417
 21
646.552643
  0
LINE
  8
CutLine
  6
CONTINUOUS
 62
8
 10
92.515965
 20
665.892083
 11
76.396432
 21
670.868851
  0
LINE
  8
CutLine
  6
CONTINUOUS
 62
8
 10
76.396432
 20
670.868851
 11
64.604396
 21
674.472798
  0
LINE
  8
CutLine
  6
CONTINUOUS
 62
8
 10
61.678330
 20
658.919831
 11
73.227958
 21
655.636313
  0
LINE
  8
CutLine
  6
CONTINUOUS
 62
8
 10
73.227958
 20
655.636313
 11
87.939049
 21
651.055679
  0
LINE
  8
CutLine
  6
CONTINUOUS
 62
8
 10
53.636292
 20
661.090624
 11
57.453942
 21
652.718235
  0
LINE
  8
CutLine
  6
CONTINUOUS
 62
8
 10
57.453942
 20
652.718235
 11
61.678330
 21
658.919831
  0
LINE
  8
CutLine
  6
CONTINUOUS
 62
8
 10
64.604396
 20
674.472798
 11
57.243098
 21
676.624269
  0
LINE
  8
CutLine
  6
CONTINUOUS
 62
8
 10
47.822774
 20
679.225036
 11
43.218574
 21
663.578606
  0
LINE
  8
MountainLine
  6
CONTINUOUS
 62
5
 10
57.243098
 20
676.624269
 11
47.822774
 21
679.225036
  0
LINE
  8
CutLine
  6
CONTINUOUS
 62
8
 10
47.754523
 20
682.592182
 11
47.822774
 21
679.225036
  0
LINE
  8
CutLine
  6
CONTINUOUS
 62
8
 10
57.243098
 20
676.624269
 11
47.754523
 21
682.592182
  0
LINE
  8
CutLine
  6
CONTINUOUS
 62
8
 10
43.218574
 20
663.578606
 11
46.507080
 21
647.999556
  0
LINE
  8
CutLine
  6
CONTINUOUS
 62
8
 10
46.507080
 20
647.999556
 11
55.993736
 21
652.196030
  0
LINE
  8
CutLine
  6
CONTINUOUS
 62
8
 10
55.993736
 20
652.196030
 11
53.636292
 21
661.090624
  0
LINE
  8
CutLine
  6
CONTINUOUS
 62
8
 10
369.067440
 20
366.729692
 11
366.185159
 21
367.011962
  0
LINE
  8
CutLine
  6
CONTINUOUS
 62
8
 10
369.428663
 20
356.891568
 11
369.067440
 21
366.729692
  0
LINE
  8
MountainLine
  6
CONTINUOUS
 62
5
 10
366.185159
 20
367.011962
 11
366.683611
 21
356.413753
  0
LINE
  8
CutLine
  6
CONTINUOUS
 62
8
 10
366.683611
 20
356.413753
 11
369.428663
 21
356.891568
  0
LINE
  8
CutLine
  6
CONTINUOUS
 62
8
 10
369.667330
 20
316.280169
 11
369.662913
 21
333.622603
  0
LINE
  8
CutLine
  6
CONTINUOUS
 62
8
 10
369.662913
 20
333.622603
 11
366.945152
 21
333.339761
  0
LINE
  8
MountainLine
  6
CONTINUOUS
 62
5
 10
366.945152
 20
333.339761
 11
366.945572
 21
316.232413
  0
LINE
  8
CutLine
  6
CONTINUOUS
 62
8
 10
366.945572
 20
316.232413
 11
369.667330
 21
316.280169
  0
LINE
  8
CutLine
  6
CONTINUOUS
 62
8
 10
366.945346
 20
299.125064
 11
369.663085
 21
298.842250
  0
LINE
  8
CutLine
  6
CONTINUOUS
 62
8
 10
369.663085
 20
298.842250
 11
369.667330
 21
316.184684
  0
LINE
  8
CutLine
  6
CONTINUOUS
 62
8
 10
369.667330
 20
316.184684
 11
366.945572
 21
316.232413
  0
LINE
  8
MountainLine
  6
CONTINUOUS
 62
5
 10
366.945572
 20
316.232413
 11
366.945346
 21
299.125064
  0
LINE
  8
CutLine
  6
CONTINUOUS
 62
8
 10
366.911774
 20
285.890262
 11
369.641941
 21
285.838996
  0
LINE
  8
CutLine
  6
CONTINUOUS
 62
8
 10
369.641941
 20
285.838996
 11
369.639733
 21
298.670787
  0
LINE
  8
MountainLine
  6
CONTINUOUS
 62
5
 10
366.945346
 20
299.125064
 11
366.911774
 21
285.890262
  0
LINE
  8
CutLine
  6
CONTINUOUS
 62
8
 10
369.639733
 20
298.670787
 11
366.945346
 21
299.125064
  0
LINE
  8
CutLine
  6
CONTINUOUS
 62
8
 10
366.684068
 20
276.050949
 11
369.470268
 21
276.077552
  0
LINE
  8
CutLine
  6
CONTINUOUS
 62
8
 10
369.470268
 20
276.077552
 11
369.551214
 21
285.190409
  0
LINE
  8
MountainLine
  6
CONTINUOUS
 62
5
 10
366.911774
 20
285.890262
 11
366.684068
 21
276.050949
  0
LINE
  8
CutLine
  6
CONTINUOUS
 62
8
 10
369.551214
 20
285.190409
 11
366.911774
 21
285.890262
  0
LINE
  8
MountainLine
  6
CONTINUOUS
 62
5
 10
366.684068
 20
276.050949
 11
366.185718
 21
265.452650
  0
LINE
  8
CutLine
  6
CONTINUOUS
 62
8
 10
369.068041
 20
265.735103
 11
369.429123
 21
275.573148
  0
LINE
  8
CutLine
  6
CONTINUOUS
 62
8
 10
366.185718
 20
265.452650
 11
369.068041
 21
265.735103
  0
LINE
  8
CutLine
  6
CONTINUOUS
 62
8
 10
369.429123
 20
275.573148
 11
366.684068
 21
276.050949
  0
LINE
  8
CutLine
  6
CONTINUOUS
 62
8
 10
345.056256
 20
284.716157
 11
342.829099
 21
272.481847
  0
LINE
  8
CutLine
  6
CONTINUOUS
 62
8
 10
349.641113
 20
268.576310
 11
350.757960
 21
278.052331
  0
LINE
  8
CutLine
  6
CONTINUOUS
 62
8
 10
342.828642
 20
359.982531
 11
345.055895
 21
347.748293
  0
LINE
  8
CutLine
  6
CONTINUOUS
 62
8
 10
341.338039
 20
332.791520
 11
351.455807
 21
331.877169
  0
LINE
  8
CutLine
  6
CONTINUOUS
 62
8
 10
351.187033
 20
344.786011
 11
344.891862
 21
347.381542
  0
LINE
  8
CutLine
  6
CONTINUOUS
 62
8
 10
330.049886
 20
334.985422
 11
341.338039
 21
332.791520
  0
LINE
  8
CutLine
  6
CONTINUOUS
 62
8
 10
344.891862
 20
347.381542
 11
334.060388
 21
350.213334
  0
LINE
  8
CutLine
  6
CONTINUOUS
 62
8
 10
341.324803
 20
332.630847
 11
329.867786
 21
333.616934
  0
LINE
  8
CutLine
  6
CONTINUOUS
 62
8
 10
328.401891
 20
316.882273
 11
340.771206
 21
316.349849
  0
LINE
  8
CutLine
  6
CONTINUOUS
 62
8
 10
340.771206
 20
316.349849
 11
351.418915
 21
316.232325
  0
LINE
  8
CutLine
  6
CONTINUOUS
 62
8
 10
351.455807
 20
331.877169
 11
341.324803
 21
332.630847
  0
LINE
  8
CutLine
  6
CONTINUOUS
 62
8
 10
351.418915
 20
316.232325
 11
340.771207
 21
316.114675
  0
LINE
  8
CutLine
  6
CONTINUOUS
 62
8
 10
329.867744
 20
298.847475
 11
341.325007
 21
299.833686
  0
LINE
  8
CutLine
  6
CONTINUOUS
 62
8
 10
340.771207
 20
316.114675
 11
328.401898
 21
315.582120
  0
LINE
  8
CutLine
  6
CONTINUOUS
 62
8
 10
341.325007
 20
299.833686
 11
351.455984
 21
300.587480
  0
LINE
  8
CutLine
  6
CONTINUOUS
 62
8
 10
344.892223
 20
285.082879
 11
351.187033
 21
287.678471
  0
LINE
  8
CutLine
  6
CONTINUOUS
 62
8
 10
351.455984
 20
300.587480
 11
341.338243
 21
299.673028
  0
LINE
  8
CutLine
  6
CONTINUOUS
 62
8
 10
330.049852
 20
297.479013
 11
334.060781
 21
282.251146
  0
LINE
  8
CutLine
  6
CONTINUOUS
 62
8
 10
334.060781
 20
282.251146
 11
344.892223
 21
285.082879
  0
LINE
  8
CutLine
  6
CONTINUOUS
 62
8
 10
341.338243
 20
299.673028
 11
330.049852
 21
297.479013
  0
LINE
  8
MountainLine
  6
CONTINUOUS
 62
5
 10
366.945152
 20
333.339761
 11
366.911430
 21
346.574403
  0
LINE
  8
CutLine
  6
CONTINUOUS
 62
8
 10
345.055895
 20
347.748293
 11
351.187033
 21
344.786011
  0
LINE
  8
MountainLine
  6
CONTINUOUS
 62
5
 10
366.911430
 20
346.574403
 11
366.683611
 21
356.413753
  0
LINE
  8
CutLine
  6
CONTINUOUS
 62
8
 10
366.185159
 20
367.011962
 11
349.794624
 21
363.905144
  0
LINE
  8
CutLine
  6
CONTINUOUS
 62
8
 10
351.187033
 20
287.678471
 11
345.056256
 21
284.716157
  0
LINE
  8
CutLine
  6
CONTINUOUS
 62
8
 10
349.795151
 20
268.559422
 11
366.185718
 21
265.452650
  0
LINE
  8
CutLine
  6
CONTINUOUS
 62
8
 10
349.794624
 20
363.905144
 11
350.757524
 21
354.412199
  0
LINE
  8
CutLine
  6
CONTINUOUS
 62
8
 10
350.757960
 20
278.052331
 11
349.795151
 21
268.559422
  0
LINE
  8
CutLine
  6
CONTINUOUS
 62
8
 10
350.757524
 20
354.412199
 11
349.640642
 21
363.888261
  0
LINE
  8
CutLine
  6
CONTINUOUS
 62
8
 10
369.639557
 20
333.794077
 11
369.641630
 21
346.625874
  0
LINE
  8
CutLine
  6
CONTINUOUS
 62
8
 10
366.945152
 20
333.339761
 11
369.639557
 21
333.794077
  0
LINE
  8
CutLine
  6
CONTINUOUS
 62
8
 10
369.641630
 20
346.625874
 11
366.911430
 21
346.574403
  0
LINE
  8
CutLine
  6
CONTINUOUS
 62
8
 10
366.911430
 20
346.574403
 11
369.550850
 21
347.274476
  0
LINE
  8
CutLine
  6
CONTINUOUS
 62
8
 10
369.550850
 20
347.274476
 11
369.469812
 21
356.387194
  0
LINE
  8
CutLine
  6
CONTINUOUS
 62
8
 10
369.469812
 20
356.387194
 11
366.683611
 21
356.413753
  0
LINE
  8
CutLine
  6
CONTINUOUS
 62
8
 10
342.829099
 20
272.481847
 11
349.641113
 21
268.576310
  0
LINE
  8
CutLine
  6
CONTINUOUS
 62
8
 10
328.401898
 20
315.582120
 11
329.867744
 21
298.847475
  0
LINE
  8
CutLine
  6
CONTINUOUS
 62
8
 10
329.867786
 20
333.616934
 11
328.401891
 21
316.882273
  0
LINE
  8
CutLine
  6
CONTINUOUS
 62
8
 10
334.060388
 20
350.213334
 11
330.049886
 21
334.985422
  0
LINE
  8
CutLine
  6
CONTINUOUS
 62
8
 10
349.640642
 20
363.888261
 11
342.828642
 21
359.982531
  0
LINE
  8
CutLine
  6
CONTINUOUS
 62
8
 10
125.665056
 20
38.752536
 11
127.270915
 21
27.672775
  0
LINE
  8
CutLine
  6
CONTINUOUS
 62
8
 10
127.270915
 20
27.672775
 11
135.934549
 21
36.593464
  0
LINE
  8
CutLine
  6
CONTINUOUS
 62
8
 10
59.480603
 20
26.292025
 11
60.634148
 21
37.427921
  0
LINE
  8
CutLine
  6
CONTINUOUS
 62
8
 10
50.460916
 20
34.852622
 11
59.480603
 21
26.292025
  0
LINE
  8
CutLine
  6
CONTINUOUS
 62
8
 10
137.800625
 20
44.102966
 11
125.790044
 21
46.367489
  0
LINE
  8
CutLine
  6
CONTINUOUS
 62
8
 10
109.923168
 20
39.160470
 11
125.665056
 21
38.752536
  0
LINE
  8
CutLine
  6
CONTINUOUS
 62
8
 10
125.790044
 20
46.367489
 11
110.604784
 21
47.085768
  0
LINE
  8
CutLine
  6
CONTINUOUS
 62
8
 10
60.199195
 20
45.031541
 11
48.290775
 21
42.279874
  0
LINE
  8
CutLine
  6
CONTINUOUS
 62
8
 10
43.279343
 20
31.677443
 11
50.460916
 21
34.852622
  0
LINE
  8
CutLine
  6
CONTINUOUS
 62
8
 10
48.290775
 20
42.279874
 11
39.191621
 21
37.737622
  0
LINE
  8
CutLine
  6
CONTINUOUS
 62
8
 10
75.342461
 20
46.367489
 11
60.199195
 21
45.031541
  0
LINE
  8
CutLine
  6
CONTINUOUS
 62
8
 10
60.634148
 20
37.427921
 11
76.346425
 21
38.476666
  0
LINE
  8
CutLine
  6
CONTINUOUS
 62
8
 10
92.970608
 20
46.878602
 11
75.342461
 21
46.367489
  0
LINE
  8
CutLine
  6
CONTINUOUS
 62
8
 10
76.346425
 20
38.476666
 11
93.124999
 21
39.299167
  0
LINE
  8
CutLine
  6
CONTINUOUS
 62
8
 10
93.124999
 20
39.299167
 11
109.923168
 21
39.160470
  0
LINE
  8
CutLine
  6
CONTINUOUS
 62
8
 10
110.604784
 20
47.085768
 11
92.970608
 21
46.878602
  0
LINE
  8
CutLine
  6
CONTINUOUS
 62
8
 10
135.934549
 20
36.593464
 11
143.239536
 21
33.713320
  0
LINE
  8
CutLine
  6
CONTINUOUS
 62
8
 10
147.077162
 20
39.934928
 11
137.800625
 21
44.102966
  0
LINE
  8
CutLine
  6
CONTINUOUS
 62
8
 10
163.964015
 20
28.535976
 11
162.131785
 21
30.909726
  0
LINE
  8
CutLine
  6
CONTINUOUS
 62
8
 10
159.850382
 20
23.353438
 11
163.964015
 21
28.535976
  0
LINE
  8
MountainLine
  6
CONTINUOUS
 62
5
 10
162.131785
 20
30.909726
 11
157.443509
 21
24.964085
  0
LINE
  8
CutLine
  6
CONTINUOUS
 62
8
 10
157.443509
 20
24.964085
 11
159.850382
 21
23.353438
  0
LINE
  8
CutLine
  6
CONTINUOUS
 62
8
 10
162.131785
 20
30.909726
 11
147.077162
 21
39.934928
  0
LINE
  8
CutLine
  6
CONTINUOUS
 62
8
 10
143.239536
 20
33.713320
 11
157.443509
 21
24.964085
  0
LINE
  8
CutLine
  6
CONTINUOUS
 62
8
 10
24.516868
 20
28.107022
 11
22.782810
 21
25.660506
  0
LINE
  8
CutLine
  6
CONTINUOUS
 62
8
 10
22.782810
 20
25.660506
 11
27.104040
 21
20.649753
  0
LINE
  8
CutLine
  6
CONTINUOUS
 62
8
 10
27.104040
 20
20.649753
 11
29.443301
 21
22.357215
  0
LINE
  8
MountainLine
  6
CONTINUOUS
 62
5
 10
29.443301
 20
22.357215
 11
24.516868
 21
28.107022
  0
LINE
  8
CutLine
  6
CONTINUOUS
 62
8
 10
39.191621
 20
37.737622
 11
24.516868
 21
28.107022
  0
LINE
  8
CutLine
  6
CONTINUOUS
 62
8
 10
29.443301
 20
22.357215
 11
43.279343
 21
31.677443
  0
LINE
  8
CutLine
  6
CONTINUOUS
 62
8
 10
1104.535811
 20
142.104011
 11
1121.402790
 21
142.439518
  0
LINE
  8
CutLine
  6
CONTINUOUS
 62
8
 10
1092.254945
 20
140.999068
 11
1104.535811
 21
142.104011
  0
LINE
  8
CutLine
  6
CONTINUOUS
 62
8
 10
1104.063600
 20
145.118408
 11
1091.286206
 21
143.938118
  0
LINE
  8
CutLine
  6
CONTINUOUS
 62
8
 10
1121.402790
 20
145.453869
 11
1104.063600
 21
145.118408
  0
LINE
  8
CutLine
  6
CONTINUOUS
 62
8
 10
1121.402790
 20
142.439518
 11
1138.269768
 21
142.104011
  0
LINE
  8
CutLine
  6
CONTINUOUS
 62
8
 10
1151.519376
 20
143.938091
 11
1138.741979
 21
145.118408
  0
LINE
  8
CutLine
  6
CONTINUOUS
 62
8
 10
1138.269768
 20
142.104011
 11
1150.550470
 21
140.999094
  0
LINE
  8
CutLine
  6
CONTINUOUS
 62
8
 10
1138.741979
 20
145.118408
 11
1121.402790
 21
145.453869
  0
LINE
  8
CutLine
  6
CONTINUOUS
 62
8
 10
1091.286206
 20
143.938118
 11
1082.760046
 21
140.720150
  0
LINE
  8
CutLine
  6
CONTINUOUS
 62
8
 10
1084.915862
 20
138.772997
 11
1092.254945
 21
140.999068
  0
LINE
  8
CutLine
  6
CONTINUOUS
 62
8
 10
1160.045392
 20
140.720134
 11
1151.519376
 21
143.938091
  0
LINE
  8
CutLine
  6
CONTINUOUS
 62
8
 10
1150.550470
 20
140.999094
 11
1157.889712
 21
138.772983
  0
LINE
  8
CutLine
  6
CONTINUOUS
 62
8
 10
1168.806965
 20
136.230814
 11
1160.045392
 21
140.720134
  0
LINE
  8
CutLine
  6
CONTINUOUS
 62
8
 10
1157.889712
 20
138.772983
 11
1168.806965
 21
136.230814
  0
LINE
  8
CutLine
  6
CONTINUOUS
 62
8
 10
1082.760046
 20
140.720150
 11
1073.998642
 21
136.230685
  0
LINE
  8
CutLine
  6
CONTINUOUS
 62
8
 10
1073.998642
 20
136.230685
 11
1084.915862
 21
138.772997
  0
LINE
  8
CutLine
  6
CONTINUOUS
 62
8
 10
1043.198387
 20
336.075421
 11
1043.648269
 21
378.277854
  0
LINE
  8
CutLine
  6
CONTINUOUS
 62
8
 10
1040.979997
 20
420.140866
 11
1039.567865
 21
378.367931
  0
LINE
  8
CutLine
  6
CONTINUOUS
 62
8
 10
1039.567865
 20
378.367931
 11
1039.135205
 21
336.573536
  0
LINE
  8
CutLine
  6
CONTINUOUS
 62
8
 10
1043.648269
 20
378.277854
 11
1045.061184
 21
420.459027
  0
LINE
  8
CutLine
  6
CONTINUOUS
 62
8
 10
1040.074961
 20
463.602889
 11
1040.979997
 21
420.140866
  0
LINE
  8
CutLine
  6
CONTINUOUS
 62
8
 10
1045.061184
 20
420.459027
 11
1044.161432
 21
464.146716
  0
LINE
  8
CutLine
  6
CONTINUOUS
 62
8
 10
1040.371683
 20
292.470152
 11
1043.198387
 21
336.075421
  0
LINE
  8
CutLine
  6
CONTINUOUS
 62
8
 10
1039.135205
 20
336.573536
 11
1036.313185
 21
293.193780
  0
LINE
  8
CutLine
  6
CONTINUOUS
 62
8
 10
1037.099182
 20
276.204622
 11
1040.371683
 21
292.470152
  0
LINE
  8
CutLine
  6
CONTINUOUS
 62
8
 10
1036.313185
 20
293.193780
 11
1033.791073
 21
277.010586
  0
LINE
  8
CutLine
  6
CONTINUOUS
 62
8
 10
1038.269399
 20
479.881465
 11
1040.074961
 21
463.602889
  0
LINE
  8
CutLine
  6
CONTINUOUS
 62
8
 10
1044.161432
 20
464.146716
 11
1041.609847
 21
480.540804
  0
LINE
  8
CutLine
  6
CONTINUOUS
 62
8
 10
1032.902313
 20
525.158935
 11
1038.269399
 21
479.881465
  0
LINE
  8
CutLine
  6
CONTINUOUS
 62
8
 10
1041.609847
 20
480.540804
 11
1036.597429
 21
526.188146
  0
LINE
  8
CutLine
  6
CONTINUOUS
 62
8
 10
1030.077705
 20
230.822875
 11
1037.099182
 21
276.204622
  0
LINE
  8
CutLine
  6
CONTINUOUS
 62
8
 10
1033.791073
 20
277.010586
 11
1026.431610
 21
232.014081
  0
LINE
  8
CutLine
  6
CONTINUOUS
 62
8
 10
1042.214359
 20
132.309438
 11
1037.227352
 21
163.325029
  0
LINE
  8
CutLine
  6
CONTINUOUS
 62
8
 10
1033.612098
 20
163.148685
 11
1038.940236
 21
130.944173
  0
LINE
  8
CutLine
  6
CONTINUOUS
 62
8
 10
1038.940236
 20
130.944173
 11
1054.784255
 21
84.149435
  0
LINE
  8
CutLine
  6
CONTINUOUS
 62
8
 10
1057.952541
 20
85.833792
 11
1042.214359
 21
132.309438
  0
LINE
  8
CutLine
  6
CONTINUOUS
 62
8
 10
1037.227352
 20
163.325029
 11
1030.077705
 21
230.822875
  0
LINE
  8
CutLine
  6
CONTINUOUS
 62
8
 10
1026.431610
 20
232.014081
 11
1033.612098
 21
163.148685
  0
LINE
  8
CutLine
  6
CONTINUOUS
 62
8
 10
1100.171115
 20
41.947077
 11
1081.194974
 21
55.568302
  0
LINE
  8
CutLine
  6
CONTINUOUS
 62
8
 10
1079.001507
 20
52.463873
 11
1098.437509
 21
38.514252
  0
LINE
  8
CutLine
  6
CONTINUOUS
 62
8
 10
1098.437509
 20
38.514252
 11
1118.025171
 21
27.688516
  0
LINE
  8
CutLine
  6
CONTINUOUS
 62
8
 10
1119.275736
 20
31.663766
 11
1100.171115
 21
41.947077
  0
LINE
  8
CutLine
  6
CONTINUOUS
 62
8
 10
1175.617054
 20
9.295751
 11
1174.656160
 21
14.719687
  0
LINE
  8
CutLine
  6
CONTINUOUS
 62
8
 10
1174.656160
 20
14.719687
 11
1119.275736
 21
31.663766
  0
LINE
  8
CutLine
  6
CONTINUOUS
 62
8
 10
1118.025171
 20
27.688516
 11
1175.617054
 21
9.295751
  0
LINE
  8
CutLine
  6
CONTINUOUS
 62
8
 10
1081.194974
 20
55.568302
 11
1057.952541
 21
85.833792
  0
LINE
  8
CutLine
  6
CONTINUOUS
 62
8
 10
1054.784255
 20
84.149435
 11
1079.001507
 21
52.463873
  0
LINE
  8
CutLine
  6
CONTINUOUS
 62
8
 10
1053.068663
 20
624.070231
 11
1070.840009
 21
669.803262
  0
LINE
  8
CutLine
  6
CONTINUOUS
 62
8
 10
1067.749867
 20
671.627549
 11
1049.857952
 21
625.578507
  0
LINE
  8
CutLine
  6
CONTINUOUS
 62
8
 10
1043.114249
 20
593.640410
 11
1032.902313
 21
525.158935
  0
LINE
  8
CutLine
  6
CONTINUOUS
 62
8
 10
1036.597429
 20
526.188146
 11
1046.718179
 21
593.304804
  0
LINE
  8
CutLine
  6
CONTINUOUS
 62
8
 10
1049.857952
 20
625.578507
 11
1043.114249
 21
593.640410
  0
LINE
  8
CutLine
  6
CONTINUOUS
 62
8
 10
1046.718179
 20
593.304804
 11
1053.068663
 21
624.070231
  0
LINE
  8
CutLine
  6
CONTINUOUS
 62
8
 10
1191.717968
 20
740.808564
 11
1133.357493
 21
725.024531
  0
LINE
  8
CutLine
  6
CONTINUOUS
 62
8
 10
1134.428006
 20
720.997059
 11
1190.514189
 21
735.433419
  0
LINE
  8
CutLine
  6
CONTINUOUS
 62
8
 10
1190.514189
 20
735.433419
 11
1191.717968
 21
740.808564
  0
LINE
  8
CutLine
  6
CONTINUOUS
 62
8
 10
1133.357493
 20
725.024531
 11
1113.315541
 21
715.124599
  0
LINE
  8
CutLine
  6
CONTINUOUS
 62
8
 10
1114.889944
 20
711.608074
 11
1134.428006
 21
720.997059
  0
LINE
  8
CutLine
  6
CONTINUOUS
 62
8
 10
1113.315541
 20
715.124599
 11
1093.298615
 21
702.107216
  0
LINE
  8
CutLine
  6
CONTINUOUS
 62
8
 10
1095.349367
 20
698.900879
 11
1114.889944
 21
711.608074
  0
LINE
  8
CutLine
  6
CONTINUOUS
 62
8
 10
1093.298615
 20
702.107216
 11
1067.749867
 21
671.627549
  0
LINE
  8
CutLine
  6
CONTINUOUS
 62
8
 10
1070.840009
 20
669.803262
 11
1095.349367
 21
698.900879
  0
LINE
  8
CutLine
  6
CONTINUOUS
 62
8
 10
992.211338
 20
43.950703
 11
994.255550
 21
44.504430
  0
LINE
  8
CutLine
  6
CONTINUOUS
 62
8
 10
993.662998
 20
47.363575
 11
991.617815
 21
46.809938
  0
LINE
  8
CutLine
  6
CONTINUOUS
 62
8
 10
941.506998
 20
36.489568
 11
992.211338
 21
43.950703
  0
LINE
  8
ValleyLine
  6
CONTINUOUS
 62
1
 10
991.617815
 20
46.809938
 11
940.936339
 21
38.212111
  0
LINE
  8
CutLine
  6
CONTINUOUS
 62
8
 10
940.936339
 20
38.212111
 11
941.506998
 21
36.489568
  0
LINE
  8
CutLine
  6
CONTINUOUS
 62
8
 10
994.255550
 20
44.504430
 11
993.662998
 21
47.363575
  0
LINE
  8
CutLine
  6
CONTINUOUS
 62
8
 10
993.198655
 20
48.220693
 11
940.936339
 21
38.212111
  0
LINE
  8
CutLine
  6
CONTINUOUS
 62
8
 10
991.617815
 20
46.809938
 11
993.198655
 21
48.220693
  0
LINE
  8
CutLine
  6
CONTINUOUS
 62
8
 10
902.627157
 20
40.920886
 11
905.125470
 21
39.286773
  0
LINE
  8
CutLine
  6
CONTINUOUS
 62
8
 10
905.125470
 20
39.286773
 11
926.286605
 21
108.162694
  0
LINE
  8
CutLine
  6
CONTINUOUS
 62
8
 10
923.395865
 20
108.518170
 11
902.627157
 21
40.920886
  0
LINE
  8
CutLine
  6
CONTINUOUS
 62
8
 10
926.286605
 20
108.162694
 11
927.796034
 21
144.699355
  0
LINE
  8
CutLine
  6
CONTINUOUS
 62
8
 10
796.277459
 20
253.830762
 11
794.202857
 21
254.256970
  0
LINE
  8
CutLine
  6
CONTINUOUS
 62
8
 10
794.202857
 20
254.256970
 11
793.787568
 21
251.366814
  0
LINE
  8
CutLine
  6
CONTINUOUS
 62
8
 10
793.787568
 20
251.366814
 11
795.863091
 21
250.940674
  0
LINE
  8
CutLine
  6
CONTINUOUS
 62
8
 10
847.839358
 20
246.954461
 11
796.277459
 21
253.830762
  0
LINE
  8
CutLine
  6
CONTINUOUS
 62
8
 10
795.863091
 20
250.940674
 11
846.881665
 21
244.060001
  0
LINE
  8
CutLine
  6
CONTINUOUS
 62
8
 10
846.881665
 20
244.060001
 11
868.928901
 21
231.478718
  0
LINE
  8
CutLine
  6
CONTINUOUS
 62
8
 10
869.094753
 20
234.903381
 11
847.839358
 21
246.954461
  0
LINE
  8
CutLine
  6
CONTINUOUS
 62
8
 10
868.928901
 20
231.478718
 11
886.267020
 21
216.677708
  0
LINE
  8
CutLine
  6
CONTINUOUS
 62
8
 10
887.920547
 20
218.979685
 11
869.094753
 21
234.903381
  0
LINE
  8
CutLine
  6
CONTINUOUS
 62
8
 10
911.968896
 20
187.029940
 11
887.920547
 21
218.979685
  0
LINE
  8
CutLine
  6
CONTINUOUS
 62
8
 10
886.267020
 20
216.677708
 11
909.406236
 21
185.963570
  0
LINE
  8
CutLine
  6
CONTINUOUS
 62
8
 10
909.406236
 20
185.963570
 11
924.953398
 21
144.185983
  0
LINE
  8
CutLine
  6
CONTINUOUS
 62
8
 10
927.796034
 20
144.699355
 11
911.968896
 21
187.029940
  0
LINE
  8
CutLine
  6
CONTINUOUS
 62
8
 10
924.953398
 20
144.185983
 11
923.395865
 21
108.518170
  0
LINE
  8
CutLine
  6
CONTINUOUS
 62
8
 10
739.773378
 20
598.184030
 11
686.375510
 21
606.557028
  0
LINE
  8
CutLine
  6
CONTINUOUS
 62
8
 10
685.859090
 20
602.266171
 11
738.998310
 21
594.012689
  0
LINE
  8
CutLine
  6
CONTINUOUS
 62
8
 10
768.372838
 20
590.240234
 11
739.773378
 21
598.184030
  0
LINE
  8
CutLine
  6
CONTINUOUS
 62
8
 10
738.998310
 20
594.012689
 11
767.589296
 21
586.115026
  0
LINE
  8
CutLine
  6
CONTINUOUS
 62
8
 10
835.227335
 20
569.148327
 11
768.372838
 21
590.240234
  0
LINE
  8
CutLine
  6
CONTINUOUS
 62
8
 10
767.589296
 20
586.115026
 11
834.091047
 21
565.000764
  0
LINE
  8
CutLine
  6
CONTINUOUS
 62
8
 10
600.784825
 20
614.932261
 11
533.738966
 21
619.786821
  0
LINE
  8
CutLine
  6
CONTINUOUS
 62
8
 10
533.738966
 20
619.786821
 11
541.979468
 21
614.146720
  0
LINE
  8
CutLine
  6
CONTINUOUS
 62
8
 10
625.379739
 20
612.450675
 11
600.784825
 21
614.932261
  0
LINE
  8
CutLine
  6
CONTINUOUS
 62
8
 10
600.566550
 20
610.340909
 11
628.453707
 21
607.682471
  0
LINE
  8
CutLine
  6
CONTINUOUS
 62
8
 10
541.979468
 20
614.146720
 11
600.566550
 21
610.340909
  0
LINE
  8
CutLine
  6
CONTINUOUS
 62
8
 10
648.281030
 20
609.985423
 11
625.379739
 21
612.450675
  0
LINE
  8
CutLine
  6
CONTINUOUS
 62
8
 10
628.453707
 20
607.682471
 11
647.893834
 21
605.589836
  0
LINE
  8
CutLine
  6
CONTINUOUS
 62
8
 10
686.375510
 20
606.557028
 11
648.281030
 21
609.985423
  0
LINE
  8
CutLine
  6
CONTINUOUS
 62
8
 10
647.893834
 20
605.589836
 11
685.859090
 21
602.266171
  0
LINE
  8
CutLine
  6
CONTINUOUS
 62
8
 10
942.552942
 20
226.026152
 11
921.295314
 21
176.601921
  0
LINE
  8
CutLine
  6
CONTINUOUS
 62
8
 10
925.204866
 20
174.759826
 11
946.498402
 21
224.465973
  0
LINE
  8
CutLine
  6
CONTINUOUS
 62
8
 10
946.498402
 20
224.465973
 11
954.967112
 21
252.914459
  0
LINE
  8
CutLine
  6
CONTINUOUS
 62
8
 10
951.056466
 20
254.442891
 11
942.552942
 21
226.026152
  0
LINE
  8
CutLine
  6
CONTINUOUS
 62
8
 10
968.510320
 20
321.997714
 11
951.056466
 21
254.442891
  0
LINE
  8
CutLine
  6
CONTINUOUS
 62
8
 10
954.967112
 20
252.914459
 11
972.627625
 21
320.756235
  0
LINE
  8
CutLine
  6
CONTINUOUS
 62
8
 10
895.307692
 20
124.928524
 11
882.736399
 21
99.894172
  0
LINE
  8
CutLine
  6
CONTINUOUS
 62
8
 10
886.741138
 20
97.638528
 11
897.712563
 21
119.790268
  0
LINE
  8
CutLine
  6
CONTINUOUS
 62
8
 10
882.736399
 20
99.894172
 11
854.818567
 21
48.246236
  0
LINE
  8
CutLine
  6
CONTINUOUS
 62
8
 10
903.877574
 20
142.536438
 11
895.307692
 21
124.928524
  0
LINE
  8
CutLine
  6
CONTINUOUS
 62
8
 10
897.712563
 20
119.790268
 11
907.806752
 21
140.528992
  0
LINE
  8
CutLine
  6
CONTINUOUS
 62
8
 10
921.295314
 20
176.601921
 11
903.877574
 21
142.536438
  0
LINE
  8
CutLine
  6
CONTINUOUS
 62
8
 10
907.806752
 20
140.528992
 11
925.204866
 21
174.759826
  0
LINE
  8
CutLine
  6
CONTINUOUS
 62
8
 10
854.818567
 20
48.246236
 11
855.215816
 21
38.268054
  0
LINE
  8
CutLine
  6
CONTINUOUS
 62
8
 10
855.215816
 20
38.268054
 11
886.741138
 21
97.638528
  0
LINE
  8
CutLine
  6
CONTINUOUS
 62
8
 10
892.978132
 20
542.650501
 11
876.605601
 21
550.723700
  0
LINE
  8
CutLine
  6
CONTINUOUS
 62
8
 10
874.279037
 20
547.311061
 11
890.097920
 21
539.574166
  0
LINE
  8
CutLine
  6
CONTINUOUS
 62
8
 10
890.097920
 20
539.574166
 11
922.364041
 21
503.084835
  0
LINE
  8
CutLine
  6
CONTINUOUS
 62
8
 10
946.853607
 20
468.697115
 11
926.023288
 21
504.992023
  0
LINE
  8
CutLine
  6
CONTINUOUS
 62
8
 10
922.364041
 20
503.084835
 11
943.270652
 21
466.715352
  0
LINE
  8
CutLine
  6
CONTINUOUS
 62
8
 10
926.023288
 20
504.992023
 11
892.978132
 21
542.650501
  0
LINE
  8
CutLine
  6
CONTINUOUS
 62
8
 10
876.605601
 20
550.723700
 11
835.227335
 21
569.148327
  0
LINE
  8
CutLine
  6
CONTINUOUS
 62
8
 10
834.091047
 20
565.000764
 11
874.279037
 21
547.311061
  0
LINE
  8
CutLine
  6
CONTINUOUS
 62
8
 10
976.733927
 20
382.953865
 11
974.881595
 21
365.442068
  0
LINE
  8
CutLine
  6
CONTINUOUS
 62
8
 10
979.008834
 20
365.599370
 11
980.870543
 21
383.758973
  0
LINE
  8
CutLine
  6
CONTINUOUS
 62
8
 10
962.969874
 20
429.677806
 11
976.733927
 21
382.953865
  0
LINE
  8
CutLine
  6
CONTINUOUS
 62
8
 10
980.870543
 20
383.758973
 11
966.530050
 21
431.764114
  0
LINE
  8
CutLine
  6
CONTINUOUS
 62
8
 10
943.270652
 20
466.715352
 11
962.969874
 21
429.677806
  0
LINE
  8
CutLine
  6
CONTINUOUS
 62
8
 10
966.530050
 20
431.764114
 11
946.853607
 21
468.697115
  0
LINE
  8
CutLine
  6
CONTINUOUS
 62
8
 10
974.881595
 20
365.442068
 11
968.510320
 21
321.997714
  0
LINE
  8
CutLine
  6
CONTINUOUS
 62
8
 10
972.627625
 20
320.756235
 11
979.008834
 21
365.599370
  0
LINE
  8
CutLine
  6
CONTINUOUS
 62
8
 10
974.985822
 20
86.153865
 11
973.887462
 21
88.960612
  0
LINE
  8
CutLine
  6
CONTINUOUS
 62
8
 10
969.764387
 20
84.399474
 11
974.985822
 21
86.153865
  0
LINE
  8
CutLine
  6
CONTINUOUS
 62
8
 10
968.705735
 20
87.201436
 11
969.764387
 21
84.399474
  0
LINE
  8
ValleyLine
  6
CONTINUOUS
 62
1
 10
974.055433
 20
109.274998
 11
969.764387
 21
118.097435
  0
LINE
  8
CutLine
  6
CONTINUOUS
 62
8
 10
969.764387
 20
118.097435
 11
968.705735
 21
87.201436
  0
LINE
  8
CutLine
  6
CONTINUOUS
 62
8
 10
973.887462
 20
88.960612
 11
974.055433
 21
109.274998
  0
LINE
  8
CutLine
  6
CONTINUOUS
 62
8
 10
971.188730
 20
118.932945
 11
969.764387
 21
118.097435
  0
LINE
  8
CutLine
  6
CONTINUOUS
 62
8
 10
975.762476
 20
110.056151
 11
971.188730
 21
118.932945
  0
LINE
  8
CutLine
  6
CONTINUOUS
 62
8
 10
974.055433
 20
109.274998
 11
975.762476
 21
110.056151
  0
LINE
  8
CutLine
  6
CONTINUOUS
 62
8
 10
1085.507632
 20
100.866893
 11
1090.652438
 21
98.898805
  0
LINE
  8
CutLine
  6
CONTINUOUS
 62
8
 10
1090.652438
 20
98.898805
 11
1091.825447
 21
101.654454
  0
LINE
  8
CutLine
  6
CONTINUOUS
 62
8
 10
1086.720728
 20
103.625991
 11
1085.507632
 21
100.866893
  0
LINE
  8
ValleyLine
  6
CONTINUOUS
 62
1
 10
1087.390279
 20
123.930024
 11
1092.041141
 21
132.568127
  0
LINE
  8
CutLine
  6
CONTINUOUS
 62
8
 10
1092.041141
 20
132.568127
 11
1090.652438
 21
133.461628
  0
LINE
  8
CutLine
  6
CONTINUOUS
 62
8
 10
1085.716664
 20
124.780611
 11
1087.390279
 21
123.930024
  0
LINE
  8
CutLine
  6
CONTINUOUS
 62
8
 10
1090.652438
 20
133.461628
 11
1085.716664
 21
124.780611
  0
LINE
  8
CutLine
  6
CONTINUOUS
 62
8
 10
1091.825447
 20
101.654454
 11
1092.041141
 21
132.568127
  0
LINE
  8
CutLine
  6
CONTINUOUS
 62
8
 10
1087.390279
 20
123.930024
 11
1086.720728
 21
103.625991
  0
LINE
  8
CutLine
  6
CONTINUOUS
 62
8
 10
494.018478
 20
360.933721
 11
492.414161
 21
319.281117
  0
LINE
  8
CutLine
  6
CONTINUOUS
 62
8
 10
495.321339
 20
319.281117
 11
496.862927
 21
360.470746
  0
LINE
  8
CutLine
  6
CONTINUOUS
 62
8
 10
502.714203
 20
393.308875
 11
494.018478
 21
360.933721
  0
LINE
  8
CutLine
  6
CONTINUOUS
 62
8
 10
496.862927
 20
360.470746
 11
505.371249
 21
392.024676
  0
LINE
  8
CutLine
  6
CONTINUOUS
 62
8
 10
508.635171
 20
404.324758
 11
502.714203
 21
393.308875
  0
LINE
  8
CutLine
  6
CONTINUOUS
 62
8
 10
505.371249
 20
392.024676
 11
511.149364
 21
402.737883
  0
LINE
  8
CutLine
  6
CONTINUOUS
 62
8
 10
532.110357
 20
444.224238
 11
508.635171
 21
404.324758
  0
LINE
  8
CutLine
  6
CONTINUOUS
 62
8
 10
511.149364
 20
402.737883
 11
534.138755
 21
442.033802
  0
LINE
  8
CutLine
  6
CONTINUOUS
 62
8
 10
534.138755
 20
442.033802
 11
532.110357
 21
444.224238
  0
LINE
  8
CutLine
  6
CONTINUOUS
 62
8
 10
496.862927
 20
278.091326
 11
495.321339
 21
319.281117
  0
LINE
  8
CutLine
  6
CONTINUOUS
 62
8
 10
505.371227
 20
246.537236
 11
496.862927
 21
278.091326
  0
LINE
  8
CutLine
  6
CONTINUOUS
 62
8
 10
494.018417
 20
277.628352
 11
502.714202
 21
245.253197
  0
LINE
  8
CutLine
  6
CONTINUOUS
 62
8
 10
492.414161
 20
319.281117
 11
494.018417
 21
277.628352
  0
LINE
  8
CutLine
  6
CONTINUOUS
 62
8
 10
511.149339
 20
235.824168
 11
505.371227
 21
246.537236
  0
LINE
  8
CutLine
  6
CONTINUOUS
 62
8
 10
532.110234
 20
194.337764
 11
534.138672
 21
196.528045
  0
LINE
  8
CutLine
  6
CONTINUOUS
 62
8
 10
534.138672
 20
196.528045
 11
511.149339
 21
235.824168
  0
LINE
  8
CutLine
  6
CONTINUOUS
 62
8
 10
508.635182
 20
234.237301
 11
532.110234
 21
194.337764
  0
LINE
  8
CutLine
  6
CONTINUOUS
 62
8
 10
502.714202
 20
245.253197
 11
508.635182
 21
234.237301
  0
LINE
  8
CutLine
  6
CONTINUOUS
 62
8
 10
1006.264817
 20
100.319320
 11
1004.451790
 21
100.300834
  0
LINE
  8
CutLine
  6
CONTINUOUS
 62
8
 10
1015.446876
 20
49.891078
 11
1006.264817
 21
100.319320
  0
LINE
  8
CutLine
  6
CONTINUOUS
 62
8
 10
1004.451790
 20
100.300834
 11
1012.549992
 21
49.525663
  0
LINE
  8
CutLine
  6
CONTINUOUS
 62
8
 10
1012.549992
 20
49.525663
 11
1015.446876
 21
49.891078
  0
LINE
  8
CutLine
  6
CONTINUOUS
 62
8
 10
1088.065072
 20
118.249374
 11
1090.727010
 21
119.222278
  0
LINE
  8
CutLine
  6
CONTINUOUS
 62
8
 10
1090.727010
 20
119.222278
 11
1081.138888
 21
139.903791
  0
LINE
  8
CutLine
  6
CONTINUOUS
 62
8
 10
1077.796503
 20
140.665277
 11
1088.065072
 21
118.249374
  0
LINE
  8
CutLine
  6
CONTINUOUS
 62
8
 10
1081.138888
 20
139.903791
 11
1074.970327
 21
164.516256
  0
LINE
  8
CutLine
  6
CONTINUOUS
 62
8
 10
1071.924261
 20
164.373123
 11
1077.796503
 21
140.665277
  0
LINE
  8
CutLine
  6
CONTINUOUS
 62
8
 10
1079.166385
 20
215.888486
 11
1071.924261
 21
164.373123
  0
LINE
  8
CutLine
  6
CONTINUOUS
 62
8
 10
1074.970327
 20
164.516256
 11
1082.061596
 21
215.509566
  0
LINE
  8
CutLine
  6
CONTINUOUS
 62
8
 10
1082.061596
 20
215.509566
 11
1079.166385
 21
215.888486
  0
LINE
  8
CutLine
  6
CONTINUOUS
 62
8
 10
184.274390
 20
190.760354
 11
189.259310
 21
154.533891
  0
LINE
  8
CutLine
  6
CONTINUOUS
 62
8
 10
189.259310
 20
154.533891
 11
216.888646
 21
87.988477
  0
LINE
  8
CutLine
  6
CONTINUOUS
 62
8
 10
219.219985
 20
89.853220
 11
192.102849
 21
155.163259
  0
LINE
  8
CutLine
  6
CONTINUOUS
 62
8
 10
192.102849
 20
155.163259
 11
187.152857
 21
190.520263
  0
LINE
  8
CutLine
  6
CONTINUOUS
 62
8
 10
187.152857
 20
190.520263
 11
198.647372
 21
233.589451
  0
LINE
  8
CutLine
  6
CONTINUOUS
 62
8
 10
195.994901
 20
234.406722
 11
184.274390
 21
190.760354
  0
LINE
  8
CutLine
  6
CONTINUOUS
 62
8
 10
216.888646
 20
268.503040
 11
195.994901
 21
234.406722
  0
LINE
  8
CutLine
  6
CONTINUOUS
 62
8
 10
198.647372
 20
233.589451
 11
218.753898
 21
266.369196
  0
LINE
  8
CutLine
  6
CONTINUOUS
 62
8
 10
216.888646
 20
87.988477
 11
219.219985
 21
89.853220
  0
LINE
  8
CutLine
  6
CONTINUOUS
 62
8
 10
218.753898
 20
266.369196
 11
216.888646
 21
268.503040
  0
LINE
  8
CutLine
  6
CONTINUOUS
 62
8
 10
694.028382
 20
350.352982
 11
678.243234
 21
332.672625
  0
LINE
  8
CutLine
  6
CONTINUOUS
 62
8
 10
678.746604
 20
331.280094
 11
695.118003
 21
349.042629
  0
LINE
  8
CutLine
  6
CONTINUOUS
 62
8
 10
678.243234
 20
332.672625
 11
657.835434
 21
317.669479
  0
LINE
  8
CutLine
  6
CONTINUOUS
 62
8
 10
730.595220
 20
425.799557
 11
716.671068
 21
384.133506
  0
LINE
  8
CutLine
  6
CONTINUOUS
 62
8
 10
717.959132
 20
383.127731
 11
732.046968
 21
425.653409
  0
LINE
  8
CutLine
  6
CONTINUOUS
 62
8
 10
716.671068
 20
384.133506
 11
694.028382
 21
350.352982
  0
LINE
  8
CutLine
  6
CONTINUOUS
 62
8
 10
695.118003
 20
349.042629
 11
717.959132
 21
383.127731
  0
LINE
  8
CutLine
  6
CONTINUOUS
 62
8
 10
657.698000
 20
315.168557
 11
678.746604
 21
331.280094
  0
LINE
  8
CutLine
  6
CONTINUOUS
 62
8
 10
657.835434
 20
317.669479
 11
596.888416
 21
302.522861
  0
LINE
  8
CutLine
  6
CONTINUOUS
 62
8
 10
596.888416
 20
302.522861
 11
657.698000
 21
315.168557
  0
LINE
  8
CutLine
  6
CONTINUOUS
 62
8
 10
700.637040
 20
530.567505
 11
728.071486
 21
464.406344
  0
LINE
  8
CutLine
  6
CONTINUOUS
 62
8
 10
729.488797
 20
464.146382
 11
701.985550
 21
532.887404
  0
LINE
  8
CutLine
  6
CONTINUOUS
 62
8
 10
728.071486
 20
464.406344
 11
730.595220
 21
425.799557
  0
LINE
  8
CutLine
  6
CONTINUOUS
 62
8
 10
732.046968
 20
425.653409
 11
729.488797
 21
464.146382
  0
LINE
  8
CutLine
  6
CONTINUOUS
 62
8
 10
701.985550
 20
532.887404
 11
700.637040
 21
530.567505
  0
ENDSEC
  0
EOF
