  0
SECTION
  2
HEADER
  9
$ACADVER
  1
AC1009
  0
ENDSEC
  0
SECTION
  2
BLOCKS
  0
ENDSEC
  0
SECTION
  2
ENTITIES
  0
LINE
  8
CutLine
  6
CONTINUOUS
 62
8
 10
88.491846
 20
596.810713
 11
23.803055
 21
598.125295
  0
LINE
  8
CutLine
  6
CONTINUOUS
 62
8
 10
23.803055
 20
598.125295
 11
31.461128
 21
582.547538
  0
LINE
  8
CutLine
  6
CONTINUOUS
 62
8
 10
145.515027
 20
582.517376
 11
153.181159
 21
598.089352
  0
LINE
  8
CutLine
  6
CONTINUOUS
 62
8
 10
153.181159
 20
598.089352
 11
88.491846
 21
596.810713
  0
LINE
  8
CutLine
  6
CONTINUOUS
 62
8
 10
31.461086
 20
582.547538
 11
88.487860
 21
582.408236
  0
LINE
  8
CutLine
  6
CONTINUOUS
 62
8
 10
88.487860
 20
582.408236
 11
145.515027
 21
582.517376
  0
LINE
  8
CutLine
  6
CONTINUOUS
 62
8
 10
126.727862
 20
125.445298
 11
126.727862
 21
38.894432
  0
LINE
  8
CutLine
  6
CONTINUOUS
 62
8
 10
126.727862
 20
38.894432
 11
144.757438
 21
34.194644
  0
LINE
  8
CutLine
  6
CONTINUOUS
 62
8
 10
144.757438
 20
34.194644
 11
126.727862
 21
125.445298
  0
LINE
  8
CutLine
  6
CONTINUOUS
 62
8
 10
155.577353
 20
457.607484
 11
146.054449
 21
580.460226
  0
LINE
  8
CutLine
  6
CONTINUOUS
 62
8
 10
32.010564
 20
580.480388
 11
22.459351
 21
457.621986
  0
LINE
  8
CutLine
  6
CONTINUOUS
 62
8
 10
22.459351
 20
457.621986
 11
89.018274
 21
457.205958
  0
LINE
  8
CutLine
  6
CONTINUOUS
 62
8
 10
89.027282
 20
580.351086
 11
32.000508
 21
580.490388
  0
LINE
  8
CutLine
  6
CONTINUOUS
 62
8
 10
146.054449
 20
580.460226
 11
89.027282
 21
580.351086
  0
LINE
  8
CutLine
  6
CONTINUOUS
 62
8
 10
89.018274
 20
457.205958
 11
155.577353
 21
457.607484
  0
LINE
  8
CutLine
  6
CONTINUOUS
 62
8
 10
161.406942
 20
597.159887
 11
150.484460
 21
583.670801
  0
LINE
  8
CutLine
  6
CONTINUOUS
 62
8
 10
160.007364
 20
460.818060
 11
176.130116
 21
452.043343
  0
LINE
  8
CutLine
  6
CONTINUOUS
 62
8
 10
176.130116
 20
452.043343
 11
161.406942
 21
597.159887
  0
LINE
  8
CutLine
  6
CONTINUOUS
 62
8
 10
150.484460
 20
583.670801
 11
160.007364
 21
460.818060
  0
LINE
  8
CutLine
  6
CONTINUOUS
 62
8
 10
23.433444
 20
455.434206
 11
11.092281
 21
441.880797
  0
LINE
  8
CutLine
  6
CONTINUOUS
 62
8
 10
90.036858
 20
440.825359
 11
167.894050
 21
440.870879
  0
LINE
  8
CutLine
  6
CONTINUOUS
 62
8
 10
167.894050
 20
440.870879
 11
168.973791
 21
442.320361
  0
LINE
  8
CutLine
  6
CONTINUOUS
 62
8
 10
89.993667
 20
455.433880
 11
23.433444
 21
455.434206
  0
LINE
  8
CutLine
  6
CONTINUOUS
 62
8
 10
168.973791
 20
442.320361
 11
156.552746
 21
455.835407
  0
LINE
  8
CutLine
  6
CONTINUOUS
 62
8
 10
156.552746
 20
455.835407
 11
89.993667
 21
455.433880
  0
LINE
  8
CutLine
  6
CONTINUOUS
 62
8
 10
12.181277
 20
440.441051
 11
90.036858
 21
440.825359
  0
LINE
  8
CutLine
  6
CONTINUOUS
 62
8
 10
11.092281
 20
441.880797
 11
12.181277
 21
440.441051
  0
LINE
  8
CutLine
  6
CONTINUOUS
 62
8
 10
31.411542
 20
80.413603
 11
31.411542
 21
200.251483
  0
LINE
  8
CutLine
  6
CONTINUOUS
 62
8
 10
31.411542
 20
200.251483
 11
19.153439
 21
209.638481
  0
LINE
  8
CutLine
  6
CONTINUOUS
 62
8
 10
19.153439
 20
209.638481
 11
31.411542
 21
80.413603
  0
LINE
  8
CutLine
  6
CONTINUOUS
 62
8
 10
176.636482
 20
248.072588
 11
173.250363
 21
247.794364
  0
LINE
  8
CutLine
  6
CONTINUOUS
 62
8
 10
173.250363
 20
247.794364
 11
176.636482
 21
154.841249
  0
LINE
  8
CutLine
  6
CONTINUOUS
 62
8
 10
176.636482
 20
154.841249
 11
176.636482
 21
248.072588
  0
LINE
  8
CutLine
  6
CONTINUOUS
 62
8
 10
152.599615
 20
202.090517
 11
152.599615
 21
82.262395
  0
LINE
  8
CutLine
  6
CONTINUOUS
 62
8
 10
164.879459
 20
211.460839
 11
152.599615
 21
202.090517
  0
LINE
  8
CutLine
  6
CONTINUOUS
 62
8
 10
152.599615
 20
82.262395
 11
164.879459
 21
211.460839
  0
LINE
  8
CutLine
  6
CONTINUOUS
 62
8
 10
8.661435
 20
243.481898
 11
8.661435
 21
150.262162
  0
LINE
  8
CutLine
  6
CONTINUOUS
 62
8
 10
12.047561
 20
243.203721
 11
8.661435
 21
243.481898
  0
LINE
  8
CutLine
  6
CONTINUOUS
 62
8
 10
8.661435
 20
150.262162
 11
12.047561
 21
243.203721
  0
LINE
  8
CutLine
  6
CONTINUOUS
 62
8
 10
58.919157
 20
134.157366
 11
40.868472
 21
42.922658
  0
LINE
  8
CutLine
  6
CONTINUOUS
 62
8
 10
40.868472
 20
42.922658
 11
58.919157
 21
47.610778
  0
LINE
  8
CutLine
  6
CONTINUOUS
 62
8
 10
58.919157
 20
47.610778
 11
58.919157
 21
134.157366
  0
LINE
  8
MountainLine
  6
CONTINUOUS
 62
5
 10
146.113298
 20
65.985089
 11
123.972608
 21
160.403880
  0
LINE
  8
CutLine
  6
CONTINUOUS
 62
8
 10
123.972608
 20
160.403880
 11
122.029157
 21
156.039924
  0
LINE
  8
CutLine
  6
CONTINUOUS
 62
8
 10
146.113298
 20
185.813210
 11
123.972608
 21
160.403880
  0
LINE
  8
CutLine
  6
CONTINUOUS
 62
8
 10
146.113298
 20
65.985089
 11
146.113298
 21
185.813210
  0
LINE
  8
CutLine
  6
CONTINUOUS
 62
8
 10
122.029157
 20
156.039924
 11
146.113298
 21
65.985089
  0
LINE
  8
MountainLine
  6
CONTINUOUS
 62
5
 10
91.382669
 20
180.274001
 11
132.382263
 21
180.275171
  0
LINE
  8
CutLine
  6
CONTINUOUS
 62
8
 10
129.986775
 20
176.142043
 11
132.382263
 21
180.275171
  0
LINE
  8
CutLine
  6
CONTINUOUS
 62
8
 10
91.381761
 20
176.010303
 11
129.986775
 21
176.142043
  0
LINE
  8
CutLine
  6
CONTINUOUS
 62
8
 10
147.005722
 20
210.639602
 11
91.400547
 21
211.057973
  0
LINE
  8
CutLine
  6
CONTINUOUS
 62
8
 10
52.777290
 20
176.163334
 11
91.381761
 21
176.010303
  0
LINE
  8
CutLine
  6
CONTINUOUS
 62
8
 10
50.383190
 20
180.297536
 11
52.777290
 21
176.163334
  0
LINE
  8
CutLine
  6
CONTINUOUS
 62
8
 10
91.400547
 20
211.057973
 11
35.793880
 21
210.639602
  0
LINE
  8
MountainLine
  6
CONTINUOUS
 62
5
 10
50.383190
 20
180.297536
 11
91.382669
 21
180.274001
  0
LINE
  8
CutLine
  6
CONTINUOUS
 62
8
 10
132.382263
 20
180.275171
 11
147.005722
 21
210.639602
  0
LINE
  8
CutLine
  6
CONTINUOUS
 62
8
 10
35.793880
 20
210.639602
 11
50.383190
 21
180.297536
  0
LINE
  8
CutLine
  6
CONTINUOUS
 62
8
 10
60.986999
 20
155.202894
 11
59.041814
 21
159.566332
  0
LINE
  8
MountainLine
  6
CONTINUOUS
 62
5
 10
59.041814
 20
159.566332
 11
36.940744
 21
65.125926
  0
LINE
  8
CutLine
  6
CONTINUOUS
 62
8
 10
36.940744
 20
65.125926
 11
60.986999
 21
155.202894
  0
LINE
  8
CutLine
  6
CONTINUOUS
 62
8
 10
36.940744
 20
184.963806
 11
36.940744
 21
65.125926
  0
LINE
  8
CutLine
  6
CONTINUOUS
 62
8
 10
59.041814
 20
159.566332
 11
36.940744
 21
184.963806
  0
LINE
  8
CutLine
  6
CONTINUOUS
 62
8
 10
90.572068
 20
235.029839
 11
155.364191
 21
235.009143
  0
LINE
  8
CutLine
  6
CONTINUOUS
 62
8
 10
168.436067
 20
253.415583
 11
90.579397
 21
253.126838
  0
LINE
  8
CutLine
  6
CONTINUOUS
 62
8
 10
169.720687
 20
252.243878
 11
168.436067
 21
253.415583
  0
LINE
  8
CutLine
  6
CONTINUOUS
 62
8
 10
90.579397
 20
253.126838
 11
12.723506
 21
253.442161
  0
LINE
  8
CutLine
  6
CONTINUOUS
 62
8
 10
25.773634
 20
235.009143
 11
90.569905
 21
235.029839
  0
LINE
  8
CutLine
  6
CONTINUOUS
 62
8
 10
12.723506
 20
253.442161
 11
11.437316
 21
252.269031
  0
LINE
  8
CutLine
  6
CONTINUOUS
 62
8
 10
11.437316
 20
252.269031
 11
25.773634
 21
235.009143
  0
LINE
  8
CutLine
  6
CONTINUOUS
 62
8
 10
155.366354
 20
235.008606
 11
169.720687
 21
252.243878
  0
LINE
  8
CutLine
  6
CONTINUOUS
 62
8
 10
88.127526
 20
218.087082
 11
143.735630
 21
218.500379
  0
LINE
  8
CutLine
  6
CONTINUOUS
 62
8
 10
143.731511
 20
218.501301
 11
152.909500
 21
230.926613
  0
LINE
  8
CutLine
  6
CONTINUOUS
 62
8
 10
152.909500
 20
230.926613
 11
88.117376
 21
230.947308
  0
LINE
  8
CutLine
  6
CONTINUOUS
 62
8
 10
32.518135
 20
218.526947
 11
88.127526
 21
218.087082
  0
LINE
  8
CutLine
  6
CONTINUOUS
 62
8
 10
23.318942
 20
230.926613
 11
32.518135
 21
218.526947
  0
LINE
  8
CutLine
  6
CONTINUOUS
 62
8
 10
88.115214
 20
230.947309
 11
23.318942
 21
230.926613
  0
LINE
  8
CutLine
  6
CONTINUOUS
 62
8
 10
570.938655
 20
471.400439
 11
559.194984
 21
506.031322
  0
LINE
  8
CutLine
  6
CONTINUOUS
 62
8
 10
542.176023
 20
474.871910
 11
551.123035
 21
470.036866
  0
LINE
  8
CutLine
  6
CONTINUOUS
 62
8
 10
559.194984
 20
506.031322
 11
524.789411
 21
505.988902
  0
LINE
  8
CutLine
  6
CONTINUOUS
 62
8
 10
551.123035
 20
470.036866
 11
558.358302
 21
460.186331
  0
LINE
  8
CutLine
  6
CONTINUOUS
 62
8
 10
524.789411
 20
505.988902
 11
524.875815
 21
477.838323
  0
LINE
  8
CutLine
  6
CONTINUOUS
 62
8
 10
524.875815
 20
477.838323
 11
542.176023
 21
474.871910
  0
LINE
  8
CutLine
  6
CONTINUOUS
 62
8
 10
578.998563
 20
427.639573
 11
570.938655
 21
471.400439
  0
LINE
  8
CutLine
  6
CONTINUOUS
 62
8
 10
558.358302
 20
460.186331
 11
561.448140
 21
445.301568
  0
LINE
  8
CutLine
  6
CONTINUOUS
 62
8
 10
561.448140
 20
445.301568
 11
562.439162
 21
427.693880
  0
LINE
  8
CutLine
  6
CONTINUOUS
 62
8
 10
562.439162
 20
427.693880
 11
570.613628
 21
427.639574
  0
LINE
  8
CutLine
  6
CONTINUOUS
 62
8
 10
570.938326
 20
383.878866
 11
578.998563
 21
427.639573
  0
LINE
  8
CutLine
  6
CONTINUOUS
 62
8
 10
559.194983
 20
349.247836
 11
570.938326
 21
383.878866
  0
LINE
  8
CutLine
  6
CONTINUOUS
 62
8
 10
561.448134
 20
409.977745
 11
558.358291
 21
395.092823
  0
LINE
  8
CutLine
  6
CONTINUOUS
 62
8
 10
562.439162
 20
427.585271
 11
561.448134
 21
409.977745
  0
LINE
  8
CutLine
  6
CONTINUOUS
 62
8
 10
524.789411
 20
349.290240
 11
559.194983
 21
349.247836
  0
LINE
  8
CutLine
  6
CONTINUOUS
 62
8
 10
558.358291
 20
395.092823
 11
551.123027
 21
385.242286
  0
LINE
  8
CutLine
  6
CONTINUOUS
 62
8
 10
551.123027
 20
385.242286
 11
542.176016
 21
380.407240
  0
LINE
  8
CutLine
  6
CONTINUOUS
 62
8
 10
542.176016
 20
380.407240
 11
524.875806
 21
377.440983
  0
LINE
  8
CutLine
  6
CONTINUOUS
 62
8
 10
524.875806
 20
377.440983
 11
524.789411
 21
349.290240
  0
LINE
  8
CutLine
  6
CONTINUOUS
 62
8
 10
570.613628
 20
427.639574
 11
562.439162
 21
427.585271
  0
LINE
  8
CutLine
  6
CONTINUOUS
 62
8
 10
508.625390
 20
497.269292
 11
465.681536
 21
497.243161
  0
LINE
  8
ValleyLine
  6
CONTINUOUS
 62
1
 10
465.680652
 20
493.261170
 11
504.541163
 21
493.281715
  0
LINE
  8
CutLine
  6
CONTINUOUS
 62
8
 10
504.541163
 20
493.281715
 11
508.625390
 21
497.269292
  0
LINE
  8
CutLine
  6
CONTINUOUS
 62
8
 10
465.680653
 20
436.945979
 11
465.668119
 21
358.515081
  0
LINE
  8
CutLine
  6
CONTINUOUS
 62
8
 10
465.668119
 20
358.515081
 11
504.895997
 21
358.682255
  0
LINE
  8
CutLine
  6
CONTINUOUS
 62
8
 10
504.319620
 20
436.879771
 11
504.541163
 21
493.281715
  0
LINE
  8
CutLine
  6
CONTINUOUS
 62
8
 10
504.895997
 20
358.682255
 11
504.319620
 21
436.879771
  0
LINE
  8
CutLine
  6
CONTINUOUS
 62
8
 10
422.737683
 20
497.269299
 11
426.821913
 21
493.281726
  0
LINE
  8
CutLine
  6
CONTINUOUS
 62
8
 10
465.684450
 20
497.243079
 11
422.737683
 21
497.269299
  0
LINE
  8
CutLine
  6
CONTINUOUS
 62
8
 10
427.041686
 20
436.879783
 11
426.465308
 21
358.682255
  0
LINE
  8
CutLine
  6
CONTINUOUS
 62
8
 10
426.820141
 20
493.281727
 11
427.041686
 21
436.879783
  0
LINE
  8
CutLine
  6
CONTINUOUS
 62
8
 10
426.465308
 20
358.682255
 11
465.693508
 21
358.515081
  0
LINE
  8
CutLine
  6
CONTINUOUS
 62
8
 10
465.693508
 20
358.515081
 11
465.680653
 21
436.945979
  0
LINE
  8
CutLine
  6
CONTINUOUS
 62
8
 10
44.087166
 20
265.086652
 11
44.164303
 21
321.488978
  0
LINE
  8
CutLine
  6
CONTINUOUS
 62
8
 10
44.164303
 20
321.488978
 11
43.583829
 21
399.686464
  0
LINE
  8
CutLine
  6
CONTINUOUS
 62
8
 10
43.583829
 20
399.686464
 11
39.427035
 21
403.877565
  0
LINE
  8
CutLine
  6
CONTINUOUS
 62
8
 10
39.427035
 20
403.877565
 11
40.039499
 21
321.619783
  0
LINE
  8
CutLine
  6
CONTINUOUS
 62
8
 10
40.039499
 20
321.619783
 11
39.951400
 21
261.152555
  0
LINE
  8
CutLine
  6
CONTINUOUS
 62
8
 10
39.951400
 20
261.152555
 11
44.087166
 21
265.086652
  0
LINE
  8
MountainLine
  6
CONTINUOUS
 62
5
 10
185.390686
 20
399.880706
 11
224.011745
 21
400.092799
  0
LINE
  8
CutLine
  6
CONTINUOUS
 62
8
 10
224.011745
 20
400.092799
 11
211.469745
 21
434.376443
  0
LINE
  8
CutLine
  6
CONTINUOUS
 62
8
 10
221.216742
 20
287.509994
 11
229.976372
 21
369.410782
  0
LINE
  8
CutLine
  6
CONTINUOUS
 62
8
 10
185.495447
 20
287.379442
 11
186.135788
 21
226.491672
  0
LINE
  8
CutLine
  6
CONTINUOUS
 62
8
 10
186.135788
 20
226.491672
 11
212.165740
 21
226.274322
  0
LINE
  8
CutLine
  6
CONTINUOUS
 62
8
 10
229.976372
 20
369.410782
 11
224.011745
 21
400.092799
  0
LINE
  8
CutLine
  6
CONTINUOUS
 62
8
 10
184.279197
 20
369.489394
 11
185.495447
 21
287.379442
  0
LINE
  8
CutLine
  6
CONTINUOUS
 62
8
 10
185.390686
 20
399.880706
 11
184.279197
 21
369.489394
  0
LINE
  8
CutLine
  6
CONTINUOUS
 62
8
 10
186.135788
 20
434.278235
 11
185.390686
 21
399.880706
  0
LINE
  8
CutLine
  6
CONTINUOUS
 62
8
 10
211.469745
 20
434.376443
 11
186.135788
 21
434.278235
  0
LINE
  8
CutLine
  6
CONTINUOUS
 62
8
 10
212.165740
 20
226.274322
 11
221.216742
 21
287.509994
  0
LINE
  8
CutLine
  6
CONTINUOUS
 62
8
 10
6.527110
 20
248.692157
 11
6.227869
 21
287.919250
  0
LINE
  8
CutLine
  6
CONTINUOUS
 62
8
 10
1.960419
 20
287.919231
 11
2.280784
 21
244.591793
  0
LINE
  8
CutLine
  6
CONTINUOUS
 62
8
 10
2.280784
 20
244.591793
 11
6.527110
 21
248.692157
  0
LINE
  8
CutLine
  6
CONTINUOUS
 62
8
 10
2.280784
 20
331.246831
 11
1.960419
 21
287.919231
  0
LINE
  8
CutLine
  6
CONTINUOUS
 62
8
 10
6.227869
 20
287.919250
 11
6.527145
 21
327.146665
  0
LINE
  8
CutLine
  6
CONTINUOUS
 62
8
 10
6.527145
 20
327.146665
 11
2.280784
 21
331.246831
  0
LINE
  8
CutLine
  6
CONTINUOUS
 62
8
 10
120.278454
 20
320.888684
 11
120.026896
 21
403.148376
  0
LINE
  8
CutLine
  6
CONTINUOUS
 62
8
 10
115.914504
 20
398.913855
 11
116.155254
 21
320.714573
  0
LINE
  8
CutLine
  6
CONTINUOUS
 62
8
 10
116.155254
 20
320.714573
 11
116.824596
 21
264.316166
  0
LINE
  8
CutLine
  6
CONTINUOUS
 62
8
 10
121.001449
 20
260.425719
 11
120.278454
 21
320.888684
  0
LINE
  8
CutLine
  6
CONTINUOUS
 62
8
 10
116.824596
 20
264.316166
 11
121.001449
 21
260.425719
  0
LINE
  8
CutLine
  6
CONTINUOUS
 62
8
 10
120.026896
 20
403.148376
 11
115.914504
 21
398.913855
  0
LINE
  8
CutLine
  6
CONTINUOUS
 62
8
 10
35.235830
 20
436.735671
 11
32.746228
 21
434.417217
  0
LINE
  8
CutLine
  6
CONTINUOUS
 62
8
 10
2.570998
 20
435.830926
 11
5.176743
 21
405.531155
  0
LINE
  8
CutLine
  6
CONTINUOUS
 62
8
 10
32.746228
 20
434.417217
 11
30.710670
 21
436.619239
  0
LINE
  8
CutLine
  6
CONTINUOUS
 62
8
 10
37.435537
 20
263.111987
 11
37.645724
 21
323.578913
  0
LINE
  8
CutLine
  6
CONTINUOUS
 62
8
 10
5.176743
 20
405.531155
 11
8.598040
 21
323.483474
  0
LINE
  8
CutLine
  6
CONTINUOUS
 62
8
 10
80.361440
 20
436.640069
 11
35.235830
 21
436.735671
  0
LINE
  8
CutLine
  6
CONTINUOUS
 62
8
 10
130.012370
 20
436.619250
 11
127.976976
 21
434.417222
  0
LINE
  8
CutLine
  6
CONTINUOUS
 62
8
 10
155.546304
 20
405.531154
 11
158.152205
 21
435.830931
  0
LINE
  8
CutLine
  6
CONTINUOUS
 62
8
 10
152.125170
 20
323.483488
 11
155.546304
 21
405.531154
  0
LINE
  8
CutLine
  6
CONTINUOUS
 62
8
 10
123.077488
 20
323.578901
 11
123.287672
 21
263.111979
  0
LINE
  8
CutLine
  6
CONTINUOUS
 62
8
 10
127.976976
 20
434.417222
 11
125.487213
 21
436.735669
  0
LINE
  8
CutLine
  6
CONTINUOUS
 62
8
 10
125.487213
 20
436.735669
 11
80.361440
 21
436.640069
  0
LINE
  8
CutLine
  6
CONTINUOUS
 62
8
 10
123.287672
 20
263.111979
 11
148.604617
 21
262.694210
  0
LINE
  8
CutLine
  6
CONTINUOUS
 62
8
 10
12.118427
 20
262.694206
 11
37.435537
 21
263.111987
  0
LINE
  8
CutLine
  6
CONTINUOUS
 62
8
 10
148.604617
 20
262.694210
 11
152.125170
 21
323.483488
  0
LINE
  8
CutLine
  6
CONTINUOUS
 62
8
 10
8.598040
 20
323.483474
 11
12.118427
 21
262.694206
  0
LINE
  8
CutLine
  6
CONTINUOUS
 62
8
 10
30.710670
 20
436.619239
 11
2.570998
 21
435.830926
  0
LINE
  8
CutLine
  6
CONTINUOUS
 62
8
 10
158.152205
 20
435.830931
 11
130.012370
 21
436.619250
  0
LINE
  8
CutLine
  6
CONTINUOUS
 62
8
 10
37.645724
 20
323.578913
 11
37.033260
 21
405.836695
  0
LINE
  8
CutLine
  6
CONTINUOUS
 62
8
 10
37.033260
 20
405.836695
 11
80.361442
 21
406.032138
  0
LINE
  8
CutLine
  6
CONTINUOUS
 62
8
 10
80.361442
 20
406.032138
 11
123.689785
 21
405.836700
  0
LINE
  8
CutLine
  6
CONTINUOUS
 62
8
 10
123.689785
 20
405.836700
 11
123.077488
 21
323.578901
  0
LINE
  8
CutLine
  6
CONTINUOUS
 62
8
 10
30.009190
 20
579.409987
 11
19.346142
 21
593.107140
  0
LINE
  8
CutLine
  6
CONTINUOUS
 62
8
 10
1.905433
 20
448.266570
 11
18.153119
 21
456.752552
  0
LINE
  8
CutLine
  6
CONTINUOUS
 62
8
 10
18.153119
 20
456.752552
 11
30.009190
 21
579.409987
  0
LINE
  8
CutLine
  6
CONTINUOUS
 62
8
 10
19.346142
 20
593.107140
 11
1.905433
 21
448.266570
  0
LINE
  8
CutLine
  6
CONTINUOUS
 62
8
 10
208.158456
 20
216.972342
 11
195.616615
 21
182.688694
  0
LINE
  8
MountainLine
  6
CONTINUOUS
 62
5
 10
195.616615
 20
182.688694
 11
234.237674
 21
182.476624
  0
LINE
  8
CutLine
  6
CONTINUOUS
 62
8
 10
189.652007
 20
152.006992
 11
198.411523
 21
70.105898
  0
LINE
  8
CutLine
  6
CONTINUOUS
 62
8
 10
195.616615
 20
182.688694
 11
189.652007
 21
152.006992
  0
LINE
  8
CutLine
  6
CONTINUOUS
 62
8
 10
233.492521
 20
9.087601
 11
234.132962
 21
69.975351
  0
LINE
  8
CutLine
  6
CONTINUOUS
 62
8
 10
207.462556
 20
8.870223
 11
233.492521
 21
9.087601
  0
LINE
  8
CutLine
  6
CONTINUOUS
 62
8
 10
234.132962
 20
69.975351
 11
235.349044
 21
152.085328
  0
LINE
  8
CutLine
  6
CONTINUOUS
 62
8
 10
235.349044
 20
152.085328
 11
234.237674
 21
182.476624
  0
LINE
  8
CutLine
  6
CONTINUOUS
 62
8
 10
234.237674
 20
182.476624
 11
233.492521
 21
216.874153
  0
LINE
  8
CutLine
  6
CONTINUOUS
 62
8
 10
198.411523
 20
70.105898
 11
207.462556
 21
8.870223
  0
LINE
  8
CutLine
  6
CONTINUOUS
 62
8
 10
233.492521
 20
216.874153
 11
208.158456
 21
216.972342
  0
LINE
  8
MountainLine
  6
CONTINUOUS
 62
5
 10
238.310778
 20
349.377844
 11
239.046927
 21
347.437461
  0
LINE
  8
CutLine
  6
CONTINUOUS
 62
8
 10
239.046927
 20
347.437461
 11
369.138275
 21
367.020582
  0
LINE
  8
CutLine
  6
CONTINUOUS
 62
8
 10
369.138275
 20
367.020582
 11
367.242879
 21
369.608546
  0
LINE
  8
CutLine
  6
CONTINUOUS
 62
8
 10
237.315817
 20
347.949358
 11
239.046927
 21
347.437461
  0
LINE
  8
CutLine
  6
CONTINUOUS
 62
8
 10
238.310778
 20
349.377844
 11
237.315817
 21
347.949358
  0
LINE
  8
MountainLine
  6
CONTINUOUS
 62
5
 10
310.407529
 20
511.789051
 11
360.790799
 21
489.609898
  0
LINE
  8
CutLine
  6
CONTINUOUS
 62
8
 10
351.860303
 20
546.923573
 11
310.407529
 21
511.789051
  0
LINE
  8
MountainLine
  6
CONTINUOUS
 62
5
 10
275.620688
 20
458.352692
 11
344.935434
 21
428.345405
  0
LINE
  8
CutLine
  6
CONTINUOUS
 62
8
 10
344.935434
 20
428.345405
 11
343.171183
 21
452.558327
  0
LINE
  8
ValleyLine
  6
CONTINUOUS
 62
1
 10
343.171183
 20
452.558327
 11
275.620688
 21
458.352692
  0
LINE
  8
MountainLine
  6
CONTINUOUS
 62
5
 10
343.171183
 20
452.558327
 11
286.327059
 21
480.352490
  0
LINE
  8
CutLine
  6
CONTINUOUS
 62
8
 10
286.327059
 20
480.352490
 11
275.620688
 21
458.352692
  0
LINE
  8
MountainLine
  6
CONTINUOUS
 62
5
 10
267.452643
 20
437.573182
 11
354.420587
 21
395.640786
  0
LINE
  8
CutLine
  6
CONTINUOUS
 62
8
 10
354.420587
 20
395.640786
 11
344.935434
 21
428.345405
  0
LINE
  8
MountainLine
  6
CONTINUOUS
 62
5
 10
367.242879
 20
369.608546
 11
267.452643
 21
437.573182
  0
LINE
  8
CutLine
  6
CONTINUOUS
 62
8
 10
267.452643
 20
437.573182
 11
238.310778
 21
349.377844
  0
LINE
  8
CutLine
  6
CONTINUOUS
 62
8
 10
275.620688
 20
458.352692
 11
267.452643
 21
437.573182
  0
LINE
  8
CutLine
  6
CONTINUOUS
 62
8
 10
343.171183
 20
452.558327
 11
360.790799
 21
489.609898
  0
LINE
  8
ValleyLine
  6
CONTINUOUS
 62
1
 10
360.790799
 20
489.609898
 11
286.327059
 21
480.352490
  0
LINE
  8
CutLine
  6
CONTINUOUS
 62
8
 10
310.407529
 20
511.789051
 11
286.327059
 21
480.352490
  0
LINE
  8
CutLine
  6
CONTINUOUS
 62
8
 10
374.145651
 20
567.552216
 11
351.860303
 21
546.923573
  0
LINE
  8
MountainLine
  6
CONTINUOUS
 62
5
 10
351.860303
 20
546.923573
 11
386.797075
 21
513.816035
  0
LINE
  8
ValleyLine
  6
CONTINUOUS
 62
1
 10
386.797075
 20
513.816035
 11
374.145651
 21
567.552216
  0
LINE
  8
CutLine
  6
CONTINUOUS
 62
8
 10
360.790799
 20
489.609898
 11
386.797075
 21
513.816035
  0
LINE
  8
CutLine
  6
CONTINUOUS
 62
8
 10
386.797075
 20
513.816035
 11
416.451895
 21
532.678614
  0
LINE
  8
MountainLine
  6
CONTINUOUS
 62
5
 10
416.451895
 20
532.678614
 11
374.145651
 21
567.552216
  0
LINE
  8
MountainLine
  6
CONTINUOUS
 62
5
 10
678.262303
 20
573.038698
 11
651.472293
 21
489.475086
  0
LINE
  8
MountainLine
  6
CONTINUOUS
 62
5
 10
676.448523
 20
467.677353
 11
731.345885
 21
530.550383
  0
LINE
  8
CutLine
  6
CONTINUOUS
 62
8
 10
731.345885
 20
530.550383
 11
710.671699
 21
561.444438
  0
LINE
  8
CutLine
  6
CONTINUOUS
 62
8
 10
651.472293
 20
489.475086
 11
676.448523
 21
467.677353
  0
LINE
  8
MountainLine
  6
CONTINUOUS
 62
5
 10
702.134143
 20
440.647729
 11
756.269501
 21
496.302953
  0
LINE
  8
CutLine
  6
CONTINUOUS
 62
8
 10
756.269501
 20
496.302953
 11
731.345885
 21
530.550383
  0
LINE
  8
CutLine
  6
CONTINUOUS
 62
8
 10
676.448523
 20
467.677353
 11
702.134143
 21
440.647729
  0
LINE
  8
CutLine
  6
CONTINUOUS
 62
8
 10
790.411127
 20
458.395780
 11
756.269501
 21
496.302953
  0
LINE
  8
CutLine
  6
CONTINUOUS
 62
8
 10
702.134143
 20
440.647729
 11
729.388264
 21
404.981563
  0
LINE
  8
MountainLine
  6
CONTINUOUS
 62
5
 10
729.388264
 20
404.981563
 11
790.411127
 21
458.395780
  0
LINE
  8
CutLine
  6
CONTINUOUS
 62
8
 10
826.471249
 20
421.589901
 11
790.411127
 21
458.395780
  0
LINE
  8
CutLine
  6
CONTINUOUS
 62
8
 10
729.388264
 20
404.981563
 11
751.805002
 21
373.668333
  0
LINE
  8
CutLine
  6
CONTINUOUS
 62
8
 10
902.231509
 20
349.377844
 11
826.471249
 21
421.589901
  0
LINE
  8
CutLine
  6
CONTINUOUS
 62
8
 10
751.805002
 20
373.668333
 11
770.697796
 21
346.900013
  0
LINE
  8
CutLine
  6
CONTINUOUS
 62
8
 10
710.671699
 20
561.444438
 11
678.262303
 21
573.038698
  0
LINE
  8
MountainLine
  6
CONTINUOUS
 62
5
 10
608.715263
 20
516.602637
 11
644.872488
 21
579.023746
  0
LINE
  8
CutLine
  6
CONTINUOUS
 62
8
 10
644.872488
 20
579.023746
 11
602.677403
 21
587.068662
  0
LINE
  8
MountainLine
  6
CONTINUOUS
 62
5
 10
602.677403
 20
587.068662
 11
576.364128
 21
527.888256
  0
LINE
  8
MountainLine
  6
CONTINUOUS
 62
5
 10
630.881494
 20
503.596898
 11
678.262303
 21
573.038698
  0
LINE
  8
CutLine
  6
CONTINUOUS
 62
8
 10
678.262303
 20
573.038698
 11
644.872488
 21
579.023746
  0
LINE
  8
CutLine
  6
CONTINUOUS
 62
8
 10
608.715263
 20
516.602637
 11
630.881494
 21
503.596898
  0
LINE
  8
CutLine
  6
CONTINUOUS
 62
8
 10
630.881494
 20
503.596898
 11
651.472293
 21
489.475086
  0
LINE
  8
CutLine
  6
CONTINUOUS
 62
8
 10
576.364128
 20
527.888256
 11
608.715263
 21
516.602637
  0
LINE
  8
MountainLine
  6
CONTINUOUS
 62
5
 10
552.614706
 20
595.653621
 11
540.934724
 21
536.166408
  0
LINE
  8
MountainLine
  6
CONTINUOUS
 62
5
 10
509.173349
 20
595.446057
 11
508.378406
 21
539.253954
  0
LINE
  8
CutLine
  6
CONTINUOUS
 62
8
 10
508.378406
 20
539.253954
 11
540.934724
 21
536.166408
  0
LINE
  8
CutLine
  6
CONTINUOUS
 62
8
 10
552.614706
 20
595.653621
 11
509.173349
 21
595.446057
  0
LINE
  8
CutLine
  6
CONTINUOUS
 62
8
 10
540.934724
 20
536.166408
 11
576.364128
 21
527.888256
  0
LINE
  8
CutLine
  6
CONTINUOUS
 62
8
 10
602.677403
 20
587.068662
 11
552.614706
 21
595.653621
  0
LINE
  8
CutLine
  6
CONTINUOUS
 62
8
 10
416.451895
 20
532.678614
 11
467.974454
 21
541.460136
  0
LINE
  8
MountainLine
  6
CONTINUOUS
 62
5
 10
467.974454
 20
541.460136
 11
374.145651
 21
567.552216
  0
LINE
  8
MountainLine
  6
CONTINUOUS
 62
5
 10
435.586336
 20
587.144570
 11
467.974454
 21
541.460136
  0
LINE
  8
CutLine
  6
CONTINUOUS
 62
8
 10
467.974454
 20
541.460136
 11
508.378406
 21
539.253954
  0
LINE
  8
CutLine
  6
CONTINUOUS
 62
8
 10
435.586336
 20
587.144570
 11
374.145651
 21
567.552216
  0
LINE
  8
CutLine
  6
CONTINUOUS
 62
8
 10
509.173349
 20
595.446057
 11
435.586336
 21
587.144570
  0
LINE
  8
CutLine
  6
CONTINUOUS
 62
8
 10
770.697796
 20
346.900013
 11
902.231509
 21
349.377844
  0
LINE
  8
CutLine
  6
CONTINUOUS
 62
8
 10
367.242879
 20
369.608546
 11
354.420587
 21
395.640786
  0
LINE
  8
CutLine
  6
CONTINUOUS
 62
8
 10
182.577889
 20
154.368513
 11
164.687961
 21
140.838843
  0
LINE
  8
CutLine
  6
CONTINUOUS
 62
8
 10
164.687961
 20
140.838843
 11
164.687961
 21
11.050243
  0
LINE
  8
CutLine
  6
CONTINUOUS
 62
8
 10
164.687961
 20
11.050243
 11
182.577889
 21
154.368513
  0
LINE
  8
CutLine
  6
CONTINUOUS
 62
8
 10
20.429301
 20
138.524983
 11
2.520243
 21
152.041617
  0
LINE
  8
CutLine
  6
CONTINUOUS
 62
8
 10
20.429301
 20
8.720013
 11
20.429301
 21
138.524983
  0
LINE
  8
CutLine
  6
CONTINUOUS
 62
8
 10
2.520243
 20
152.041617
 11
20.429301
 21
8.720013
  0
LINE
  8
CutLine
  6
CONTINUOUS
 62
8
 10
118.515679
 20
86.363817
 11
98.254386
 21
170.493273
  0
LINE
  8
CutLine
  6
CONTINUOUS
 62
8
 10
98.254386
 20
170.493273
 11
109.056708
 21
26.467283
  0
LINE
  8
CutLine
  6
CONTINUOUS
 62
8
 10
118.515679
 20
35.113464
 11
118.515679
 21
86.363817
  0
LINE
  8
CutLine
  6
CONTINUOUS
 62
8
 10
109.056708
 20
26.467283
 11
118.515679
 21
35.113464
  0
LINE
  8
CutLine
  6
CONTINUOUS
 62
8
 10
85.470524
 20
169.635572
 11
65.344016
 21
85.485882
  0
LINE
  8
CutLine
  6
CONTINUOUS
 62
8
 10
65.344016
 20
85.485882
 11
65.344016
 21
34.228513
  0
LINE
  8
CutLine
  6
CONTINUOUS
 62
8
 10
74.811848
 20
25.593185
 11
85.470524
 21
169.635572
  0
LINE
  8
CutLine
  6
CONTINUOUS
 62
8
 10
65.344016
 20
34.228513
 11
74.811848
 21
25.593185
  0
LINE
  8
CutLine
  6
CONTINUOUS
 62
8
 10
368.533451
 20
230.480314
 11
370.418708
 21
233.075686
  0
LINE
  8
CutLine
  6
CONTINUOUS
 62
8
 10
370.418708
 20
233.075686
 11
240.284958
 21
252.143385
  0
LINE
  8
MountainLine
  6
CONTINUOUS
 62
5
 10
604.598352
 20
13.655436
 11
578.120824
 21
72.762956
  0
LINE
  8
MountainLine
  6
CONTINUOUS
 62
5
 10
542.714533
 20
64.386371
 11
554.559317
 21
4.931753
  0
LINE
  8
CutLine
  6
CONTINUOUS
 62
8
 10
578.120824
 20
72.762956
 11
542.714533
 21
64.386371
  0
LINE
  8
MountainLine
  6
CONTINUOUS
 62
5
 10
646.770693
 20
21.817231
 11
610.440607
 21
84.138040
  0
LINE
  8
CutLine
  6
CONTINUOUS
 62
8
 10
632.570705
 20
97.205102
 11
610.440607
 21
84.138040
  0
LINE
  8
MountainLine
  6
CONTINUOUS
 62
5
 10
680.143746
 20
27.894682
 11
632.570705
 21
97.205102
  0
LINE
  8
CutLine
  6
CONTINUOUS
 62
8
 10
653.122435
 20
111.383815
 11
632.570705
 21
97.205102
  0
LINE
  8
MountainLine
  6
CONTINUOUS
 62
5
 10
680.143746
 20
27.894682
 11
653.122435
 21
111.383815
  0
LINE
  8
CutLine
  6
CONTINUOUS
 62
8
 10
610.440607
 20
84.138040
 11
578.120824
 21
72.762956
  0
LINE
  8
MountainLine
  6
CONTINUOUS
 62
5
 10
791.974825
 20
142.847965
 11
730.803983
 21
196.092731
  0
LINE
  8
CutLine
  6
CONTINUOUS
 62
8
 10
730.803983
 20
196.092731
 11
703.648747
 21
160.351459
  0
LINE
  8
CutLine
  6
CONTINUOUS
 62
8
 10
791.974825
 20
142.847965
 11
827.932552
 21
179.753758
  0
LINE
  8
CutLine
  6
CONTINUOUS
 62
8
 10
757.938354
 20
104.846108
 11
791.974825
 21
142.847965
  0
LINE
  8
CutLine
  6
CONTINUOUS
 62
8
 10
712.520929
 20
39.578704
 11
733.109361
 21
70.530015
  0
LINE
  8
MountainLine
  6
CONTINUOUS
 62
5
 10
733.109361
 20
70.530015
 11
678.038354
 21
133.250418
  0
LINE
  8
CutLine
  6
CONTINUOUS
 62
8
 10
678.038354
 20
133.250418
 11
653.122435
 21
111.383815
  0
LINE
  8
CutLine
  6
CONTINUOUS
 62
8
 10
733.109361
 20
70.530015
 11
757.938354
 21
104.846108
  0
LINE
  8
MountainLine
  6
CONTINUOUS
 62
5
 10
757.938354
 20
104.846108
 11
703.648747
 21
160.351459
  0
LINE
  8
CutLine
  6
CONTINUOUS
 62
8
 10
703.648747
 20
160.351459
 11
678.038354
 21
133.250418
  0
LINE
  8
CutLine
  6
CONTINUOUS
 62
8
 10
680.143746
 20
27.894682
 11
712.520929
 21
39.578704
  0
LINE
  8
CutLine
  6
CONTINUOUS
 62
8
 10
646.770693
 20
21.817231
 11
680.143746
 21
27.894682
  0
LINE
  8
CutLine
  6
CONTINUOUS
 62
8
 10
604.598352
 20
13.655436
 11
646.770693
 21
21.817231
  0
LINE
  8
CutLine
  6
CONTINUOUS
 62
8
 10
554.559317
 20
4.931753
 11
604.598352
 21
13.655436
  0
LINE
  8
CutLine
  6
CONTINUOUS
 62
8
 10
753.133964
 20
227.468200
 11
730.803983
 21
196.092731
  0
LINE
  8
CutLine
  6
CONTINUOUS
 62
8
 10
771.953441
 20
254.288114
 11
753.133964
 21
227.468200
  0
LINE
  8
CutLine
  6
CONTINUOUS
 62
8
 10
827.932552
 20
179.753758
 11
903.459222
 21
252.143385
  0
LINE
  8
CutLine
  6
CONTINUOUS
 62
8
 10
903.459222
 20
252.143385
 11
771.953441
 21
254.288114
  0
LINE
  8
CutLine
  6
CONTINUOUS
 62
8
 10
542.714533
 20
64.386371
 11
510.167208
 21
61.208952
  0
LINE
  8
MountainLine
  6
CONTINUOUS
 62
5
 10
510.167208
 20
61.208952
 11
511.117558
 21
5.018929
  0
LINE
  8
CutLine
  6
CONTINUOUS
 62
8
 10
511.117558
 20
5.018929
 11
554.559317
 21
4.931753
  0
LINE
  8
CutLine
  6
CONTINUOUS
 62
8
 10
510.167208
 20
61.208952
 11
469.769485
 21
58.890523
  0
LINE
  8
MountainLine
  6
CONTINUOUS
 62
5
 10
469.769485
 20
58.890523
 11
437.507831
 21
13.116615
  0
LINE
  8
MountainLine
  6
CONTINUOUS
 62
5
 10
469.769485
 20
58.890523
 11
376.013338
 21
32.538689
  0
LINE
  8
MountainLine
  6
CONTINUOUS
 62
5
 10
376.013338
 20
32.538689
 11
418.222632
 21
67.529171
  0
LINE
  8
CutLine
  6
CONTINUOUS
 62
8
 10
418.222632
 20
67.529171
 11
388.515741
 21
86.309585
  0
LINE
  8
ValleyLine
  6
CONTINUOUS
 62
1
 10
388.515741
 20
86.309585
 11
376.013338
 21
32.538689
  0
LINE
  8
CutLine
  6
CONTINUOUS
 62
8
 10
469.769485
 20
58.890523
 11
418.222632
 21
67.529171
  0
LINE
  8
MountainLine
  6
CONTINUOUS
 62
5
 10
388.515741
 20
86.309585
 11
353.670743
 21
53.105366
  0
LINE
  8
CutLine
  6
CONTINUOUS
 62
8
 10
353.670743
 20
53.105366
 11
376.013338
 21
32.538689
  0
LINE
  8
CutLine
  6
CONTINUOUS
 62
8
 10
388.515741
 20
86.309585
 11
362.442442
 21
110.443570
  0
LINE
  8
MountainLine
  6
CONTINUOUS
 62
5
 10
362.442442
 20
110.443570
 11
312.141942
 21
88.107619
  0
LINE
  8
CutLine
  6
CONTINUOUS
 62
8
 10
312.141942
 20
88.107619
 11
353.670743
 21
53.105366
  0
LINE
  8
CutLine
  6
CONTINUOUS
 62
8
 10
277.316954
 20
141.348914
 11
288.086570
 21
119.389214
  0
LINE
  8
MountainLine
  6
CONTINUOUS
 62
5
 10
288.086570
 20
119.389214
 11
344.728353
 21
147.450214
  0
LINE
  8
ValleyLine
  6
CONTINUOUS
 62
1
 10
344.728353
 20
147.450214
 11
277.316954
 21
141.348914
  0
LINE
  8
CutLine
  6
CONTINUOUS
 62
8
 10
344.728353
 20
147.450214
 11
346.423958
 21
171.667744
  0
LINE
  8
MountainLine
  6
CONTINUOUS
 62
5
 10
346.423958
 20
171.667744
 11
277.316954
 21
141.348914
  0
LINE
  8
CutLine
  6
CONTINUOUS
 62
8
 10
346.423958
 20
171.667744
 11
355.803410
 21
204.402840
  0
LINE
  8
MountainLine
  6
CONTINUOUS
 62
5
 10
355.803410
 20
204.402840
 11
269.075841
 21
162.100644
  0
LINE
  8
MountainLine
  6
CONTINUOUS
 62
5
 10
368.533451
 20
230.480314
 11
269.075841
 21
162.100644
  0
LINE
  8
MountainLine
  6
CONTINUOUS
 62
5
 10
240.284958
 20
252.143385
 11
239.560167
 21
250.199007
  0
LINE
  8
CutLine
  6
CONTINUOUS
 62
8
 10
239.560167
 20
250.199007
 11
269.075841
 21
162.100644
  0
LINE
  8
CutLine
  6
CONTINUOUS
 62
8
 10
269.075841
 20
162.100644
 11
277.316954
 21
141.348914
  0
LINE
  8
ValleyLine
  6
CONTINUOUS
 62
1
 10
362.442442
 20
110.443570
 11
288.086570
 21
119.389214
  0
LINE
  8
CutLine
  6
CONTINUOUS
 62
8
 10
362.442442
 20
110.443570
 11
344.728353
 21
147.450214
  0
LINE
  8
CutLine
  6
CONTINUOUS
 62
8
 10
288.086570
 20
119.389214
 11
312.141942
 21
88.107619
  0
LINE
  8
CutLine
  6
CONTINUOUS
 62
8
 10
376.013338
 20
32.538689
 11
437.507831
 21
13.116615
  0
LINE
  8
CutLine
  6
CONTINUOUS
 62
8
 10
437.507831
 20
13.116615
 11
511.117558
 21
5.018929
  0
LINE
  8
CutLine
  6
CONTINUOUS
 62
8
 10
355.803410
 20
204.402840
 11
368.533451
 21
230.480314
  0
LINE
  8
CutLine
  6
CONTINUOUS
 62
8
 10
240.284958
 20
252.143385
 11
238.555529
 21
251.618106
  0
LINE
  8
CutLine
  6
CONTINUOUS
 62
8
 10
238.555529
 20
251.618106
 11
239.560167
 21
250.199007
  0
LINE
  8
CutLine
  6
CONTINUOUS
 62
8
 10
583.924150
 20
186.305187
 11
566.531540
 21
211.133684
  0
LINE
  8
CutLine
  6
CONTINUOUS
 62
8
 10
566.531540
 20
211.133684
 11
556.343530
 21
237.308911
  0
LINE
  8
CutLine
  6
CONTINUOUS
 62
8
 10
556.343530
 20
237.308911
 11
548.566724
 21
232.627984
  0
LINE
  8
CutLine
  6
CONTINUOUS
 62
8
 10
548.566724
 20
232.627984
 11
559.102035
 21
205.622580
  0
LINE
  8
CutLine
  6
CONTINUOUS
 62
8
 10
559.102035
 20
205.622580
 11
577.985517
 21
177.436779
  0
LINE
  8
CutLine
  6
CONTINUOUS
 62
8
 10
637.477117
 20
154.890318
 11
671.822951
 21
162.057477
  0
LINE
  8
CutLine
  6
CONTINUOUS
 62
8
 10
638.635184
 20
164.458412
 11
601.214094
 21
170.394541
  0
LINE
  8
CutLine
  6
CONTINUOUS
 62
8
 10
596.797548
 20
161.342752
 11
637.477117
 21
154.890318
  0
LINE
  8
CutLine
  6
CONTINUOUS
 62
8
 10
601.214094
 20
170.394541
 11
583.924150
 21
186.305187
  0
LINE
  8
CutLine
  6
CONTINUOUS
 62
8
 10
577.985517
 20
177.436779
 11
596.797548
 21
161.342752
  0
LINE
  8
CutLine
  6
CONTINUOUS
 62
8
 10
669.626745
 20
170.619454
 11
638.635184
 21
164.458412
  0
LINE
  8
CutLine
  6
CONTINUOUS
 62
8
 10
735.818644
 20
287.062179
 11
737.156718
 21
257.042031
  0
LINE
  8
CutLine
  6
CONTINUOUS
 62
8
 10
744.577712
 20
255.535524
 11
743.122627
 21
288.169521
  0
LINE
  8
CutLine
  6
CONTINUOUS
 62
8
 10
737.156718
 20
257.042031
 11
730.480247
 21
220.536069
  0
LINE
  8
CutLine
  6
CONTINUOUS
 62
8
 10
737.319829
 20
215.850472
 11
744.577712
 21
255.535524
  0
LINE
  8
CutLine
  6
CONTINUOUS
 62
8
 10
730.480247
 20
220.536069
 11
700.623194
 21
183.057259
  0
LINE
  8
CutLine
  6
CONTINUOUS
 62
8
 10
704.862829
 20
175.108627
 11
737.319829
 21
215.850472
  0
LINE
  8
CutLine
  6
CONTINUOUS
 62
8
 10
700.623194
 20
183.057259
 11
669.626745
 21
170.619454
  0
LINE
  8
CutLine
  6
CONTINUOUS
 62
8
 10
671.822951
 20
162.057477
 11
704.862829
 21
175.108627
  0
LINE
  8
CutLine
  6
CONTINUOUS
 62
8
 10
555.745990
 20
266.812060
 11
548.797297
 21
234.792674
  0
LINE
  8
CutLine
  6
CONTINUOUS
 62
8
 10
556.703529
 20
236.351156
 11
563.444503
 21
267.417389
  0
LINE
  8
CutLine
  6
CONTINUOUS
 62
8
 10
725.175051
 20
318.794181
 11
735.818644
 21
287.062179
  0
LINE
  8
CutLine
  6
CONTINUOUS
 62
8
 10
706.612941
 20
343.639873
 11
725.175051
 21
318.794181
  0
LINE
  8
CutLine
  6
CONTINUOUS
 62
8
 10
684.807784
 20
351.539333
 11
706.612941
 21
343.639873
  0
LINE
  8
CutLine
  6
CONTINUOUS
 62
8
 10
661.843218
 20
354.108893
 11
684.807784
 21
351.539333
  0
LINE
  8
CutLine
  6
CONTINUOUS
 62
8
 10
631.564609
 20
348.281195
 11
661.843218
 21
354.108893
  0
LINE
  8
CutLine
  6
CONTINUOUS
 62
8
 10
600.659748
 20
332.827058
 11
631.564609
 21
348.281195
  0
LINE
  8
CutLine
  6
CONTINUOUS
 62
8
 10
575.986630
 20
300.548136
 11
600.659748
 21
332.827058
  0
LINE
  8
CutLine
  6
CONTINUOUS
 62
8
 10
563.444503
 20
267.417389
 11
575.986630
 21
300.548136
  0
LINE
  8
CutLine
  6
CONTINUOUS
 62
8
 10
569.380144
 20
302.828140
 11
555.745990
 21
266.812060
  0
LINE
  8
CutLine
  6
CONTINUOUS
 62
8
 10
596.910318
 20
338.281417
 11
569.380144
 21
302.828140
  0
LINE
  8
CutLine
  6
CONTINUOUS
 62
8
 10
630.156284
 20
355.165267
 11
596.910318
 21
338.281417
  0
LINE
  8
CutLine
  6
CONTINUOUS
 62
8
 10
662.629202
 20
361.833169
 11
630.156284
 21
355.165267
  0
LINE
  8
CutLine
  6
CONTINUOUS
 62
8
 10
687.489586
 20
359.515663
 11
662.629202
 21
361.833169
  0
LINE
  8
CutLine
  6
CONTINUOUS
 62
8
 10
711.549821
 20
350.482698
 11
687.489586
 21
359.515663
  0
LINE
  8
CutLine
  6
CONTINUOUS
 62
8
 10
731.552620
 20
322.664558
 11
711.549821
 21
350.482698
  0
LINE
  8
CutLine
  6
CONTINUOUS
 62
8
 10
743.122627
 20
288.169521
 11
731.552620
 21
322.664558
  0
LINE
  8
CutLine
  6
CONTINUOUS
 62
8
 10
548.797297
 20
234.792674
 11
548.976005
 21
231.589312
  0
LINE
  8
CutLine
  6
CONTINUOUS
 62
8
 10
548.976005
 20
231.589312
 11
556.703529
 21
236.351156
  0
LINE
  8
CutLine
  6
CONTINUOUS
 62
8
 10
528.770631
 20
523.555397
 11
560.150963
 21
516.524197
  0
LINE
  8
CutLine
  6
CONTINUOUS
 62
8
 10
635.992005
 20
429.332240
 11
631.564235
 21
464.902809
  0
LINE
  8
CutLine
  6
CONTINUOUS
 62
8
 10
631.564235
 20
464.902809
 11
620.810000
 21
485.715192
  0
LINE
  8
CutLine
  6
CONTINUOUS
 62
8
 10
620.810000
 20
485.715192
 11
594.539448
 21
510.607070
  0
LINE
  8
CutLine
  6
CONTINUOUS
 62
8
 10
594.539448
 20
510.607070
 11
562.402183
 21
524.051280
  0
LINE
  8
CutLine
  6
CONTINUOUS
 62
8
 10
560.150963
 20
516.524197
 11
588.947989
 21
503.444943
  0
LINE
  8
CutLine
  6
CONTINUOUS
 62
8
 10
588.947989
 20
503.444943
 11
613.025659
 21
481.349994
  0
LINE
  8
CutLine
  6
CONTINUOUS
 62
8
 10
613.025659
 20
481.349994
 11
623.522471
 21
461.993793
  0
LINE
  8
CutLine
  6
CONTINUOUS
 62
8
 10
623.522471
 20
461.993793
 11
626.978495
 21
429.285647
  0
LINE
  8
CutLine
  6
CONTINUOUS
 62
8
 10
562.402183
 20
524.051280
 11
528.496888
 21
532.099488
  0
LINE
  8
CutLine
  6
CONTINUOUS
 62
8
 10
528.496888
 20
532.099488
 11
501.049701
 21
533.387539
  0
LINE
  8
MountainLine
  6
CONTINUOUS
 62
5
 10
501.049701
 20
533.387539
 11
504.180829
 21
523.648937
  0
LINE
  8
CutLine
  6
CONTINUOUS
 62
8
 10
504.180829
 20
523.648937
 11
528.770631
 21
523.555397
  0
LINE
  8
CutLine
  6
CONTINUOUS
 62
8
 10
626.978495
 20
429.285647
 11
635.992005
 21
429.332240
  0
LINE
  8
CutLine
  6
CONTINUOUS
 62
8
 10
528.496821
 20
325.193139
 11
562.402179
 21
333.241026
  0
LINE
  8
CutLine
  6
CONTINUOUS
 62
8
 10
528.763080
 20
333.784371
 11
504.179459
 21
333.636607
  0
LINE
  8
CutLine
  6
CONTINUOUS
 62
8
 10
501.048294
 20
323.905209
 11
528.496821
 21
325.193139
  0
LINE
  8
CutLine
  6
CONTINUOUS
 62
8
 10
560.154722
 20
340.751495
 11
528.763080
 21
333.784371
  0
LINE
  8
CutLine
  6
CONTINUOUS
 62
8
 10
635.992795
 20
427.959208
 11
626.979284
 21
428.005563
  0
LINE
  8
CutLine
  6
CONTINUOUS
 62
8
 10
626.979284
 20
428.005563
 11
623.523081
 21
395.297610
  0
LINE
  8
CutLine
  6
CONTINUOUS
 62
8
 10
631.564776
 20
392.388519
 11
635.992795
 21
427.959208
  0
LINE
  8
CutLine
  6
CONTINUOUS
 62
8
 10
623.523081
 20
395.297610
 11
613.025876
 21
375.941511
  0
LINE
  8
CutLine
  6
CONTINUOUS
 62
8
 10
620.810211
 20
371.576239
 11
631.564776
 21
392.388519
  0
LINE
  8
CutLine
  6
CONTINUOUS
 62
8
 10
613.025876
 20
375.941511
 11
588.948060
 21
353.847111
  0
LINE
  8
CutLine
  6
CONTINUOUS
 62
8
 10
594.539501
 20
346.684770
 11
620.810211
 21
371.576239
  0
LINE
  8
CutLine
  6
CONTINUOUS
 62
8
 10
588.948060
 20
353.847111
 11
560.154722
 21
340.751495
  0
LINE
  8
CutLine
  6
CONTINUOUS
 62
8
 10
562.402179
 20
333.241026
 11
594.539501
 21
346.684770
  0
LINE
  8
MountainLine
  6
CONTINUOUS
 62
5
 10
504.179459
 20
333.636607
 11
501.048294
 21
323.905209
  0
LINE
  8
CutLine
  6
CONTINUOUS
 62
8
 10
374.163575
 20
428.645232
 11
375.419674
 21
363.955477
  0
LINE
  8
CutLine
  6
CONTINUOUS
 62
8
 10
375.419674
 20
363.955477
 11
409.695964
 21
344.847294
  0
LINE
  8
CutLine
  6
CONTINUOUS
 62
8
 10
504.179459
 20
333.636607
 11
456.313662
 21
339.820942
  0
LINE
  8
CutLine
  6
CONTINUOUS
 62
8
 10
448.528845
 20
330.871013
 11
501.048294
 21
323.905209
  0
LINE
  8
CutLine
  6
CONTINUOUS
 62
8
 10
456.313662
 20
339.820942
 11
421.016893
 21
353.145181
  0
LINE
  8
CutLine
  6
CONTINUOUS
 62
8
 10
409.695964
 20
344.847294
 11
448.528845
 21
330.871013
  0
LINE
  8
CutLine
  6
CONTINUOUS
 62
8
 10
421.016893
 20
353.145181
 11
386.924367
 21
368.593067
  0
LINE
  8
CutLine
  6
CONTINUOUS
 62
8
 10
386.924367
 20
368.593067
 11
386.807891
 21
428.645336
  0
LINE
  8
CutLine
  6
CONTINUOUS
 62
8
 10
386.807891
 20
428.645336
 11
386.923547
 21
488.697607
  0
LINE
  8
CutLine
  6
CONTINUOUS
 62
8
 10
375.419674
 20
493.335184
 11
374.163575
 21
428.645232
  0
LINE
  8
CutLine
  6
CONTINUOUS
 62
8
 10
386.923547
 20
488.697607
 11
421.015704
 21
504.146138
  0
LINE
  8
CutLine
  6
CONTINUOUS
 62
8
 10
409.694732
 20
512.443985
 11
375.419674
 21
493.335184
  0
LINE
  8
CutLine
  6
CONTINUOUS
 62
8
 10
501.049701
 20
533.387539
 11
448.527414
 21
526.420797
  0
LINE
  8
CutLine
  6
CONTINUOUS
 62
8
 10
448.527414
 20
526.420797
 11
409.694732
 21
512.443985
  0
LINE
  8
CutLine
  6
CONTINUOUS
 62
8
 10
421.015704
 20
504.146138
 11
456.312445
 21
517.471168
  0
LINE
  8
CutLine
  6
CONTINUOUS
 62
8
 10
456.312445
 20
517.471168
 11
504.180829
 21
523.648937
  0
LINE
  8
CutLine
  6
CONTINUOUS
 62
8
 10
472.793370
 20
273.123413
 11
502.062980
 21
265.233640
  0
LINE
  8
CutLine
  6
CONTINUOUS
 62
8
 10
446.463372
 20
282.687413
 11
444.713022
 21
273.780939
  0
LINE
  8
CutLine
  6
CONTINUOUS
 62
8
 10
475.442553
 20
281.986321
 11
446.463372
 21
282.687413
  0
LINE
  8
CutLine
  6
CONTINUOUS
 62
8
 10
444.713022
 20
273.780939
 11
472.793370
 21
273.123413
  0
LINE
  8
CutLine
  6
CONTINUOUS
 62
8
 10
508.376541
 20
273.839176
 11
475.442553
 21
281.986321
  0
LINE
  8
CutLine
  6
CONTINUOUS
 62
8
 10
541.247540
 20
221.243373
 11
546.017328
 21
190.007437
  0
LINE
  8
CutLine
  6
CONTINUOUS
 62
8
 10
460.552014
 20
80.849951
 11
491.728583
 21
90.603812
  0
LINE
  8
CutLine
  6
CONTINUOUS
 62
8
 10
491.728583
 20
90.603812
 11
526.564382
 21
110.951912
  0
LINE
  8
CutLine
  6
CONTINUOUS
 62
8
 10
526.564382
 20
110.951912
 11
553.805779
 21
155.350833
  0
LINE
  8
CutLine
  6
CONTINUOUS
 62
8
 10
553.805779
 20
155.350833
 11
554.815220
 21
190.860610
  0
LINE
  8
CutLine
  6
CONTINUOUS
 62
8
 10
546.017328
 20
190.007437
 11
544.887794
 21
156.627696
  0
LINE
  8
CutLine
  6
CONTINUOUS
 62
8
 10
544.887794
 20
156.627696
 11
519.828341
 21
115.785177
  0
LINE
  8
CutLine
  6
CONTINUOUS
 62
8
 10
519.828341
 20
115.785177
 11
487.782851
 21
97.067001
  0
LINE
  8
CutLine
  6
CONTINUOUS
 62
8
 10
487.782851
 20
97.067001
 11
459.103837
 21
88.094097
  0
LINE
  8
CutLine
  6
CONTINUOUS
 62
8
 10
554.815220
 20
190.860610
 11
549.848170
 21
225.592888
  0
LINE
  8
CutLine
  6
CONTINUOUS
 62
8
 10
549.848170
 20
225.592888
 11
529.918314
 21
261.638182
  0
LINE
  8
CutLine
  6
CONTINUOUS
 62
8
 10
529.918314
 20
261.638182
 11
508.376541
 21
273.839176
  0
LINE
  8
CutLine
  6
CONTINUOUS
 62
8
 10
502.062980
 20
265.233640
 11
522.913897
 21
254.401209
  0
LINE
  8
CutLine
  6
CONTINUOUS
 62
8
 10
522.913897
 20
254.401209
 11
541.247540
 21
221.243373
  0
LINE
  8
CutLine
  6
CONTINUOUS
 62
8
 10
418.826196
 20
256.843899
 11
445.734887
 21
273.768986
  0
LINE
  8
CutLine
  6
CONTINUOUS
 62
8
 10
444.505243
 20
281.732153
 11
416.771245
 21
264.287785
  0
LINE
  8
CutLine
  6
CONTINUOUS
 62
8
 10
424.178972
 20
79.971174
 11
460.552014
 21
80.849951
  0
LINE
  8
CutLine
  6
CONTINUOUS
 62
8
 10
459.103837
 20
88.094097
 11
425.644102
 21
87.285931
  0
LINE
  8
CutLine
  6
CONTINUOUS
 62
8
 10
391.209096
 20
89.295787
 11
424.178972
 21
79.971174
  0
LINE
  8
CutLine
  6
CONTINUOUS
 62
8
 10
425.644102
 20
87.285931
 11
395.960054
 21
96.269219
  0
LINE
  8
CutLine
  6
CONTINUOUS
 62
8
 10
374.516987
 20
108.837141
 11
391.209096
 21
89.295787
  0
LINE
  8
CutLine
  6
CONTINUOUS
 62
8
 10
395.960054
 20
96.269219
 11
381.102127
 21
114.076807
  0
LINE
  8
CutLine
  6
CONTINUOUS
 62
8
 10
363.865582
 20
131.419305
 11
374.516987
 21
108.837141
  0
LINE
  8
CutLine
  6
CONTINUOUS
 62
8
 10
381.102127
 20
114.076807
 11
370.859555
 21
134.790737
  0
LINE
  8
CutLine
  6
CONTINUOUS
 62
8
 10
359.067546
 20
164.220709
 11
363.865582
 21
131.419305
  0
LINE
  8
CutLine
  6
CONTINUOUS
 62
8
 10
370.859555
 20
134.790737
 11
366.019152
 21
165.242831
  0
LINE
  8
CutLine
  6
CONTINUOUS
 62
8
 10
363.609787
 20
201.230434
 11
359.067546
 21
164.220709
  0
LINE
  8
CutLine
  6
CONTINUOUS
 62
8
 10
366.019152
 20
165.242831
 11
370.015427
 21
199.564393
  0
LINE
  8
CutLine
  6
CONTINUOUS
 62
8
 10
387.558315
 20
239.195292
 11
363.609787
 21
201.230434
  0
LINE
  8
CutLine
  6
CONTINUOUS
 62
8
 10
416.771245
 20
264.287785
 11
387.558315
 21
239.195292
  0
LINE
  8
CutLine
  6
CONTINUOUS
 62
8
 10
391.953065
 20
233.761359
 11
418.826196
 21
256.843899
  0
LINE
  8
CutLine
  6
CONTINUOUS
 62
8
 10
447.577200
 20
282.657631
 11
444.505243
 21
281.732153
  0
LINE
  8
CutLine
  6
CONTINUOUS
 62
8
 10
370.015427
 20
199.564393
 11
391.953065
 21
233.761359
  0
LINE
  8
CutLine
  6
CONTINUOUS
 62
8
 10
445.734887
 20
273.768986
 11
447.577200
 21
282.657631
  0
ENDSEC
  0
EOF
