  0
SECTION
  2
HEADER
  9
$ACADVER
  1
AC1009
  0
ENDSEC
  0
SECTION
  2
BLOCKS
  0
ENDSEC
  0
SECTION
  2
ENTITIES
  0
LINE
  8
MountainLine
  6
CONTINUOUS
 62
5
 10
366.349137
 20
50.964090
 11
366.290225
 21
57.847908
  0
LINE
  8
CutLine
  6
CONTINUOUS
 62
8
 10
366.290225
 20
57.847908
 11
332.294982
 21
55.877218
  0
LINE
  8
MountainLine
  6
CONTINUOUS
 62
5
 10
332.294982
 20
55.877218
 11
332.464222
 21
52.648147
  0
LINE
  8
MountainLine
  6
CONTINUOUS
 62
5
 10
594.892289
 20
53.638147
 11
595.046750
 21
50.679369
  0
LINE
  8
CutLine
  6
CONTINUOUS
 62
8
 10
627.594244
 20
53.468078
 11
594.892289
 21
53.638147
  0
LINE
  8
CutLine
  6
CONTINUOUS
 62
8
 10
594.892289
 20
53.638147
 11
554.441231
 21
54.666957
  0
LINE
  8
MountainLine
  6
CONTINUOUS
 62
5
 10
554.441231
 20
54.666957
 11
554.769996
 21
48.363965
  0
LINE
  8
CutLine
  6
CONTINUOUS
 62
8
 10
554.769996
 20
48.363965
 11
595.046750
 21
50.679369
  0
LINE
  8
CutLine
  6
CONTINUOUS
 62
8
 10
554.441231
 20
54.666957
 11
502.199183
 21
56.234639
  0
LINE
  8
MountainLine
  6
CONTINUOUS
 62
5
 10
502.199183
 20
56.234639
 11
502.760585
 21
45.469296
  0
LINE
  8
CutLine
  6
CONTINUOUS
 62
8
 10
502.760585
 20
45.469296
 11
554.769996
 21
48.363965
  0
LINE
  8
CutLine
  6
CONTINUOUS
 62
8
 10
432.163939
 20
46.830591
 11
467.243027
 21
46.152157
  0
LINE
  8
CutLine
  6
CONTINUOUS
 62
8
 10
502.199183
 20
56.234639
 11
467.070539
 21
57.322598
  0
LINE
  8
CutLine
  6
CONTINUOUS
 62
8
 10
467.243027
 20
46.152157
 11
502.760585
 21
45.469296
  0
LINE
  8
CutLine
  6
CONTINUOUS
 62
8
 10
467.070539
 20
57.322598
 11
431.559375
 21
58.427439
  0
LINE
  8
MountainLine
  6
CONTINUOUS
 62
5
 10
431.559375
 20
58.427439
 11
432.163939
 21
46.830591
  0
LINE
  8
CutLine
  6
CONTINUOUS
 62
8
 10
431.559375
 20
58.427439
 11
390.536694
 21
59.067300
  0
LINE
  8
MountainLine
  6
CONTINUOUS
 62
5
 10
390.536694
 20
59.067300
 11
391.047695
 21
49.263068
  0
LINE
  8
CutLine
  6
CONTINUOUS
 62
8
 10
391.047695
 20
49.263068
 11
432.163939
 21
46.830591
  0
LINE
  8
CutLine
  6
CONTINUOUS
 62
8
 10
390.536694
 20
59.067300
 11
366.290225
 21
57.847908
  0
LINE
  8
CutLine
  6
CONTINUOUS
 62
8
 10
366.349137
 20
50.964090
 11
391.047695
 21
49.263068
  0
LINE
  8
CutLine
  6
CONTINUOUS
 62
8
 10
595.046750
 20
50.679369
 11
627.594244
 21
53.468078
  0
LINE
  8
CutLine
  6
CONTINUOUS
 62
8
 10
332.464222
 20
52.648147
 11
366.349137
 21
50.964090
  0
LINE
  8
CutLine
  6
CONTINUOUS
 62
8
 10
332.294982
 20
55.877218
 11
303.477118
 21
52.468483
  0
LINE
  8
CutLine
  6
CONTINUOUS
 62
8
 10
303.477118
 20
52.468483
 11
332.464222
 21
52.648147
  0
LINE
  8
MountainLine
  6
CONTINUOUS
 62
5
 10
770.631667
 20
175.995065
 11
818.259598
 21
179.145809
  0
LINE
  8
MountainLine
  6
CONTINUOUS
 62
5
 10
741.738270
 20
221.274868
 11
770.631667
 21
175.995065
  0
LINE
  8
CutLine
  6
CONTINUOUS
 62
8
 10
729.194634
 20
205.371585
 11
770.631667
 21
175.995065
  0
LINE
  8
MountainLine
  6
CONTINUOUS
 62
5
 10
741.738270
 20
221.274868
 11
729.194634
 21
205.371585
  0
LINE
  8
CutLine
  6
CONTINUOUS
 62
8
 10
691.804757
 20
226.516758
 11
729.194634
 21
205.371585
  0
LINE
  8
ValleyLine
  6
CONTINUOUS
 62
1
 10
741.738270
 20
221.274868
 11
691.804757
 21
226.516758
  0
LINE
  8
CutLine
  6
CONTINUOUS
 62
8
 10
864.402995
 20
84.615462
 11
870.890472
 21
150.927075
  0
LINE
  8
CutLine
  6
CONTINUOUS
 62
8
 10
770.631667
 20
175.995065
 11
798.786298
 21
142.911673
  0
LINE
  8
CutLine
  6
CONTINUOUS
 62
8
 10
798.786298
 20
142.911673
 11
837.772120
 21
79.950812
  0
LINE
  8
MountainLine
  6
CONTINUOUS
 62
5
 10
837.772120
 20
79.950812
 11
864.402995
 21
84.615462
  0
LINE
  8
CutLine
  6
CONTINUOUS
 62
8
 10
837.772120
 20
79.950812
 11
850.454241
 21
16.721440
  0
LINE
  8
CutLine
  6
CONTINUOUS
 62
8
 10
850.454241
 20
16.721440
 11
864.402995
 21
84.615462
  0
LINE
  8
CutLine
  6
CONTINUOUS
 62
8
 10
818.259598
 20
179.145809
 11
741.738270
 21
221.274868
  0
LINE
  8
CutLine
  6
CONTINUOUS
 62
8
 10
870.890472
 20
150.927075
 11
818.259598
 21
179.145809
  0
LINE
  8
MountainLine
  6
CONTINUOUS
 62
5
 10
711.081004
 20
249.333872
 11
691.804757
 21
226.516758
  0
LINE
  8
MountainLine
  6
CONTINUOUS
 62
5
 10
678.291981
 20
257.634145
 11
659.924437
 21
238.107328
  0
LINE
  8
CutLine
  6
CONTINUOUS
 62
8
 10
659.924437
 20
238.107328
 11
691.804757
 21
226.516758
  0
LINE
  8
MountainLine
  6
CONTINUOUS
 62
5
 10
691.804757
 20
226.516758
 11
678.291981
 21
257.634145
  0
LINE
  8
MountainLine
  6
CONTINUOUS
 62
5
 10
659.541192
 20
273.974912
 11
659.924437
 21
238.107328
  0
LINE
  8
CutLine
  6
CONTINUOUS
 62
8
 10
711.081004
 20
249.333872
 11
678.291981
 21
257.634145
  0
LINE
  8
CutLine
  6
CONTINUOUS
 62
8
 10
659.541192
 20
273.974912
 11
625.671553
 21
241.504129
  0
LINE
  8
CutLine
  6
CONTINUOUS
 62
8
 10
625.671553
 20
241.504129
 11
659.924437
 21
238.107328
  0
LINE
  8
CutLine
  6
CONTINUOUS
 62
8
 10
678.291981
 20
257.634145
 11
659.541192
 21
273.974912
  0
LINE
  8
CutLine
  6
CONTINUOUS
 62
8
 10
741.738270
 20
221.274868
 11
711.081004
 21
249.333872
  0
LINE
  8
MountainLine
  6
CONTINUOUS
 62
5
 10
202.245689
 20
289.926771
 11
188.732971
 21
258.809360
  0
LINE
  8
CutLine
  6
CONTINUOUS
 62
8
 10
188.732971
 20
258.809360
 11
220.613348
 21
270.399967
  0
LINE
  8
MountainLine
  6
CONTINUOUS
 62
5
 10
220.613348
 20
270.399967
 11
202.245689
 21
289.926771
  0
LINE
  8
MountainLine
  6
CONTINUOUS
 62
5
 10
188.732971
 20
258.809360
 11
169.456684
 21
281.626537
  0
LINE
  8
CutLine
  6
CONTINUOUS
 62
8
 10
169.456684
 20
281.626537
 11
138.799437
 21
253.567514
  0
LINE
  8
ValleyLine
  6
CONTINUOUS
 62
1
 10
138.799437
 20
253.567514
 11
188.732971
 21
258.809360
  0
LINE
  8
MountainLine
  6
CONTINUOUS
 62
5
 10
220.613348
 20
270.399967
 11
220.996477
 21
306.267566
  0
LINE
  8
CutLine
  6
CONTINUOUS
 62
8
 10
220.613348
 20
270.399967
 11
254.866190
 21
273.796810
  0
LINE
  8
CutLine
  6
CONTINUOUS
 62
8
 10
254.866190
 20
273.796810
 11
220.996477
 21
306.267566
  0
LINE
  8
CutLine
  6
CONTINUOUS
 62
8
 10
202.245689
 20
289.926771
 11
169.456684
 21
281.626537
  0
LINE
  8
CutLine
  6
CONTINUOUS
 62
8
 10
220.996477
 20
306.267566
 11
202.245689
 21
289.926771
  0
LINE
  8
MountainLine
  6
CONTINUOUS
 62
5
 10
109.906126
 20
208.287612
 11
138.799437
 21
253.567514
  0
LINE
  8
MountainLine
  6
CONTINUOUS
 62
5
 10
62.278103
 20
211.438465
 11
109.906126
 21
208.287612
  0
LINE
  8
MountainLine
  6
CONTINUOUS
 62
5
 10
151.342911
 20
237.663928
 11
138.799437
 21
253.567514
  0
LINE
  8
CutLine
  6
CONTINUOUS
 62
8
 10
109.906126
 20
208.287612
 11
151.342911
 21
237.663928
  0
LINE
  8
CutLine
  6
CONTINUOUS
 62
8
 10
151.342911
 20
237.663928
 11
188.732971
 21
258.809360
  0
LINE
  8
CutLine
  6
CONTINUOUS
 62
8
 10
138.799437
 20
253.567514
 11
62.278103
 21
211.438465
  0
LINE
  8
CutLine
  6
CONTINUOUS
 62
8
 10
81.751477
 20
175.204227
 11
109.906126
 21
208.287612
  0
LINE
  8
CutLine
  6
CONTINUOUS
 62
8
 10
9.647299
 20
183.219697
 11
16.134402
 21
116.907944
  0
LINE
  8
MountainLine
  6
CONTINUOUS
 62
5
 10
16.134402
 20
116.907944
 11
42.765533
 21
112.243451
  0
LINE
  8
CutLine
  6
CONTINUOUS
 62
8
 10
42.765533
 20
112.243451
 11
81.751477
 21
175.204227
  0
LINE
  8
CutLine
  6
CONTINUOUS
 62
8
 10
62.278103
 20
211.438465
 11
9.647299
 21
183.219697
  0
LINE
  8
CutLine
  6
CONTINUOUS
 62
8
 10
16.134402
 20
116.907944
 11
30.083264
 21
49.013884
  0
LINE
  8
CutLine
  6
CONTINUOUS
 62
8
 10
30.083264
 20
49.013884
 11
42.765533
 21
112.243451
  0
LINE
  8
MountainLine
  6
CONTINUOUS
 62
5
 10
498.174806
 20
545.448352
 11
503.736176
 21
582.008409
  0
LINE
  8
CutLine
  6
CONTINUOUS
 62
8
 10
462.336308
 20
546.143573
 11
498.174806
 21
545.448352
  0
LINE
  8
CutLine
  6
CONTINUOUS
 62
8
 10
498.174806
 20
545.448352
 11
521.537157
 21
543.712778
  0
LINE
  8
MountainLine
  6
CONTINUOUS
 62
5
 10
521.537157
 20
543.712778
 11
532.845263
 21
585.455013
  0
LINE
  8
CutLine
  6
CONTINUOUS
 62
8
 10
521.537157
 20
543.712778
 11
557.428915
 21
539.074120
  0
LINE
  8
MountainLine
  6
CONTINUOUS
 62
5
 10
557.428915
 20
539.074120
 11
588.822799
 21
591.055065
  0
LINE
  8
CutLine
  6
CONTINUOUS
 62
8
 10
557.428915
 20
539.074120
 11
591.221743
 21
530.613236
  0
LINE
  8
CutLine
  6
CONTINUOUS
 62
8
 10
663.867307
 20
554.273206
 11
632.788695
 21
574.668967
  0
LINE
  8
MountainLine
  6
CONTINUOUS
 62
5
 10
591.221743
 20
530.613236
 11
663.867307
 21
554.273206
  0
LINE
  8
CutLine
  6
CONTINUOUS
 62
8
 10
591.221743
 20
530.613236
 11
624.297111
 21
519.642284
  0
LINE
  8
MountainLine
  6
CONTINUOUS
 62
5
 10
624.297111
 20
519.642284
 11
663.867307
 21
554.273206
  0
LINE
  8
CutLine
  6
CONTINUOUS
 62
8
 10
702.472877
 20
536.846702
 11
663.867307
 21
554.273206
  0
LINE
  8
CutLine
  6
CONTINUOUS
 62
8
 10
624.297111
 20
519.642284
 11
649.254192
 21
508.143394
  0
LINE
  8
MountainLine
  6
CONTINUOUS
 62
5
 10
649.254192
 20
508.143394
 11
702.472877
 21
536.846702
  0
LINE
  8
CutLine
  6
CONTINUOUS
 62
8
 10
750.087115
 20
518.529853
 11
702.472877
 21
536.846702
  0
LINE
  8
ValleyLine
  6
CONTINUOUS
 62
1
 10
649.254192
 20
508.143394
 11
750.087115
 21
518.529853
  0
LINE
  8
MountainLine
  6
CONTINUOUS
 62
5
 10
462.336211
 20
580.812058
 11
462.336308
 21
546.143573
  0
LINE
  8
MountainLine
  6
CONTINUOUS
 62
5
 10
420.936233
 20
582.008175
 11
426.498082
 21
545.442099
  0
LINE
  8
CutLine
  6
CONTINUOUS
 62
8
 10
426.498082
 20
545.442099
 11
462.336308
 21
546.143573
  0
LINE
  8
MountainLine
  6
CONTINUOUS
 62
5
 10
391.827189
 20
585.454952
 11
403.136078
 21
543.702661
  0
LINE
  8
CutLine
  6
CONTINUOUS
 62
8
 10
403.136078
 20
543.702661
 11
426.498082
 21
545.442099
  0
LINE
  8
MountainLine
  6
CONTINUOUS
 62
5
 10
335.849716
 20
591.055630
 11
367.244640
 21
539.060229
  0
LINE
  8
CutLine
  6
CONTINUOUS
 62
8
 10
367.244640
 20
539.060229
 11
403.136078
 21
543.702661
  0
LINE
  8
MountainLine
  6
CONTINUOUS
 62
5
 10
260.803534
 20
554.277184
 11
300.375999
 21
519.629210
  0
LINE
  8
CutLine
  6
CONTINUOUS
 62
8
 10
300.375999
 20
519.629210
 11
333.451775
 21
530.598973
  0
LINE
  8
MountainLine
  6
CONTINUOUS
 62
5
 10
333.451775
 20
530.598973
 11
260.803534
 21
554.277184
  0
LINE
  8
CutLine
  6
CONTINUOUS
 62
8
 10
333.451775
 20
530.598973
 11
367.244640
 21
539.060229
  0
LINE
  8
CutLine
  6
CONTINUOUS
 62
8
 10
291.883046
 20
574.671511
 11
260.803534
 21
554.277184
  0
LINE
  8
CutLine
  6
CONTINUOUS
 62
8
 10
335.849716
 20
591.055630
 11
291.883046
 21
574.671511
  0
LINE
  8
MountainLine
  6
CONTINUOUS
 62
5
 10
222.195950
 20
536.855142
 11
275.416655
 21
508.138416
  0
LINE
  8
CutLine
  6
CONTINUOUS
 62
8
 10
275.416655
 20
508.138416
 11
300.375999
 21
519.629210
  0
LINE
  8
CutLine
  6
CONTINUOUS
 62
8
 10
260.803534
 20
554.277184
 11
222.195950
 21
536.855142
  0
LINE
  8
MountainLine
  6
CONTINUOUS
 62
5
 10
174.578955
 20
518.545958
 11
227.441113
 21
485.655680
  0
LINE
  8
CutLine
  6
CONTINUOUS
 62
8
 10
227.441113
 20
485.655680
 11
275.416655
 21
508.138416
  0
LINE
  8
ValleyLine
  6
CONTINUOUS
 62
1
 10
275.416655
 20
508.138416
 11
174.578955
 21
518.545958
  0
LINE
  8
CutLine
  6
CONTINUOUS
 62
8
 10
193.036138
 20
462.860370
 11
227.441113
 21
485.655680
  0
LINE
  8
MountainLine
  6
CONTINUOUS
 62
5
 10
174.578955
 20
518.545958
 11
193.036138
 21
462.860370
  0
LINE
  8
CutLine
  6
CONTINUOUS
 62
8
 10
174.578955
 20
518.545958
 11
124.835922
 21
505.105879
  0
LINE
  8
CutLine
  6
CONTINUOUS
 62
8
 10
163.165565
 20
437.410915
 11
193.036138
 21
462.860370
  0
LINE
  8
MountainLine
  6
CONTINUOUS
 62
5
 10
124.835922
 20
505.105879
 11
163.165565
 21
437.410915
  0
LINE
  8
CutLine
  6
CONTINUOUS
 62
8
 10
124.835922
 20
505.105879
 11
23.412733
 21
479.269184
  0
LINE
  8
CutLine
  6
CONTINUOUS
 62
8
 10
23.412733
 20
479.269184
 11
163.165565
 21
437.410915
  0
LINE
  8
CutLine
  6
CONTINUOUS
 62
8
 10
222.195950
 20
536.855142
 11
174.578955
 21
518.545958
  0
LINE
  8
CutLine
  6
CONTINUOUS
 62
8
 10
632.788695
 20
574.668967
 11
588.822799
 21
591.055065
  0
LINE
  8
CutLine
  6
CONTINUOUS
 62
8
 10
649.254192
 20
508.143394
 11
697.223494
 21
485.654261
  0
LINE
  8
MountainLine
  6
CONTINUOUS
 62
5
 10
697.223494
 20
485.654261
 11
750.087115
 21
518.529853
  0
LINE
  8
CutLine
  6
CONTINUOUS
 62
8
 10
761.488191
 20
437.394095
 11
901.209557
 21
479.269184
  0
LINE
  8
CutLine
  6
CONTINUOUS
 62
8
 10
901.209557
 20
479.269184
 11
799.827551
 21
505.080515
  0
LINE
  8
MountainLine
  6
CONTINUOUS
 62
5
 10
799.827551
 20
505.080515
 11
761.488191
 21
437.394095
  0
LINE
  8
CutLine
  6
CONTINUOUS
 62
8
 10
799.827551
 20
505.080515
 11
750.087115
 21
518.529853
  0
LINE
  8
MountainLine
  6
CONTINUOUS
 62
5
 10
750.087115
 20
518.529853
 11
731.624112
 21
462.852362
  0
LINE
  8
CutLine
  6
CONTINUOUS
 62
8
 10
697.223494
 20
485.654261
 11
731.624112
 21
462.852362
  0
LINE
  8
CutLine
  6
CONTINUOUS
 62
8
 10
731.624112
 20
462.852362
 11
761.488191
 21
437.394095
  0
LINE
  8
CutLine
  6
CONTINUOUS
 62
8
 10
462.336211
 20
580.812058
 11
420.936233
 21
582.008175
  0
LINE
  8
CutLine
  6
CONTINUOUS
 62
8
 10
420.936233
 20
582.008175
 11
391.827189
 21
585.454952
  0
LINE
  8
CutLine
  6
CONTINUOUS
 62
8
 10
391.827189
 20
585.454952
 11
335.849716
 21
591.055630
  0
LINE
  8
CutLine
  6
CONTINUOUS
 62
8
 10
503.736176
 20
582.008409
 11
462.336211
 21
580.812058
  0
LINE
  8
CutLine
  6
CONTINUOUS
 62
8
 10
532.845263
 20
585.455013
 11
503.736176
 21
582.008409
  0
LINE
  8
CutLine
  6
CONTINUOUS
 62
8
 10
588.822799
 20
591.055065
 11
532.845263
 21
585.455013
  0
LINE
  8
CutLine
  6
CONTINUOUS
 62
8
 10
465.479822
 20
232.219682
 11
421.313378
 21
229.982978
  0
LINE
  8
MountainLine
  6
CONTINUOUS
 62
5
 10
465.479824
 20
227.125109
 11
465.479822
 21
232.219682
  0
LINE
  8
CutLine
  6
CONTINUOUS
 62
8
 10
421.460218
 20
220.625123
 11
465.479824
 21
227.125109
  0
LINE
  8
CutLine
  6
CONTINUOUS
 62
8
 10
421.313378
 20
229.982978
 11
386.136520
 21
223.804053
  0
LINE
  8
CutLine
  6
CONTINUOUS
 62
8
 10
386.088847
 20
211.347301
 11
421.460218
 21
220.625123
  0
LINE
  8
CutLine
  6
CONTINUOUS
 62
8
 10
509.646107
 20
229.983009
 11
465.479822
 21
232.219682
  0
LINE
  8
CutLine
  6
CONTINUOUS
 62
8
 10
465.479824
 20
227.125109
 11
509.499295
 21
220.624874
  0
LINE
  8
CutLine
  6
CONTINUOUS
 62
8
 10
544.823123
 20
223.804061
 11
509.646107
 21
229.983009
  0
LINE
  8
CutLine
  6
CONTINUOUS
 62
8
 10
509.499295
 20
220.624874
 11
544.870757
 21
211.347265
  0
LINE
  8
CutLine
  6
CONTINUOUS
 62
8
 10
386.136520
 20
223.804053
 11
361.097062
 21
215.498824
  0
LINE
  8
CutLine
  6
CONTINUOUS
 62
8
 10
361.097062
 20
215.498824
 11
386.088847
 21
211.347301
  0
LINE
  8
CutLine
  6
CONTINUOUS
 62
8
 10
544.870757
 20
211.347265
 11
569.862428
 21
215.498824
  0
LINE
  8
CutLine
  6
CONTINUOUS
 62
8
 10
569.862428
 20
215.498824
 11
544.823123
 21
223.804061
  0
LINE
  8
MountainLine
  6
CONTINUOUS
 62
5
 10
382.487901
 20
276.417683
 11
372.041747
 21
267.694110
  0
LINE
  8
ValleyLine
  6
CONTINUOUS
 62
1
 10
404.826895
 20
262.926704
 11
382.487901
 21
276.417683
  0
LINE
  8
CutLine
  6
CONTINUOUS
 62
8
 10
372.041747
 20
267.694110
 11
404.826895
 21
262.926704
  0
LINE
  8
MountainLine
  6
CONTINUOUS
 62
5
 10
411.768672
 20
275.055895
 11
404.826895
 21
262.926704
  0
LINE
  8
MountainLine
  6
CONTINUOUS
 62
5
 10
453.182319
 20
261.326612
 11
453.182298
 21
275.603563
  0
LINE
  8
CutLine
  6
CONTINUOUS
 62
8
 10
453.182298
 20
275.603563
 11
411.768672
 21
275.055895
  0
LINE
  8
CutLine
  6
CONTINUOUS
 62
8
 10
404.826895
 20
262.926704
 11
453.182319
 21
261.326612
  0
LINE
  8
CutLine
  6
CONTINUOUS
 62
8
 10
494.595933
 20
275.056049
 11
453.182298
 21
275.603563
  0
LINE
  8
MountainLine
  6
CONTINUOUS
 62
5
 10
501.537751
 20
262.926568
 11
494.595933
 21
275.056049
  0
LINE
  8
CutLine
  6
CONTINUOUS
 62
8
 10
453.182319
 20
261.326612
 11
501.537751
 21
262.926568
  0
LINE
  8
CutLine
  6
CONTINUOUS
 62
8
 10
523.876687
 20
276.417695
 11
494.595933
 21
275.056049
  0
LINE
  8
ValleyLine
  6
CONTINUOUS
 62
1
 10
501.537751
 20
262.926568
 11
523.876687
 21
276.417695
  0
LINE
  8
CutLine
  6
CONTINUOUS
 62
8
 10
411.768672
 20
275.055895
 11
382.487901
 21
276.417683
  0
LINE
  8
MountainLine
  6
CONTINUOUS
 62
5
 10
534.322852
 20
267.694158
 11
523.876687
 21
276.417695
  0
LINE
  8
CutLine
  6
CONTINUOUS
 62
8
 10
501.537751
 20
262.926568
 11
534.322852
 21
267.694158
  0
LINE
  8
CutLine
  6
CONTINUOUS
 62
8
 10
578.451674
 20
290.071117
 11
523.876687
 21
276.417695
  0
LINE
  8
CutLine
  6
CONTINUOUS
 62
8
 10
534.322852
 20
267.694158
 11
578.451674
 21
290.071117
  0
LINE
  8
CutLine
  6
CONTINUOUS
 62
8
 10
382.487901
 20
276.417683
 11
327.912917
 21
290.071117
  0
LINE
  8
CutLine
  6
CONTINUOUS
 62
8
 10
327.912917
 20
290.071117
 11
372.041747
 21
267.694110
  0
LINE
  8
MountainLine
  6
CONTINUOUS
 62
5
 10
570.225898
 20
222.624694
 11
578.260125
 21
235.732318
  0
LINE
  8
CutLine
  6
CONTINUOUS
 62
8
 10
578.260125
 20
235.732318
 11
550.280058
 21
244.929542
  0
LINE
  8
CutLine
  6
CONTINUOUS
 62
8
 10
544.621122
 20
228.976011
 11
570.225898
 21
222.624694
  0
LINE
  8
CutLine
  6
CONTINUOUS
 62
8
 10
464.997130
 20
247.352114
 11
417.717269
 21
246.883399
  0
LINE
  8
MountainLine
  6
CONTINUOUS
 62
5
 10
464.997120
 20
235.014422
 11
464.997130
 21
247.352114
  0
LINE
  8
CutLine
  6
CONTINUOUS
 62
8
 10
420.799708
 20
233.508962
 11
464.997120
 21
235.014422
  0
LINE
  8
CutLine
  6
CONTINUOUS
 62
8
 10
379.714014
 20
244.929542
 11
351.734043
 21
235.732540
  0
LINE
  8
MountainLine
  6
CONTINUOUS
 62
5
 10
351.734043
 20
235.732540
 11
359.768210
 21
222.624662
  0
LINE
  8
CutLine
  6
CONTINUOUS
 62
8
 10
359.768210
 20
222.624662
 11
385.373124
 21
228.976015
  0
LINE
  8
CutLine
  6
CONTINUOUS
 62
8
 10
351.734043
 20
235.732540
 11
325.069013
 21
204.862408
  0
LINE
  8
MountainLine
  6
CONTINUOUS
 62
5
 10
325.069013
 20
204.862408
 11
335.915116
 21
194.989608
  0
LINE
  8
CutLine
  6
CONTINUOUS
 62
8
 10
335.915116
 20
194.989608
 11
359.768210
 21
222.624662
  0
LINE
  8
CutLine
  6
CONTINUOUS
 62
8
 10
306.209156
 20
176.914984
 11
276.173391
 21
97.045143
  0
LINE
  8
MountainLine
  6
CONTINUOUS
 62
5
 10
284.896755
 20
94.311728
 11
306.209156
 21
176.914984
  0
LINE
  8
MountainLine
  6
CONTINUOUS
 62
5
 10
316.826799
 20
170.239264
 11
306.209156
 21
176.914984
  0
LINE
  8
CutLine
  6
CONTINUOUS
 62
8
 10
284.896755
 20
94.311728
 11
316.826799
 21
170.239264
  0
LINE
  8
MountainLine
  6
CONTINUOUS
 62
5
 10
284.896755
 20
94.311728
 11
251.530376
 21
41.569197
  0
LINE
  8
CutLine
  6
CONTINUOUS
 62
8
 10
259.118250
 20
38.033865
 11
284.896755
 21
94.311728
  0
LINE
  8
CutLine
  6
CONTINUOUS
 62
8
 10
276.173391
 20
97.045143
 11
251.530376
 21
41.569197
  0
LINE
  8
CutLine
  6
CONTINUOUS
 62
8
 10
251.530376
 20
41.569197
 11
259.118250
 21
38.033865
  0
LINE
  8
CutLine
  6
CONTINUOUS
 62
8
 10
325.069013
 20
204.862408
 11
306.209156
 21
176.914984
  0
LINE
  8
CutLine
  6
CONTINUOUS
 62
8
 10
316.826799
 20
170.239264
 11
335.915116
 21
194.989608
  0
LINE
  8
CutLine
  6
CONTINUOUS
 62
8
 10
417.717269
 20
246.883399
 11
379.714014
 21
244.929542
  0
LINE
  8
CutLine
  6
CONTINUOUS
 62
8
 10
385.373124
 20
228.976015
 11
420.799708
 21
233.508962
  0
LINE
  8
CutLine
  6
CONTINUOUS
 62
8
 10
512.276849
 20
246.883092
 11
464.997130
 21
247.352114
  0
LINE
  8
CutLine
  6
CONTINUOUS
 62
8
 10
464.997120
 20
235.014422
 11
509.194369
 21
233.508892
  0
LINE
  8
CutLine
  6
CONTINUOUS
 62
8
 10
550.280058
 20
244.929542
 11
512.276849
 21
246.883092
  0
LINE
  8
CutLine
  6
CONTINUOUS
 62
8
 10
509.194369
 20
233.508892
 11
544.621122
 21
228.976011
  0
LINE
  8
MountainLine
  6
CONTINUOUS
 62
5
 10
594.079210
 20
194.989763
 11
604.925263
 21
204.862617
  0
LINE
  8
CutLine
  6
CONTINUOUS
 62
8
 10
604.925263
 20
204.862617
 11
578.260125
 21
235.732318
  0
LINE
  8
CutLine
  6
CONTINUOUS
 62
8
 10
570.225898
 20
222.624694
 11
594.079210
 21
194.989763
  0
LINE
  8
CutLine
  6
CONTINUOUS
 62
8
 10
653.821681
 20
97.045746
 11
623.785181
 21
176.914906
  0
LINE
  8
MountainLine
  6
CONTINUOUS
 62
5
 10
623.785181
 20
176.914906
 11
645.098293
 21
94.312198
  0
LINE
  8
MountainLine
  6
CONTINUOUS
 62
5
 10
623.785181
 20
176.914906
 11
613.167781
 21
170.239219
  0
LINE
  8
CutLine
  6
CONTINUOUS
 62
8
 10
613.167781
 20
170.239219
 11
645.098293
 21
94.312198
  0
LINE
  8
CutLine
  6
CONTINUOUS
 62
8
 10
645.098293
 20
94.312198
 11
670.877216
 21
38.034536
  0
LINE
  8
MountainLine
  6
CONTINUOUS
 62
5
 10
678.465152
 20
41.570007
 11
645.098293
 21
94.312198
  0
LINE
  8
CutLine
  6
CONTINUOUS
 62
8
 10
678.465152
 20
41.570007
 11
653.821681
 21
97.045746
  0
LINE
  8
CutLine
  6
CONTINUOUS
 62
8
 10
670.877216
 20
38.034536
 11
678.465152
 21
41.570007
  0
LINE
  8
CutLine
  6
CONTINUOUS
 62
8
 10
623.785181
 20
176.914906
 11
604.925263
 21
204.862617
  0
LINE
  8
CutLine
  6
CONTINUOUS
 62
8
 10
594.079210
 20
194.989763
 11
613.167781
 21
170.239219
  0
LINE
  8
CutLine
  6
CONTINUOUS
 62
8
 10
466.345851
 20
201.866697
 11
514.601318
 21
198.371396
  0
LINE
  8
CutLine
  6
CONTINUOUS
 62
8
 10
515.107052
 20
211.268215
 11
466.345855
 21
212.381764
  0
LINE
  8
CutLine
  6
CONTINUOUS
 62
8
 10
418.090361
 20
198.371649
 11
466.345851
 21
201.866697
  0
LINE
  8
CutLine
  6
CONTINUOUS
 62
8
 10
466.345855
 20
212.381764
 11
417.584640
 21
211.268468
  0
LINE
  8
MountainLine
  6
CONTINUOUS
 62
5
 10
378.306860
 20
207.872145
 11
418.090361
 21
198.371649
  0
LINE
  8
CutLine
  6
CONTINUOUS
 62
8
 10
386.321300
 20
188.973804
 11
418.090361
 21
198.371649
  0
LINE
  8
MountainLine
  6
CONTINUOUS
 62
5
 10
378.306860
 20
207.872145
 11
386.321300
 21
188.973804
  0
LINE
  8
CutLine
  6
CONTINUOUS
 62
8
 10
417.584640
 20
211.268468
 11
378.306860
 21
207.872145
  0
LINE
  8
MountainLine
  6
CONTINUOUS
 62
5
 10
514.601318
 20
198.371396
 11
554.384885
 21
207.872085
  0
LINE
  8
MountainLine
  6
CONTINUOUS
 62
5
 10
546.370457
 20
188.973740
 11
554.384885
 21
207.872085
  0
LINE
  8
CutLine
  6
CONTINUOUS
 62
8
 10
514.601318
 20
198.371396
 11
546.370457
 21
188.973740
  0
LINE
  8
CutLine
  6
CONTINUOUS
 62
8
 10
554.384885
 20
207.872085
 11
515.107052
 21
211.268215
  0
LINE
  8
CutLine
  6
CONTINUOUS
 62
8
 10
345.216851
 20
161.432824
 11
386.321300
 21
188.973804
  0
LINE
  8
CutLine
  6
CONTINUOUS
 62
8
 10
378.306860
 20
207.872145
 11
346.165901
 21
200.387550
  0
LINE
  8
CutLine
  6
CONTINUOUS
 62
8
 10
546.370457
 20
188.973740
 11
587.474930
 21
161.432746
  0
LINE
  8
CutLine
  6
CONTINUOUS
 62
8
 10
586.525841
 20
200.387550
 11
554.384885
 21
207.872085
  0
LINE
  8
CutLine
  6
CONTINUOUS
 62
8
 10
587.474930
 20
161.432746
 11
586.525841
 21
200.387550
  0
LINE
  8
CutLine
  6
CONTINUOUS
 62
8
 10
346.165901
 20
200.387550
 11
345.216851
 21
161.432824
  0
LINE
  8
MountainLine
  6
CONTINUOUS
 62
5
 10
642.609523
 20
220.058713
 11
634.300255
 21
208.041531
  0
LINE
  8
ValleyLine
  6
CONTINUOUS
 62
1
 10
702.600567
 20
156.891346
 11
642.609523
 21
220.058713
  0
LINE
  8
CutLine
  6
CONTINUOUS
 62
8
 10
707.152751
 20
161.198345
 11
642.609523
 21
220.058713
  0
LINE
  8
CutLine
  6
CONTINUOUS
 62
8
 10
634.300255
 20
208.041531
 11
702.600567
 21
156.891346
  0
LINE
  8
MountainLine
  6
CONTINUOUS
 62
5
 10
543.105348
 20
262.739495
 11
540.336193
 21
249.973924
  0
LINE
  8
MountainLine
  6
CONTINUOUS
 62
5
 10
569.233350
 20
244.279414
 11
543.105348
 21
262.739495
  0
LINE
  8
MountainLine
  6
CONTINUOUS
 62
5
 10
569.233350
 20
244.279414
 11
576.073108
 21
264.218411
  0
LINE
  8
CutLine
  6
CONTINUOUS
 62
8
 10
576.073108
 20
264.218411
 11
543.105348
 21
262.739495
  0
LINE
  8
CutLine
  6
CONTINUOUS
 62
8
 10
540.336193
 20
249.973924
 11
569.233350
 21
244.279414
  0
LINE
  8
CutLine
  6
CONTINUOUS
 62
8
 10
455.006287
 20
258.942746
 11
406.247858
 21
260.171546
  0
LINE
  8
MountainLine
  6
CONTINUOUS
 62
5
 10
406.247858
 20
260.171546
 11
407.727140
 21
249.536752
  0
LINE
  8
CutLine
  6
CONTINUOUS
 62
8
 10
407.727140
 20
249.536752
 11
455.006299
 21
249.001818
  0
LINE
  8
CutLine
  6
CONTINUOUS
 62
8
 10
366.907183
 20
262.739262
 11
333.939441
 21
264.218216
  0
LINE
  8
MountainLine
  6
CONTINUOUS
 62
5
 10
333.939441
 20
264.218216
 11
340.779168
 21
244.279392
  0
LINE
  8
MountainLine
  6
CONTINUOUS
 62
5
 10
340.779168
 20
244.279392
 11
366.907183
 21
262.739262
  0
LINE
  8
MountainLine
  6
CONTINUOUS
 62
5
 10
369.676201
 20
249.973696
 11
366.907183
 21
262.739262
  0
LINE
  8
CutLine
  6
CONTINUOUS
 62
8
 10
340.779168
 20
244.279392
 11
369.676201
 21
249.973696
  0
LINE
  8
MountainLine
  6
CONTINUOUS
 62
5
 10
299.072378
 20
246.970080
 11
304.638020
 21
225.363623
  0
LINE
  8
CutLine
  6
CONTINUOUS
 62
8
 10
304.638020
 20
225.363623
 11
340.779168
 21
244.279392
  0
LINE
  8
CutLine
  6
CONTINUOUS
 62
8
 10
267.402546
 20
220.059164
 11
202.858630
 21
161.199550
  0
LINE
  8
ValleyLine
  6
CONTINUOUS
 62
1
 10
207.410796
 20
156.892417
 11
267.402546
 21
220.059164
  0
LINE
  8
MountainLine
  6
CONTINUOUS
 62
5
 10
275.711921
 20
208.042148
 11
267.402546
 21
220.059164
  0
LINE
  8
CutLine
  6
CONTINUOUS
 62
8
 10
207.410796
 20
156.892417
 11
275.711921
 21
208.042148
  0
LINE
  8
CutLine
  6
CONTINUOUS
 62
8
 10
202.858630
 20
161.199550
 11
157.451153
 21
122.412092
  0
LINE
  8
CutLine
  6
CONTINUOUS
 62
8
 10
157.451153
 20
122.412092
 11
207.410796
 21
156.892417
  0
LINE
  8
CutLine
  6
CONTINUOUS
 62
8
 10
299.072378
 20
246.970080
 11
267.402546
 21
220.059164
  0
LINE
  8
CutLine
  6
CONTINUOUS
 62
8
 10
275.711921
 20
208.042148
 11
304.638020
 21
225.363623
  0
LINE
  8
CutLine
  6
CONTINUOUS
 62
8
 10
406.247858
 20
260.171546
 11
366.907183
 21
262.739262
  0
LINE
  8
CutLine
  6
CONTINUOUS
 62
8
 10
369.676201
 20
249.973696
 11
407.727140
 21
249.536752
  0
LINE
  8
MountainLine
  6
CONTINUOUS
 62
5
 10
502.285319
 20
249.536718
 11
503.764730
 21
260.171453
  0
LINE
  8
CutLine
  6
CONTINUOUS
 62
8
 10
503.764730
 20
260.171453
 11
455.006287
 21
258.942746
  0
LINE
  8
CutLine
  6
CONTINUOUS
 62
8
 10
455.006299
 20
249.001818
 11
502.285319
 21
249.536718
  0
LINE
  8
CutLine
  6
CONTINUOUS
 62
8
 10
543.105348
 20
262.739495
 11
503.764730
 21
260.171453
  0
LINE
  8
CutLine
  6
CONTINUOUS
 62
8
 10
502.285319
 20
249.536718
 11
540.336193
 21
249.973924
  0
LINE
  8
MountainLine
  6
CONTINUOUS
 62
5
 10
605.374124
 20
225.363481
 11
610.939887
 21
246.969859
  0
LINE
  8
CutLine
  6
CONTINUOUS
 62
8
 10
569.233350
 20
244.279414
 11
605.374124
 21
225.363481
  0
LINE
  8
CutLine
  6
CONTINUOUS
 62
8
 10
642.609523
 20
220.058713
 11
610.939887
 21
246.969859
  0
LINE
  8
CutLine
  6
CONTINUOUS
 62
8
 10
605.374124
 20
225.363481
 11
634.300255
 21
208.041531
  0
LINE
  8
CutLine
  6
CONTINUOUS
 62
8
 10
752.559880
 20
122.410549
 11
707.152751
 21
161.198345
  0
LINE
  8
CutLine
  6
CONTINUOUS
 62
8
 10
702.600567
 20
156.891346
 11
752.559880
 21
122.410549
  0
LINE
  8
MountainLine
  6
CONTINUOUS
 62
5
 10
576.073108
 20
264.218411
 11
602.933215
 21
279.831781
  0
LINE
  8
CutLine
  6
CONTINUOUS
 62
8
 10
602.933215
 20
279.831781
 11
589.533936
 21
300.785849
  0
LINE
  8
CutLine
  6
CONTINUOUS
 62
8
 10
589.533936
 20
300.785849
 11
576.073108
 21
264.218411
  0
LINE
  8
CutLine
  6
CONTINUOUS
 62
8
 10
610.939887
 20
246.969859
 11
602.933215
 21
279.831781
  0
LINE
  8
CutLine
  6
CONTINUOUS
 62
8
 10
333.939441
 20
264.218216
 11
320.478915
 21
300.785849
  0
LINE
  8
CutLine
  6
CONTINUOUS
 62
8
 10
320.478915
 20
300.785849
 11
307.079419
 21
279.831941
  0
LINE
  8
MountainLine
  6
CONTINUOUS
 62
5
 10
307.079419
 20
279.831941
 11
333.939441
 21
264.218216
  0
LINE
  8
CutLine
  6
CONTINUOUS
 62
8
 10
307.079419
 20
279.831941
 11
299.072378
 21
246.970080
  0
LINE
  8
MountainLine
  6
CONTINUOUS
 62
5
 10
421.464928
 20
515.584776
 11
421.651937
 21
483.856530
  0
LINE
  8
CutLine
  6
CONTINUOUS
 62
8
 10
421.651937
 20
483.856530
 11
462.868482
 21
484.254687
  0
LINE
  8
CutLine
  6
CONTINUOUS
 62
8
 10
462.863085
 20
515.917758
 11
421.464928
 21
515.584776
  0
LINE
  8
CutLine
  6
CONTINUOUS
 62
8
 10
389.534449
 20
477.814267
 11
421.651937
 21
483.856530
  0
LINE
  8
CutLine
  6
CONTINUOUS
 62
8
 10
421.464928
 20
515.584776
 11
381.727033
 21
508.946267
  0
LINE
  8
MountainLine
  6
CONTINUOUS
 62
5
 10
381.727033
 20
508.946267
 11
389.534449
 21
477.814267
  0
LINE
  8
CutLine
  6
CONTINUOUS
 62
8
 10
381.727033
 20
508.946267
 11
369.158457
 21
503.219752
  0
LINE
  8
MountainLine
  6
CONTINUOUS
 62
5
 10
369.158457
 20
503.219752
 11
378.577177
 21
472.513548
  0
LINE
  8
CutLine
  6
CONTINUOUS
 62
8
 10
378.577177
 20
472.513548
 11
389.534449
 21
477.814267
  0
LINE
  8
MountainLine
  6
CONTINUOUS
 62
5
 10
328.233682
 20
480.898924
 11
338.795677
 21
450.375040
  0
LINE
  8
CutLine
  6
CONTINUOUS
 62
8
 10
338.795677
 20
450.375040
 11
378.577177
 21
472.513548
  0
LINE
  8
ValleyLine
  6
CONTINUOUS
 62
1
 10
378.577177
 20
472.513548
 11
328.233682
 21
480.898924
  0
LINE
  8
CutLine
  6
CONTINUOUS
 62
8
 10
369.158457
 20
503.219752
 11
328.233682
 21
480.898924
  0
LINE
  8
CutLine
  6
CONTINUOUS
 62
8
 10
264.342366
 20
456.946018
 11
234.051342
 21
446.557294
  0
LINE
  8
CutLine
  6
CONTINUOUS
 62
8
 10
273.955548
 20
422.152745
 11
338.795677
 21
450.375040
  0
LINE
  8
CutLine
  6
CONTINUOUS
 62
8
 10
328.233682
 20
480.898924
 11
264.342366
 21
456.946018
  0
LINE
  8
MountainLine
  6
CONTINUOUS
 62
5
 10
234.051342
 20
446.557294
 11
240.360326
 21
410.070475
  0
LINE
  8
CutLine
  6
CONTINUOUS
 62
8
 10
240.360326
 20
410.070475
 11
273.955548
 21
422.152745
  0
LINE
  8
MountainLine
  6
CONTINUOUS
 62
5
 10
188.146427
 20
434.454207
 11
197.675642
 21
397.221482
  0
LINE
  8
CutLine
  6
CONTINUOUS
 62
8
 10
197.675642
 20
397.221482
 11
240.360326
 21
410.070475
  0
LINE
  8
MountainLine
  6
CONTINUOUS
 62
5
 10
240.360326
 20
410.070475
 11
188.146427
 21
434.454207
  0
LINE
  8
CutLine
  6
CONTINUOUS
 62
8
 10
234.051342
 20
446.557294
 11
188.146427
 21
434.454207
  0
LINE
  8
CutLine
  6
CONTINUOUS
 62
8
 10
137.178523
 20
389.474986
 11
159.973855
 21
389.647893
  0
LINE
  8
MountainLine
  6
CONTINUOUS
 62
5
 10
159.973855
 20
389.647893
 11
150.993249
 21
431.617466
  0
LINE
  8
CutLine
  6
CONTINUOUS
 62
8
 10
150.993249
 20
431.617466
 11
129.507858
 21
434.230774
  0
LINE
  8
CutLine
  6
CONTINUOUS
 62
8
 10
111.828078
 20
390.561059
 11
137.178523
 21
389.474986
  0
LINE
  8
CutLine
  6
CONTINUOUS
 62
8
 10
129.507858
 20
434.230774
 11
104.819367
 21
438.699427
  0
LINE
  8
MountainLine
  6
CONTINUOUS
 62
5
 10
104.819367
 20
438.699427
 11
111.828078
 21
390.561059
  0
LINE
  8
CutLine
  6
CONTINUOUS
 62
8
 10
104.819367
 20
438.699427
 11
48.568426
 21
452.309568
  0
LINE
  8
CutLine
  6
CONTINUOUS
 62
8
 10
61.343002
 20
400.653671
 11
111.828078
 21
390.561059
  0
LINE
  8
CutLine
  6
CONTINUOUS
 62
8
 10
159.973855
 20
389.647893
 11
197.675642
 21
397.221482
  0
LINE
  8
CutLine
  6
CONTINUOUS
 62
8
 10
188.146427
 20
434.454207
 11
150.993249
 21
431.617466
  0
LINE
  8
CutLine
  6
CONTINUOUS
 62
8
 10
48.568426
 20
452.309568
 11
61.343002
 21
400.653671
  0
LINE
  8
MountainLine
  6
CONTINUOUS
 62
5
 10
813.954066
 20
390.661730
 11
821.102414
 21
438.767153
  0
LINE
  8
CutLine
  6
CONTINUOUS
 62
8
 10
813.954066
 20
390.661730
 11
864.451312
 21
400.675052
  0
LINE
  8
CutLine
  6
CONTINUOUS
 62
8
 10
864.451312
 20
400.675052
 11
865.945590
 21
402.177225
  0
LINE
  8
CutLine
  6
CONTINUOUS
 62
8
 10
865.945590
 20
402.177225
 11
877.366933
 21
452.309568
  0
LINE
  8
CutLine
  6
CONTINUOUS
 62
8
 10
877.366933
 20
452.309568
 11
821.102414
 21
438.767153
  0
LINE
  8
CutLine
  6
CONTINUOUS
 62
8
 10
788.592499
 20
389.584573
 11
813.954066
 21
390.661730
  0
LINE
  8
CutLine
  6
CONTINUOUS
 62
8
 10
821.102414
 20
438.767153
 11
796.366206
 21
434.319616
  0
LINE
  8
MountainLine
  6
CONTINUOUS
 62
5
 10
774.827638
 20
431.714943
 11
765.796636
 21
389.754463
  0
LINE
  8
CutLine
  6
CONTINUOUS
 62
8
 10
774.827638
 20
431.714943
 11
737.608300
 21
434.550839
  0
LINE
  8
CutLine
  6
CONTINUOUS
 62
8
 10
765.796636
 20
389.754463
 11
788.592499
 21
389.584573
  0
LINE
  8
CutLine
  6
CONTINUOUS
 62
8
 10
796.366206
 20
434.319616
 11
774.827638
 21
431.714943
  0
LINE
  8
CutLine
  6
CONTINUOUS
 62
8
 10
504.261357
 20
515.599302
 11
462.863085
 21
515.917758
  0
LINE
  8
CutLine
  6
CONTINUOUS
 62
8
 10
462.868482
 20
484.254687
 11
504.085325
 21
483.871002
  0
LINE
  8
MountainLine
  6
CONTINUOUS
 62
5
 10
504.085325
 20
483.871002
 11
504.261357
 21
515.599302
  0
LINE
  8
MountainLine
  6
CONTINUOUS
 62
5
 10
536.205086
 20
477.840023
 11
544.001428
 21
508.974745
  0
LINE
  8
CutLine
  6
CONTINUOUS
 62
8
 10
544.001428
 20
508.974745
 11
504.261357
 21
515.599302
  0
LINE
  8
CutLine
  6
CONTINUOUS
 62
8
 10
504.085325
 20
483.871002
 11
536.205086
 21
477.840023
  0
LINE
  8
CutLine
  6
CONTINUOUS
 62
8
 10
536.205086
 20
477.840023
 11
547.164082
 21
472.543154
  0
LINE
  8
MountainLine
  6
CONTINUOUS
 62
5
 10
547.164082
 20
472.543154
 11
556.572002
 21
503.252666
  0
LINE
  8
CutLine
  6
CONTINUOUS
 62
8
 10
556.572002
 20
503.252666
 11
544.001428
 21
508.974745
  0
LINE
  8
CutLine
  6
CONTINUOUS
 62
8
 10
597.504748
 20
480.946263
 11
556.572002
 21
503.252666
  0
LINE
  8
ValleyLine
  6
CONTINUOUS
 62
1
 10
547.164082
 20
472.543154
 11
597.504748
 21
480.946263
  0
LINE
  8
CutLine
  6
CONTINUOUS
 62
8
 10
547.164082
 20
472.543154
 11
586.953542
 21
450.418652
  0
LINE
  8
MountainLine
  6
CONTINUOUS
 62
5
 10
586.953542
 20
450.418652
 11
597.504748
 21
480.946263
  0
LINE
  8
MountainLine
  6
CONTINUOUS
 62
5
 10
728.092213
 20
397.314758
 11
737.608300
 21
434.550839
  0
LINE
  8
CutLine
  6
CONTINUOUS
 62
8
 10
728.092213
 20
397.314758
 11
765.796636
 21
389.754463
  0
LINE
  8
MountainLine
  6
CONTINUOUS
 62
5
 10
685.402979
 20
410.148712
 11
737.608300
 21
434.550839
  0
LINE
  8
CutLine
  6
CONTINUOUS
 62
8
 10
737.608300
 20
434.550839
 11
691.699097
 21
446.637737
  0
LINE
  8
MountainLine
  6
CONTINUOUS
 62
5
 10
685.402979
 20
410.148712
 11
691.699097
 21
446.637737
  0
LINE
  8
CutLine
  6
CONTINUOUS
 62
8
 10
586.953542
 20
450.418652
 11
651.803533
 21
422.219174
  0
LINE
  8
CutLine
  6
CONTINUOUS
 62
8
 10
661.404511
 20
457.015822
 11
597.504748
 21
480.946263
  0
LINE
  8
CutLine
  6
CONTINUOUS
 62
8
 10
691.699097
 20
446.637737
 11
661.404511
 21
457.015822
  0
LINE
  8
CutLine
  6
CONTINUOUS
 62
8
 10
651.803533
 20
422.219174
 11
685.402979
 21
410.148712
  0
LINE
  8
CutLine
  6
CONTINUOUS
 62
8
 10
685.402979
 20
410.148712
 11
728.092213
 21
397.314758
  0
LINE
  8
MountainLine
  6
CONTINUOUS
 62
5
 10
763.888199
 20
23.177391
 11
762.958155
 21
13.835464
  0
LINE
  8
MountainLine
  6
CONTINUOUS
 62
5
 10
807.416247
 20
3.719870
 11
763.888199
 21
23.177391
  0
LINE
  8
CutLine
  6
CONTINUOUS
 62
8
 10
762.958155
 20
13.835464
 11
807.416247
 21
3.719870
  0
LINE
  8
CutLine
  6
CONTINUOUS
 62
8
 10
866.839141
 20
7.573638
 11
906.667483
 21
20.248883
  0
LINE
  8
MountainLine
  6
CONTINUOUS
 62
5
 10
823.822964
 20
9.444462
 11
823.714132
 21
2.096360
  0
LINE
  8
CutLine
  6
CONTINUOUS
 62
8
 10
864.534742
 20
14.556298
 11
823.822964
 21
9.444462
  0
LINE
  8
CutLine
  6
CONTINUOUS
 62
8
 10
823.822964
 20
9.444462
 11
809.777198
 21
11.847376
  0
LINE
  8
CutLine
  6
CONTINUOUS
 62
8
 10
809.777198
 20
11.847376
 11
763.888199
 21
23.177391
  0
LINE
  8
CutLine
  6
CONTINUOUS
 62
8
 10
823.714132
 20
2.096360
 11
866.839141
 21
7.573638
  0
LINE
  8
CutLine
  6
CONTINUOUS
 62
8
 10
807.416247
 20
3.719870
 11
823.714132
 21
2.096360
  0
LINE
  8
CutLine
  6
CONTINUOUS
 62
8
 10
904.332646
 20
27.229099
 11
864.534742
 21
14.556298
  0
LINE
  8
CutLine
  6
CONTINUOUS
 62
8
 10
694.706832
 20
31.271279
 11
662.094621
 21
35.408995
  0
LINE
  8
MountainLine
  6
CONTINUOUS
 62
5
 10
662.094621
 20
35.408995
 11
661.713701
 21
25.188181
  0
LINE
  8
CutLine
  6
CONTINUOUS
 62
8
 10
763.888199
 20
23.177391
 11
694.706832
 21
31.271279
  0
LINE
  8
CutLine
  6
CONTINUOUS
 62
8
 10
661.713701
 20
25.188181
 11
694.117571
 21
21.250055
  0
LINE
  8
MountainLine
  6
CONTINUOUS
 62
5
 10
551.321610
 20
40.499587
 11
548.971162
 21
29.414733
  0
LINE
  8
MountainLine
  6
CONTINUOUS
 62
5
 10
572.756404
 20
31.986183
 11
575.634957
 21
43.326501
  0
LINE
  8
CutLine
  6
CONTINUOUS
 62
8
 10
575.634957
 20
43.326501
 11
551.321610
 21
40.499587
  0
LINE
  8
CutLine
  6
CONTINUOUS
 62
8
 10
548.971162
 20
29.414733
 11
572.756404
 21
31.986183
  0
LINE
  8
CutLine
  6
CONTINUOUS
 62
8
 10
662.094621
 20
35.408995
 11
614.420016
 21
41.562313
  0
LINE
  8
MountainLine
  6
CONTINUOUS
 62
5
 10
614.420016
 20
41.562313
 11
612.615382
 21
30.677770
  0
LINE
  8
CutLine
  6
CONTINUOUS
 62
8
 10
614.420016
 20
41.562313
 11
575.634957
 21
43.326501
  0
LINE
  8
CutLine
  6
CONTINUOUS
 62
8
 10
612.615382
 20
30.677770
 11
661.713701
 21
25.188181
  0
LINE
  8
CutLine
  6
CONTINUOUS
 62
8
 10
470.433382
 20
27.229099
 11
467.812406
 21
13.023843
  0
LINE
  8
CutLine
  6
CONTINUOUS
 62
8
 10
467.812406
 20
13.023843
 11
526.835428
 21
26.115891
  0
LINE
  8
MountainLine
  6
CONTINUOUS
 62
5
 10
526.835428
 20
26.115891
 11
470.433382
 21
27.229099
  0
LINE
  8
MountainLine
  6
CONTINUOUS
 62
5
 10
526.835428
 20
26.115891
 11
528.195367
 21
37.179404
  0
LINE
  8
CutLine
  6
CONTINUOUS
 62
8
 10
528.195367
 20
37.179404
 11
470.433382
 21
27.229099
  0
LINE
  8
CutLine
  6
CONTINUOUS
 62
8
 10
551.321610
 20
40.499587
 11
528.195367
 21
37.179404
  0
LINE
  8
CutLine
  6
CONTINUOUS
 62
8
 10
526.835428
 20
26.115891
 11
548.971162
 21
29.414733
  0
LINE
  8
CutLine
  6
CONTINUOUS
 62
8
 10
572.756404
 20
31.986183
 11
612.615382
 21
30.677770
  0
LINE
  8
CutLine
  6
CONTINUOUS
 62
8
 10
694.117571
 20
21.250055
 11
762.958155
 21
13.835464
  0
LINE
  8
CutLine
  6
CONTINUOUS
 62
8
 10
906.667483
 20
20.248883
 11
904.332646
 21
27.229099
  0
LINE
  8
MountainLine
  6
CONTINUOUS
 62
5
 10
420.700349
 20
429.186871
 11
420.599526
 21
419.588773
  0
LINE
  8
CutLine
  6
CONTINUOUS
 62
8
 10
420.599526
 20
419.588773
 11
462.362899
 21
419.508548
  0
LINE
  8
CutLine
  6
CONTINUOUS
 62
8
 10
462.383823
 20
429.151077
 11
420.700349
 21
429.186871
  0
LINE
  8
CutLine
  6
CONTINUOUS
 62
8
 10
388.736778
 20
415.514690
 11
420.599526
 21
419.588773
  0
LINE
  8
CutLine
  6
CONTINUOUS
 62
8
 10
420.700349
 20
429.186871
 11
387.434061
 21
425.049198
  0
LINE
  8
MountainLine
  6
CONTINUOUS
 62
5
 10
387.434061
 20
425.049198
 11
388.736778
 21
415.514690
  0
LINE
  8
CutLine
  6
CONTINUOUS
 62
8
 10
336.479680
 20
393.541786
 11
375.719499
 21
411.171284
  0
LINE
  8
CutLine
  6
CONTINUOUS
 62
8
 10
387.434061
 20
425.049198
 11
375.728160
 21
420.646993
  0
LINE
  8
CutLine
  6
CONTINUOUS
 62
8
 10
375.719499
 20
411.171284
 11
388.736778
 21
415.514690
  0
LINE
  8
CutLine
  6
CONTINUOUS
 62
8
 10
375.728160
 20
420.646993
 11
332.833883
 21
403.236253
  0
LINE
  8
MountainLine
  6
CONTINUOUS
 62
5
 10
332.833883
 20
403.236253
 11
336.479680
 21
393.541786
  0
LINE
  8
CutLine
  6
CONTINUOUS
 62
8
 10
265.758772
 20
371.626000
 11
336.479680
 21
393.541786
  0
LINE
  8
MountainLine
  6
CONTINUOUS
 62
5
 10
332.833883
 20
403.236253
 11
265.758772
 21
371.626000
  0
LINE
  8
MountainLine
  6
CONTINUOUS
 62
5
 10
265.758772
 20
371.626000
 11
263.611540
 21
383.237764
  0
LINE
  8
CutLine
  6
CONTINUOUS
 62
8
 10
263.611540
 20
383.237764
 11
227.822529
 21
375.730919
  0
LINE
  8
MountainLine
  6
CONTINUOUS
 62
5
 10
227.822529
 20
375.730919
 11
228.006342
 21
363.688405
  0
LINE
  8
CutLine
  6
CONTINUOUS
 62
8
 10
228.006342
 20
363.688405
 11
265.758772
 21
371.626000
  0
LINE
  8
CutLine
  6
CONTINUOUS
 62
8
 10
332.833883
 20
403.236253
 11
263.611540
 21
383.237764
  0
LINE
  8
MountainLine
  6
CONTINUOUS
 62
5
 10
183.066209
 20
369.466122
 11
183.666387
 21
357.295007
  0
LINE
  8
CutLine
  6
CONTINUOUS
 62
8
 10
183.666387
 20
357.295007
 11
228.006342
 21
363.688405
  0
LINE
  8
CutLine
  6
CONTINUOUS
 62
8
 10
118.945423
 20
361.094132
 11
142.645171
 21
356.419824
  0
LINE
  8
MountainLine
  6
CONTINUOUS
 62
5
 10
142.645171
 20
356.419824
 11
143.087288
 21
368.575423
  0
LINE
  8
CutLine
  6
CONTINUOUS
 62
8
 10
143.087288
 20
368.575423
 11
118.895584
 21
373.337535
  0
LINE
  8
CutLine
  6
CONTINUOUS
 62
8
 10
93.223245
 20
367.496903
 11
118.945423
 21
361.094132
  0
LINE
  8
CutLine
  6
CONTINUOUS
 62
8
 10
118.895584
 20
373.337535
 11
95.162971
 21
379.108867
  0
LINE
  8
MountainLine
  6
CONTINUOUS
 62
5
 10
95.162971
 20
379.108867
 11
93.223245
 21
367.496903
  0
LINE
  8
CutLine
  6
CONTINUOUS
 62
8
 10
37.572940
 20
395.079059
 11
93.223245
 21
367.496903
  0
LINE
  8
ValleyLine
  6
CONTINUOUS
 62
1
 10
95.162971
 20
379.108867
 11
37.572940
 21
395.079059
  0
LINE
  8
CutLine
  6
CONTINUOUS
 62
8
 10
48.281836
 20
401.657484
 11
47.234489
 21
403.498266
  0
LINE
  8
CutLine
  6
CONTINUOUS
 62
8
 10
47.234489
 20
403.498266
 11
37.572940
 21
395.079059
  0
LINE
  8
CutLine
  6
CONTINUOUS
 62
8
 10
95.162971
 20
379.108867
 11
48.281836
 21
401.657484
  0
LINE
  8
CutLine
  6
CONTINUOUS
 62
8
 10
142.645171
 20
356.419824
 11
183.666387
 21
357.295007
  0
LINE
  8
CutLine
  6
CONTINUOUS
 62
8
 10
183.066209
 20
369.466122
 11
143.087288
 21
368.575423
  0
LINE
  8
CutLine
  6
CONTINUOUS
 62
8
 10
227.822529
 20
375.730919
 11
183.066209
 21
369.466122
  0
LINE
  8
CutLine
  6
CONTINUOUS
 62
8
 10
504.067213
 20
429.004579
 11
462.383823
 21
429.151077
  0
LINE
  8
CutLine
  6
CONTINUOUS
 62
8
 10
462.362899
 20
419.508548
 11
504.126063
 21
419.406133
  0
LINE
  8
MountainLine
  6
CONTINUOUS
 62
5
 10
504.126063
 20
419.406133
 11
504.067213
 21
429.004579
  0
LINE
  8
MountainLine
  6
CONTINUOUS
 62
5
 10
535.970683
 20
415.192375
 11
537.315098
 21
424.721415
  0
LINE
  8
CutLine
  6
CONTINUOUS
 62
8
 10
537.315098
 20
424.721415
 11
504.067213
 21
429.004579
  0
LINE
  8
CutLine
  6
CONTINUOUS
 62
8
 10
504.126063
 20
419.406133
 11
535.970683
 21
415.192375
  0
LINE
  8
MountainLine
  6
CONTINUOUS
 62
5
 10
588.131183
 20
392.991408
 11
591.819332
 21
402.669834
  0
LINE
  8
CutLine
  6
CONTINUOUS
 62
8
 10
591.819332
 20
402.669834
 11
549.001648
 21
420.268045
  0
LINE
  8
CutLine
  6
CONTINUOUS
 62
8
 10
548.968875
 20
410.792064
 11
588.131183
 21
392.991408
  0
LINE
  8
CutLine
  6
CONTINUOUS
 62
8
 10
549.001648
 20
420.268045
 11
537.315098
 21
424.721415
  0
LINE
  8
CutLine
  6
CONTINUOUS
 62
8
 10
535.970683
 20
415.192375
 11
548.968875
 21
410.792064
  0
LINE
  8
CutLine
  6
CONTINUOUS
 62
8
 10
887.055682
 20
393.191436
 11
877.436181
 21
401.657484
  0
LINE
  8
CutLine
  6
CONTINUOUS
 62
8
 10
877.436181
 20
401.657484
 11
876.379966
 21
399.821719
  0
LINE
  8
MountainLine
  6
CONTINUOUS
 62
5
 10
831.271504
 20
365.881280
 11
829.394192
 21
377.500205
  0
LINE
  8
CutLine
  6
CONTINUOUS
 62
8
 10
831.271504
 20
365.881280
 11
887.055682
 21
393.191436
  0
LINE
  8
ValleyLine
  6
CONTINUOUS
 62
1
 10
829.394192
 20
377.500205
 11
887.055682
 21
393.191436
  0
LINE
  8
CutLine
  6
CONTINUOUS
 62
8
 10
876.379966
 20
399.821719
 11
829.394192
 21
377.500205
  0
LINE
  8
CutLine
  6
CONTINUOUS
 62
8
 10
805.521439
 20
359.591643
 11
831.271504
 21
365.881280
  0
LINE
  8
CutLine
  6
CONTINUOUS
 62
8
 10
829.394192
 20
377.500205
 11
805.626111
 21
371.834633
  0
LINE
  8
MountainLine
  6
CONTINUOUS
 62
5
 10
740.784389
 20
356.076132
 11
741.437888
 21
368.244500
  0
LINE
  8
CutLine
  6
CONTINUOUS
 62
8
 10
740.784389
 20
356.076132
 11
781.801433
 21
355.020908
  0
LINE
  8
MountainLine
  6
CONTINUOUS
 62
5
 10
781.412546
 20
367.178681
 11
781.801433
 21
355.020908
  0
LINE
  8
CutLine
  6
CONTINUOUS
 62
8
 10
781.412546
 20
367.178681
 11
741.437888
 21
368.244500
  0
LINE
  8
CutLine
  6
CONTINUOUS
 62
8
 10
696.472937
 20
362.663669
 11
740.784389
 21
356.076132
  0
LINE
  8
CutLine
  6
CONTINUOUS
 62
8
 10
781.801433
 20
355.020908
 11
805.521439
 21
359.591643
  0
LINE
  8
CutLine
  6
CONTINUOUS
 62
8
 10
805.626111
 20
371.834633
 11
781.412546
 21
367.178681
  0
LINE
  8
CutLine
  6
CONTINUOUS
 62
8
 10
658.755579
 20
370.766389
 11
696.472937
 21
362.663669
  0
LINE
  8
MountainLine
  6
CONTINUOUS
 62
5
 10
696.472937
 20
362.663669
 11
696.709429
 21
374.705282
  0
LINE
  8
MountainLine
  6
CONTINUOUS
 62
5
 10
660.953606
 20
382.368647
 11
658.755579
 21
370.766389
  0
LINE
  8
CutLine
  6
CONTINUOUS
 62
8
 10
660.953606
 20
382.368647
 11
591.819332
 21
402.669834
  0
LINE
  8
MountainLine
  6
CONTINUOUS
 62
5
 10
591.819332
 20
402.669834
 11
658.755579
 21
370.766389
  0
LINE
  8
CutLine
  6
CONTINUOUS
 62
8
 10
588.131183
 20
392.991408
 11
658.755579
 21
370.766389
  0
LINE
  8
CutLine
  6
CONTINUOUS
 62
8
 10
741.437888
 20
368.244500
 11
696.709429
 21
374.705282
  0
LINE
  8
CutLine
  6
CONTINUOUS
 62
8
 10
696.709429
 20
374.705282
 11
660.953606
 21
382.368647
  0
LINE
  8
CutLine
  6
CONTINUOUS
 62
8
 10
82.922406
 20
303.432429
 11
80.750137
 21
305.494706
  0
LINE
  8
ValleyLine
  6
CONTINUOUS
 62
1
 10
68.673491
 20
333.952361
 11
43.064707
 21
364.845444
  0
LINE
  8
ValleyLine
  6
CONTINUOUS
 62
1
 10
80.750137
 20
305.494706
 11
43.064707
 21
364.845444
  0
LINE
  8
CutLine
  6
CONTINUOUS
 62
8
 10
80.750137
 20
305.494706
 11
68.673491
 21
333.952361
  0
LINE
  8
CutLine
  6
CONTINUOUS
 62
8
 10
181.255485
 20
307.876228
 11
219.478901
 21
309.259621
  0
LINE
  8
MountainLine
  6
CONTINUOUS
 62
5
 10
216.239747
 20
324.147304
 11
219.478901
 21
309.259621
  0
LINE
  8
CutLine
  6
CONTINUOUS
 62
8
 10
216.239747
 20
324.147304
 11
176.780782
 21
324.582175
  0
LINE
  8
MountainLine
  6
CONTINUOUS
 62
5
 10
181.255485
 20
307.876228
 11
176.780782
 21
324.582175
  0
LINE
  8
CutLine
  6
CONTINUOUS
 62
8
 10
158.463932
 20
311.206649
 11
181.255485
 21
307.876228
  0
LINE
  8
CutLine
  6
CONTINUOUS
 62
8
 10
176.780782
 20
324.582175
 11
152.986755
 21
330.244097
  0
LINE
  8
MountainLine
  6
CONTINUOUS
 62
5
 10
158.463932
 20
311.206649
 11
152.986755
 21
330.244097
  0
LINE
  8
CutLine
  6
CONTINUOUS
 62
8
 10
134.399323
 20
316.860199
 11
158.463932
 21
311.206649
  0
LINE
  8
CutLine
  6
CONTINUOUS
 62
8
 10
152.986755
 20
330.244097
 11
131.670012
 21
336.888396
  0
LINE
  8
MountainLine
  6
CONTINUOUS
 62
5
 10
131.670012
 20
336.888396
 11
134.399323
 21
316.860199
  0
LINE
  8
MountainLine
  6
CONTINUOUS
 62
5
 10
271.987112
 20
322.078636
 11
269.098546
 21
336.627147
  0
LINE
  8
CutLine
  6
CONTINUOUS
 62
8
 10
269.098546
 20
336.627147
 11
216.239747
 21
324.147304
  0
LINE
  8
CutLine
  6
CONTINUOUS
 62
8
 10
219.478901
 20
309.259621
 11
271.987112
 21
322.078636
  0
LINE
  8
CutLine
  6
CONTINUOUS
 62
8
 10
298.334198
 20
344.840330
 11
269.098546
 21
336.627147
  0
LINE
  8
CutLine
  6
CONTINUOUS
 62
8
 10
271.987112
 20
322.078636
 11
300.474693
 21
330.414749
  0
LINE
  8
CutLine
  6
CONTINUOUS
 62
8
 10
68.673491
 20
333.952361
 11
69.733396
 21
335.218627
  0
LINE
  8
CutLine
  6
CONTINUOUS
 62
8
 10
69.733396
 20
335.218627
 11
134.399323
 21
316.860199
  0
LINE
  8
CutLine
  6
CONTINUOUS
 62
8
 10
131.670012
 20
336.888396
 11
43.064707
 21
364.845444
  0
LINE
  8
CutLine
  6
CONTINUOUS
 62
8
 10
300.474693
 20
330.414749
 11
367.422212
 21
351.209507
  0
LINE
  8
MountainLine
  6
CONTINUOUS
 62
5
 10
367.422212
 20
351.209507
 11
360.906055
 21
374.655235
  0
LINE
  8
CutLine
  6
CONTINUOUS
 62
8
 10
360.906055
 20
374.655235
 11
298.334198
 21
344.840330
  0
LINE
  8
CutLine
  6
CONTINUOUS
 62
8
 10
423.164712
 20
414.721649
 11
414.848587
 21
413.764321
  0
LINE
  8
MountainLine
  6
CONTINUOUS
 62
5
 10
425.875317
 20
376.134418
 11
423.164712
 21
414.721649
  0
LINE
  8
CutLine
  6
CONTINUOUS
 62
8
 10
409.216935
 20
368.668856
 11
425.875317
 21
376.134418
  0
LINE
  8
CutLine
  6
CONTINUOUS
 62
8
 10
367.422212
 20
351.209507
 11
409.216935
 21
368.668856
  0
LINE
  8
CutLine
  6
CONTINUOUS
 62
8
 10
414.848587
 20
413.764321
 11
360.906055
 21
374.655235
  0
LINE
  8
CutLine
  6
CONTINUOUS
 62
8
 10
474.490652
 20
416.009361
 11
449.170513
 21
415.863830
  0
LINE
  8
MountainLine
  6
CONTINUOUS
 62
5
 10
449.170513
 20
415.863830
 11
475.589856
 21
382.347950
  0
LINE
  8
CutLine
  6
CONTINUOUS
 62
8
 10
425.875317
 20
376.134418
 11
475.589856
 21
382.347950
  0
LINE
  8
CutLine
  6
CONTINUOUS
 62
8
 10
449.170513
 20
415.863830
 11
423.164712
 21
414.721649
  0
LINE
  8
CutLine
  6
CONTINUOUS
 62
8
 10
517.437421
 20
382.409461
 11
517.437425
 21
415.994590
  0
LINE
  8
CutLine
  6
CONTINUOUS
 62
8
 10
475.589856
 20
382.347950
 11
517.437421
 21
382.409461
  0
LINE
  8
CutLine
  6
CONTINUOUS
 62
8
 10
517.437425
 20
415.994590
 11
474.490652
 21
416.009361
  0
LINE
  8
CutLine
  6
CONTINUOUS
 62
8
 10
43.064707
 20
364.845444
 11
84.960040
 21
289.128428
  0
LINE
  8
CutLine
  6
CONTINUOUS
 62
8
 10
84.960040
 20
289.128428
 11
82.922406
 21
303.432429
  0
LINE
  8
CutLine
  6
CONTINUOUS
 62
8
 10
69.219707
 20
12.570831
 11
29.214583
 21
24.572905
  0
LINE
  8
CutLine
  6
CONTINUOUS
 62
8
 10
29.214583
 20
24.572905
 11
26.997033
 21
17.554546
  0
LINE
  8
CutLine
  6
CONTINUOUS
 62
8
 10
110.011516
 20
8.143255
 11
69.219707
 21
12.570831
  0
LINE
  8
MountainLine
  6
CONTINUOUS
 62
5
 10
110.243774
 20
0.798028
 11
110.011516
 21
8.143255
  0
LINE
  8
CutLine
  6
CONTINUOUS
 62
8
 10
124.014958
 20
10.781762
 11
110.011516
 21
8.143255
  0
LINE
  8
MountainLine
  6
CONTINUOUS
 62
5
 10
126.511939
 20
2.695098
 11
169.707209
 21
22.880931
  0
LINE
  8
MountainLine
  6
CONTINUOUS
 62
5
 10
170.793956
 20
13.555942
 11
169.707209
 21
22.880931
  0
LINE
  8
CutLine
  6
CONTINUOUS
 62
8
 10
126.511939
 20
2.695098
 11
170.793956
 21
13.555942
  0
LINE
  8
CutLine
  6
CONTINUOUS
 62
8
 10
169.707209
 20
22.880931
 11
124.014958
 21
10.781762
  0
LINE
  8
CutLine
  6
CONTINUOUS
 62
8
 10
67.032851
 20
5.550150
 11
110.243774
 21
0.798028
  0
LINE
  8
CutLine
  6
CONTINUOUS
 62
8
 10
26.997033
 20
17.554546
 11
67.032851
 21
5.550150
  0
LINE
  8
CutLine
  6
CONTINUOUS
 62
8
 10
110.243774
 20
0.798028
 11
126.511939
 21
2.695098
  0
LINE
  8
CutLine
  6
CONTINUOUS
 62
8
 10
381.825452
 20
43.743914
 11
357.529065
 21
46.183490
  0
LINE
  8
MountainLine
  6
CONTINUOUS
 62
5
 10
357.529065
 20
46.183490
 11
360.553597
 21
34.888831
  0
LINE
  8
MountainLine
  6
CONTINUOUS
 62
5
 10
384.330010
 20
32.695255
 11
381.825452
 21
43.743914
  0
LINE
  8
CutLine
  6
CONTINUOUS
 62
8
 10
360.553597
 20
34.888831
 11
384.330010
 21
32.695255
  0
LINE
  8
CutLine
  6
CONTINUOUS
 62
8
 10
462.874400
 20
31.723176
 11
404.962761
 21
40.783094
  0
LINE
  8
MountainLine
  6
CONTINUOUS
 62
5
 10
404.962761
 20
40.783094
 11
406.487670
 21
29.741175
  0
LINE
  8
MountainLine
  6
CONTINUOUS
 62
5
 10
406.487670
 20
29.741175
 11
462.874400
 21
31.723176
  0
LINE
  8
CutLine
  6
CONTINUOUS
 62
8
 10
406.487670
 20
29.741175
 11
465.703942
 21
17.554546
  0
LINE
  8
CutLine
  6
CONTINUOUS
 62
8
 10
404.962761
 20
40.783094
 11
381.825452
 21
43.743914
  0
LINE
  8
CutLine
  6
CONTINUOUS
 62
8
 10
384.330010
 20
32.695255
 11
406.487670
 21
29.741175
  0
LINE
  8
CutLine
  6
CONTINUOUS
 62
8
 10
170.793956
 20
13.555942
 11
239.500225
 21
22.125918
  0
LINE
  8
MountainLine
  6
CONTINUOUS
 62
5
 10
271.833378
 20
26.607754
 11
271.280879
 21
36.820732
  0
LINE
  8
CutLine
  6
CONTINUOUS
 62
8
 10
271.280879
 20
36.820732
 11
238.742798
 21
32.135788
  0
LINE
  8
CutLine
  6
CONTINUOUS
 62
8
 10
239.500225
 20
22.125918
 11
271.833378
 21
26.607754
  0
LINE
  8
MountainLine
  6
CONTINUOUS
 62
5
 10
320.831104
 20
32.921055
 11
318.845352
 21
43.773957
  0
LINE
  8
CutLine
  6
CONTINUOUS
 62
8
 10
318.845352
 20
43.773957
 11
271.280879
 21
36.820732
  0
LINE
  8
CutLine
  6
CONTINUOUS
 62
8
 10
271.833378
 20
26.607754
 11
320.831104
 21
32.921055
  0
LINE
  8
CutLine
  6
CONTINUOUS
 62
8
 10
357.529065
 20
46.183490
 11
318.845352
 21
43.773957
  0
LINE
  8
CutLine
  6
CONTINUOUS
 62
8
 10
320.831104
 20
32.921055
 11
360.553597
 21
34.888831
  0
LINE
  8
CutLine
  6
CONTINUOUS
 62
8
 10
238.742798
 20
32.135788
 11
169.707209
 21
22.880931
  0
LINE
  8
CutLine
  6
CONTINUOUS
 62
8
 10
465.703942
 20
17.554546
 11
462.874400
 21
31.723176
  0
LINE
  8
CutLine
  6
CONTINUOUS
 62
8
 10
880.556345
 20
290.433298
 11
868.483466
 21
261.973725
  0
LINE
  8
ValleyLine
  6
CONTINUOUS
 62
1
 10
868.483466
 20
261.973725
 11
906.096622
 21
321.346921
  0
LINE
  8
ValleyLine
  6
CONTINUOUS
 62
1
 10
906.096622
 20
321.346921
 11
880.556345
 21
290.433298
  0
LINE
  8
CutLine
  6
CONTINUOUS
 62
8
 10
868.483466
 20
261.973725
 11
866.310602
 21
259.912606
  0
LINE
  8
CutLine
  6
CONTINUOUS
 62
8
 10
732.829028
 20
280.600420
 11
679.943726
 21
293.086890
  0
LINE
  8
MountainLine
  6
CONTINUOUS
 62
5
 10
679.943726
 20
293.086890
 11
677.055152
 21
278.538380
  0
LINE
  8
MountainLine
  6
CONTINUOUS
 62
5
 10
729.587443
 20
265.713630
 11
732.829028
 21
280.600420
  0
LINE
  8
CutLine
  6
CONTINUOUS
 62
8
 10
677.055152
 20
278.538380
 11
729.587443
 21
265.713630
  0
LINE
  8
MountainLine
  6
CONTINUOUS
 62
5
 10
796.229985
 20
286.659818
 11
790.783794
 21
267.618018
  0
LINE
  8
CutLine
  6
CONTINUOUS
 62
8
 10
790.783794
 20
267.618018
 11
814.846581
 21
273.279648
  0
LINE
  8
MountainLine
  6
CONTINUOUS
 62
5
 10
814.846581
 20
273.279648
 11
817.543938
 21
293.309660
  0
LINE
  8
CutLine
  6
CONTINUOUS
 62
8
 10
817.543938
 20
293.309660
 11
796.229985
 21
286.659818
  0
LINE
  8
MountainLine
  6
CONTINUOUS
 62
5
 10
772.426571
 20
281.001639
 11
767.959693
 21
264.294206
  0
LINE
  8
CutLine
  6
CONTINUOUS
 62
8
 10
767.959693
 20
264.294206
 11
790.783794
 21
267.618018
  0
LINE
  8
CutLine
  6
CONTINUOUS
 62
8
 10
796.229985
 20
286.659818
 11
772.426571
 21
281.001639
  0
LINE
  8
CutLine
  6
CONTINUOUS
 62
8
 10
772.426571
 20
281.001639
 11
732.829028
 21
280.600420
  0
LINE
  8
CutLine
  6
CONTINUOUS
 62
8
 10
729.587443
 20
265.713630
 11
767.959693
 21
264.294206
  0
LINE
  8
CutLine
  6
CONTINUOUS
 62
8
 10
814.846581
 20
273.279648
 11
879.495200
 21
291.698529
  0
LINE
  8
CutLine
  6
CONTINUOUS
 62
8
 10
906.096622
 20
321.346921
 11
817.543938
 21
293.309660
  0
LINE
  8
CutLine
  6
CONTINUOUS
 62
8
 10
879.495200
 20
291.698529
 11
880.556345
 21
290.433298
  0
LINE
  8
CutLine
  6
CONTINUOUS
 62
8
 10
679.943726
 20
293.086890
 11
650.708035
 21
301.299812
  0
LINE
  8
CutLine
  6
CONTINUOUS
 62
8
 10
648.567450
 20
286.874218
 11
677.055152
 21
278.538380
  0
LINE
  8
MountainLine
  6
CONTINUOUS
 62
5
 10
588.136120
 20
331.114734
 11
581.619980
 21
307.669329
  0
LINE
  8
CutLine
  6
CONTINUOUS
 62
8
 10
581.619980
 20
307.669329
 11
648.567450
 21
286.874218
  0
LINE
  8
CutLine
  6
CONTINUOUS
 62
8
 10
650.708035
 20
301.299812
 11
588.136120
 21
331.114734
  0
LINE
  8
MountainLine
  6
CONTINUOUS
 62
5
 10
525.877463
 20
371.181479
 11
523.166866
 21
332.594245
  0
LINE
  8
CutLine
  6
CONTINUOUS
 62
8
 10
534.193703
 20
370.224154
 11
525.877463
 21
371.181479
  0
LINE
  8
CutLine
  6
CONTINUOUS
 62
8
 10
523.166866
 20
332.594245
 11
539.825273
 21
325.128683
  0
LINE
  8
CutLine
  6
CONTINUOUS
 62
8
 10
539.825273
 20
325.128683
 11
581.619980
 21
307.669329
  0
LINE
  8
MountainLine
  6
CONTINUOUS
 62
5
 10
473.452327
 20
338.807776
 11
499.871673
 21
372.323653
  0
LINE
  8
CutLine
  6
CONTINUOUS
 62
8
 10
499.871673
 20
372.323653
 11
474.551700
 21
372.469179
  0
LINE
  8
CutLine
  6
CONTINUOUS
 62
8
 10
473.452327
 20
338.807776
 11
523.166866
 21
332.594245
  0
LINE
  8
CutLine
  6
CONTINUOUS
 62
8
 10
525.877463
 20
371.181479
 11
499.871673
 21
372.323653
  0
LINE
  8
CutLine
  6
CONTINUOUS
 62
8
 10
588.136120
 20
331.114734
 11
534.193703
 21
370.224154
  0
LINE
  8
CutLine
  6
CONTINUOUS
 62
8
 10
431.604924
 20
338.869294
 11
473.452327
 21
338.807776
  0
LINE
  8
CutLine
  6
CONTINUOUS
 62
8
 10
474.551700
 20
372.469179
 11
431.604927
 21
372.454423
  0
LINE
  8
CutLine
  6
CONTINUOUS
 62
8
 10
864.252754
 20
245.614911
 11
906.096622
 21
321.346921
  0
LINE
  8
CutLine
  6
CONTINUOUS
 62
8
 10
866.310602
 20
259.912606
 11
864.252754
 21
245.614911
  0
LINE
  8
CutLine
  6
CONTINUOUS
 62
8
 10
431.604927
 20
372.454423
 11
431.604924
 21
338.869294
  0
LINE
  8
MountainLine
  6
CONTINUOUS
 62
5
 10
592.084817
 20
72.257134
 11
592.244086
 21
75.486873
  0
LINE
  8
CutLine
  6
CONTINUOUS
 62
8
 10
592.244086
 20
75.486873
 11
558.242903
 21
77.352405
  0
LINE
  8
MountainLine
  6
CONTINUOUS
 62
5
 10
558.242903
 20
77.352405
 11
558.205247
 21
70.468278
  0
LINE
  8
CutLine
  6
CONTINUOUS
 62
8
 10
329.654850
 20
72.437844
 11
296.953916
 21
72.167188
  0
LINE
  8
MountainLine
  6
CONTINUOUS
 62
5
 10
329.509520
 20
69.478764
 11
329.654850
 21
72.437844
  0
LINE
  8
CutLine
  6
CONTINUOUS
 62
8
 10
329.509520
 20
69.478764
 11
369.793258
 21
67.287712
  0
LINE
  8
MountainLine
  6
CONTINUOUS
 62
5
 10
369.793258
 20
67.287712
 11
370.102586
 21
73.591851
  0
LINE
  8
CutLine
  6
CONTINUOUS
 62
8
 10
370.102586
 20
73.591851
 11
329.654850
 21
72.437844
  0
LINE
  8
CutLine
  6
CONTINUOUS
 62
8
 10
369.793258
 20
67.287712
 11
421.811341
 21
64.553884
  0
LINE
  8
MountainLine
  6
CONTINUOUS
 62
5
 10
421.811341
 20
64.553884
 11
422.339687
 21
75.320902
  0
LINE
  8
CutLine
  6
CONTINUOUS
 62
8
 10
422.339687
 20
75.320902
 11
370.102586
 21
73.591851
  0
LINE
  8
MountainLine
  6
CONTINUOUS
 62
5
 10
492.403533
 20
66.132261
 11
492.972428
 21
77.730913
  0
LINE
  8
CutLine
  6
CONTINUOUS
 62
8
 10
492.972428
 20
77.730913
 11
457.464797
 21
76.516717
  0
LINE
  8
CutLine
  6
CONTINUOUS
 62
8
 10
457.326671
 20
65.345959
 11
492.403533
 21
66.132261
  0
LINE
  8
CutLine
  6
CONTINUOUS
 62
8
 10
421.811341
 20
64.553884
 11
457.326671
 21
65.345959
  0
LINE
  8
CutLine
  6
CONTINUOUS
 62
8
 10
457.464797
 20
76.516717
 11
422.339687
 21
75.320902
  0
LINE
  8
CutLine
  6
CONTINUOUS
 62
8
 10
492.403533
 20
66.132261
 11
533.512077
 21
68.691325
  0
LINE
  8
MountainLine
  6
CONTINUOUS
 62
5
 10
533.512077
 20
68.691325
 11
533.993080
 21
78.496913
  0
LINE
  8
CutLine
  6
CONTINUOUS
 62
8
 10
533.993080
 20
78.496913
 11
492.972428
 21
77.730913
  0
LINE
  8
CutLine
  6
CONTINUOUS
 62
8
 10
533.512077
 20
68.691325
 11
558.205247
 21
70.468278
  0
LINE
  8
CutLine
  6
CONTINUOUS
 62
8
 10
558.242903
 20
77.352405
 11
533.993080
 21
78.496913
  0
LINE
  8
CutLine
  6
CONTINUOUS
 62
8
 10
558.205247
 20
70.468278
 11
592.084817
 21
72.257134
  0
LINE
  8
CutLine
  6
CONTINUOUS
 62
8
 10
296.953916
 20
72.167188
 11
329.509520
 21
69.478764
  0
LINE
  8
CutLine
  6
CONTINUOUS
 62
8
 10
592.084817
 20
72.257134
 11
621.072341
 21
72.167188
  0
LINE
  8
CutLine
  6
CONTINUOUS
 62
8
 10
621.072341
 20
72.167188
 11
592.244086
 21
75.486873
  0
ENDSEC
  0
EOF
