# 3ds Max Wavefront OBJ Exporter v0.97b - (c)2007 guruware
# File Created: 27.10.2012 15:15:19

mtllib neckRing1.mtl

#
# object neckRing1
#

v  -0.9078 62.6035 -4.4311
v  0.4780 61.6206 -3.6552
v  0.4377 61.5156 -4.0261
v  2.0434 60.3503 -3.1315
v  2.0107 60.2392 -3.4999
v  3.6381 59.1811 -2.2699
v  3.8209 58.8956 -2.5561
v  3.6381 59.1811 2.2699
v  3.8209 58.8956 2.5560
v  2.0434 60.3503 3.1315
v  2.0107 60.2392 3.4999
v  0.4780 61.6206 3.6552
v  0.4377 61.5156 4.0261
v  -0.8220 62.6717 4.0465
v  -0.9078 62.6035 4.4311
v  -2.0215 63.6389 3.9023
v  -2.2266 63.6674 4.2727
v  -3.5801 64.3226 3.4675
v  -3.0153 64.2695 2.9394
v  -4.1889 64.4441 -0.0000
v  -4.7728 64.5657 -0.0000
v  -3.5626 64.3528 -3.3558
v  -3.0153 64.2821 -2.9394
v  -2.0215 63.6389 -3.9024
v  -2.2266 63.6673 -4.2727
v  -0.8220 62.6717 -4.0465
# 26 vertices

vn 0.6170 0.7397 -0.2686
vn 0.6567 0.7040 -0.2705
vn 0.6561 0.7045 -0.2705
vn 0.6598 0.7013 -0.2700
vn 0.6598 0.7012 -0.2703
vn 0.7708 0.6237 -0.1297
vn 0.7516 0.6402 -0.1587
vn 0.7707 0.6238 0.1302
vn 0.7513 0.6406 0.1587
vn 0.6602 0.7008 0.2702
vn 0.6600 0.7011 0.2700
vn 0.6567 0.7040 0.2705
vn 0.6561 0.7045 0.2705
vn 0.6225 0.7350 0.2690
vn 0.6170 0.7397 0.2685
vn 0.4807 0.8490 0.2193
vn 0.4683 0.8622 0.1931
vn 0.2368 0.9626 0.1314
vn 0.2117 0.9688 0.1288
vn 0.1951 0.9808 0.0052
vn 0.2038 0.9790 0.0049
vn 0.2386 0.9633 -0.1232
vn 0.2279 0.9641 -0.1359
vn 0.4841 0.8468 -0.2204
vn 0.4749 0.8577 -0.1971
vn 0.6225 0.7350 -0.2689
# 26 vertex normals

vt 0.2253 -0.1078 0.0000
vt 0.2057 -0.1505 0.0000
vt 0.2151 -0.1512 0.0000
vt 0.1926 -0.2011 0.0000
vt 0.2018 -0.2021 0.0000
vt 0.1709 -0.2509 0.0000
vt 0.1781 -0.2588 0.0000
vt 0.0567 -0.2508 0.0000
vt 0.0495 -0.2588 0.0000
vt 0.0350 -0.2011 0.0000
vt 0.0258 -0.2021 0.0000
vt 0.0219 -0.1505 0.0000
vt 0.0125 -0.1512 0.0000
vt 0.0120 -0.1085 0.0000
vt 0.0024 -0.1077 0.0000
vt 0.0157 -0.0698 0.0000
vt 0.0063 -0.0652 0.0000
vt 0.0266 -0.0279 0.0000
vt 0.0399 -0.0402 0.0000
vt 0.0329 -0.0331 0.0000
vt 0.1138 -0.0138 0.0000
vt 0.1138 -0.0001 0.0000
vt 0.1947 -0.0329 0.0000
vt 0.1877 -0.0401 0.0000
vt 0.2120 -0.0698 0.0000
vt 0.2213 -0.0652 0.0000
vt 0.2156 -0.1085 0.0000
# 27 texture coords

g neckRing1
usemtl hevsuit_sheet_tga
s 1
f 1/1/1 2/2/2 3/3/3 
f 3/3/3 2/2/2 4/4/4 
f 3/3/3 4/4/4 5/5/5 
f 5/5/5 4/4/4 6/6/6 
f 5/5/5 6/6/6 7/7/7 
f 7/7/7 6/6/6 8/8/8 
f 7/7/7 8/8/8 9/9/9 
f 9/9/9 8/8/8 10/10/10 
f 9/9/9 10/10/10 11/11/11 
f 11/11/11 10/10/10 12/12/12 
f 11/11/11 12/12/12 13/13/13 
f 13/13/13 12/12/12 14/14/14 
f 13/13/13 14/14/14 15/15/15 
f 15/15/15 14/14/14 16/16/16 
s 5
f 15/15/15 16/16/16 17/17/17 
s 4
f 18/18/18 17/17/17 16/16/16 
s 5
f 18/18/18 16/16/16 19/19/19 
f 18/20/18 19/19/19 20/21/20 
s 4
f 18/20/18 20/21/20 21/22/21 
f 20/21/20 22/23/22 21/22/21 
s 5
f 20/21/20 23/24/23 22/23/22 
s 1
f 22/23/22 23/24/23 24/25/24 
f 22/23/22 24/25/24 25/26/25 
f 25/26/25 24/25/24 26/27/26 
f 25/26/25 26/27/26 1/1/1 
f 1/1/1 26/27/26 2/2/2 
# 0 polygons - 26 triangles

