  0
SECTION
  2
HEADER
  9
$ACADVER
  1
AC1009
  0
ENDSEC
  0
SECTION
  2
BLOCKS
  0
ENDSEC
  0
SECTION
  2
ENTITIES
  0
LINE
  8
CutLine
  6
CONTINUOUS
 62
8
 10
55.051708
 20
241.654968
 11
55.051708
 21
241.654968
  0
LINE
  8
CutLine
  6
CONTINUOUS
 62
8
 10
55.051708
 20
241.654968
 11
53.359428
 21
239.041796
  0
LINE
  8
CutLine
  6
CONTINUOUS
 62
8
 10
52.512192
 20
237.733517
 11
50.549491
 21
234.702767
  0
LINE
  8
CutLine
  6
CONTINUOUS
 62
8
 10
50.549491
 20
234.702767
 11
52.218935
 21
234.783148
  0
LINE
  8
CutLine
  6
CONTINUOUS
 62
8
 10
58.822603
 20
235.101103
 11
58.822603
 21
235.101103
  0
LINE
  8
CutLine
  6
CONTINUOUS
 62
8
 10
58.822603
 20
235.101103
 11
58.822603
 21
235.101103
  0
LINE
  8
CutLine
  6
CONTINUOUS
 62
8
 10
132.169906
 20
234.782257
 11
133.838505
 21
234.701703
  0
LINE
  8
CutLine
  6
CONTINUOUS
 62
8
 10
133.838505
 20
234.701703
 11
131.876704
 21
237.732429
  0
LINE
  8
CutLine
  6
CONTINUOUS
 62
8
 10
131.029210
 20
239.041695
 11
129.337628
 21
241.654968
  0
LINE
  8
CutLine
  6
CONTINUOUS
 62
8
 10
129.337628
 20
241.654968
 11
129.337628
 21
241.654968
  0
LINE
  8
CutLine
  6
CONTINUOUS
 62
8
 10
129.337628
 20
241.654968
 11
129.337628
 21
241.654968
  0
LINE
  8
CutLine
  6
CONTINUOUS
 62
8
 10
47.339899
 20
159.454822
 11
47.339899
 21
159.454822
  0
LINE
  8
CutLine
  6
CONTINUOUS
 62
8
 10
47.339899
 20
159.454822
 11
47.339899
 21
159.454822
  0
LINE
  8
CutLine
  6
CONTINUOUS
 62
8
 10
47.339899
 20
159.454822
 11
92.193941
 21
152.085300
  0
LINE
  8
CutLine
  6
CONTINUOUS
 62
8
 10
92.193941
 20
152.085300
 11
137.047983
 21
159.454822
  0
LINE
  8
CutLine
  6
CONTINUOUS
 62
8
 10
137.047983
 20
159.454822
 11
137.047983
 21
159.454822
  0
LINE
  8
CutLine
  6
CONTINUOUS
 62
8
 10
132.500698
 20
159.454822
 11
132.508891
 21
157.441625
  0
LINE
  8
CutLine
  6
CONTINUOUS
 62
8
 10
132.508891
 20
157.441625
 11
135.446681
 21
159.454822
  0
LINE
  8
CutLine
  6
CONTINUOUS
 62
8
 10
136.517509
 20
160.188635
 11
139.387881
 21
162.155633
  0
LINE
  8
CutLine
  6
CONTINUOUS
 62
8
 10
139.387881
 20
162.155633
 11
139.387881
 21
162.155633
  0
LINE
  8
CutLine
  6
CONTINUOUS
 62
8
 10
139.387881
 20
162.155633
 11
139.387881
 21
162.155633
  0
LINE
  8
CutLine
  6
CONTINUOUS
 62
8
 10
45.000000
 20
162.155635
 11
47.870373
 21
160.188635
  0
LINE
  8
CutLine
  6
CONTINUOUS
 62
8
 10
48.941201
 20
159.454822
 11
51.878989
 21
157.441625
  0
LINE
  8
CutLine
  6
CONTINUOUS
 62
8
 10
51.878989
 20
157.441625
 11
51.887182
 21
159.454822
  0
LINE
  8
CutLine
  6
CONTINUOUS
 62
8
 10
127.051399
 20
130.601252
 11
126.146539
 21
131.225453
  0
LINE
  8
CutLine
  6
CONTINUOUS
 62
8
 10
58.500011
 20
131.225453
 11
57.506449
 21
130.540063
  0
LINE
  8
CutLine
  6
CONTINUOUS
 62
8
 10
74.016629
 20
106.673873
 11
74.016629
 21
106.673873
  0
LINE
  8
CutLine
  6
CONTINUOUS
 62
8
 10
74.016629
 20
106.673873
 11
93.057432
 21
99.304351
  0
LINE
  8
CutLine
  6
CONTINUOUS
 62
8
 10
93.057432
 20
99.304351
 11
103.260398
 21
99.304351
  0
LINE
  8
CutLine
  6
CONTINUOUS
 62
8
 10
103.260398
 20
99.304351
 11
110.629920
 21
106.673873
  0
LINE
  8
CutLine
  6
CONTINUOUS
 62
8
 10
110.629920
 20
106.673873
 11
110.629920
 21
106.673873
  0
LINE
  8
CutLine
  6
CONTINUOUS
 62
8
 10
55.113443
 20
61.260141
 11
55.113443
 21
61.260141
  0
LINE
  8
CutLine
  6
CONTINUOUS
 62
8
 10
55.113443
 20
61.260141
 11
62.292486
 21
56.584583
  0
LINE
  8
CutLine
  6
CONTINUOUS
 62
8
 10
62.292486
 20
56.584583
 11
62.949797
 21
65.126681
  0
LINE
  8
CutLine
  6
CONTINUOUS
 62
8
 10
62.949797
 20
65.126681
 11
62.949797
 21
65.126681
  0
LINE
  8
CutLine
  6
CONTINUOUS
 62
8
 10
62.949797
 20
65.126681
 11
62.949797
 21
65.126681
  0
LINE
  8
CutLine
  6
CONTINUOUS
 62
8
 10
57.368020
 20
130.847555
 11
57.368020
 21
130.847555
  0
LINE
  8
CutLine
  6
CONTINUOUS
 62
8
 10
57.368020
 20
130.847555
 11
57.368020
 21
130.847555
  0
LINE
  8
CutLine
  6
CONTINUOUS
 62
8
 10
57.368020
 20
130.847555
 11
57.232469
 21
132.042155
  0
LINE
  8
CutLine
  6
CONTINUOUS
 62
8
 10
56.518668
 20
138.332802
 11
56.255547
 21
140.651656
  0
LINE
  8
CutLine
  6
CONTINUOUS
 62
8
 10
56.255547
 20
140.651656
 11
46.645942
 21
138.412576
  0
LINE
  8
CutLine
  6
CONTINUOUS
 62
8
 10
46.645942
 20
138.412576
 11
46.645942
 21
138.412576
  0
LINE
  8
CutLine
  6
CONTINUOUS
 62
8
 10
46.645942
 20
138.412576
 11
46.645942
 21
138.412576
  0
LINE
  8
CutLine
  6
CONTINUOUS
 62
8
 10
137.753214
 20
138.658810
 11
137.753214
 21
138.658810
  0
LINE
  8
CutLine
  6
CONTINUOUS
 62
8
 10
137.753214
 20
138.658810
 11
128.103020
 21
140.715931
  0
LINE
  8
CutLine
  6
CONTINUOUS
 62
8
 10
128.103020
 20
140.715931
 11
127.878122
 21
138.332802
  0
LINE
  8
CutLine
  6
CONTINUOUS
 62
8
 10
127.276076
 20
131.953236
 11
127.175980
 21
130.892562
  0
LINE
  8
CutLine
  6
CONTINUOUS
 62
8
 10
127.175980
 20
130.892562
 11
127.175980
 21
130.892562
  0
LINE
  8
CutLine
  6
CONTINUOUS
 62
8
 10
61.601884
 20
47.018602
 11
61.601884
 21
47.018602
  0
LINE
  8
CutLine
  6
CONTINUOUS
 62
8
 10
61.601884
 20
47.018602
 11
60.000000
 21
24.349133
  0
LINE
  8
CutLine
  6
CONTINUOUS
 62
8
 10
60.000000
 20
24.349133
 11
72.642908
 21
5.464544
  0
LINE
  8
CutLine
  6
CONTINUOUS
 62
8
 10
72.642908
 20
5.464544
 11
72.642908
 21
5.464544
  0
LINE
  8
CutLine
  6
CONTINUOUS
 62
8
 10
120.591319
 20
0.123589
 11
120.591319
 21
0.123589
  0
LINE
  8
CutLine
  6
CONTINUOUS
 62
8
 10
120.591319
 20
0.123589
 11
121.637578
 21
8.626815
  0
LINE
  8
CutLine
  6
CONTINUOUS
 62
8
 10
121.637578
 20
8.626815
 11
113.675195
 21
5.464544
  0
LINE
  8
CutLine
  6
CONTINUOUS
 62
8
 10
113.675195
 20
5.464544
 11
113.675195
 21
5.464544
  0
LINE
  8
CutLine
  6
CONTINUOUS
 62
8
 10
113.675195
 20
5.464544
 11
126.450275
 21
24.849314
  0
LINE
  8
CutLine
  6
CONTINUOUS
 62
8
 10
126.450275
 20
24.849314
 11
129.945156
 21
38.004358
  0
LINE
  8
CutLine
  6
CONTINUOUS
 62
8
 10
129.945156
 20
38.004358
 11
124.714912
 21
47.019027
  0
LINE
  8
CutLine
  6
CONTINUOUS
 62
8
 10
124.714912
 20
47.019027
 11
124.714912
 21
47.019027
  0
LINE
  8
CutLine
  6
CONTINUOUS
 62
8
 10
74.851680
 20
65.715931
 11
74.851680
 21
65.715931
  0
LINE
  8
CutLine
  6
CONTINUOUS
 62
8
 10
74.851680
 20
65.715931
 11
67.540533
 21
58.592406
  0
LINE
  8
CutLine
  6
CONTINUOUS
 62
8
 10
67.540533
 20
58.592406
 11
74.967931
 21
51.590175
  0
LINE
  8
CutLine
  6
CONTINUOUS
 62
8
 10
74.967931
 20
51.590175
 11
74.967931
 21
51.590175
  0
LINE
  8
CutLine
  6
CONTINUOUS
 62
8
 10
111.348720
 20
51.590175
 11
111.348720
 21
51.590175
  0
LINE
  8
CutLine
  6
CONTINUOUS
 62
8
 10
111.348720
 20
51.590175
 11
118.776117
 21
58.592406
  0
LINE
  8
CutLine
  6
CONTINUOUS
 62
8
 10
118.776117
 20
58.592406
 11
111.464971
 21
65.715931
  0
LINE
  8
MountainLine
  6
CONTINUOUS
 62
5
 10
55.051708
 20
241.654968
 11
58.822603
 21
235.101103
  0
LINE
  8
MountainLine
  6
CONTINUOUS
 62
5
 10
58.822603
 20
235.101103
 11
125.565279
 21
235.101103
  0
LINE
  8
MountainLine
  6
CONTINUOUS
 62
5
 10
125.565279
 20
235.101103
 11
129.337628
 21
241.654968
  0
LINE
  8
CutLine
  6
CONTINUOUS
 62
8
 10
129.337628
 20
241.654968
 11
55.051708
 21
241.654968
  0
LINE
  8
CutLine
  6
CONTINUOUS
 62
8
 10
51.912927
 20
165.780763
 11
47.339899
 21
159.454822
  0
LINE
  8
ValleyLine
  6
CONTINUOUS
 62
1
 10
47.339899
 20
159.454822
 11
137.047983
 21
159.454822
  0
LINE
  8
MountainLine
  6
CONTINUOUS
 62
5
 10
132.474955
 20
165.780763
 11
51.912927
 21
165.780763
  0
LINE
  8
MountainLine
  6
CONTINUOUS
 62
5
 10
132.474955
 20
165.780763
 11
125.565279
 21
235.101103
  0
LINE
  8
MountainLine
  6
CONTINUOUS
 62
5
 10
58.822603
 20
235.101103
 11
51.912927
 21
165.780763
  0
LINE
  8
CutLine
  6
CONTINUOUS
 62
8
 10
137.047983
 20
159.454822
 11
132.474955
 21
165.780763
  0
LINE
  8
MountainLine
  6
CONTINUOUS
 62
5
 10
132.474955
 20
165.780763
 11
139.387881
 21
162.155633
  0
LINE
  8
CutLine
  6
CONTINUOUS
 62
8
 10
139.387881
 20
162.155633
 11
131.698603
 21
239.524461
  0
LINE
  8
CutLine
  6
CONTINUOUS
 62
8
 10
131.698603
 20
239.524461
 11
125.565279
 21
235.101103
  0
LINE
  8
CutLine
  6
CONTINUOUS
 62
8
 10
58.822603
 20
235.101103
 11
52.690212
 21
239.524515
  0
LINE
  8
CutLine
  6
CONTINUOUS
 62
8
 10
52.690212
 20
239.524515
 11
45.000000
 21
162.155635
  0
LINE
  8
MountainLine
  6
CONTINUOUS
 62
5
 10
45.000000
 20
162.155635
 11
51.912927
 21
165.780763
  0
LINE
  8
MountainLine
  6
CONTINUOUS
 62
5
 10
127.175980
 20
130.892562
 11
134.332298
 21
64.597471
  0
LINE
  8
CutLine
  6
CONTINUOUS
 62
8
 10
134.332298
 20
64.597471
 11
139.440238
 21
136.573687
  0
LINE
  8
MountainLine
  6
CONTINUOUS
 62
5
 10
139.440238
 20
136.573687
 11
127.175980
 21
130.892562
  0
LINE
  8
ValleyLine
  6
CONTINUOUS
 62
1
 10
124.844526
 20
125.440889
 11
130.744758
 21
61.360287
  0
LINE
  8
CutLine
  6
CONTINUOUS
 62
8
 10
130.744758
 20
61.360287
 11
134.332298
 21
64.597471
  0
LINE
  8
CutLine
  6
CONTINUOUS
 62
8
 10
127.175980
 20
130.892562
 11
124.844526
 21
125.440889
  0
LINE
  8
ValleyLine
  6
CONTINUOUS
 62
1
 10
124.844526
 20
125.440889
 11
123.056069
 21
65.512711
  0
LINE
  8
CutLine
  6
CONTINUOUS
 62
8
 10
123.056069
 20
65.512711
 11
130.744758
 21
61.360287
  0
LINE
  8
ValleyLine
  6
CONTINUOUS
 62
1
 10
124.844526
 20
125.440889
 11
126.146539
 21
131.225453
  0
LINE
  8
MountainLine
  6
CONTINUOUS
 62
5
 10
126.146539
 20
131.225453
 11
58.500011
 21
131.225453
  0
LINE
  8
ValleyLine
  6
CONTINUOUS
 62
1
 10
58.500011
 20
131.225453
 11
59.802023
 21
125.440889
  0
LINE
  8
ValleyLine
  6
CONTINUOUS
 62
1
 10
59.802023
 20
125.440889
 11
124.844526
 21
125.440889
  0
LINE
  8
MountainLine
  6
CONTINUOUS
 62
5
 10
59.802023
 20
125.440889
 11
74.016629
 21
106.673873
  0
LINE
  8
MountainLine
  6
CONTINUOUS
 62
5
 10
74.016629
 20
106.673873
 11
110.629920
 21
106.673873
  0
LINE
  8
MountainLine
  6
CONTINUOUS
 62
5
 10
110.629920
 20
106.673873
 11
124.844526
 21
125.440889
  0
LINE
  8
CutLine
  6
CONTINUOUS
 62
8
 10
47.469232
 20
138.332802
 11
58.500011
 21
131.225453
  0
LINE
  8
CutLine
  6
CONTINUOUS
 62
8
 10
126.146539
 20
131.225453
 11
137.177317
 21
138.332802
  0
LINE
  8
CutLine
  6
CONTINUOUS
 62
8
 10
110.629920
 20
106.673873
 11
123.056069
 21
65.512711
  0
LINE
  8
MountainLine
  6
CONTINUOUS
 62
5
 10
55.113443
 20
61.260141
 11
74.016629
 21
106.673873
  0
LINE
  8
ValleyLine
  6
CONTINUOUS
 62
1
 10
59.802023
 20
125.440889
 11
55.113443
 21
61.260141
  0
LINE
  8
ValleyLine
  6
CONTINUOUS
 62
1
 10
55.113443
 20
61.260141
 11
62.949797
 21
65.126681
  0
LINE
  8
CutLine
  6
CONTINUOUS
 62
8
 10
62.949797
 20
65.126681
 11
74.016629
 21
106.673873
  0
LINE
  8
CutLine
  6
CONTINUOUS
 62
8
 10
59.802023
 20
125.440889
 11
57.368020
 21
130.847555
  0
LINE
  8
MountainLine
  6
CONTINUOUS
 62
5
 10
57.368020
 20
130.847555
 11
51.465089
 21
64.429129
  0
LINE
  8
CutLine
  6
CONTINUOUS
 62
8
 10
51.465089
 20
64.429129
 11
55.113443
 21
61.260141
  0
LINE
  8
CutLine
  6
CONTINUOUS
 62
8
 10
46.645942
 20
138.412576
 11
45.000000
 21
136.295796
  0
LINE
  8
MountainLine
  6
CONTINUOUS
 62
5
 10
45.000000
 20
136.295796
 11
57.368020
 21
130.847555
  0
LINE
  8
MountainLine
  6
CONTINUOUS
 62
5
 10
57.368020
 20
130.847555
 11
46.645942
 21
138.412576
  0
LINE
  8
CutLine
  6
CONTINUOUS
 62
8
 10
45.000000
 20
136.295796
 11
51.465089
 21
64.429129
  0
LINE
  8
CutLine
  6
CONTINUOUS
 62
8
 10
137.177317
 20
138.332802
 11
47.469232
 21
138.332802
  0
LINE
  8
CutLine
  6
CONTINUOUS
 62
8
 10
139.440238
 20
136.573687
 11
137.753214
 21
138.658810
  0
LINE
  8
MountainLine
  6
CONTINUOUS
 62
5
 10
137.753214
 20
138.658810
 11
127.175980
 21
130.892562
  0
LINE
  8
ValleyLine
  6
CONTINUOUS
 62
1
 10
111.348720
 20
51.590175
 11
74.967931
 21
51.590175
  0
LINE
  8
ValleyLine
  6
CONTINUOUS
 62
1
 10
74.967931
 20
51.590175
 11
72.642908
 21
5.464544
  0
LINE
  8
ValleyLine
  6
CONTINUOUS
 62
1
 10
72.642908
 20
5.464544
 11
113.675195
 21
5.464544
  0
LINE
  8
ValleyLine
  6
CONTINUOUS
 62
1
 10
113.675195
 20
5.464544
 11
111.348720
 21
51.590175
  0
LINE
  8
MountainLine
  6
CONTINUOUS
 62
5
 10
72.642908
 20
5.464544
 11
93.158325
 21
0.000000
  0
LINE
  8
MountainLine
  6
CONTINUOUS
 62
5
 10
93.158325
 20
0.000000
 11
113.675195
 21
5.464544
  0
LINE
  8
CutLine
  6
CONTINUOUS
 62
8
 10
93.158325
 20
0.000000
 11
120.591319
 21
0.123589
  0
LINE
  8
CutLine
  6
CONTINUOUS
 62
8
 10
72.642908
 20
5.464544
 11
65.726780
 21
0.123594
  0
LINE
  8
CutLine
  6
CONTINUOUS
 62
8
 10
65.726780
 20
0.123594
 11
93.158325
 21
0.000000
  0
LINE
  8
MountainLine
  6
CONTINUOUS
 62
5
 10
61.601884
 20
47.018602
 11
72.642908
 21
5.464544
  0
LINE
  8
MountainLine
  6
CONTINUOUS
 62
5
 10
120.591319
 20
0.123589
 11
113.675195
 21
5.464544
  0
LINE
  8
CutLine
  6
CONTINUOUS
 62
8
 10
124.714912
 20
47.019027
 11
111.348720
 21
51.590175
  0
LINE
  8
MountainLine
  6
CONTINUOUS
 62
5
 10
113.675195
 20
5.464544
 11
124.714912
 21
47.019027
  0
LINE
  8
CutLine
  6
CONTINUOUS
 62
8
 10
74.967931
 20
51.590175
 11
61.601884
 21
47.018602
  0
LINE
  8
ValleyLine
  6
CONTINUOUS
 62
1
 10
74.851680
 20
65.715931
 11
74.967931
 21
51.590175
  0
LINE
  8
ValleyLine
  6
CONTINUOUS
 62
1
 10
111.348720
 20
51.590175
 11
111.464971
 21
65.715931
  0
LINE
  8
CutLine
  6
CONTINUOUS
 62
8
 10
111.464971
 20
65.715931
 11
74.851680
 21
65.715931
  0
ENDSEC
  0
EOF
