# 3ds Max Wavefront OBJ Exporter v0.97b - (c)2007 guruware
# File Created: 27.10.2012 16:20:59

mtllib mainBody.mtl

#
# object smdimport
#

v  1.8909 56.0673 7.8549
v  1.8814 55.8573 7.8271
v  5.4965 53.6936 3.1792
v  5.5233 53.8510 3.0867
v  -0.1313 52.2503 7.3521
v  -1.7393 51.9233 7.3082
v  -2.1455 49.9745 6.7441
v  0.5065 50.6365 6.5267
v  0.9571 53.4423 7.5053
v  2.6847 51.4085 5.8433
v  1.6030 54.8389 7.6907
v  5.5233 53.8510 -3.0867
v  5.4965 53.6936 -3.1793
v  1.8814 55.8573 -7.8271
v  1.8909 56.0673 -7.8549
v  0.5065 50.6365 -6.5267
v  -2.1455 49.9745 -6.7441
v  -1.7393 51.9233 -7.3082
v  -0.1313 52.2503 -7.3521
v  0.9571 53.4423 -7.5053
v  2.6847 51.4085 -5.8433
v  1.6030 54.8389 -7.6907
v  1.6456 57.7532 -8.0760
v  3.3488 57.2557 -4.5245
v  1.1447 59.7449 -5.4427
v  0.7938 59.4303 -8.2959
v  0.0005 60.7961 -5.8102
v  -0.0674 60.3508 -8.4163
v  -1.5721 61.5874 -6.1489
v  -1.6481 61.0899 -8.5148
v  -3.7677 60.5940 -8.4508
v  -4.3796 61.7879 -6.1057
v  -3.4881 62.5184 -5.5299
v  -4.3796 61.7879 6.1057
v  -3.7677 60.5940 8.4508
v  -1.6481 61.0899 8.5148
v  -1.5721 61.5874 6.1489
v  -3.4881 62.5184 5.5299
v  0.0005 60.7961 5.8102
v  -0.0674 60.3508 8.4163
v  1.1447 59.7449 5.4427
v  0.7938 59.4303 8.2959
v  3.3488 57.2557 4.5245
v  1.6456 57.7532 8.0759
v  -7.3254 54.5620 -4.4965
v  -3.1670 52.5483 -7.3940
v  -4.7231 50.0654 -5.9613
v  -6.1745 61.1534 -4.9524
v  -4.9255 63.1596 -4.1303
v  -5.1187 58.8973 -8.2317
v  -4.7275 54.5917 -7.8692
v  -5.1187 58.8973 8.2317
v  -4.9255 63.1596 4.1303
v  -6.1745 61.1534 4.9524
v  -7.3254 54.5620 4.4964
v  -4.7275 54.5917 7.8692
v  -3.1670 52.5483 7.3940
v  -4.7231 50.0654 5.9613
# 58 vertices

vn 0.7586 -0.1120 0.6418
vn 0.7560 -0.1193 0.6436
vn 0.8206 0.1739 0.5445
vn 0.8210 0.1790 0.5422
vn 0.1970 -0.3551 0.9138
vn -0.0114 -0.2758 0.9611
vn -0.0889 -0.3342 0.9383
vn 0.2740 -0.3759 0.8852
vn 0.3975 -0.3331 0.8550
vn 0.5893 -0.2395 0.7716
vn 0.6500 -0.2518 0.7170
vn 0.7279 -0.1560 0.6678
vn 0.6911 -0.2783 0.6671
vn 0.8153 0.1774 -0.5513
vn 0.8155 0.1837 -0.5488
vn 0.7638 -0.1143 -0.6352
vn 0.7625 -0.1186 -0.6360
vn 0.2479 -0.3637 -0.8979
vn -0.1201 -0.2528 -0.9600
vn -0.0352 -0.3530 -0.9349
vn 0.1722 -0.3937 -0.9029
vn 0.3975 -0.3331 -0.8550
vn 0.5893 -0.2395 -0.7716
vn 0.6500 -0.2518 -0.7170
vn 0.7279 -0.1560 -0.6678
vn 0.6911 -0.2783 -0.6671
vn 0.8521 0.2880 -0.4370
vn 0.8035 0.0391 -0.5940
vn 0.8571 0.3830 -0.3446
vn 0.8289 0.4482 -0.3347
vn 0.7674 0.6049 -0.2127
vn 0.8091 0.5678 -0.1512
vn 0.6046 0.7804 -0.1592
vn 0.5980 0.7851 -0.1611
vn 0.1911 0.9204 -0.3411
vn 0.0990 0.9731 -0.2078
vn -0.3892 0.7948 -0.4657
vn -0.3443 0.8030 -0.4865
vn -0.2115 0.6677 -0.7137
vn -0.3981 0.7763 0.4888
vn -0.4900 0.7185 0.4936
vn 0.1900 0.9426 0.2747
vn 0.2602 0.9209 0.2901
vn -0.2115 0.6677 0.7137
vn 0.5910 0.7906 0.1606
vn 0.5826 0.7964 0.1619
vn 0.7424 0.6516 0.1559
vn 0.7785 0.5902 0.2134
vn 0.8404 0.4377 0.3196
vn 0.8539 0.3051 0.4216
vn 0.8521 0.2880 0.4370
vn 0.8035 0.0391 0.5940
vn -0.7828 -0.1473 -0.6045
vn -0.4274 -0.3788 -0.8209
vn -0.4477 -0.1865 -0.8745
vn -0.7027 0.4831 -0.5222
vn -0.4360 0.5601 -0.7044
vn -0.8275 0.2199 -0.5165
vn -0.7289 -0.3869 -0.5649
vn -0.8266 0.2499 0.5042
vn -0.4360 0.5601 0.7044
vn -0.6882 0.4802 0.5439
vn -0.7828 -0.1473 0.6045
vn -0.7289 -0.3869 0.5649
vn -0.4462 -0.3190 0.8362
vn -0.4718 -0.1998 0.8588
# 66 vertex normals

vt 0.6398 -0.0037 0.0000
vt 0.6398 -0.0071 0.0000
vt 0.7341 -0.0411 0.0000
vt 0.7358 -0.0386 0.0000
vt 0.6114 -0.0665 0.0000
vt 0.5876 -0.0722 0.0000
vt 0.5793 -0.1040 0.0000
vt 0.6217 -0.0925 0.0000
vt 0.6276 -0.0467 0.0000
vt 0.6621 -0.0793 0.0000
vt 0.6364 -0.0238 0.0000
vt 0.8525 -0.0381 0.0000
vt 0.8541 -0.0406 0.0000
vt 0.9376 -0.0059 0.0000
vt 0.9376 -0.0025 0.0000
vt 0.9540 -0.0915 0.0000
vt 0.9917 -0.1030 0.0000
vt 0.9845 -0.0711 0.0000
vt 0.9632 -0.0653 0.0000
vt 0.9487 -0.0456 0.0000
vt 0.9186 -0.0784 0.0000
vt 0.9407 -0.0226 0.0000
vt 0.4248 -0.7073 0.0000
vt 0.5059 -0.6359 0.0000
vt 0.5097 -0.6140 0.0000
vt 0.4493 -0.6414 0.0000
vt 0.4649 -0.5853 0.0000
vt 0.5134 -0.5843 0.0000
vt 0.4711 -0.5589 0.0000
vt 0.5155 -0.5630 0.0000
vt 0.4769 -0.5299 0.0000
vt 0.5171 -0.5345 0.0000
vt 0.5161 -0.5128 0.0000
vt 0.4762 -0.4916 0.0000
vt 0.4664 -0.4949 0.0000
vt 0.4526 -0.2791 0.0000
vt 0.4127 -0.3003 0.0000
vt 0.4116 -0.3220 0.0000
vt 0.4518 -0.3174 0.0000
vt 0.4624 -0.2824 0.0000
vt 0.4576 -0.3464 0.0000
vt 0.4133 -0.3505 0.0000
vt 0.4639 -0.3728 0.0000
vt 0.4153 -0.3718 0.0000
vt 0.4795 -0.4289 0.0000
vt 0.4191 -0.4015 0.0000
vt 0.5039 -0.4948 0.0000
vt 0.4228 -0.4235 0.0000
vt 0.3520 -0.5641 0.0000
vt 0.3367 -0.5860 0.0000
vt 0.3179 -0.5751 0.0000
vt 0.3320 -0.5853 0.0000
vt 0.3173 -0.5811 0.0000
vt 0.4066 -0.5762 0.0000
vt 0.4018 -0.5675 0.0000
vt 0.4122 -0.5719 0.0000
vt 0.4170 -0.5613 0.0000
vt 0.3976 -0.5940 0.0000
vt 0.3848 -0.5923 0.0000
vt 0.3522 -0.5896 0.0000
vt 0.3848 -0.4677 0.0000
vt 0.3976 -0.4661 0.0000
vt 0.4066 -0.4838 0.0000
vt 0.4122 -0.4882 0.0000
vt 0.4170 -0.4988 0.0000
vt 0.4018 -0.4926 0.0000
vt 0.3520 -0.4960 0.0000
vt 0.3522 -0.4705 0.0000
vt 0.3367 -0.4741 0.0000
vt 0.3179 -0.4849 0.0000
vt 0.3173 -0.4790 0.0000
vt 0.3320 -0.4747 0.0000
# 72 texture coords

g smdimport
usemtl hevsuit_sheet_tga
s 1
f 1/1/1 2/2/2 3/3/3 
s 9
f 1/1/1 3/3/3 4/4/4 
s 3
f 5/5/5 6/6/6 7/7/7 
s 2
f 5/5/5 7/7/7 8/8/8 
f 8/8/8 9/9/9 5/5/5 
f 8/8/8 10/10/10 9/9/9 
f 9/9/9 10/10/10 11/11/11 
f 3/3/12 11/11/11 10/10/10 
f 3/3/12 2/2/13 11/11/11 
s 1
f 12/12/14 13/13/15 14/14/16 
f 12/12/14 14/14/16 15/15/17 
s 4
f 16/16/18 17/17/19 18/18/20 
f 16/16/18 18/18/20 19/19/21 
f 20/20/22 16/16/18 19/19/21 
f 20/20/22 21/21/23 16/16/18 
f 20/20/22 22/22/24 21/21/23 
f 13/13/25 21/21/23 22/22/24 
f 13/13/25 22/22/24 14/14/26 
f 12/23/27 15/24/28 23/25/29 
f 12/23/27 23/25/29 24/26/30 
f 23/25/29 25/27/31 24/26/30 
f 23/25/29 26/28/32 25/27/31 
f 27/29/33 25/27/31 26/28/32 
f 27/29/33 26/28/32 28/30/34 
f 29/31/35 27/29/33 28/30/34 
f 29/31/35 28/30/34 30/32/36 
f 29/31/35 30/32/36 31/33/37 
s 5
f 29/31/35 31/33/37 32/34/38 
s 1
f 29/31/35 32/34/38 33/35/39 
s 2
f 34/36/40 35/37/41 36/38/42 
s 1
f 37/39/43 38/40/44 34/36/40 
s 3
f 34/36/40 36/38/42 37/39/43 
s 5
f 36/38/42 39/41/45 37/39/43 
s 4
f 36/38/42 40/42/46 39/41/45 
f 40/42/46 41/43/47 39/41/45 
f 40/42/46 42/44/48 41/43/47 
f 43/45/49 41/43/47 42/44/48 
f 43/45/49 42/44/48 44/46/50 
f 4/47/51 43/45/49 44/46/50 
f 4/47/51 44/46/50 1/48/52 
s 1
f 45/49/53 46/50/54 47/51/55 
s 5
f 47/51/55 46/50/54 18/52/20 
s 4
f 47/51/55 18/52/20 17/53/19 
s 1
f 32/54/38 48/55/56 33/56/39 
f 33/56/39 48/55/56 49/57/57 
f 48/55/56 32/54/38 31/58/37 
f 48/55/56 31/58/37 50/59/58 
f 51/60/59 45/49/53 50/59/58 
f 50/59/58 45/49/53 48/55/56 
f 46/50/54 45/49/53 51/60/59 
s 3
f 52/61/60 35/62/41 34/63/40 
s 1
f 38/64/44 53/65/61 54/66/62 
f 38/64/44 54/66/62 34/63/40 
f 52/61/60 34/63/40 54/66/62 
f 52/61/60 54/66/62 55/67/63 
f 52/61/60 55/67/63 56/68/64 
f 57/69/65 56/68/64 55/67/63 
s 3
f 55/67/63 58/70/66 57/69/65 
f 7/71/7 6/72/6 57/69/65 
s 2
f 7/71/7 57/69/65 58/70/66 
# 0 polygons - 60 triangles

