# 3ds Max Wavefront OBJ Exporter v0.97b - (c)2007 guruware
# File Created: 29.10.2013 22:05:31

mtllib NewVentPlate.mtl

#
# object ventPlate
#

v  5.7469 53.4160 2.3276
v  5.5233 53.8510 3.0867
v  4.9588 48.9106 1.9582
v  4.7738 49.1276 1.4118
v  5.0019 52.2936 1.2518
v  5.8764 51.8691 1.2598
v  5.7469 53.4160 -2.3276
v  4.9588 48.9106 -1.9582
v  5.5233 53.8510 -3.0867
v  4.7738 49.1276 -1.4119
v  5.8764 51.8691 -1.2598
v  5.0019 52.2936 -1.2518
v  4.6674 48.7692 1.8828
v  5.4993 53.1043 2.2380
v  4.8032 48.7527 -0.0000
v  4.6674 48.7692 -1.8829
v  5.4993 53.1043 -2.2380
v  4.7403 48.7216 2.3058
v  4.8057 48.7782 -2.2018
# 19 vertices

vn 0.9071 -0.1895 0.3758
vn 1.0000 0.0000 -0.0000
vn -0.0149 -0.0494 -0.9987
vn 0.8959 -0.3748 -0.2384
vn 0.9071 -0.1895 -0.3758
vn -0.0149 -0.0494 0.9987
vn 0.2360 0.0344 -0.9711
vn 0.9099 -0.1433 -0.3893
vn 0.5512 -0.0493 -0.8329
vn 0.3144 0.0228 -0.9490
vn 0.8894 0.4572 -0.0000
vn 0.9838 -0.1596 0.0812
vn 0.7405 -0.2635 0.6182
vn 0.9994 0.0338 -0.0000
vn 0.9099 -0.1433 0.3893
vn 0.9838 -0.1596 -0.0812
vn 0.5512 -0.0493 0.8329
vn 0.7405 -0.2635 -0.6182
vn 0.2360 0.0344 0.9711
vn 0.3144 0.0228 0.9490
vn 0.9564 0.2920 -0.0000
vn 0.9974 -0.0719 0.0000
vn -0.4367 -0.8996 0.0000
vn 0.7830 -0.6220 -0.0000
vn 0.8749 -0.2007 0.4409
vn 0.8749 -0.2007 -0.4409
# 26 vertex normals

vt 0.7507 -0.0455 0.0000
vt 0.7341 -0.0411 0.0000
vt 0.7534 -0.1192 0.0000
vt 0.7358 -0.0386 0.0000
vt 0.2137 -0.3385 0.0000
vt 0.2226 -0.2150 0.0000
vt 0.2568 -0.2316 0.0000
vt 0.8390 -0.0452 0.0000
vt 0.8395 -0.1189 0.0000
vt 0.8541 -0.0406 0.0000
vt 0.8525 -0.0381 0.0000
vt 0.7529 -0.1216 0.0000
vt 0.7507 -0.0507 0.0000
vt 0.7643 -0.1157 0.0000
vt 0.7715 -0.0706 0.0000
vt 0.7984 -0.1217 0.0000
vt 0.8410 -0.1213 0.0000
vt 0.8305 -0.1154 0.0000
vt 0.8396 -0.0503 0.0000
vt 0.8199 -0.0705 0.0000
vt 0.2589 -0.3140 0.0000
vt 0.3162 -0.3241 0.0000
vt 0.3704 -0.3136 0.0000
vt 0.3618 -0.2266 0.0000
vt 0.2659 -0.2269 0.0000
vt 0.7283 -0.0442 0.0000
vt 0.7443 -0.1224 0.0000
vt 0.8452 -0.1211 0.0000
# 28 texture coords

g ventPlate
usemtl hevsuit_sheet_tga
s 8
f 1/1/1 2/2/1 3/3/1 
f 2/4/2 2/2/1 1/1/1 
s off
f 4/5/3 5/6/3 6/7/3 
s 1
f 7/8/4 8/9/5 9/10/5 
f 7/8/4 9/10/5 9/11/2 
s off
f 10/5/6 11/7/6 12/6/6 
s 2
f 3/3/7 13/12/8 14/13/9 
f 3/3/7 14/13/9 1/1/10 
s 4
f 1/1/11 7/8/11 9/11/11 
f 1/1/11 9/11/11 2/4/11 
s 2
f 14/13/9 4/14/12 6/15/13 
f 13/12/8 4/14/12 14/13/9 
f 15/16/14 4/14/12 13/12/8 
f 15/16/14 16/17/15 10/18/16 
f 16/17/15 17/19/17 10/18/16 
f 17/19/17 11/20/18 10/18/16 
f 8/9/19 7/8/20 17/19/17 
f 8/9/19 17/19/17 16/17/15 
s 4
f 6/15/21 11/20/21 17/19/21 
f 6/15/21 17/19/21 14/13/21 
s 2
f 4/21/12 15/22/14 10/23/16 
f 4/21/12 10/23/16 12/24/22 
f 4/21/12 12/24/22 5/25/22 
s 1
f 12/6/23 11/7/23 6/7/23 
f 12/6/23 6/7/23 5/6/23 
f 1/1/24 14/13/24 17/19/24 
f 17/19/24 7/8/4 1/1/24 
s off
f 3/3/25 2/26/25 18/27/25 
f 8/9/26 19/28/26 9/11/26 
# 0 polygons - 29 triangles

