# 3ds Max Wavefront OBJ Exporter v0.97b - (c)2007 guruware
# File Created: 27.10.2012 15:51:31

mtllib backSide1.mtl

#
# object backSide
#

v  -6.1745 61.1534 4.9524
v  -7.0009 49.5458 -1.6371
v  -7.0009 49.5458 1.6371
v  -7.3254 54.5620 4.4964
v  -7.3254 54.5620 -4.4965
v  -6.1745 61.1534 -4.9524
v  -4.9255 63.1596 -4.1303
v  -4.9255 63.1596 4.1303
# 8 vertices

vn -0.9515 0.3071 -0.0171
vn -0.9976 0.0375 0.0590
vn -0.9948 0.0864 -0.0547
vn -0.8869 0.1842 -0.4237
vn -0.9950 0.0681 0.0737
vn -0.9408 0.3391 -0.0000
vn -0.8489 0.5285 -0.0000
# 7 vertex normals

vt 0.4018 -0.4926 0.0000
vt 0.3140 -0.5424 0.0000
vt 0.3140 -0.5176 0.0000
vt 0.3520 -0.4960 0.0000
vt 0.3520 -0.5641 0.0000
vt 0.4018 -0.5675 0.0000
vt 0.4170 -0.5613 0.0000
vt 0.4170 -0.4988 0.0000
# 8 texture coords

g backSide
usemtl hevsuit_sheet_tga
s 1
f 1/1/1 2/2/2 3/3/3 
f 1/1/1 3/3/3 4/4/4 
f 1/1/1 5/5/5 2/2/2 
f 1/1/1 6/6/6 5/5/5 
f 1/1/1 7/7/7 6/6/6 
f 1/1/1 8/8/7 7/7/7 
# 0 polygons - 6 triangles

