  0
SECTION
  2
HEADER
  9
$ACADVER
  1
AC1009
  0
ENDSEC
  0
SECTION
  2
BLOCKS
  0
ENDSEC
  0
SECTION
  2
ENTITIES
  0
LINE
  8
CutLine
  6
CONTINUOUS
 62
8
 10
75.880804
 20
597.217521
 11
11.192014
 21
598.532103
  0
LINE
  8
CutLine
  6
CONTINUOUS
 62
8
 10
11.192014
 20
598.532103
 11
18.850086
 21
582.954346
  0
LINE
  8
CutLine
  6
CONTINUOUS
 62
8
 10
132.903985
 20
582.924183
 11
140.570117
 21
598.496160
  0
LINE
  8
CutLine
  6
CONTINUOUS
 62
8
 10
140.570117
 20
598.496160
 11
75.880804
 21
597.217521
  0
LINE
  8
CutLine
  6
CONTINUOUS
 62
8
 10
18.850044
 20
582.954346
 11
75.876818
 21
582.815044
  0
LINE
  8
CutLine
  6
CONTINUOUS
 62
8
 10
75.876818
 20
582.815044
 11
132.903985
 21
582.924183
  0
LINE
  8
CutLine
  6
CONTINUOUS
 62
8
 10
152.261577
 20
457.821231
 11
142.738672
 21
580.673972
  0
LINE
  8
CutLine
  6
CONTINUOUS
 62
8
 10
28.694788
 20
580.694134
 11
19.143574
 21
457.835732
  0
LINE
  8
CutLine
  6
CONTINUOUS
 62
8
 10
19.143574
 20
457.835732
 11
85.702498
 21
457.419704
  0
LINE
  8
CutLine
  6
CONTINUOUS
 62
8
 10
85.711506
 20
580.564833
 11
28.684731
 21
580.704135
  0
LINE
  8
CutLine
  6
CONTINUOUS
 62
8
 10
142.738672
 20
580.673972
 11
85.711506
 21
580.564833
  0
LINE
  8
CutLine
  6
CONTINUOUS
 62
8
 10
85.702498
 20
457.419704
 11
152.261577
 21
457.821231
  0
LINE
  8
CutLine
  6
CONTINUOUS
 62
8
 10
173.542556
 20
364.066879
 11
185.474848
 21
376.671499
  0
LINE
  8
CutLine
  6
CONTINUOUS
 62
8
 10
185.474848
 20
499.892771
 11
170.078452
 21
509.887259
  0
LINE
  8
CutLine
  6
CONTINUOUS
 62
8
 10
170.078452
 20
509.887259
 11
173.542556
 21
364.066879
  0
LINE
  8
CutLine
  6
CONTINUOUS
 62
8
 10
185.474848
 20
376.671499
 11
185.474848
 21
499.892771
  0
LINE
  8
CutLine
  6
CONTINUOUS
 62
8
 10
15.131395
 20
455.234414
 11
2.790232
 21
441.681005
  0
LINE
  8
CutLine
  6
CONTINUOUS
 62
8
 10
81.734808
 20
440.625567
 11
159.592001
 21
440.671087
  0
LINE
  8
CutLine
  6
CONTINUOUS
 62
8
 10
159.592001
 20
440.671087
 11
160.671742
 21
442.120570
  0
LINE
  8
CutLine
  6
CONTINUOUS
 62
8
 10
81.691618
 20
455.234088
 11
15.131395
 21
455.234414
  0
LINE
  8
CutLine
  6
CONTINUOUS
 62
8
 10
160.671742
 20
442.120570
 11
148.250697
 21
455.635615
  0
LINE
  8
CutLine
  6
CONTINUOUS
 62
8
 10
148.250697
 20
455.635615
 11
81.691618
 21
455.234088
  0
LINE
  8
CutLine
  6
CONTINUOUS
 62
8
 10
3.879228
 20
440.241259
 11
81.734808
 21
440.625567
  0
LINE
  8
CutLine
  6
CONTINUOUS
 62
8
 10
2.790232
 20
441.681005
 11
3.879228
 21
440.241259
  0
LINE
  8
CutLine
  6
CONTINUOUS
 62
8
 10
802.440578
 20
95.992645
 11
867.232702
 21
95.971949
  0
LINE
  8
CutLine
  6
CONTINUOUS
 62
8
 10
880.304577
 20
114.378389
 11
802.447907
 21
114.089644
  0
LINE
  8
CutLine
  6
CONTINUOUS
 62
8
 10
881.589197
 20
113.206685
 11
880.304577
 21
114.378389
  0
LINE
  8
CutLine
  6
CONTINUOUS
 62
8
 10
802.447907
 20
114.089644
 11
724.592017
 21
114.404968
  0
LINE
  8
CutLine
  6
CONTINUOUS
 62
8
 10
737.642144
 20
95.971949
 11
802.438416
 21
95.992646
  0
LINE
  8
CutLine
  6
CONTINUOUS
 62
8
 10
724.592017
 20
114.404968
 11
723.305827
 21
113.231837
  0
LINE
  8
CutLine
  6
CONTINUOUS
 62
8
 10
723.305827
 20
113.231837
 11
737.642144
 21
95.971949
  0
LINE
  8
CutLine
  6
CONTINUOUS
 62
8
 10
867.234864
 20
95.971412
 11
881.589197
 21
113.206685
  0
LINE
  8
CutLine
  6
CONTINUOUS
 62
8
 10
804.938793
 20
126.446161
 11
860.546896
 21
126.859459
  0
LINE
  8
CutLine
  6
CONTINUOUS
 62
8
 10
860.542777
 20
126.860381
 11
869.720766
 21
139.285692
  0
LINE
  8
CutLine
  6
CONTINUOUS
 62
8
 10
869.720766
 20
139.285692
 11
804.928643
 21
139.306388
  0
LINE
  8
CutLine
  6
CONTINUOUS
 62
8
 10
749.329402
 20
126.886027
 11
804.938793
 21
126.446161
  0
LINE
  8
CutLine
  6
CONTINUOUS
 62
8
 10
740.130209
 20
139.285692
 11
749.329402
 21
126.886027
  0
LINE
  8
CutLine
  6
CONTINUOUS
 62
8
 10
804.926480
 20
139.306389
 11
740.130209
 21
139.285692
  0
LINE
  8
CutLine
  6
CONTINUOUS
 62
8
 10
1185.665809
 20
234.632548
 11
1187.531646
 21
200.631388
  0
LINE
  8
CutLine
  6
CONTINUOUS
 62
8
 10
1190.851490
 20
495.921816
 11
1190.580568
 21
463.220541
  0
LINE
  8
CutLine
  6
CONTINUOUS
 62
8
 10
1190.580568
 20
463.220541
 11
1189.427010
 21
422.772848
  0
LINE
  8
CutLine
  6
CONTINUOUS
 62
8
 10
1195.730986
 20
423.082173
 11
1193.539808
 21
463.365877
  0
LINE
  8
CutLine
  6
CONTINUOUS
 62
8
 10
1189.427010
 20
422.772848
 11
1187.698218
 21
370.535883
  0
LINE
  8
CutLine
  6
CONTINUOUS
 62
8
 10
1198.465242
 20
371.064082
 11
1195.730986
 21
423.082173
  0
LINE
  8
CutLine
  6
CONTINUOUS
 62
8
 10
1196.886230
 20
300.471970
 11
1197.672847
 21
335.548799
  0
LINE
  8
CutLine
  6
CONTINUOUS
 62
8
 10
1187.698218
 20
370.535883
 11
1186.501926
 21
335.410762
  0
LINE
  8
CutLine
  6
CONTINUOUS
 62
8
 10
1197.672847
 20
335.548799
 11
1198.465242
 21
371.064082
  0
LINE
  8
CutLine
  6
CONTINUOUS
 62
8
 10
1186.501926
 20
335.410762
 11
1185.287573
 21
299.903174
  0
LINE
  8
CutLine
  6
CONTINUOUS
 62
8
 10
1185.287573
 20
299.903174
 11
1184.521200
 21
258.882662
  0
LINE
  8
CutLine
  6
CONTINUOUS
 62
8
 10
1194.326960
 20
259.363424
 11
1196.886230
 21
300.471970
  0
LINE
  8
CutLine
  6
CONTINUOUS
 62
8
 10
1184.521200
 20
258.882662
 11
1185.665809
 21
234.632548
  0
LINE
  8
CutLine
  6
CONTINUOUS
 62
8
 10
1192.549775
 20
234.670229
 11
1194.326960
 21
259.363424
  0
LINE
  8
CutLine
  6
CONTINUOUS
 62
8
 10
1193.539808
 20
463.365877
 11
1190.851490
 21
495.921816
  0
LINE
  8
CutLine
  6
CONTINUOUS
 62
8
 10
1190.761223
 20
200.790669
 11
1192.549775
 21
234.670229
  0
LINE
  8
CutLine
  6
CONTINUOUS
 62
8
 10
1187.531646
 20
200.631388
 11
1190.851490
 21
171.803149
  0
LINE
  8
CutLine
  6
CONTINUOUS
 62
8
 10
1190.851490
 20
171.803149
 11
1190.761223
 21
200.790669
  0
LINE
  8
CutLine
  6
CONTINUOUS
 62
8
 10
36.662320
 20
261.209957
 11
79.606174
 21
261.236088
  0
LINE
  8
CutLine
  6
CONTINUOUS
 62
8
 10
40.746547
 20
265.197534
 11
36.662320
 21
261.209957
  0
LINE
  8
CutLine
  6
CONTINUOUS
 62
8
 10
79.607057
 20
321.533270
 11
79.619590
 21
399.964168
  0
LINE
  8
CutLine
  6
CONTINUOUS
 62
8
 10
79.619590
 20
399.964168
 11
40.391713
 21
399.796994
  0
LINE
  8
CutLine
  6
CONTINUOUS
 62
8
 10
40.968090
 20
321.599478
 11
40.746547
 21
265.197534
  0
LINE
  8
CutLine
  6
CONTINUOUS
 62
8
 10
40.391713
 20
399.796994
 11
40.968090
 21
321.599478
  0
LINE
  8
CutLine
  6
CONTINUOUS
 62
8
 10
122.550027
 20
261.209949
 11
118.465797
 21
265.197523
  0
LINE
  8
CutLine
  6
CONTINUOUS
 62
8
 10
79.603260
 20
261.236170
 11
122.550027
 21
261.209949
  0
LINE
  8
CutLine
  6
CONTINUOUS
 62
8
 10
118.246024
 20
321.599466
 11
118.822402
 21
399.796994
  0
LINE
  8
CutLine
  6
CONTINUOUS
 62
8
 10
118.467568
 20
265.197522
 11
118.246024
 21
321.599466
  0
LINE
  8
CutLine
  6
CONTINUOUS
 62
8
 10
118.822402
 20
399.796994
 11
79.594201
 21
399.964168
  0
LINE
  8
CutLine
  6
CONTINUOUS
 62
8
 10
79.594201
 20
399.964168
 11
79.607057
 21
321.533270
  0
LINE
  8
CutLine
  6
CONTINUOUS
 62
8
 10
722.217716
 20
396.328492
 11
758.056214
 21
395.633271
  0
LINE
  8
CutLine
  6
CONTINUOUS
 62
8
 10
758.056214
 20
395.633271
 11
781.418566
 21
393.897696
  0
LINE
  8
CutLine
  6
CONTINUOUS
 62
8
 10
781.418566
 20
393.897696
 11
817.310323
 21
389.259038
  0
LINE
  8
CutLine
  6
CONTINUOUS
 62
8
 10
817.310323
 20
389.259038
 11
851.103151
 21
380.798155
  0
LINE
  8
CutLine
  6
CONTINUOUS
 62
8
 10
923.748716
 20
404.458124
 11
892.670104
 21
424.853885
  0
LINE
  8
CutLine
  6
CONTINUOUS
 62
8
 10
851.103151
 20
380.798155
 11
884.178519
 21
369.827202
  0
LINE
  8
CutLine
  6
CONTINUOUS
 62
8
 10
962.354286
 20
387.031621
 11
923.748716
 21
404.458124
  0
LINE
  8
CutLine
  6
CONTINUOUS
 62
8
 10
884.178519
 20
369.827202
 11
909.135601
 21
358.328312
  0
LINE
  8
CutLine
  6
CONTINUOUS
 62
8
 10
1009.968523
 20
368.714772
 11
962.354286
 21
387.031621
  0
LINE
  8
CutLine
  6
CONTINUOUS
 62
8
 10
686.379490
 20
395.627018
 11
722.217716
 21
396.328492
  0
LINE
  8
CutLine
  6
CONTINUOUS
 62
8
 10
663.017487
 20
393.887580
 11
686.379490
 21
395.627018
  0
LINE
  8
CutLine
  6
CONTINUOUS
 62
8
 10
627.126048
 20
389.245148
 11
663.017487
 21
393.887580
  0
LINE
  8
CutLine
  6
CONTINUOUS
 62
8
 10
560.257407
 20
369.814129
 11
593.333183
 21
380.783892
  0
LINE
  8
CutLine
  6
CONTINUOUS
 62
8
 10
593.333183
 20
380.783892
 11
627.126048
 21
389.245148
  0
LINE
  8
CutLine
  6
CONTINUOUS
 62
8
 10
551.764454
 20
424.856430
 11
520.684942
 21
404.462103
  0
LINE
  8
CutLine
  6
CONTINUOUS
 62
8
 10
595.731124
 20
441.240549
 11
551.764454
 21
424.856430
  0
LINE
  8
CutLine
  6
CONTINUOUS
 62
8
 10
535.298063
 20
358.323335
 11
560.257407
 21
369.814129
  0
LINE
  8
CutLine
  6
CONTINUOUS
 62
8
 10
520.684942
 20
404.462103
 11
482.077358
 21
387.040060
  0
LINE
  8
CutLine
  6
CONTINUOUS
 62
8
 10
487.322521
 20
335.840598
 11
535.298063
 21
358.323335
  0
LINE
  8
CutLine
  6
CONTINUOUS
 62
8
 10
452.917546
 20
313.045289
 11
487.322521
 21
335.840598
  0
LINE
  8
CutLine
  6
CONTINUOUS
 62
8
 10
434.460364
 20
368.730876
 11
384.717330
 21
355.290797
  0
LINE
  8
CutLine
  6
CONTINUOUS
 62
8
 10
423.046974
 20
287.595834
 11
452.917546
 21
313.045289
  0
LINE
  8
CutLine
  6
CONTINUOUS
 62
8
 10
384.717330
 20
355.290797
 11
283.294141
 21
329.454103
  0
LINE
  8
CutLine
  6
CONTINUOUS
 62
8
 10
283.294141
 20
329.454103
 11
423.046974
 21
287.595834
  0
LINE
  8
CutLine
  6
CONTINUOUS
 62
8
 10
482.077358
 20
387.040060
 11
434.460364
 21
368.730876
  0
LINE
  8
CutLine
  6
CONTINUOUS
 62
8
 10
892.670104
 20
424.853885
 11
848.704207
 21
441.239983
  0
LINE
  8
CutLine
  6
CONTINUOUS
 62
8
 10
909.135601
 20
358.328312
 11
957.104902
 21
335.839180
  0
LINE
  8
CutLine
  6
CONTINUOUS
 62
8
 10
1021.369600
 20
287.579013
 11
1161.090965
 21
329.454103
  0
LINE
  8
CutLine
  6
CONTINUOUS
 62
8
 10
1161.090965
 20
329.454103
 11
1059.708959
 21
355.265434
  0
LINE
  8
CutLine
  6
CONTINUOUS
 62
8
 10
1059.708959
 20
355.265434
 11
1009.968523
 21
368.714772
  0
LINE
  8
CutLine
  6
CONTINUOUS
 62
8
 10
957.104902
 20
335.839180
 11
991.505520
 21
313.037281
  0
LINE
  8
CutLine
  6
CONTINUOUS
 62
8
 10
991.505520
 20
313.037281
 11
1021.369600
 21
287.579013
  0
LINE
  8
CutLine
  6
CONTINUOUS
 62
8
 10
722.217619
 20
430.996977
 11
680.817641
 21
432.193094
  0
LINE
  8
CutLine
  6
CONTINUOUS
 62
8
 10
680.817641
 20
432.193094
 11
651.708598
 21
435.639870
  0
LINE
  8
CutLine
  6
CONTINUOUS
 62
8
 10
651.708598
 20
435.639870
 11
595.731124
 21
441.240549
  0
LINE
  8
CutLine
  6
CONTINUOUS
 62
8
 10
763.617584
 20
432.193328
 11
722.217619
 21
430.996977
  0
LINE
  8
CutLine
  6
CONTINUOUS
 62
8
 10
792.726671
 20
435.639932
 11
763.617584
 21
432.193328
  0
LINE
  8
CutLine
  6
CONTINUOUS
 62
8
 10
848.704207
 20
441.239983
 11
792.726671
 21
435.639932
  0
LINE
  8
CutLine
  6
CONTINUOUS
 62
8
 10
723.253990
 20
467.145645
 11
679.087546
 21
464.908941
  0
LINE
  8
CutLine
  6
CONTINUOUS
 62
8
 10
679.234386
 20
455.551086
 11
723.253992
 21
462.051072
  0
LINE
  8
CutLine
  6
CONTINUOUS
 62
8
 10
679.087546
 20
464.908941
 11
643.910688
 21
458.730016
  0
LINE
  8
CutLine
  6
CONTINUOUS
 62
8
 10
643.863015
 20
446.273264
 11
679.234386
 21
455.551086
  0
LINE
  8
CutLine
  6
CONTINUOUS
 62
8
 10
767.420275
 20
464.908972
 11
723.253990
 21
467.145645
  0
LINE
  8
CutLine
  6
CONTINUOUS
 62
8
 10
723.253992
 20
462.051072
 11
767.273463
 21
455.550837
  0
LINE
  8
CutLine
  6
CONTINUOUS
 62
8
 10
802.597291
 20
458.730025
 11
767.420275
 21
464.908972
  0
LINE
  8
CutLine
  6
CONTINUOUS
 62
8
 10
767.273463
 20
455.550837
 11
802.644925
 21
446.273229
  0
LINE
  8
CutLine
  6
CONTINUOUS
 62
8
 10
643.910688
 20
458.730016
 11
618.871230
 21
450.424787
  0
LINE
  8
CutLine
  6
CONTINUOUS
 62
8
 10
618.871230
 20
450.424787
 11
643.863015
 21
446.273264
  0
LINE
  8
CutLine
  6
CONTINUOUS
 62
8
 10
802.644925
 20
446.273229
 11
827.636596
 21
450.424787
  0
LINE
  8
CutLine
  6
CONTINUOUS
 62
8
 10
827.636596
 20
450.424787
 11
802.597291
 21
458.730025
  0
LINE
  8
CutLine
  6
CONTINUOUS
 62
8
 10
385.474557
 20
111.409640
 11
418.259705
 21
106.642234
  0
LINE
  8
CutLine
  6
CONTINUOUS
 62
8
 10
466.615108
 20
119.319094
 11
425.201482
 21
118.771425
  0
LINE
  8
CutLine
  6
CONTINUOUS
 62
8
 10
418.259705
 20
106.642234
 11
466.615129
 21
105.042142
  0
LINE
  8
CutLine
  6
CONTINUOUS
 62
8
 10
508.028742
 20
118.771579
 11
466.615108
 21
119.319094
  0
LINE
  8
CutLine
  6
CONTINUOUS
 62
8
 10
466.615129
 20
105.042142
 11
514.970561
 21
106.642098
  0
LINE
  8
CutLine
  6
CONTINUOUS
 62
8
 10
537.309497
 20
120.133225
 11
508.028742
 21
118.771579
  0
LINE
  8
CutLine
  6
CONTINUOUS
 62
8
 10
425.201482
 20
118.771425
 11
395.920711
 21
120.133213
  0
LINE
  8
CutLine
  6
CONTINUOUS
 62
8
 10
514.970561
 20
106.642098
 11
547.755661
 21
111.409688
  0
LINE
  8
CutLine
  6
CONTINUOUS
 62
8
 10
591.884484
 20
133.786647
 11
537.309497
 21
120.133225
  0
LINE
  8
CutLine
  6
CONTINUOUS
 62
8
 10
547.755661
 20
111.409688
 11
591.884484
 21
133.786647
  0
LINE
  8
CutLine
  6
CONTINUOUS
 62
8
 10
395.920711
 20
120.133213
 11
341.345727
 21
133.786647
  0
LINE
  8
CutLine
  6
CONTINUOUS
 62
8
 10
341.345727
 20
133.786647
 11
385.474557
 21
111.409640
  0
LINE
  8
CutLine
  6
CONTINUOUS
 62
8
 10
834.471459
 20
348.283519
 11
806.491393
 21
357.480743
  0
LINE
  8
CutLine
  6
CONTINUOUS
 62
8
 10
800.832457
 20
341.527212
 11
826.437232
 21
335.175895
  0
LINE
  8
CutLine
  6
CONTINUOUS
 62
8
 10
721.208465
 20
359.903315
 11
673.928603
 21
359.434600
  0
LINE
  8
CutLine
  6
CONTINUOUS
 62
8
 10
677.011043
 20
346.060164
 11
721.208455
 21
347.565623
  0
LINE
  8
CutLine
  6
CONTINUOUS
 62
8
 10
635.925349
 20
357.480743
 11
607.945378
 21
348.283741
  0
LINE
  8
CutLine
  6
CONTINUOUS
 62
8
 10
615.979545
 20
335.175863
 11
641.584459
 21
341.527216
  0
LINE
  8
CutLine
  6
CONTINUOUS
 62
8
 10
607.945378
 20
348.283741
 11
581.280348
 21
317.413609
  0
LINE
  8
CutLine
  6
CONTINUOUS
 62
8
 10
592.126451
 20
307.540809
 11
615.979545
 21
335.175863
  0
LINE
  8
CutLine
  6
CONTINUOUS
 62
8
 10
562.420491
 20
289.466185
 11
532.384726
 21
209.596344
  0
LINE
  8
CutLine
  6
CONTINUOUS
 62
8
 10
541.108090
 20
206.862930
 11
573.038134
 21
282.790465
  0
LINE
  8
CutLine
  6
CONTINUOUS
 62
8
 10
515.329585
 20
150.585067
 11
541.108090
 21
206.862930
  0
LINE
  8
CutLine
  6
CONTINUOUS
 62
8
 10
532.384726
 20
209.596344
 11
507.741711
 21
154.120398
  0
LINE
  8
CutLine
  6
CONTINUOUS
 62
8
 10
507.741711
 20
154.120398
 11
515.329585
 21
150.585067
  0
LINE
  8
CutLine
  6
CONTINUOUS
 62
8
 10
581.280348
 20
317.413609
 11
562.420491
 21
289.466185
  0
LINE
  8
CutLine
  6
CONTINUOUS
 62
8
 10
573.038134
 20
282.790465
 11
592.126451
 21
307.540809
  0
LINE
  8
CutLine
  6
CONTINUOUS
 62
8
 10
673.928603
 20
359.434600
 11
635.925349
 21
357.480743
  0
LINE
  8
CutLine
  6
CONTINUOUS
 62
8
 10
641.584459
 20
341.527216
 11
677.011043
 21
346.060164
  0
LINE
  8
CutLine
  6
CONTINUOUS
 62
8
 10
768.488184
 20
359.434293
 11
721.208465
 21
359.903315
  0
LINE
  8
CutLine
  6
CONTINUOUS
 62
8
 10
721.208455
 20
347.565623
 11
765.405704
 21
346.060093
  0
LINE
  8
CutLine
  6
CONTINUOUS
 62
8
 10
806.491393
 20
357.480743
 11
768.488184
 21
359.434293
  0
LINE
  8
CutLine
  6
CONTINUOUS
 62
8
 10
765.405704
 20
346.060093
 11
800.832457
 21
341.527212
  0
LINE
  8
CutLine
  6
CONTINUOUS
 62
8
 10
861.136598
 20
317.413818
 11
834.471459
 21
348.283519
  0
LINE
  8
CutLine
  6
CONTINUOUS
 62
8
 10
826.437232
 20
335.175895
 11
850.290545
 21
307.540964
  0
LINE
  8
CutLine
  6
CONTINUOUS
 62
8
 10
910.033016
 20
209.596947
 11
879.996515
 21
289.466107
  0
LINE
  8
CutLine
  6
CONTINUOUS
 62
8
 10
869.379116
 20
282.790420
 11
901.309628
 21
206.863399
  0
LINE
  8
CutLine
  6
CONTINUOUS
 62
8
 10
901.309628
 20
206.863399
 11
927.088551
 21
150.585737
  0
LINE
  8
CutLine
  6
CONTINUOUS
 62
8
 10
934.676487
 20
154.121208
 11
910.033016
 21
209.596947
  0
LINE
  8
CutLine
  6
CONTINUOUS
 62
8
 10
927.088551
 20
150.585737
 11
934.676487
 21
154.121208
  0
LINE
  8
CutLine
  6
CONTINUOUS
 62
8
 10
879.996515
 20
289.466107
 11
861.136598
 21
317.413818
  0
LINE
  8
CutLine
  6
CONTINUOUS
 62
8
 10
850.290545
 20
307.540964
 11
869.379116
 21
282.790420
  0
LINE
  8
CutLine
  6
CONTINUOUS
 62
8
 10
294.246307
 20
237.824505
 11
259.962663
 21
225.282506
  0
LINE
  8
CutLine
  6
CONTINUOUS
 62
8
 10
406.829112
 20
235.029503
 11
324.928324
 21
243.789132
  0
LINE
  8
CutLine
  6
CONTINUOUS
 62
8
 10
406.959664
 20
199.308208
 11
467.847435
 21
199.948548
  0
LINE
  8
CutLine
  6
CONTINUOUS
 62
8
 10
467.847435
 20
199.948548
 11
468.064784
 21
225.978500
  0
LINE
  8
CutLine
  6
CONTINUOUS
 62
8
 10
324.928324
 20
243.789132
 11
294.246307
 21
237.824505
  0
LINE
  8
CutLine
  6
CONTINUOUS
 62
8
 10
324.849712
 20
198.091957
 11
406.959664
 21
199.308208
  0
LINE
  8
CutLine
  6
CONTINUOUS
 62
8
 10
294.458401
 20
199.203446
 11
324.849712
 21
198.091957
  0
LINE
  8
CutLine
  6
CONTINUOUS
 62
8
 10
260.060871
 20
199.948548
 11
294.458401
 21
199.203446
  0
LINE
  8
CutLine
  6
CONTINUOUS
 62
8
 10
259.962663
 20
225.282506
 11
260.060871
 21
199.948548
  0
LINE
  8
CutLine
  6
CONTINUOUS
 62
8
 10
468.064784
 20
225.978500
 11
406.829112
 21
235.029503
  0
LINE
  8
CutLine
  6
CONTINUOUS
 62
8
 10
154.791288
 20
85.546782
 11
110.044419
 21
109.582700
  0
LINE
  8
CutLine
  6
CONTINUOUS
 62
8
 10
194.505714
 20
69.179571
 11
154.791288
 21
85.546782
  0
LINE
  8
CutLine
  6
CONTINUOUS
 62
8
 10
5.708683
 20
188.686100
 11
7.457733
 21
122.080859
  0
LINE
  8
CutLine
  6
CONTINUOUS
 62
8
 10
110.044419
 20
109.582700
 11
78.020680
 21
138.936987
  0
LINE
  8
CutLine
  6
CONTINUOUS
 62
8
 10
78.020680
 20
138.936987
 11
31.559914
 21
196.602935
  0
LINE
  8
CutLine
  6
CONTINUOUS
 62
8
 10
31.559914
 20
196.602935
 11
11.168460
 21
257.782820
  0
LINE
  8
CutLine
  6
CONTINUOUS
 62
8
 10
11.168460
 20
257.782820
 11
5.708683
 21
188.686100
  0
LINE
  8
CutLine
  6
CONTINUOUS
 62
8
 10
63.169862
 20
100.575871
 11
144.307052
 21
68.216519
  0
LINE
  8
CutLine
  6
CONTINUOUS
 62
8
 10
7.457733
 20
122.080859
 11
63.169862
 21
100.575871
  0
LINE
  8
CutLine
  6
CONTINUOUS
 62
8
 10
227.573114
 20
61.613650
 11
194.505714
 21
69.179571
  0
LINE
  8
CutLine
  6
CONTINUOUS
 62
8
 10
178.193964
 20
44.157157
 11
211.756892
 21
39.968550
  0
LINE
  8
CutLine
  6
CONTINUOUS
 62
8
 10
232.381673
 20
26.067789
 11
261.983317
 21
62.471730
  0
LINE
  8
CutLine
  6
CONTINUOUS
 62
8
 10
261.983317
 20
62.471730
 11
227.573114
 21
61.613650
  0
LINE
  8
CutLine
  6
CONTINUOUS
 62
8
 10
211.756892
 20
39.968550
 11
232.381673
 21
26.067789
  0
LINE
  8
CutLine
  6
CONTINUOUS
 62
8
 10
144.307052
 20
68.216519
 11
178.193964
 21
44.157157
  0
LINE
  8
CutLine
  6
CONTINUOUS
 62
8
 10
35.049498
 20
438.003948
 11
32.559897
 21
435.685494
  0
LINE
  8
CutLine
  6
CONTINUOUS
 62
8
 10
2.384667
 20
437.099202
 11
4.990412
 21
406.799431
  0
LINE
  8
CutLine
  6
CONTINUOUS
 62
8
 10
32.559897
 20
435.685494
 11
30.524339
 21
437.887516
  0
LINE
  8
CutLine
  6
CONTINUOUS
 62
8
 10
37.249206
 20
264.380264
 11
37.459393
 21
324.847190
  0
LINE
  8
CutLine
  6
CONTINUOUS
 62
8
 10
4.990412
 20
406.799431
 11
8.411709
 21
324.751751
  0
LINE
  8
CutLine
  6
CONTINUOUS
 62
8
 10
80.175109
 20
437.908346
 11
35.049498
 21
438.003948
  0
LINE
  8
CutLine
  6
CONTINUOUS
 62
8
 10
129.826039
 20
437.887527
 11
127.790645
 21
435.685498
  0
LINE
  8
CutLine
  6
CONTINUOUS
 62
8
 10
155.359972
 20
406.799430
 11
157.965874
 21
437.099207
  0
LINE
  8
CutLine
  6
CONTINUOUS
 62
8
 10
151.938839
 20
324.751765
 11
155.359972
 21
406.799430
  0
LINE
  8
CutLine
  6
CONTINUOUS
 62
8
 10
122.891157
 20
324.847178
 11
123.101341
 21
264.380256
  0
LINE
  8
CutLine
  6
CONTINUOUS
 62
8
 10
127.790645
 20
435.685498
 11
125.300882
 21
438.003945
  0
LINE
  8
CutLine
  6
CONTINUOUS
 62
8
 10
125.300882
 20
438.003945
 11
80.175109
 21
437.908346
  0
LINE
  8
CutLine
  6
CONTINUOUS
 62
8
 10
123.101341
 20
264.380256
 11
148.418286
 21
263.962487
  0
LINE
  8
CutLine
  6
CONTINUOUS
 62
8
 10
11.932096
 20
263.962482
 11
37.249206
 21
264.380264
  0
LINE
  8
CutLine
  6
CONTINUOUS
 62
8
 10
148.418286
 20
263.962487
 11
151.938839
 21
324.751765
  0
LINE
  8
CutLine
  6
CONTINUOUS
 62
8
 10
8.411709
 20
324.751751
 11
11.932096
 21
263.962482
  0
LINE
  8
CutLine
  6
CONTINUOUS
 62
8
 10
30.524339
 20
437.887516
 11
2.384667
 21
437.099202
  0
LINE
  8
CutLine
  6
CONTINUOUS
 62
8
 10
157.965874
 20
437.099207
 11
129.826039
 21
437.887527
  0
LINE
  8
CutLine
  6
CONTINUOUS
 62
8
 10
37.459393
 20
324.847190
 11
36.846929
 21
407.104972
  0
LINE
  8
CutLine
  6
CONTINUOUS
 62
8
 10
36.846929
 20
407.104972
 11
80.175111
 21
407.300415
  0
LINE
  8
CutLine
  6
CONTINUOUS
 62
8
 10
80.175111
 20
407.300415
 11
123.503454
 21
407.104976
  0
LINE
  8
CutLine
  6
CONTINUOUS
 62
8
 10
123.503454
 20
407.104976
 11
122.891157
 21
324.847178
  0
LINE
  8
CutLine
  6
CONTINUOUS
 62
8
 10
13.727747
 20
584.276398
 11
1.503684
 21
596.600555
  0
LINE
  8
CutLine
  6
CONTINUOUS
 62
8
 10
1.503684
 20
450.713719
 11
16.620349
 21
461.081245
  0
LINE
  8
CutLine
  6
CONTINUOUS
 62
8
 10
16.620349
 20
461.081245
 11
13.727747
 21
584.276398
  0
LINE
  8
CutLine
  6
CONTINUOUS
 62
8
 10
1.503684
 20
596.600555
 11
1.503684
 21
450.713719
  0
LINE
  8
CutLine
  6
CONTINUOUS
 62
8
 10
287.050710
 20
164.850031
 11
321.334358
 21
152.308190
  0
LINE
  8
CutLine
  6
CONTINUOUS
 62
8
 10
352.016061
 20
146.343581
 11
433.917154
 21
155.103098
  0
LINE
  8
CutLine
  6
CONTINUOUS
 62
8
 10
321.334358
 20
152.308190
 11
352.016061
 21
146.343581
  0
LINE
  8
CutLine
  6
CONTINUOUS
 62
8
 10
494.935452
 20
190.184095
 11
434.047702
 21
190.824537
  0
LINE
  8
CutLine
  6
CONTINUOUS
 62
8
 10
495.152830
 20
164.154131
 11
494.935452
 21
190.184095
  0
LINE
  8
CutLine
  6
CONTINUOUS
 62
8
 10
434.047702
 20
190.824537
 11
351.937725
 21
192.040619
  0
LINE
  8
CutLine
  6
CONTINUOUS
 62
8
 10
351.937725
 20
192.040619
 11
321.546429
 21
190.929249
  0
LINE
  8
CutLine
  6
CONTINUOUS
 62
8
 10
321.546429
 20
190.929249
 11
287.148900
 21
190.184095
  0
LINE
  8
CutLine
  6
CONTINUOUS
 62
8
 10
433.917154
 20
155.103098
 11
495.152830
 21
164.154131
  0
LINE
  8
CutLine
  6
CONTINUOUS
 62
8
 10
287.148900
 20
190.184095
 11
287.050710
 21
164.850031
  0
LINE
  8
CutLine
  6
CONTINUOUS
 62
8
 10
155.072278
 20
548.911259
 11
155.371519
 21
509.684166
  0
LINE
  8
CutLine
  6
CONTINUOUS
 62
8
 10
159.638969
 20
509.684185
 11
159.318604
 21
553.011623
  0
LINE
  8
CutLine
  6
CONTINUOUS
 62
8
 10
159.318604
 20
553.011623
 11
155.072278
 21
548.911259
  0
LINE
  8
CutLine
  6
CONTINUOUS
 62
8
 10
159.318604
 20
466.356585
 11
159.638969
 21
509.684185
  0
LINE
  8
CutLine
  6
CONTINUOUS
 62
8
 10
155.371519
 20
509.684166
 11
155.072243
 21
470.456751
  0
LINE
  8
CutLine
  6
CONTINUOUS
 62
8
 10
155.072243
 20
470.456751
 11
159.318604
 21
466.356585
  0
LINE
  8
CutLine
  6
CONTINUOUS
 62
8
 10
972.989220
 20
275.421791
 11
908.445992
 21
334.282160
  0
LINE
  8
CutLine
  6
CONTINUOUS
 62
8
 10
900.136723
 20
322.264977
 11
968.437036
 21
271.114792
  0
LINE
  8
CutLine
  6
CONTINUOUS
 62
8
 10
841.909577
 20
378.441857
 11
808.941816
 21
376.962941
  0
LINE
  8
CutLine
  6
CONTINUOUS
 62
8
 10
806.172662
 20
364.197370
 11
835.069818
 21
358.502861
  0
LINE
  8
CutLine
  6
CONTINUOUS
 62
8
 10
720.842756
 20
373.166193
 11
672.084326
 21
374.394992
  0
LINE
  8
CutLine
  6
CONTINUOUS
 62
8
 10
673.563609
 20
363.760198
 11
720.842767
 21
363.225264
  0
LINE
  8
CutLine
  6
CONTINUOUS
 62
8
 10
632.743652
 20
376.962708
 11
599.775910
 21
378.441662
  0
LINE
  8
CutLine
  6
CONTINUOUS
 62
8
 10
606.615636
 20
358.502839
 11
635.512669
 21
364.197143
  0
LINE
  8
CutLine
  6
CONTINUOUS
 62
8
 10
599.775910
 20
378.441662
 11
564.908846
 21
361.193527
  0
LINE
  8
CutLine
  6
CONTINUOUS
 62
8
 10
570.474489
 20
339.587069
 11
606.615636
 21
358.502839
  0
LINE
  8
CutLine
  6
CONTINUOUS
 62
8
 10
533.239014
 20
334.282611
 11
468.695098
 21
275.422996
  0
LINE
  8
CutLine
  6
CONTINUOUS
 62
8
 10
473.247264
 20
271.115863
 11
541.548390
 21
322.265594
  0
LINE
  8
CutLine
  6
CONTINUOUS
 62
8
 10
468.695098
 20
275.422996
 11
423.287621
 21
236.635538
  0
LINE
  8
CutLine
  6
CONTINUOUS
 62
8
 10
423.287621
 20
236.635538
 11
473.247264
 21
271.115863
  0
LINE
  8
CutLine
  6
CONTINUOUS
 62
8
 10
564.908846
 20
361.193527
 11
533.239014
 21
334.282611
  0
LINE
  8
CutLine
  6
CONTINUOUS
 62
8
 10
541.548390
 20
322.265594
 11
570.474489
 21
339.587069
  0
LINE
  8
CutLine
  6
CONTINUOUS
 62
8
 10
672.084326
 20
374.394992
 11
632.743652
 21
376.962708
  0
LINE
  8
CutLine
  6
CONTINUOUS
 62
8
 10
635.512669
 20
364.197143
 11
673.563609
 21
363.760198
  0
LINE
  8
CutLine
  6
CONTINUOUS
 62
8
 10
769.601198
 20
374.394900
 11
720.842756
 21
373.166193
  0
LINE
  8
CutLine
  6
CONTINUOUS
 62
8
 10
720.842767
 20
363.225264
 11
768.121787
 21
363.760164
  0
LINE
  8
CutLine
  6
CONTINUOUS
 62
8
 10
808.941816
 20
376.962941
 11
769.601198
 21
374.394900
  0
LINE
  8
CutLine
  6
CONTINUOUS
 62
8
 10
768.121787
 20
363.760164
 11
806.172662
 21
364.197370
  0
LINE
  8
CutLine
  6
CONTINUOUS
 62
8
 10
876.776356
 20
361.193305
 11
841.909577
 21
378.441857
  0
LINE
  8
CutLine
  6
CONTINUOUS
 62
8
 10
835.069818
 20
358.502861
 11
871.210592
 21
339.586928
  0
LINE
  8
CutLine
  6
CONTINUOUS
 62
8
 10
908.445992
 20
334.282160
 11
876.776356
 21
361.193305
  0
LINE
  8
CutLine
  6
CONTINUOUS
 62
8
 10
871.210592
 20
339.586928
 11
900.136723
 21
322.264977
  0
LINE
  8
CutLine
  6
CONTINUOUS
 62
8
 10
1018.396348
 20
236.633996
 11
972.989220
 21
275.421791
  0
LINE
  8
CutLine
  6
CONTINUOUS
 62
8
 10
968.437036
 20
271.114792
 11
1018.396348
 21
236.633996
  0
LINE
  8
CutLine
  6
CONTINUOUS
 62
8
 10
762.615499
 20
199.149369
 11
727.984616
 21
187.405697
  0
LINE
  8
CutLine
  6
CONTINUOUS
 62
8
 10
759.144028
 20
170.386737
 11
763.979072
 21
179.333749
  0
LINE
  8
CutLine
  6
CONTINUOUS
 62
8
 10
727.984616
 20
187.405697
 11
728.027036
 21
153.000124
  0
LINE
  8
CutLine
  6
CONTINUOUS
 62
8
 10
763.979072
 20
179.333749
 11
773.829607
 21
186.569015
  0
LINE
  8
CutLine
  6
CONTINUOUS
 62
8
 10
728.027036
 20
153.000124
 11
756.177615
 21
153.086528
  0
LINE
  8
CutLine
  6
CONTINUOUS
 62
8
 10
756.177615
 20
153.086528
 11
759.144028
 21
170.386737
  0
LINE
  8
CutLine
  6
CONTINUOUS
 62
8
 10
806.376365
 20
207.209277
 11
762.615499
 21
199.149369
  0
LINE
  8
CutLine
  6
CONTINUOUS
 62
8
 10
773.829607
 20
186.569015
 11
788.714370
 21
189.658854
  0
LINE
  8
CutLine
  6
CONTINUOUS
 62
8
 10
788.714370
 20
189.658854
 11
806.322058
 21
190.649876
  0
LINE
  8
CutLine
  6
CONTINUOUS
 62
8
 10
806.322058
 20
190.649876
 11
806.376364
 21
198.824341
  0
LINE
  8
CutLine
  6
CONTINUOUS
 62
8
 10
850.137072
 20
199.149040
 11
806.376365
 21
207.209277
  0
LINE
  8
CutLine
  6
CONTINUOUS
 62
8
 10
884.768102
 20
187.405697
 11
850.137072
 21
199.149040
  0
LINE
  8
CutLine
  6
CONTINUOUS
 62
8
 10
824.038193
 20
189.658847
 11
838.923115
 21
186.569005
  0
LINE
  8
CutLine
  6
CONTINUOUS
 62
8
 10
806.430667
 20
190.649876
 11
824.038193
 21
189.658847
  0
LINE
  8
CutLine
  6
CONTINUOUS
 62
8
 10
884.725698
 20
153.000124
 11
884.768102
 21
187.405697
  0
LINE
  8
CutLine
  6
CONTINUOUS
 62
8
 10
838.923115
 20
186.569005
 11
848.773652
 21
179.333741
  0
LINE
  8
CutLine
  6
CONTINUOUS
 62
8
 10
848.773652
 20
179.333741
 11
853.608698
 21
170.386730
  0
LINE
  8
CutLine
  6
CONTINUOUS
 62
8
 10
853.608698
 20
170.386730
 11
856.574955
 21
153.086520
  0
LINE
  8
CutLine
  6
CONTINUOUS
 62
8
 10
856.574955
 20
153.086520
 11
884.725698
 21
153.000124
  0
LINE
  8
CutLine
  6
CONTINUOUS
 62
8
 10
806.376364
 20
198.824341
 11
806.430667
 21
190.649876
  0
LINE
  8
CutLine
  6
CONTINUOUS
 62
8
 10
243.023770
 20
499.934868
 11
249.047450
 21
533.317737
  0
LINE
  8
CutLine
  6
CONTINUOUS
 62
8
 10
213.606375
 20
494.756483
 11
222.430175
 21
454.144710
  0
LINE
  8
CutLine
  6
CONTINUOUS
 62
8
 10
249.047450
 20
533.317737
 11
263.345901
 21
564.628279
  0
LINE
  8
CutLine
  6
CONTINUOUS
 62
8
 10
263.345901
 20
564.628279
 11
218.243289
 21
551.695307
  0
LINE
  8
CutLine
  6
CONTINUOUS
 62
8
 10
222.930778
 20
527.269069
 11
213.606375
 21
494.756483
  0
LINE
  8
CutLine
  6
CONTINUOUS
 62
8
 10
218.243289
 20
551.695307
 11
222.930778
 21
527.269069
  0
LINE
  8
CutLine
  6
CONTINUOUS
 62
8
 10
247.023841
 20
406.392804
 11
242.485260
 21
456.983083
  0
LINE
  8
CutLine
  6
CONTINUOUS
 62
8
 10
242.485260
 20
456.983083
 11
243.023770
 21
499.934868
  0
LINE
  8
CutLine
  6
CONTINUOUS
 62
8
 10
222.430175
 20
454.144710
 11
220.337238
 21
366.817790
  0
LINE
  8
CutLine
  6
CONTINUOUS
 62
8
 10
261.448876
 20
365.415823
 11
247.023841
 21
406.392804
  0
LINE
  8
CutLine
  6
CONTINUOUS
 62
8
 10
218.243289
 20
307.136003
 11
278.814113
 21
279.378007
  0
LINE
  8
CutLine
  6
CONTINUOUS
 62
8
 10
296.244408
 20
300.045844
 11
261.448876
 21
365.415823
  0
LINE
  8
CutLine
  6
CONTINUOUS
 62
8
 10
220.337238
 20
366.817790
 11
218.243289
 21
307.136003
  0
LINE
  8
CutLine
  6
CONTINUOUS
 62
8
 10
278.814113
 20
279.378007
 11
344.506692
 21
257.272371
  0
LINE
  8
CutLine
  6
CONTINUOUS
 62
8
 10
344.506692
 20
257.272371
 11
296.244408
 21
300.045844
  0
LINE
  8
CutLine
  6
CONTINUOUS
 62
8
 10
162.379913
 20
318.617385
 11
177.893324
 21
299.176530
  0
LINE
  8
CutLine
  6
CONTINUOUS
 62
8
 10
177.893340
 20
580.316329
 11
162.379914
 21
560.875463
  0
LINE
  8
CutLine
  6
CONTINUOUS
 62
8
 10
202.813826
 20
439.746477
 11
199.318540
 21
391.491008
  0
LINE
  8
CutLine
  6
CONTINUOUS
 62
8
 10
212.215359
 20
390.985278
 11
213.328893
 21
439.746476
  0
LINE
  8
CutLine
  6
CONTINUOUS
 62
8
 10
199.318762
 20
488.001966
 11
202.813826
 21
439.746477
  0
LINE
  8
CutLine
  6
CONTINUOUS
 62
8
 10
213.328893
 20
439.746476
 11
212.215581
 21
488.507690
  0
LINE
  8
CutLine
  6
CONTINUOUS
 62
8
 10
189.920907
 20
519.771024
 11
199.318762
 21
488.001966
  0
LINE
  8
CutLine
  6
CONTINUOUS
 62
8
 10
212.215581
 20
488.507690
 11
208.819245
 21
527.785470
  0
LINE
  8
CutLine
  6
CONTINUOUS
 62
8
 10
199.318540
 20
391.491008
 11
189.920894
 21
359.721867
  0
LINE
  8
CutLine
  6
CONTINUOUS
 62
8
 10
208.819242
 20
351.707445
 11
212.215359
 21
390.985278
  0
LINE
  8
CutLine
  6
CONTINUOUS
 62
8
 10
162.379914
 20
560.875463
 11
189.920907
 21
519.771024
  0
LINE
  8
CutLine
  6
CONTINUOUS
 62
8
 10
208.819245
 20
527.785470
 11
201.334640
 21
559.926427
  0
LINE
  8
CutLine
  6
CONTINUOUS
 62
8
 10
189.920894
 20
359.721867
 11
162.379913
 21
318.617385
  0
LINE
  8
CutLine
  6
CONTINUOUS
 62
8
 10
201.334717
 20
319.566487
 11
208.819242
 21
351.707445
  0
LINE
  8
CutLine
  6
CONTINUOUS
 62
8
 10
206.417479
 20
598.492858
 11
177.893340
 21
580.316329
  0
LINE
  8
CutLine
  6
CONTINUOUS
 62
8
 10
201.334640
 20
559.926427
 11
206.417479
 21
598.492858
  0
LINE
  8
CutLine
  6
CONTINUOUS
 62
8
 10
177.893324
 20
299.176530
 11
206.417479
 21
280.999975
  0
LINE
  8
CutLine
  6
CONTINUOUS
 62
8
 10
206.417479
 20
280.999975
 11
201.334717
 21
319.566487
  0
LINE
  8
MountainLine
  6
CONTINUOUS
 62
5
 10
732.179617
 20
287.678843
 11
731.347288
 21
289.579956
  0
LINE
  8
CutLine
  6
CONTINUOUS
 62
8
 10
731.347288
 20
289.579956
 11
602.398942
 21
263.511173
  0
LINE
  8
CutLine
  6
CONTINUOUS
 62
8
 10
602.398942
 20
263.511173
 11
604.421473
 21
261.021303
  0
LINE
  8
CutLine
  6
CONTINUOUS
 62
8
 10
733.101846
 20
289.155331
 11
731.347288
 21
289.579956
  0
LINE
  8
CutLine
  6
CONTINUOUS
 62
8
 10
732.179617
 20
287.678843
 11
733.101846
 21
289.155331
  0
LINE
  8
CutLine
  6
CONTINUOUS
 62
8
 10
628.658202
 20
84.698238
 11
668.300791
 21
121.863171
  0
LINE
  8
CutLine
  6
CONTINUOUS
 62
8
 10
629.640353
 20
203.474376
 11
632.614087
 21
179.380081
  0
LINE
  8
CutLine
  6
CONTINUOUS
 62
8
 10
690.777901
 20
154.465409
 11
700.369915
 21
176.973425
  0
LINE
  8
CutLine
  6
CONTINUOUS
 62
8
 10
618.530438
 20
235.663350
 11
629.640353
 21
203.474376
  0
LINE
  8
CutLine
  6
CONTINUOUS
 62
8
 10
707.487850
 20
198.135655
 11
732.179617
 21
287.678843
  0
LINE
  8
CutLine
  6
CONTINUOUS
 62
8
 10
700.369915
 20
176.973425
 11
707.487850
 21
198.135655
  0
LINE
  8
CutLine
  6
CONTINUOUS
 62
8
 10
632.614087
 20
179.380081
 11
616.870731
 21
141.493190
  0
LINE
  8
CutLine
  6
CONTINUOUS
 62
8
 10
668.300791
 20
121.863171
 11
690.777901
 21
154.465409
  0
LINE
  8
CutLine
  6
CONTINUOUS
 62
8
 10
607.433101
 20
62.980209
 11
628.658202
 21
84.698238
  0
LINE
  8
CutLine
  6
CONTINUOUS
 62
8
 10
616.870731
 20
141.493190
 11
592.108394
 21
116.015943
  0
LINE
  8
CutLine
  6
CONTINUOUS
 62
8
 10
592.108394
 20
116.015943
 11
563.434675
 21
95.692973
  0
LINE
  8
CutLine
  6
CONTINUOUS
 62
8
 10
248.828728
 20
82.060207
 11
271.023050
 21
52.239464
  0
LINE
  8
CutLine
  6
CONTINUOUS
 62
8
 10
326.546700
 20
127.081176
 11
300.510934
 21
147.601705
  0
LINE
  8
CutLine
  6
CONTINUOUS
 62
8
 10
222.222486
 20
115.017467
 11
248.828728
 21
82.060207
  0
LINE
  8
CutLine
  6
CONTINUOUS
 62
8
 10
300.510934
 20
147.601705
 11
273.504845
 21
173.312069
  0
LINE
  8
CutLine
  6
CONTINUOUS
 62
8
 10
186.226638
 20
151.168585
 11
222.222486
 21
115.017467
  0
LINE
  8
CutLine
  6
CONTINUOUS
 62
8
 10
273.504845
 20
173.312069
 11
244.500020
 21
207.569661
  0
LINE
  8
CutLine
  6
CONTINUOUS
 62
8
 10
148.369811
 20
186.123781
 11
186.226638
 21
151.168585
  0
LINE
  8
CutLine
  6
CONTINUOUS
 62
8
 10
244.500020
 20
207.569661
 11
220.544352
 21
237.721850
  0
LINE
  8
CutLine
  6
CONTINUOUS
 62
8
 10
69.090746
 20
254.454067
 11
148.369811
 21
186.123781
  0
LINE
  8
CutLine
  6
CONTINUOUS
 62
8
 10
220.544352
 20
237.721850
 11
200.335655
 21
263.511173
  0
LINE
  8
CutLine
  6
CONTINUOUS
 62
8
 10
271.023050
 20
52.239464
 11
303.972054
 21
42.281605
  0
LINE
  8
CutLine
  6
CONTINUOUS
 62
8
 10
337.619545
 20
37.974992
 11
380.164356
 21
32.051736
  0
LINE
  8
CutLine
  6
CONTINUOUS
 62
8
 10
303.972054
 20
42.281605
 11
337.619545
 21
37.974992
  0
LINE
  8
CutLine
  6
CONTINUOUS
 62
8
 10
370.607709
 20
102.127317
 11
347.818402
 21
114.007489
  0
LINE
  8
CutLine
  6
CONTINUOUS
 62
8
 10
347.818402
 20
114.007489
 11
326.546700
 21
127.081176
  0
LINE
  8
CutLine
  6
CONTINUOUS
 62
8
 10
403.483079
 20
92.474795
 11
370.607709
 21
102.127317
  0
LINE
  8
CutLine
  6
CONTINUOUS
 62
8
 10
471.952395
 20
84.525567
 11
439.282358
 21
85.980019
  0
LINE
  8
CutLine
  6
CONTINUOUS
 62
8
 10
430.593946
 20
25.982836
 11
473.970486
 21
28.364088
  0
LINE
  8
CutLine
  6
CONTINUOUS
 62
8
 10
439.282358
 20
85.980019
 11
403.483079
 21
92.474795
  0
LINE
  8
CutLine
  6
CONTINUOUS
 62
8
 10
380.164356
 20
32.051736
 11
430.593946
 21
25.982836
  0
LINE
  8
CutLine
  6
CONTINUOUS
 62
8
 10
563.434675
 20
95.692973
 11
512.416128
 21
84.344095
  0
LINE
  8
CutLine
  6
CONTINUOUS
 62
8
 10
512.416128
 20
84.344095
 11
471.952395
 21
84.525567
  0
LINE
  8
CutLine
  6
CONTINUOUS
 62
8
 10
547.049865
 20
40.337709
 11
607.433101
 21
62.980209
  0
LINE
  8
CutLine
  6
CONTINUOUS
 62
8
 10
473.970486
 20
28.364088
 11
547.049865
 21
40.337709
  0
LINE
  8
CutLine
  6
CONTINUOUS
 62
8
 10
200.335655
 20
263.511173
 11
69.090746
 21
254.454067
  0
LINE
  8
CutLine
  6
CONTINUOUS
 62
8
 10
604.421473
 20
261.021303
 11
618.530438
 21
235.663350
  0
LINE
  8
CutLine
  6
CONTINUOUS
 62
8
 10
682.633803
 20
503.094667
 11
723.850348
 21
503.492823
  0
LINE
  8
CutLine
  6
CONTINUOUS
 62
8
 10
723.844951
 20
535.155894
 11
682.446794
 21
534.822913
  0
LINE
  8
CutLine
  6
CONTINUOUS
 62
8
 10
650.516315
 20
497.052403
 11
682.633803
 21
503.094667
  0
LINE
  8
CutLine
  6
CONTINUOUS
 62
8
 10
682.446794
 20
534.822913
 11
642.708899
 21
528.184404
  0
LINE
  8
CutLine
  6
CONTINUOUS
 62
8
 10
642.708899
 20
528.184404
 11
630.140323
 21
522.457889
  0
LINE
  8
CutLine
  6
CONTINUOUS
 62
8
 10
639.559043
 20
491.751684
 11
650.516315
 21
497.052403
  0
LINE
  8
MountainLine
  6
CONTINUOUS
 62
5
 10
589.215548
 20
500.137060
 11
599.777543
 21
469.613177
  0
LINE
  8
CutLine
  6
CONTINUOUS
 62
8
 10
599.777543
 20
469.613177
 11
639.559043
 21
491.751684
  0
LINE
  8
CutLine
  6
CONTINUOUS
 62
8
 10
630.140323
 20
522.457889
 11
589.215548
 21
500.137060
  0
LINE
  8
CutLine
  6
CONTINUOUS
 62
8
 10
525.324232
 20
476.184155
 11
495.033208
 21
465.795430
  0
LINE
  8
CutLine
  6
CONTINUOUS
 62
8
 10
534.937414
 20
441.390882
 11
599.777543
 21
469.613177
  0
LINE
  8
CutLine
  6
CONTINUOUS
 62
8
 10
589.215548
 20
500.137060
 11
525.324232
 21
476.184155
  0
LINE
  8
CutLine
  6
CONTINUOUS
 62
8
 10
501.342192
 20
429.308611
 11
534.937414
 21
441.390882
  0
LINE
  8
CutLine
  6
CONTINUOUS
 62
8
 10
458.657508
 20
416.459619
 11
501.342192
 21
429.308611
  0
LINE
  8
CutLine
  6
CONTINUOUS
 62
8
 10
495.033208
 20
465.795430
 11
449.128293
 21
453.692343
  0
LINE
  8
CutLine
  6
CONTINUOUS
 62
8
 10
398.160389
 20
408.713123
 11
420.955721
 21
408.886030
  0
LINE
  8
CutLine
  6
CONTINUOUS
 62
8
 10
411.975115
 20
450.855603
 11
390.489724
 21
453.468910
  0
LINE
  8
CutLine
  6
CONTINUOUS
 62
8
 10
372.809944
 20
409.799195
 11
398.160389
 21
408.713123
  0
LINE
  8
CutLine
  6
CONTINUOUS
 62
8
 10
390.489724
 20
453.468910
 11
365.801233
 21
457.937564
  0
LINE
  8
CutLine
  6
CONTINUOUS
 62
8
 10
365.801233
 20
457.937564
 11
309.550292
 21
471.547705
  0
LINE
  8
CutLine
  6
CONTINUOUS
 62
8
 10
322.324868
 20
419.891808
 11
372.809944
 21
409.799195
  0
LINE
  8
CutLine
  6
CONTINUOUS
 62
8
 10
420.955721
 20
408.886030
 11
458.657508
 21
416.459619
  0
LINE
  8
CutLine
  6
CONTINUOUS
 62
8
 10
449.128293
 20
453.692343
 11
411.975115
 21
450.855603
  0
LINE
  8
CutLine
  6
CONTINUOUS
 62
8
 10
309.550292
 20
471.547705
 11
322.324868
 21
419.891808
  0
LINE
  8
CutLine
  6
CONTINUOUS
 62
8
 10
1074.935931
 20
409.899866
 11
1125.433178
 21
419.913189
  0
LINE
  8
CutLine
  6
CONTINUOUS
 62
8
 10
1125.433178
 20
419.913189
 11
1126.927456
 21
421.415362
  0
LINE
  8
CutLine
  6
CONTINUOUS
 62
8
 10
1126.927456
 20
421.415362
 11
1138.348799
 21
471.547705
  0
LINE
  8
CutLine
  6
CONTINUOUS
 62
8
 10
1138.348799
 20
471.547705
 11
1082.084280
 21
458.005289
  0
LINE
  8
CutLine
  6
CONTINUOUS
 62
8
 10
1049.574365
 20
408.822709
 11
1074.935931
 21
409.899866
  0
LINE
  8
CutLine
  6
CONTINUOUS
 62
8
 10
1082.084280
 20
458.005289
 11
1057.348072
 21
453.557752
  0
LINE
  8
CutLine
  6
CONTINUOUS
 62
8
 10
1035.809504
 20
450.953080
 11
998.590166
 21
453.788976
  0
LINE
  8
CutLine
  6
CONTINUOUS
 62
8
 10
1026.778502
 20
408.992599
 11
1049.574365
 21
408.822709
  0
LINE
  8
CutLine
  6
CONTINUOUS
 62
8
 10
1057.348072
 20
453.557752
 11
1035.809504
 21
450.953080
  0
LINE
  8
CutLine
  6
CONTINUOUS
 62
8
 10
765.243223
 20
534.837439
 11
723.844951
 21
535.155894
  0
LINE
  8
CutLine
  6
CONTINUOUS
 62
8
 10
723.850348
 20
503.492823
 11
765.067191
 21
503.109138
  0
LINE
  8
CutLine
  6
CONTINUOUS
 62
8
 10
804.983294
 20
528.212881
 11
765.243223
 21
534.837439
  0
LINE
  8
CutLine
  6
CONTINUOUS
 62
8
 10
765.067191
 20
503.109138
 11
797.186952
 21
497.078160
  0
LINE
  8
CutLine
  6
CONTINUOUS
 62
8
 10
797.186952
 20
497.078160
 11
808.145948
 21
491.781290
  0
LINE
  8
CutLine
  6
CONTINUOUS
 62
8
 10
817.553868
 20
522.490803
 11
804.983294
 21
528.212881
  0
LINE
  8
CutLine
  6
CONTINUOUS
 62
8
 10
858.486614
 20
500.184399
 11
817.553868
 21
522.490803
  0
LINE
  8
CutLine
  6
CONTINUOUS
 62
8
 10
808.145948
 20
491.781290
 11
847.935408
 21
469.656789
  0
LINE
  8
MountainLine
  6
CONTINUOUS
 62
5
 10
847.935408
 20
469.656789
 11
858.486614
 21
500.184399
  0
LINE
  8
CutLine
  6
CONTINUOUS
 62
8
 10
989.074078
 20
416.552894
 11
1026.778502
 21
408.992599
  0
LINE
  8
CutLine
  6
CONTINUOUS
 62
8
 10
998.590166
 20
453.788976
 11
952.680963
 21
465.875873
  0
LINE
  8
CutLine
  6
CONTINUOUS
 62
8
 10
847.935408
 20
469.656789
 11
912.785399
 21
441.457310
  0
LINE
  8
CutLine
  6
CONTINUOUS
 62
8
 10
922.386377
 20
476.253959
 11
858.486614
 21
500.184399
  0
LINE
  8
CutLine
  6
CONTINUOUS
 62
8
 10
952.680963
 20
465.875873
 11
922.386377
 21
476.253959
  0
LINE
  8
CutLine
  6
CONTINUOUS
 62
8
 10
912.785399
 20
441.457310
 11
946.384845
 21
429.386848
  0
LINE
  8
CutLine
  6
CONTINUOUS
 62
8
 10
946.384845
 20
429.386848
 11
989.074078
 21
416.552894
  0
LINE
  8
CutLine
  6
CONTINUOUS
 62
8
 10
861.807486
 20
454.236943
 11
822.849534
 21
477.925024
  0
LINE
  8
CutLine
  6
CONTINUOUS
 62
8
 10
765.270082
 20
493.108517
 11
723.477828
 21
493.713626
  0
LINE
  8
CutLine
  6
CONTINUOUS
 62
8
 10
765.241945
 20
485.755490
 11
805.474284
 21
477.697042
  0
LINE
  8
CutLine
  6
CONTINUOUS
 62
8
 10
805.474284
 20
477.697042
 11
818.033754
 21
470.965233
  0
LINE
  8
CutLine
  6
CONTINUOUS
 62
8
 10
818.033754
 20
470.965233
 11
857.963802
 21
445.671742
  0
LINE
  8
CutLine
  6
CONTINUOUS
 62
8
 10
807.907026
 20
484.631608
 11
765.270082
 21
493.108517
  0
LINE
  8
CutLine
  6
CONTINUOUS
 62
8
 10
822.849534
 20
477.925024
 11
807.907026
 21
484.631608
  0
LINE
  8
CutLine
  6
CONTINUOUS
 62
8
 10
723.479333
 20
486.353267
 11
765.241945
 21
485.755490
  0
LINE
  8
CutLine
  6
CONTINUOUS
 62
8
 10
921.010671
 20
416.063214
 11
950.628911
 21
401.800083
  0
LINE
  8
CutLine
  6
CONTINUOUS
 62
8
 10
857.963802
 20
445.671742
 11
921.010671
 21
416.063214
  0
LINE
  8
CutLine
  6
CONTINUOUS
 62
8
 10
954.230424
 20
411.372922
 11
924.746504
 21
425.380709
  0
LINE
  8
CutLine
  6
CONTINUOUS
 62
8
 10
1030.118737
 20
366.881208
 11
1054.074142
 21
361.854393
  0
LINE
  8
CutLine
  6
CONTINUOUS
 62
8
 10
1059.817511
 20
371.622315
 11
1036.443959
 21
376.723995
  0
LINE
  8
CutLine
  6
CONTINUOUS
 62
8
 10
950.628911
 20
401.800083
 11
993.893595
 21
380.850183
  0
LINE
  8
CutLine
  6
CONTINUOUS
 62
8
 10
993.893595
 20
380.850183
 11
1030.118737
 21
366.881208
  0
LINE
  8
CutLine
  6
CONTINUOUS
 62
8
 10
999.055801
 20
390.601163
 11
954.230424
 21
411.372922
  0
LINE
  8
CutLine
  6
CONTINUOUS
 62
8
 10
1134.997020
 20
348.796860
 11
1141.986204
 21
361.438463
  0
LINE
  8
CutLine
  6
CONTINUOUS
 62
8
 10
1141.986204
 20
361.438463
 11
1081.857242
 21
367.733439
  0
LINE
  8
CutLine
  6
CONTINUOUS
 62
8
 10
1077.060054
 20
357.671742
 11
1134.997020
 21
348.796860
  0
LINE
  8
CutLine
  6
CONTINUOUS
 62
8
 10
1054.074142
 20
361.854393
 11
1077.060054
 21
357.671742
  0
LINE
  8
CutLine
  6
CONTINUOUS
 62
8
 10
1081.857242
 20
367.733439
 11
1059.817511
 21
371.622315
  0
LINE
  8
CutLine
  6
CONTINUOUS
 62
8
 10
1036.443959
 20
376.723995
 11
999.055801
 21
390.601163
  0
LINE
  8
CutLine
  6
CONTINUOUS
 62
8
 10
924.746504
 20
425.380709
 11
861.807486
 21
454.236943
  0
LINE
  8
CutLine
  6
CONTINUOUS
 62
8
 10
681.717160
 20
485.736264
 11
723.479333
 21
486.353267
  0
LINE
  8
CutLine
  6
CONTINUOUS
 62
8
 10
641.488448
 20
477.660014
 11
681.717160
 21
485.736264
  0
LINE
  8
CutLine
  6
CONTINUOUS
 62
8
 10
628.931993
 20
470.922542
 11
641.488448
 21
477.660014
  0
LINE
  8
CutLine
  6
CONTINUOUS
 62
8
 10
624.113238
 20
477.880175
 11
585.165827
 21
454.174605
  0
LINE
  8
CutLine
  6
CONTINUOUS
 62
8
 10
589.013288
 20
445.611108
 11
628.931993
 21
470.922542
  0
LINE
  8
CutLine
  6
CONTINUOUS
 62
8
 10
681.685690
 20
493.089585
 11
639.052574
 21
484.593471
  0
LINE
  8
CutLine
  6
CONTINUOUS
 62
8
 10
723.477828
 20
493.713626
 11
681.685690
 21
493.089585
  0
LINE
  8
CutLine
  6
CONTINUOUS
 62
8
 10
639.052574
 20
484.593471
 11
624.113238
 21
477.880175
  0
LINE
  8
CutLine
  6
CONTINUOUS
 62
8
 10
393.053956
 20
361.769869
 11
416.955388
 21
366.768620
  0
LINE
  8
CutLine
  6
CONTINUOUS
 62
8
 10
410.666488
 20
376.625945
 11
387.335002
 21
371.549401
  0
LINE
  8
CutLine
  6
CONTINUOUS
 62
8
 10
312.151971
 20
348.796860
 11
370.100531
 21
357.617546
  0
LINE
  8
CutLine
  6
CONTINUOUS
 62
8
 10
365.317677
 20
367.685994
 11
305.182551
 21
361.453225
  0
LINE
  8
CutLine
  6
CONTINUOUS
 62
8
 10
370.100531
 20
357.617546
 11
393.053956
 21
361.769869
  0
LINE
  8
CutLine
  6
CONTINUOUS
 62
8
 10
387.335002
 20
371.549401
 11
365.317677
 21
367.685994
  0
LINE
  8
CutLine
  6
CONTINUOUS
 62
8
 10
585.165827
 20
454.174605
 11
522.239898
 21
425.289947
  0
LINE
  8
CutLine
  6
CONTINUOUS
 62
8
 10
496.368057
 20
401.697674
 11
525.979838
 21
415.974151
  0
LINE
  8
CutLine
  6
CONTINUOUS
 62
8
 10
522.239898
 20
425.289947
 11
492.762277
 21
411.268908
  0
LINE
  8
CutLine
  6
CONTINUOUS
 62
8
 10
453.112851
 20
380.728326
 11
496.368057
 21
401.697674
  0
LINE
  8
CutLine
  6
CONTINUOUS
 62
8
 10
492.762277
 20
411.268908
 11
447.947580
 21
390.477617
  0
LINE
  8
CutLine
  6
CONTINUOUS
 62
8
 10
416.955388
 20
366.768620
 11
453.112851
 21
380.728326
  0
LINE
  8
CutLine
  6
CONTINUOUS
 62
8
 10
447.947580
 20
390.477617
 11
410.666488
 21
376.625945
  0
LINE
  8
CutLine
  6
CONTINUOUS
 62
8
 10
525.979838
 20
415.974151
 11
589.013288
 21
445.611108
  0
LINE
  8
CutLine
  6
CONTINUOUS
 62
8
 10
305.182551
 20
361.453225
 11
312.151971
 21
348.796860
  0
LINE
  8
CutLine
  6
CONTINUOUS
 62
8
 10
684.114135
 20
589.374657
 11
725.877509
 21
589.294432
  0
LINE
  8
CutLine
  6
CONTINUOUS
 62
8
 10
725.898432
 20
598.936961
 11
684.214959
 21
598.972755
  0
LINE
  8
CutLine
  6
CONTINUOUS
 62
8
 10
652.251388
 20
585.300574
 11
684.114135
 21
589.374657
  0
LINE
  8
CutLine
  6
CONTINUOUS
 62
8
 10
684.214959
 20
598.972755
 11
650.948670
 21
594.835082
  0
LINE
  8
CutLine
  6
CONTINUOUS
 62
8
 10
599.994290
 20
563.327670
 11
639.234108
 21
580.957168
  0
LINE
  8
CutLine
  6
CONTINUOUS
 62
8
 10
650.948670
 20
594.835082
 11
639.242770
 21
590.432877
  0
LINE
  8
CutLine
  6
CONTINUOUS
 62
8
 10
639.234108
 20
580.957168
 11
652.251388
 21
585.300574
  0
LINE
  8
CutLine
  6
CONTINUOUS
 62
8
 10
639.242770
 20
590.432877
 11
596.348492
 21
573.022137
  0
LINE
  8
CutLine
  6
CONTINUOUS
 62
8
 10
529.273381
 20
541.411884
 11
599.994290
 21
563.327670
  0
LINE
  8
CutLine
  6
CONTINUOUS
 62
8
 10
527.126149
 20
553.023648
 11
491.337138
 21
545.516803
  0
LINE
  8
CutLine
  6
CONTINUOUS
 62
8
 10
491.520951
 20
533.474289
 11
529.273381
 21
541.411884
  0
LINE
  8
CutLine
  6
CONTINUOUS
 62
8
 10
596.348492
 20
573.022137
 11
527.126149
 21
553.023648
  0
LINE
  8
CutLine
  6
CONTINUOUS
 62
8
 10
447.180997
 20
527.080891
 11
491.520951
 21
533.474289
  0
LINE
  8
CutLine
  6
CONTINUOUS
 62
8
 10
382.460032
 20
530.880016
 11
406.159781
 21
526.205708
  0
LINE
  8
CutLine
  6
CONTINUOUS
 62
8
 10
406.601897
 20
538.361307
 11
382.410194
 21
543.123419
  0
LINE
  8
CutLine
  6
CONTINUOUS
 62
8
 10
356.737854
 20
537.282787
 11
382.460032
 21
530.880016
  0
LINE
  8
CutLine
  6
CONTINUOUS
 62
8
 10
382.410194
 20
543.123419
 11
358.677581
 21
548.894751
  0
LINE
  8
CutLine
  6
CONTINUOUS
 62
8
 10
301.087550
 20
564.864942
 11
356.737854
 21
537.282787
  0
LINE
  8
CutLine
  6
CONTINUOUS
 62
8
 10
311.796445
 20
571.443367
 11
310.749099
 21
573.284150
  0
LINE
  8
CutLine
  6
CONTINUOUS
 62
8
 10
310.749099
 20
573.284150
 11
301.087550
 21
564.864942
  0
LINE
  8
CutLine
  6
CONTINUOUS
 62
8
 10
358.677581
 20
548.894751
 11
311.796445
 21
571.443367
  0
LINE
  8
CutLine
  6
CONTINUOUS
 62
8
 10
406.159781
 20
526.205708
 11
447.180997
 21
527.080891
  0
LINE
  8
CutLine
  6
CONTINUOUS
 62
8
 10
446.580818
 20
539.252006
 11
406.601897
 21
538.361307
  0
LINE
  8
CutLine
  6
CONTINUOUS
 62
8
 10
491.337138
 20
545.516803
 11
446.580818
 21
539.252006
  0
LINE
  8
CutLine
  6
CONTINUOUS
 62
8
 10
767.581822
 20
598.790463
 11
725.898432
 21
598.936961
  0
LINE
  8
CutLine
  6
CONTINUOUS
 62
8
 10
725.877509
 20
589.294432
 11
767.640673
 21
589.192017
  0
LINE
  8
CutLine
  6
CONTINUOUS
 62
8
 10
800.829707
 20
594.507299
 11
767.581822
 21
598.790463
  0
LINE
  8
CutLine
  6
CONTINUOUS
 62
8
 10
767.640673
 20
589.192017
 11
799.485292
 21
584.978259
  0
LINE
  8
CutLine
  6
CONTINUOUS
 62
8
 10
855.333942
 20
572.455718
 11
812.516257
 21
590.053929
  0
LINE
  8
CutLine
  6
CONTINUOUS
 62
8
 10
812.483485
 20
580.577948
 11
851.645792
 21
562.777292
  0
LINE
  8
CutLine
  6
CONTINUOUS
 62
8
 10
812.516257
 20
590.053929
 11
800.829707
 21
594.507299
  0
LINE
  8
CutLine
  6
CONTINUOUS
 62
8
 10
799.485292
 20
584.978259
 11
812.483485
 21
580.577948
  0
LINE
  8
CutLine
  6
CONTINUOUS
 62
8
 10
1150.570291
 20
562.977320
 11
1140.950791
 21
571.443367
  0
LINE
  8
CutLine
  6
CONTINUOUS
 62
8
 10
1140.950791
 20
571.443367
 11
1139.894575
 21
569.607603
  0
LINE
  8
CutLine
  6
CONTINUOUS
 62
8
 10
1094.786114
 20
535.667164
 11
1150.570291
 21
562.977320
  0
LINE
  8
CutLine
  6
CONTINUOUS
 62
8
 10
1139.894575
 20
569.607603
 11
1092.908801
 21
547.286089
  0
LINE
  8
CutLine
  6
CONTINUOUS
 62
8
 10
1069.036049
 20
529.377526
 11
1094.786114
 21
535.667164
  0
LINE
  8
CutLine
  6
CONTINUOUS
 62
8
 10
1092.908801
 20
547.286089
 11
1069.140720
 21
541.620517
  0
LINE
  8
CutLine
  6
CONTINUOUS
 62
8
 10
1004.298998
 20
525.862016
 11
1045.316042
 21
524.806792
  0
LINE
  8
CutLine
  6
CONTINUOUS
 62
8
 10
1044.927155
 20
536.964565
 11
1004.952497
 21
538.030384
  0
LINE
  8
CutLine
  6
CONTINUOUS
 62
8
 10
959.987547
 20
532.449553
 11
1004.298998
 21
525.862016
  0
LINE
  8
CutLine
  6
CONTINUOUS
 62
8
 10
1045.316042
 20
524.806792
 11
1069.036049
 21
529.377526
  0
LINE
  8
CutLine
  6
CONTINUOUS
 62
8
 10
1069.140720
 20
541.620517
 11
1044.927155
 21
536.964565
  0
LINE
  8
CutLine
  6
CONTINUOUS
 62
8
 10
922.270188
 20
540.552273
 11
959.987547
 21
532.449553
  0
LINE
  8
CutLine
  6
CONTINUOUS
 62
8
 10
924.468215
 20
552.154531
 11
855.333942
 21
572.455718
  0
LINE
  8
CutLine
  6
CONTINUOUS
 62
8
 10
851.645792
 20
562.777292
 11
922.270188
 21
540.552273
  0
LINE
  8
CutLine
  6
CONTINUOUS
 62
8
 10
1004.952497
 20
538.030384
 11
960.224038
 21
544.491166
  0
LINE
  8
CutLine
  6
CONTINUOUS
 62
8
 10
960.224038
 20
544.491166
 11
924.468215
 21
552.154531
  0
LINE
  8
CutLine
  6
CONTINUOUS
 62
8
 10
291.434377
 20
460.580091
 11
289.262108
 21
462.642368
  0
LINE
  8
CutLine
  6
CONTINUOUS
 62
8
 10
289.262108
 20
462.642368
 11
277.185462
 21
491.100023
  0
LINE
  8
CutLine
  6
CONTINUOUS
 62
8
 10
389.767456
 20
465.023890
 11
427.990872
 21
466.407283
  0
LINE
  8
CutLine
  6
CONTINUOUS
 62
8
 10
424.751718
 20
481.294966
 11
385.292753
 21
481.729837
  0
LINE
  8
CutLine
  6
CONTINUOUS
 62
8
 10
366.975903
 20
468.354311
 11
389.767456
 21
465.023890
  0
LINE
  8
CutLine
  6
CONTINUOUS
 62
8
 10
385.292753
 20
481.729837
 11
361.498726
 21
487.391759
  0
LINE
  8
CutLine
  6
CONTINUOUS
 62
8
 10
342.911294
 20
474.007862
 11
366.975903
 21
468.354311
  0
LINE
  8
CutLine
  6
CONTINUOUS
 62
8
 10
361.498726
 20
487.391759
 11
340.181983
 21
494.036058
  0
LINE
  8
CutLine
  6
CONTINUOUS
 62
8
 10
477.610517
 20
493.774809
 11
424.751718
 21
481.294966
  0
LINE
  8
CutLine
  6
CONTINUOUS
 62
8
 10
427.990872
 20
466.407283
 11
480.499083
 21
479.226298
  0
LINE
  8
CutLine
  6
CONTINUOUS
 62
8
 10
506.846169
 20
501.987992
 11
477.610517
 21
493.774809
  0
LINE
  8
CutLine
  6
CONTINUOUS
 62
8
 10
480.499083
 20
479.226298
 11
508.986663
 21
487.562411
  0
LINE
  8
CutLine
  6
CONTINUOUS
 62
8
 10
277.185462
 20
491.100023
 11
278.245367
 21
492.366290
  0
LINE
  8
CutLine
  6
CONTINUOUS
 62
8
 10
278.245367
 20
492.366290
 11
342.911294
 21
474.007862
  0
LINE
  8
CutLine
  6
CONTINUOUS
 62
8
 10
340.181983
 20
494.036058
 11
251.576678
 21
521.993106
  0
LINE
  8
CutLine
  6
CONTINUOUS
 62
8
 10
508.986663
 20
487.562411
 11
575.934183
 21
508.357169
  0
LINE
  8
CutLine
  6
CONTINUOUS
 62
8
 10
569.418026
 20
531.802897
 11
506.846169
 21
501.987992
  0
LINE
  8
CutLine
  6
CONTINUOUS
 62
8
 10
631.676682
 20
571.869311
 11
623.360558
 21
570.911983
  0
LINE
  8
CutLine
  6
CONTINUOUS
 62
8
 10
617.728906
 20
525.816518
 11
634.387288
 21
533.282080
  0
LINE
  8
CutLine
  6
CONTINUOUS
 62
8
 10
575.934183
 20
508.357169
 11
617.728906
 21
525.816518
  0
LINE
  8
CutLine
  6
CONTINUOUS
 62
8
 10
623.360558
 20
570.911983
 11
569.418026
 21
531.802897
  0
LINE
  8
CutLine
  6
CONTINUOUS
 62
8
 10
683.002623
 20
573.157023
 11
657.682484
 21
573.011493
  0
LINE
  8
CutLine
  6
CONTINUOUS
 62
8
 10
634.387288
 20
533.282080
 11
684.101827
 21
539.495612
  0
LINE
  8
CutLine
  6
CONTINUOUS
 62
8
 10
657.682484
 20
573.011493
 11
631.676682
 21
571.869311
  0
LINE
  8
CutLine
  6
CONTINUOUS
 62
8
 10
684.101827
 20
539.495612
 11
725.949392
 21
539.557124
  0
LINE
  8
CutLine
  6
CONTINUOUS
 62
8
 10
725.949396
 20
573.142253
 11
683.002623
 21
573.157023
  0
LINE
  8
CutLine
  6
CONTINUOUS
 62
8
 10
251.576678
 20
521.993106
 11
293.472010
 21
446.276090
  0
LINE
  8
CutLine
  6
CONTINUOUS
 62
8
 10
293.472010
 20
446.276090
 11
291.434377
 21
460.580091
  0
LINE
  8
CutLine
  6
CONTINUOUS
 62
8
 10
1174.900814
 20
491.121127
 11
1162.827934
 21
462.661554
  0
LINE
  8
CutLine
  6
CONTINUOUS
 62
8
 10
1162.827934
 20
462.661554
 11
1160.655070
 21
460.600435
  0
LINE
  8
CutLine
  6
CONTINUOUS
 62
8
 10
1027.173496
 20
481.288249
 11
974.288195
 21
493.774719
  0
LINE
  8
CutLine
  6
CONTINUOUS
 62
8
 10
971.399621
 20
479.226209
 11
1023.931911
 21
466.401459
  0
LINE
  8
CutLine
  6
CONTINUOUS
 62
8
 10
1085.128263
 20
468.305847
 11
1109.191050
 21
473.967477
  0
LINE
  8
CutLine
  6
CONTINUOUS
 62
8
 10
1111.888407
 20
493.997489
 11
1090.574453
 21
487.347648
  0
LINE
  8
CutLine
  6
CONTINUOUS
 62
8
 10
1062.304162
 20
464.982036
 11
1085.128263
 21
468.305847
  0
LINE
  8
CutLine
  6
CONTINUOUS
 62
8
 10
1090.574453
 20
487.347648
 11
1066.771039
 21
481.689468
  0
LINE
  8
CutLine
  6
CONTINUOUS
 62
8
 10
1066.771039
 20
481.689468
 11
1027.173496
 21
481.288249
  0
LINE
  8
CutLine
  6
CONTINUOUS
 62
8
 10
1023.931911
 20
466.401459
 11
1062.304162
 21
464.982036
  0
LINE
  8
CutLine
  6
CONTINUOUS
 62
8
 10
1109.191050
 20
473.967477
 11
1173.839669
 21
492.386358
  0
LINE
  8
CutLine
  6
CONTINUOUS
 62
8
 10
1200.441091
 20
522.034750
 11
1111.888407
 21
493.997489
  0
LINE
  8
CutLine
  6
CONTINUOUS
 62
8
 10
1173.839669
 20
492.386358
 11
1174.900814
 21
491.121127
  0
LINE
  8
CutLine
  6
CONTINUOUS
 62
8
 10
974.288195
 20
493.774719
 11
945.052504
 21
501.987641
  0
LINE
  8
CutLine
  6
CONTINUOUS
 62
8
 10
942.911918
 20
487.562047
 11
971.399621
 21
479.226209
  0
LINE
  8
CutLine
  6
CONTINUOUS
 62
8
 10
875.964448
 20
508.357159
 11
942.911918
 21
487.562047
  0
LINE
  8
CutLine
  6
CONTINUOUS
 62
8
 10
945.052504
 20
501.987641
 11
882.480589
 21
531.802563
  0
LINE
  8
CutLine
  6
CONTINUOUS
 62
8
 10
828.538172
 20
570.911983
 11
820.221931
 21
571.869309
  0
LINE
  8
CutLine
  6
CONTINUOUS
 62
8
 10
817.511335
 20
533.282074
 11
834.169742
 21
525.816512
  0
LINE
  8
CutLine
  6
CONTINUOUS
 62
8
 10
834.169742
 20
525.816512
 11
875.964448
 21
508.357159
  0
LINE
  8
CutLine
  6
CONTINUOUS
 62
8
 10
794.216142
 20
573.011482
 11
768.896168
 21
573.157009
  0
LINE
  8
CutLine
  6
CONTINUOUS
 62
8
 10
767.796796
 20
539.495605
 11
817.511335
 21
533.282074
  0
LINE
  8
CutLine
  6
CONTINUOUS
 62
8
 10
820.221931
 20
571.869309
 11
794.216142
 21
573.011482
  0
LINE
  8
CutLine
  6
CONTINUOUS
 62
8
 10
882.480589
 20
531.802563
 11
828.538172
 21
570.911983
  0
LINE
  8
CutLine
  6
CONTINUOUS
 62
8
 10
725.949392
 20
539.557124
 11
767.796796
 21
539.495605
  0
LINE
  8
CutLine
  6
CONTINUOUS
 62
8
 10
768.896168
 20
573.157009
 11
725.949396
 21
573.142253
  0
LINE
  8
CutLine
  6
CONTINUOUS
 62
8
 10
1158.597222
 20
446.302740
 11
1200.441091
 21
522.034750
  0
LINE
  8
CutLine
  6
CONTINUOUS
 62
8
 10
1160.655070
 20
460.600435
 11
1158.597222
 21
446.302740
  0
LINE
  8
CutLine
  6
CONTINUOUS
 62
8
 10
1175.038313
 20
160.270970
 11
1176.903846
 21
194.272153
  0
LINE
  8
CutLine
  6
CONTINUOUS
 62
8
 10
1171.989284
 20
422.860207
 11
1171.718629
 21
455.561141
  0
LINE
  8
CutLine
  6
CONTINUOUS
 62
8
 10
1169.030204
 20
423.005537
 11
1166.839153
 21
382.721799
  0
LINE
  8
CutLine
  6
CONTINUOUS
 62
8
 10
1173.143292
 20
382.412470
 11
1171.989284
 21
422.860207
  0
LINE
  8
CutLine
  6
CONTINUOUS
 62
8
 10
1166.839153
 20
382.721799
 11
1164.105325
 21
330.703716
  0
LINE
  8
CutLine
  6
CONTINUOUS
 62
8
 10
1174.872343
 20
330.175370
 11
1173.143292
 21
382.412470
  0
LINE
  8
CutLine
  6
CONTINUOUS
 62
8
 10
1177.282353
 20
259.542629
 11
1176.068158
 21
295.050260
  0
LINE
  8
CutLine
  6
CONTINUOUS
 62
8
 10
1164.897400
 20
295.188385
 11
1165.683702
 21
260.111524
  0
LINE
  8
CutLine
  6
CONTINUOUS
 62
8
 10
1164.105325
 20
330.703716
 11
1164.897400
 21
295.188385
  0
LINE
  8
CutLine
  6
CONTINUOUS
 62
8
 10
1176.068158
 20
295.050260
 11
1174.872343
 21
330.175370
  0
LINE
  8
CutLine
  6
CONTINUOUS
 62
8
 10
1165.683702
 20
260.111524
 11
1168.242765
 21
219.002979
  0
LINE
  8
CutLine
  6
CONTINUOUS
 62
8
 10
1178.048354
 20
218.521977
 11
1177.282353
 21
259.542629
  0
LINE
  8
CutLine
  6
CONTINUOUS
 62
8
 10
1168.242765
 20
219.002979
 11
1170.019719
 21
194.309809
  0
LINE
  8
CutLine
  6
CONTINUOUS
 62
8
 10
1176.903846
 20
194.272153
 11
1178.048354
 21
218.521977
  0
LINE
  8
CutLine
  6
CONTINUOUS
 62
8
 10
1170.019719
 20
194.309809
 11
1171.808575
 21
160.430240
  0
LINE
  8
CutLine
  6
CONTINUOUS
 62
8
 10
1171.718629
 20
455.561141
 11
1169.030204
 21
423.005537
  0
LINE
  8
CutLine
  6
CONTINUOUS
 62
8
 10
1171.808575
 20
160.430240
 11
1171.718629
 21
131.442716
  0
LINE
  8
CutLine
  6
CONTINUOUS
 62
8
 10
1171.718629
 20
131.442716
 11
1175.038313
 21
160.270970
  0
LINE
  8
CutLine
  6
CONTINUOUS
 62
8
 10
1143.946651
 20
124.270628
 11
1131.741080
 21
96.522093
  0
LINE
  8
CutLine
  6
CONTINUOUS
 62
8
 10
1131.741080
 20
96.522093
 11
1114.647054
 21
74.234599
  0
LINE
  8
CutLine
  6
CONTINUOUS
 62
8
 10
1114.647054
 20
74.234599
 11
1122.682896
 21
70.013814
  0
LINE
  8
CutLine
  6
CONTINUOUS
 62
8
 10
1122.682896
 20
70.013814
 11
1140.306537
 21
93.028850
  0
LINE
  8
CutLine
  6
CONTINUOUS
 62
8
 10
1140.306537
 20
93.028850
 11
1154.609124
 21
123.793461
  0
LINE
  8
CutLine
  6
CONTINUOUS
 62
8
 10
1143.026706
 20
186.350962
 11
1119.083763
 21
211.997404
  0
LINE
  8
CutLine
  6
CONTINUOUS
 62
8
 10
1134.245737
 20
182.378037
 11
1148.581130
 21
147.305653
  0
LINE
  8
CutLine
  6
CONTINUOUS
 62
8
 10
1158.610871
 20
148.224921
 11
1143.026706
 21
186.350962
  0
LINE
  8
CutLine
  6
CONTINUOUS
 62
8
 10
1148.581130
 20
147.305653
 11
1143.946651
 21
124.270628
  0
LINE
  8
CutLine
  6
CONTINUOUS
 62
8
 10
1154.609124
 20
123.793461
 11
1158.610871
 21
148.224921
  0
LINE
  8
CutLine
  6
CONTINUOUS
 62
8
 10
1112.902856
 20
205.678611
 11
1134.245737
 21
182.378037
  0
LINE
  8
CutLine
  6
CONTINUOUS
 62
8
 10
1038.661466
 20
231.813516
 11
1086.191101
 21
225.727576
  0
LINE
  8
CutLine
  6
CONTINUOUS
 62
8
 10
1090.787690
 20
233.475261
 11
1039.119708
 21
240.091481
  0
LINE
  8
CutLine
  6
CONTINUOUS
 62
8
 10
1086.191101
 20
225.727576
 11
1112.902856
 21
205.678611
  0
LINE
  8
CutLine
  6
CONTINUOUS
 62
8
 10
1119.083763
 20
211.997404
 11
1090.787690
 21
233.475261
  0
LINE
  8
CutLine
  6
CONTINUOUS
 62
8
 10
979.015697
 20
201.870171
 11
1003.987455
 21
218.585762
  0
LINE
  8
CutLine
  6
CONTINUOUS
 62
8
 10
1001.426142
 20
225.711797
 11
974.280359
 21
207.540351
  0
LINE
  8
CutLine
  6
CONTINUOUS
 62
8
 10
1003.987455
 20
218.585762
 11
1038.661466
 21
231.813516
  0
LINE
  8
CutLine
  6
CONTINUOUS
 62
8
 10
1039.119708
 20
240.091481
 11
1001.426142
 21
225.711797
  0
LINE
  8
CutLine
  6
CONTINUOUS
 62
8
 10
1089.733187
 20
58.420299
 11
1120.712587
 21
69.088107
  0
LINE
  8
CutLine
  6
CONTINUOUS
 62
8
 10
1115.279157
 20
75.039174
 11
1085.222401
 21
64.688182
  0
LINE
  8
CutLine
  6
CONTINUOUS
 62
8
 10
957.407202
 20
176.310848
 11
979.015697
 21
201.870171
  0
LINE
  8
CutLine
  6
CONTINUOUS
 62
8
 10
945.793555
 20
147.553526
 11
957.407202
 21
176.310848
  0
LINE
  8
CutLine
  6
CONTINUOUS
 62
8
 10
950.350329
 20
124.813646
 11
945.793555
 21
147.553526
  0
LINE
  8
CutLine
  6
CONTINUOUS
 62
8
 10
960.065311
 20
103.847171
 11
950.350329
 21
124.813646
  0
LINE
  8
CutLine
  6
CONTINUOUS
 62
8
 10
980.753385
 20
80.983230
 11
960.065311
 21
103.847171
  0
LINE
  8
CutLine
  6
CONTINUOUS
 62
8
 10
1009.996456
 20
62.577156
 11
980.753385
 21
80.983230
  0
LINE
  8
CutLine
  6
CONTINUOUS
 62
8
 10
1050.391497
 20
58.226030
 11
1009.996456
 21
62.577156
  0
LINE
  8
CutLine
  6
CONTINUOUS
 62
8
 10
1085.222401
 20
64.688182
 11
1050.391497
 21
58.226030
  0
LINE
  8
CutLine
  6
CONTINUOUS
 62
8
 10
1051.869017
 20
51.395144
 11
1089.733187
 21
58.420299
  0
LINE
  8
CutLine
  6
CONTINUOUS
 62
8
 10
1007.278082
 20
56.542365
 11
1051.869017
 21
51.395144
  0
LINE
  8
CutLine
  6
CONTINUOUS
 62
8
 10
975.598331
 20
76.208376
 11
1007.278082
 21
56.542365
  0
LINE
  8
CutLine
  6
CONTINUOUS
 62
8
 10
953.053721
 20
100.512531
 11
975.598331
 21
76.208376
  0
LINE
  8
CutLine
  6
CONTINUOUS
 62
8
 10
942.139876
 20
122.969099
 11
953.053721
 21
100.512531
  0
LINE
  8
CutLine
  6
CONTINUOUS
 62
8
 10
937.382475
 20
148.224921
 11
942.139876
 21
122.969099
  0
LINE
  8
CutLine
  6
CONTINUOUS
 62
8
 10
950.790134
 20
179.755787
 11
937.382475
 21
148.224921
  0
LINE
  8
CutLine
  6
CONTINUOUS
 62
8
 10
974.280359
 20
207.540351
 11
950.790134
 21
179.755787
  0
LINE
  8
CutLine
  6
CONTINUOUS
 62
8
 10
1120.712587
 20
69.088107
 11
1123.358616
 21
70.902494
  0
LINE
  8
CutLine
  6
CONTINUOUS
 62
8
 10
1123.358616
 20
70.902494
 11
1115.279157
 21
75.039174
  0
LINE
  8
CutLine
  6
CONTINUOUS
 62
8
 10
748.282154
 20
59.501447
 11
779.311399
 21
49.288605
  0
LINE
  8
CutLine
  6
CONTINUOUS
 62
8
 10
779.311399
 20
49.288605
 11
819.482097
 21
45.561264
  0
LINE
  8
CutLine
  6
CONTINUOUS
 62
8
 10
816.817336
 20
53.411980
 11
779.864304
 21
56.840817
  0
LINE
  8
CutLine
  6
CONTINUOUS
 62
8
 10
779.864304
 20
56.840817
 11
751.320564
 21
66.235163
  0
LINE
  8
CutLine
  6
CONTINUOUS
 62
8
 10
816.778636
 20
226.902599
 11
848.510894
 21
225.005226
  0
LINE
  8
CutLine
  6
CONTINUOUS
 62
8
 10
852.145480
 20
232.196460
 11
819.439870
 21
234.151881
  0
LINE
  8
CutLine
  6
CONTINUOUS
 62
8
 10
718.192429
 20
79.955761
 11
748.282154
 21
59.501447
  0
LINE
  8
CutLine
  6
CONTINUOUS
 62
8
 10
751.320564
 20
66.235163
 11
723.641014
 21
85.051367
  0
LINE
  8
CutLine
  6
CONTINUOUS
 62
8
 10
696.808456
 20
106.726768
 11
718.192429
 21
79.955761
  0
LINE
  8
CutLine
  6
CONTINUOUS
 62
8
 10
723.641014
 20
85.051367
 11
704.730402
 21
109.632476
  0
LINE
  8
CutLine
  6
CONTINUOUS
 62
8
 10
694.607531
 20
132.332372
 11
696.808456
 21
106.726768
  0
LINE
  8
CutLine
  6
CONTINUOUS
 62
8
 10
704.730402
 20
109.632476
 11
703.011976
 21
132.760710
  0
LINE
  8
CutLine
  6
CONTINUOUS
 62
8
 10
699.088597
 20
156.895080
 11
694.607531
 21
132.332372
  0
LINE
  8
CutLine
  6
CONTINUOUS
 62
8
 10
703.011976
 20
132.760710
 11
706.738199
 21
155.566245
  0
LINE
  8
CutLine
  6
CONTINUOUS
 62
8
 10
714.277124
 20
186.361364
 11
699.088597
 21
156.895080
  0
LINE
  8
CutLine
  6
CONTINUOUS
 62
8
 10
706.738199
 20
155.566245
 11
720.524987
 21
183.146746
  0
LINE
  8
CutLine
  6
CONTINUOUS
 62
8
 10
739.510314
 20
213.813828
 11
714.277124
 21
186.361364
  0
LINE
  8
CutLine
  6
CONTINUOUS
 62
8
 10
720.524987
 20
183.146746
 11
743.749705
 21
208.730965
  0
LINE
  8
CutLine
  6
CONTINUOUS
 62
8
 10
781.080433
 20
230.748637
 11
739.510314
 21
213.813828
  0
LINE
  8
CutLine
  6
CONTINUOUS
 62
8
 10
819.439870
 20
234.151881
 11
781.080433
 21
230.748637
  0
LINE
  8
CutLine
  6
CONTINUOUS
 62
8
 10
781.491688
 20
223.772082
 11
816.778636
 21
226.902599
  0
LINE
  8
CutLine
  6
CONTINUOUS
 62
8
 10
855.182196
 20
231.161188
 11
852.145480
 21
232.196460
  0
LINE
  8
CutLine
  6
CONTINUOUS
 62
8
 10
743.749705
 20
208.730965
 11
781.491688
 21
223.772082
  0
LINE
  8
CutLine
  6
CONTINUOUS
 62
8
 10
848.510894
 20
225.005226
 11
855.182196
 21
231.161188
  0
LINE
  8
CutLine
  6
CONTINUOUS
 62
8
 10
870.138925
 20
208.732350
 11
889.348940
 21
185.281679
  0
LINE
  8
CutLine
  6
CONTINUOUS
 62
8
 10
854.293772
 20
231.833649
 11
847.686878
 21
225.609667
  0
LINE
  8
CutLine
  6
CONTINUOUS
 62
8
 10
877.451389
 20
214.397787
 11
854.293772
 21
231.833649
  0
LINE
  8
CutLine
  6
CONTINUOUS
 62
8
 10
847.686878
 20
225.609667
 11
870.138925
 21
208.732350
  0
LINE
  8
CutLine
  6
CONTINUOUS
 62
8
 10
899.491458
 20
188.605174
 11
877.451389
 21
214.397787
  0
LINE
  8
CutLine
  6
CONTINUOUS
 62
8
 10
895.611409
 20
126.703912
 11
881.311006
 21
98.527095
  0
LINE
  8
CutLine
  6
CONTINUOUS
 62
8
 10
819.482097
 20
45.561264
 11
867.474544
 21
65.811770
  0
LINE
  8
CutLine
  6
CONTINUOUS
 62
8
 10
867.474544
 20
65.811770
 11
888.961927
 21
94.100559
  0
LINE
  8
CutLine
  6
CONTINUOUS
 62
8
 10
881.311006
 20
98.527095
 11
860.965635
 21
72.040327
  0
LINE
  8
CutLine
  6
CONTINUOUS
 62
8
 10
860.965635
 20
72.040327
 11
816.817336
 21
53.411980
  0
LINE
  8
CutLine
  6
CONTINUOUS
 62
8
 10
888.961927
 20
94.100559
 11
905.136772
 21
125.235380
  0
LINE
  8
CutLine
  6
CONTINUOUS
 62
8
 10
905.136772
 20
125.235380
 11
909.908146
 21
166.146215
  0
LINE
  8
CutLine
  6
CONTINUOUS
 62
8
 10
909.908146
 20
166.146215
 11
899.491458
 21
188.605174
  0
LINE
  8
CutLine
  6
CONTINUOUS
 62
8
 10
889.348940
 20
185.281679
 11
900.000326
 21
164.337699
  0
LINE
  8
CutLine
  6
CONTINUOUS
 62
8
 10
900.000326
 20
164.337699
 11
895.611409
 21
126.703912
  0
ENDSEC
  0
EOF
