  0
SECTION
  2
HEADER
  9
$ACADVER
  1
AC1009
  0
ENDSEC
  0
SECTION
  2
BLOCKS
  0
ENDSEC
  0
SECTION
  2
ENTITIES
  0
LINE
  8
CutLine
  6
CONTINUOUS
 62
8
 10
182.409840
 20
599.547219
 11
183.553963
 21
600.000000
  0
LINE
  8
CutLine
  6
CONTINUOUS
 62
8
 10
423.846139
 20
568.090893
 11
389.745440
 21
594.314776
  0
LINE
  8
CutLine
  6
CONTINUOUS
 62
8
 10
388.924049
 20
591.623311
 11
422.475933
 21
565.783741
  0
LINE
  8
CutLine
  6
CONTINUOUS
 62
8
 10
422.475933
 20
565.783741
 11
423.846139
 21
568.090893
  0
LINE
  8
CutLine
  6
CONTINUOUS
 62
8
 10
376.770509
 20
600.000000
 11
377.507721
 21
599.676659
  0
LINE
  8
CutLine
  6
CONTINUOUS
 62
8
 10
389.745440
 20
594.314776
 11
381.759383
 21
600.000000
  0
LINE
  8
CutLine
  6
CONTINUOUS
 62
8
 10
377.507721
 20
599.676659
 11
388.924049
 21
591.623311
  0
LINE
  8
CutLine
  6
CONTINUOUS
 62
8
 10
150.342743
 20
401.642587
 11
166.329763
 21
380.499240
  0
LINE
  8
CutLine
  6
CONTINUOUS
 62
8
 10
166.329763
 20
380.499240
 11
221.561520
 21
352.088243
  0
LINE
  8
CutLine
  6
CONTINUOUS
 62
8
 10
221.561520
 20
352.088243
 11
166.864881
 21
382.946167
  0
LINE
  8
CutLine
  6
CONTINUOUS
 62
8
 10
139.303960
 20
423.129152
 11
150.342743
 21
401.642587
  0
LINE
  8
CutLine
  6
CONTINUOUS
 62
8
 10
166.864881
 20
382.946167
 11
151.199405
 21
402.850390
  0
LINE
  8
CutLine
  6
CONTINUOUS
 62
8
 10
151.199405
 20
402.850390
 11
140.703601
 21
424.101374
  0
LINE
  8
CutLine
  6
CONTINUOUS
 62
8
 10
124.149866
 20
506.814989
 11
126.383153
 21
462.072173
  0
LINE
  8
CutLine
  6
CONTINUOUS
 62
8
 10
126.383153
 20
462.072173
 11
139.303960
 21
423.129152
  0
LINE
  8
CutLine
  6
CONTINUOUS
 62
8
 10
140.703601
 20
424.101374
 11
127.892688
 21
462.697944
  0
LINE
  8
CutLine
  6
CONTINUOUS
 62
8
 10
127.892688
 20
462.697944
 11
125.587986
 21
506.568531
  0
LINE
  8
CutLine
  6
CONTINUOUS
 62
8
 10
180.097938
 20
600.000000
 11
136.883920
 21
543.230579
  0
LINE
  8
CutLine
  6
CONTINUOUS
 62
8
 10
136.883920
 20
543.230579
 11
124.149866
 21
506.814989
  0
LINE
  8
CutLine
  6
CONTINUOUS
 62
8
 10
125.587986
 20
506.568531
 11
138.319098
 21
543.103133
  0
LINE
  8
CutLine
  6
CONTINUOUS
 62
8
 10
138.319098
 20
543.103133
 11
182.409840
 21
599.547219
  0
LINE
  8
CutLine
  6
CONTINUOUS
 62
8
 10
989.082128
 20
182.811013
 11
992.651998
 21
185.301193
  0
LINE
  8
CutLine
  6
CONTINUOUS
 62
8
 10
992.651998
 20
185.301193
 11
973.614441
 21
212.189100
  0
LINE
  8
CutLine
  6
CONTINUOUS
 62
8
 10
970.893746
 20
210.214265
 11
989.082128
 21
182.811013
  0
LINE
  8
CutLine
  6
CONTINUOUS
 62
8
 10
924.836714
 20
344.948343
 11
924.346612
 21
394.650427
  0
LINE
  8
CutLine
  6
CONTINUOUS
 62
8
 10
921.142842
 20
391.994128
 11
921.183612
 21
343.730488
  0
LINE
  8
CutLine
  6
CONTINUOUS
 62
8
 10
973.614441
 20
212.189100
 11
964.075767
 21
231.628546
  0
LINE
  8
CutLine
  6
CONTINUOUS
 62
8
 10
960.946918
 20
229.858871
 11
970.893746
 21
210.214265
  0
LINE
  8
CutLine
  6
CONTINUOUS
 62
8
 10
964.075767
 20
231.628546
 11
949.004769
 21
260.880571
  0
LINE
  8
CutLine
  6
CONTINUOUS
 62
8
 10
947.059006
 20
259.439770
 11
960.946918
 21
229.858871
  0
LINE
  8
CutLine
  6
CONTINUOUS
 62
8
 10
949.004769
 20
260.880571
 11
937.134815
 21
290.313670
  0
LINE
  8
CutLine
  6
CONTINUOUS
 62
8
 10
935.289057
 20
288.799944
 11
947.059006
 21
259.439770
  0
LINE
  8
CutLine
  6
CONTINUOUS
 62
8
 10
937.134815
 20
290.313670
 11
930.175571
 21
320.944288
  0
LINE
  8
CutLine
  6
CONTINUOUS
 62
8
 10
926.456178
 20
319.718486
 11
935.289057
 21
288.799944
  0
LINE
  8
CutLine
  6
CONTINUOUS
 62
8
 10
930.175571
 20
320.944288
 11
924.836714
 21
344.948343
  0
LINE
  8
CutLine
  6
CONTINUOUS
 62
8
 10
921.183612
 20
343.730488
 11
926.456178
 21
319.718486
  0
LINE
  8
CutLine
  6
CONTINUOUS
 62
8
 10
925.487021
 20
429.471126
 11
921.142842
 21
391.994128
  0
LINE
  8
ValleyLine
  6
CONTINUOUS
 62
1
 10
921.142842
 20
391.994128
 11
929.379857
 21
430.603053
  0
LINE
  8
CutLine
  6
CONTINUOUS
 62
8
 10
929.379857
 20
430.603053
 11
935.021187
 21
467.895815
  0
LINE
  8
CutLine
  6
CONTINUOUS
 62
8
 10
929.295479
 20
466.705964
 11
925.487021
 21
429.471126
  0
LINE
  8
CutLine
  6
CONTINUOUS
 62
8
 10
924.346612
 20
394.650427
 11
929.379857
 21
430.603053
  0
LINE
  8
CutLine
  6
CONTINUOUS
 62
8
 10
935.021187
 20
467.895815
 11
929.295479
 21
466.705964
  0
LINE
  8
CutLine
  6
CONTINUOUS
 62
8
 10
519.613150
 20
337.037515
 11
539.237923
 21
292.941990
  0
LINE
  8
CutLine
  6
CONTINUOUS
 62
8
 10
515.879264
 20
511.681777
 11
510.500830
 21
479.234290
  0
LINE
  8
CutLine
  6
CONTINUOUS
 62
8
 10
513.796638
 20
478.545615
 11
520.155723
 21
510.871305
  0
LINE
  8
CutLine
  6
CONTINUOUS
 62
8
 10
510.500830
 20
479.234290
 11
509.461305
 21
457.239633
  0
LINE
  8
CutLine
  6
CONTINUOUS
 62
8
 10
513.050086
 20
456.904849
 11
513.796638
 21
478.545615
  0
LINE
  8
CutLine
  6
CONTINUOUS
 62
8
 10
508.890392
 20
424.565560
 11
510.175845
 21
392.963611
  0
LINE
  8
CutLine
  6
CONTINUOUS
 62
8
 10
509.461305
 20
457.239633
 11
508.890392
 21
424.565560
  0
LINE
  8
CutLine
  6
CONTINUOUS
 62
8
 10
511.268237
 20
424.047019
 11
513.050086
 21
456.904849
  0
LINE
  8
CutLine
  6
CONTINUOUS
 62
8
 10
512.479938
 20
392.327653
 11
511.268237
 21
424.047019
  0
LINE
  8
CutLine
  6
CONTINUOUS
 62
8
 10
518.531286
 20
361.506320
 11
512.479938
 21
392.327653
  0
LINE
  8
CutLine
  6
CONTINUOUS
 62
8
 10
510.175845
 20
392.963611
 11
514.598933
 21
361.110835
  0
LINE
  8
CutLine
  6
CONTINUOUS
 62
8
 10
523.452967
 20
337.416979
 11
518.531286
 21
361.506320
  0
LINE
  8
CutLine
  6
CONTINUOUS
 62
8
 10
514.598933
 20
361.110835
 11
519.613150
 21
337.037515
  0
LINE
  8
CutLine
  6
CONTINUOUS
 62
8
 10
543.252494
 20
291.824385
 11
523.452967
 21
337.416979
  0
LINE
  8
CutLine
  6
CONTINUOUS
 62
8
 10
520.155723
 20
510.871305
 11
515.879264
 21
511.681777
  0
LINE
  8
CutLine
  6
CONTINUOUS
 62
8
 10
539.237923
 20
292.941990
 11
558.468615
 21
260.482834
  0
LINE
  8
ValleyLine
  6
CONTINUOUS
 62
1
 10
562.491459
 20
261.038223
 11
539.237923
 21
292.941990
  0
LINE
  8
CutLine
  6
CONTINUOUS
 62
8
 10
558.468615
 20
260.482834
 11
577.111777
 21
228.027252
  0
LINE
  8
CutLine
  6
CONTINUOUS
 62
8
 10
582.831308
 20
229.275465
 11
562.491459
 21
261.038223
  0
LINE
  8
CutLine
  6
CONTINUOUS
 62
8
 10
562.491459
 20
261.038223
 11
543.252494
 21
291.824385
  0
LINE
  8
CutLine
  6
CONTINUOUS
 62
8
 10
577.111777
 20
228.027252
 11
582.831308
 21
229.275465
  0
LINE
  8
CutLine
  6
CONTINUOUS
 62
8
 10
693.777861
 20
296.901770
 11
706.278500
 21
290.061294
  0
LINE
  8
CutLine
  6
CONTINUOUS
 62
8
 10
707.672748
 20
292.670367
 11
695.518282
 21
299.230170
  0
LINE
  8
CutLine
  6
CONTINUOUS
 62
8
 10
664.304785
 20
325.448449
 11
693.777861
 21
296.901770
  0
LINE
  8
CutLine
  6
CONTINUOUS
 62
8
 10
695.518282
 20
299.230170
 11
666.593765
 21
327.275534
  0
LINE
  8
CutLine
  6
CONTINUOUS
 62
8
 10
641.107534
 20
360.180960
 11
664.304785
 21
325.448449
  0
LINE
  8
CutLine
  6
CONTINUOUS
 62
8
 10
666.593765
 20
327.275534
 11
643.633004
 21
361.724361
  0
LINE
  8
CutLine
  6
CONTINUOUS
 62
8
 10
611.695451
 20
436.407463
 11
611.403757
 21
450.216027
  0
LINE
  8
CutLine
  6
CONTINUOUS
 62
8
 10
608.445925
 20
450.165757
 11
608.829431
 21
435.921093
  0
LINE
  8
CutLine
  6
CONTINUOUS
 62
8
 10
623.454414
 20
397.873260
 11
611.695451
 21
436.407463
  0
LINE
  8
CutLine
  6
CONTINUOUS
 62
8
 10
643.633004
 20
361.724361
 11
623.454414
 21
397.873260
  0
LINE
  8
CutLine
  6
CONTINUOUS
 62
8
 10
620.784252
 20
396.669826
 11
641.107534
 21
360.180960
  0
LINE
  8
CutLine
  6
CONTINUOUS
 62
8
 10
608.829431
 20
435.921093
 11
620.784252
 21
396.669826
  0
LINE
  8
CutLine
  6
CONTINUOUS
 62
8
 10
677.962475
 20
575.955491
 11
719.495848
 21
598.949555
  0
LINE
  8
CutLine
  6
CONTINUOUS
 62
8
 10
676.552166
 20
578.302733
 11
654.641519
 21
553.795580
  0
LINE
  8
CutLine
  6
CONTINUOUS
 62
8
 10
617.015670
 20
496.493145
 11
656.761016
 21
551.956225
  0
LINE
  8
CutLine
  6
CONTINUOUS
 62
8
 10
654.641519
 20
553.795580
 11
614.206918
 21
497.080364
  0
LINE
  8
CutLine
  6
CONTINUOUS
 62
8
 10
656.761016
 20
551.956225
 11
677.962475
 21
575.955491
  0
LINE
  8
CutLine
  6
CONTINUOUS
 62
8
 10
715.669669
 20
600.000000
 11
676.552166
 21
578.302733
  0
LINE
  8
CutLine
  6
CONTINUOUS
 62
8
 10
778.006431
 20
599.422076
 11
801.373489
 21
590.167827
  0
LINE
  8
CutLine
  6
CONTINUOUS
 62
8
 10
802.924899
 20
592.622465
 11
784.708732
 21
600.000000
  0
LINE
  8
CutLine
  6
CONTINUOUS
 62
8
 10
774.530685
 20
600.000000
 11
778.006431
 21
599.422076
  0
LINE
  8
CutLine
  6
CONTINUOUS
 62
8
 10
719.495848
 20
598.949555
 11
729.166010
 21
600.000000
  0
LINE
  8
CutLine
  6
CONTINUOUS
 62
8
 10
801.373489
 20
590.167827
 11
849.207781
 21
557.595236
  0
LINE
  8
CutLine
  6
CONTINUOUS
 62
8
 10
849.207781
 20
557.595236
 11
850.685338
 21
558.646062
  0
LINE
  8
CutLine
  6
CONTINUOUS
 62
8
 10
850.685338
 20
558.646062
 11
802.924899
 21
592.622465
  0
LINE
  8
CutLine
  6
CONTINUOUS
 62
8
 10
611.403757
 20
450.216027
 11
617.015670
 21
496.493145
  0
LINE
  8
CutLine
  6
CONTINUOUS
 62
8
 10
614.206918
 20
497.080364
 11
608.445925
 21
450.165757
  0
LINE
  8
CutLine
  6
CONTINUOUS
 62
8
 10
851.374840
 20
292.201973
 11
891.302392
 21
318.969810
  0
LINE
  8
CutLine
  6
CONTINUOUS
 62
8
 10
889.340811
 20
320.994850
 11
849.929765
 21
294.527599
  0
LINE
  8
CutLine
  6
CONTINUOUS
 62
8
 10
849.929765
 20
294.527599
 11
818.900578
 21
286.611711
  0
LINE
  8
CutLine
  6
CONTINUOUS
 62
8
 10
819.570355
 20
283.886318
 11
851.374840
 21
292.201973
  0
LINE
  8
CutLine
  6
CONTINUOUS
 62
8
 10
750.653889
 20
273.782578
 11
819.570355
 21
283.886318
  0
LINE
  8
CutLine
  6
CONTINUOUS
 62
8
 10
818.900578
 20
286.611711
 11
751.412775
 21
276.549985
  0
LINE
  8
CutLine
  6
CONTINUOUS
 62
8
 10
706.278500
 20
290.061294
 11
750.653889
 21
273.782578
  0
LINE
  8
CutLine
  6
CONTINUOUS
 62
8
 10
751.412775
 20
276.549985
 11
707.672748
 21
292.670367
  0
LINE
  8
CutLine
  6
CONTINUOUS
 62
8
 10
921.586366
 20
398.009896
 11
913.160025
 21
456.017110
  0
LINE
  8
CutLine
  6
CONTINUOUS
 62
8
 10
913.160025
 20
456.017110
 11
911.549328
 21
455.181370
  0
LINE
  8
CutLine
  6
CONTINUOUS
 62
8
 10
919.567016
 20
374.771485
 11
921.586366
 21
398.009896
  0
LINE
  8
CutLine
  6
CONTINUOUS
 62
8
 10
911.549328
 20
455.181370
 11
918.695093
 21
397.750174
  0
LINE
  8
CutLine
  6
CONTINUOUS
 62
8
 10
918.695093
 20
397.750174
 11
916.334244
 21
372.771846
  0
LINE
  8
CutLine
  6
CONTINUOUS
 62
8
 10
912.557299
 20
351.380679
 11
919.567016
 21
374.771485
  0
LINE
  8
CutLine
  6
CONTINUOUS
 62
8
 10
916.334244
 20
372.771846
 11
909.796729
 21
352.139049
  0
LINE
  8
CutLine
  6
CONTINUOUS
 62
8
 10
891.302392
 20
318.969810
 11
912.557299
 21
351.380679
  0
LINE
  8
CutLine
  6
CONTINUOUS
 62
8
 10
909.796729
 20
352.139049
 11
889.340811
 21
320.994850
  0
LINE
  8
CutLine
  6
CONTINUOUS
 62
8
 10
323.819105
 20
268.366209
 11
293.139937
 21
267.772969
  0
LINE
  8
CutLine
  6
CONTINUOUS
 62
8
 10
293.541635
 20
264.572323
 11
323.850060
 21
265.169399
  0
LINE
  8
CutLine
  6
CONTINUOUS
 62
8
 10
293.139937
 20
267.772969
 11
265.140280
 21
265.546824
  0
LINE
  8
CutLine
  6
CONTINUOUS
 62
8
 10
265.140280
 20
265.546824
 11
265.541935
 21
262.346358
  0
LINE
  8
CutLine
  6
CONTINUOUS
 62
8
 10
265.541935
 20
262.346358
 11
293.541635
 21
264.572323
  0
LINE
  8
CutLine
  6
CONTINUOUS
 62
8
 10
416.684520
 20
265.546824
 11
384.778506
 21
265.740308
  0
LINE
  8
CutLine
  6
CONTINUOUS
 62
8
 10
385.179005
 20
262.539535
 11
416.776449
 21
262.347796
  0
LINE
  8
CutLine
  6
CONTINUOUS
 62
8
 10
384.778506
 20
265.740308
 11
346.920632
 21
267.270769
  0
LINE
  8
CutLine
  6
CONTINUOUS
 62
8
 10
347.320929
 20
264.069802
 11
385.179005
 21
262.539535
  0
LINE
  8
CutLine
  6
CONTINUOUS
 62
8
 10
346.920632
 20
267.270769
 11
323.819105
 21
268.366209
  0
LINE
  8
CutLine
  6
CONTINUOUS
 62
8
 10
323.850060
 20
265.169399
 11
347.320929
 21
264.069802
  0
LINE
  8
CutLine
  6
CONTINUOUS
 62
8
 10
564.193706
 20
277.293298
 11
534.453854
 21
272.987822
  0
LINE
  8
CutLine
  6
CONTINUOUS
 62
8
 10
534.854466
 20
269.787086
 11
564.594431
 21
274.092222
  0
LINE
  8
CutLine
  6
CONTINUOUS
 62
8
 10
534.453854
 20
272.987822
 11
497.540114
 21
269.161115
  0
LINE
  8
CutLine
  6
CONTINUOUS
 62
8
 10
497.940827
 20
265.960370
 11
534.854466
 21
269.787086
  0
LINE
  8
CutLine
  6
CONTINUOUS
 62
8
 10
497.540114
 20
269.161115
 11
449.774146
 21
265.353594
  0
LINE
  8
CutLine
  6
CONTINUOUS
 62
8
 10
450.174665
 20
262.152666
 11
497.940827
 21
265.960370
  0
LINE
  8
CutLine
  6
CONTINUOUS
 62
8
 10
449.774146
 20
265.353594
 11
416.684520
 21
265.546824
  0
LINE
  8
CutLine
  6
CONTINUOUS
 62
8
 10
416.776449
 20
262.347796
 11
450.174665
 21
262.152666
  0
LINE
  8
CutLine
  6
CONTINUOUS
 62
8
 10
597.649740
 20
278.242680
 11
564.193706
 21
277.293298
  0
LINE
  8
CutLine
  6
CONTINUOUS
 62
8
 10
564.594431
 20
274.092222
 11
598.050433
 21
275.041949
  0
LINE
  8
CutLine
  6
CONTINUOUS
 62
8
 10
628.623390
 20
279.822835
 11
597.649740
 21
278.242680
  0
LINE
  8
CutLine
  6
CONTINUOUS
 62
8
 10
598.050433
 20
275.041949
 11
629.024044
 21
276.621749
  0
LINE
  8
CutLine
  6
CONTINUOUS
 62
8
 10
651.531745
 20
283.437733
 11
628.623390
 21
279.822835
  0
LINE
  8
CutLine
  6
CONTINUOUS
 62
8
 10
629.024044
 20
276.621749
 11
651.932477
 21
280.236999
  0
LINE
  8
CutLine
  6
CONTINUOUS
 62
8
 10
674.035744
 20
288.686031
 11
651.531745
 21
283.437733
  0
LINE
  8
CutLine
  6
CONTINUOUS
 62
8
 10
651.932477
 20
280.236999
 11
674.436460
 21
285.485306
  0
LINE
  8
CutLine
  6
CONTINUOUS
 62
8
 10
703.920402
 20
296.280201
 11
674.035744
 21
288.686031
  0
LINE
  8
CutLine
  6
CONTINUOUS
 62
8
 10
674.436460
 20
285.485306
 11
704.320991
 21
293.079448
  0
LINE
  8
CutLine
  6
CONTINUOUS
 62
8
 10
737.279511
 20
305.287307
 11
703.920402
 21
296.280201
  0
LINE
  8
CutLine
  6
CONTINUOUS
 62
8
 10
704.320991
 20
293.079448
 11
737.679770
 21
302.086816
  0
LINE
  8
CutLine
  6
CONTINUOUS
 62
8
 10
776.261881
 20
316.734484
 11
737.279511
 21
305.287307
  0
LINE
  8
CutLine
  6
CONTINUOUS
 62
8
 10
737.679770
 20
302.086816
 11
776.662526
 21
313.533924
  0
LINE
  8
CutLine
  6
CONTINUOUS
 62
8
 10
840.176912
 20
337.530513
 11
810.017826
 21
327.482646
  0
LINE
  8
CutLine
  6
CONTINUOUS
 62
8
 10
810.418075
 20
324.281679
 11
840.577399
 21
334.329901
  0
LINE
  8
CutLine
  6
CONTINUOUS
 62
8
 10
810.017826
 20
327.482646
 11
776.261881
 21
316.734484
  0
LINE
  8
CutLine
  6
CONTINUOUS
 62
8
 10
776.662526
 20
313.533924
 11
810.418075
 21
324.281679
  0
LINE
  8
CutLine
  6
CONTINUOUS
 62
8
 10
840.577399
 20
334.329901
 11
840.176912
 21
337.530513
  0
LINE
  8
CutLine
  6
CONTINUOUS
 62
8
 10
437.890705
 20
246.297098
 11
437.895115
 21
215.982768
  0
LINE
  8
CutLine
  6
CONTINUOUS
 62
8
 10
441.103098
 20
215.644625
 11
441.087693
 21
246.329830
  0
LINE
  8
CutLine
  6
CONTINUOUS
 62
8
 10
437.895115
 20
215.982768
 11
436.224877
 21
187.944427
  0
LINE
  8
CutLine
  6
CONTINUOUS
 62
8
 10
436.224877
 20
187.944427
 11
439.432517
 21
187.606338
  0
LINE
  8
CutLine
  6
CONTINUOUS
 62
8
 10
439.432517
 20
187.606338
 11
441.103098
 21
215.644625
  0
LINE
  8
CutLine
  6
CONTINUOUS
 62
8
 10
433.228551
 20
339.149435
 11
434.046458
 21
307.562007
  0
LINE
  8
CutLine
  6
CONTINUOUS
 62
8
 10
437.254707
 20
307.225105
 11
436.428450
 21
339.120978
  0
LINE
  8
CutLine
  6
CONTINUOUS
 62
8
 10
434.046458
 20
307.562007
 11
436.325846
 21
269.741789
  0
LINE
  8
CutLine
  6
CONTINUOUS
 62
8
 10
439.534095
 20
269.404809
 11
437.254707
 21
307.225105
  0
LINE
  8
CutLine
  6
CONTINUOUS
 62
8
 10
436.325846
 20
269.741789
 11
437.890705
 21
246.297098
  0
LINE
  8
CutLine
  6
CONTINUOUS
 62
8
 10
441.087693
 20
246.329830
 11
439.534095
 21
269.404809
  0
LINE
  8
CutLine
  6
CONTINUOUS
 62
8
 10
442.040506
 20
487.171293
 11
438.325536
 21
457.351872
  0
LINE
  8
CutLine
  6
CONTINUOUS
 62
8
 10
441.533264
 20
457.014779
 11
445.248573
 21
486.834110
  0
LINE
  8
CutLine
  6
CONTINUOUS
 62
8
 10
438.325536
 20
457.351872
 11
435.231031
 21
420.369341
  0
LINE
  8
CutLine
  6
CONTINUOUS
 62
8
 10
435.231031
 20
420.369341
 11
432.370902
 21
372.537268
  0
LINE
  8
CutLine
  6
CONTINUOUS
 62
8
 10
435.579143
 20
372.200237
 11
438.439091
 21
420.032129
  0
LINE
  8
CutLine
  6
CONTINUOUS
 62
8
 10
438.439091
 20
420.032129
 11
441.533264
 21
457.014779
  0
LINE
  8
CutLine
  6
CONTINUOUS
 62
8
 10
432.370902
 20
372.537268
 11
433.228551
 21
339.149435
  0
LINE
  8
CutLine
  6
CONTINUOUS
 62
8
 10
436.428450
 20
339.120978
 11
435.579143
 21
372.200237
  0
LINE
  8
CutLine
  6
CONTINUOUS
 62
8
 10
442.326955
 20
520.639560
 11
442.040506
 21
487.171293
  0
LINE
  8
CutLine
  6
CONTINUOUS
 62
8
 10
445.248573
 20
486.834110
 11
445.534844
 21
520.302388
  0
LINE
  8
CutLine
  6
CONTINUOUS
 62
8
 10
443.292902
 20
551.638095
 11
442.326955
 21
520.639560
  0
LINE
  8
CutLine
  6
CONTINUOUS
 62
8
 10
445.534844
 20
520.302388
 11
446.501136
 21
551.300947
  0
LINE
  8
CutLine
  6
CONTINUOUS
 62
8
 10
446.453578
 20
574.613697
 11
443.292902
 21
551.638095
  0
LINE
  8
CutLine
  6
CONTINUOUS
 62
8
 10
446.501136
 20
551.300947
 11
449.661641
 21
574.276625
  0
LINE
  8
CutLine
  6
CONTINUOUS
 62
8
 10
451.254703
 20
597.217377
 11
446.453578
 21
574.613697
  0
LINE
  8
CutLine
  6
CONTINUOUS
 62
8
 10
449.661641
 20
574.276625
 11
454.462899
 21
596.880094
  0
LINE
  8
CutLine
  6
CONTINUOUS
 62
8
 10
451.903470
 20
600.000000
 11
451.254703
 21
597.217377
  0
LINE
  8
CutLine
  6
CONTINUOUS
 62
8
 10
454.462899
 20
596.880094
 11
455.190269
 21
600.000000
  0
LINE
  8
ValleyLine
  6
CONTINUOUS
 62
1
 10
1071.911852
 20
233.576514
 11
1072.586559
 21
230.998078
  0
LINE
  8
CutLine
  6
CONTINUOUS
 62
8
 10
1072.586559
 20
230.998078
 11
1088.285435
 21
230.772471
  0
LINE
  8
CutLine
  6
CONTINUOUS
 62
8
 10
1088.285435
 20
230.772471
 11
1071.911852
 21
233.576514
  0
LINE
  8
ValleyLine
  6
CONTINUOUS
 62
1
 10
1055.051437
 20
232.175426
 11
1056.751314
 21
229.334944
  0
LINE
  8
CutLine
  6
CONTINUOUS
 62
8
 10
1041.285535
 20
224.157232
 11
1056.751314
 21
229.334944
  0
LINE
  8
MountainLine
  6
CONTINUOUS
 62
5
 10
1039.651990
 20
229.452922
 11
1041.285535
 21
224.157232
  0
LINE
  8
CutLine
  6
CONTINUOUS
 62
8
 10
1036.304879
 20
230.061986
 11
1037.955436
 21
223.654464
  0
LINE
  8
CutLine
  6
CONTINUOUS
 62
8
 10
1037.955436
 20
223.654464
 11
1041.285535
 21
224.157232
  0
LINE
  8
CutLine
  6
CONTINUOUS
 62
8
 10
1039.651990
 20
229.452922
 11
1036.304879
 21
230.061986
  0
LINE
  8
CutLine
  6
CONTINUOUS
 62
8
 10
1055.051437
 20
232.175426
 11
1039.651990
 21
229.452922
  0
LINE
  8
CutLine
  6
CONTINUOUS
 62
8
 10
1071.911852
 20
233.576514
 11
1055.051437
 21
232.175426
  0
LINE
  8
CutLine
  6
CONTINUOUS
 62
8
 10
1056.751314
 20
229.334944
 11
1072.586559
 21
230.998078
  0
LINE
  8
CutLine
  6
CONTINUOUS
 62
8
 10
987.580031
 20
231.872518
 11
1004.113575
 21
231.873940
  0
LINE
  8
CutLine
  6
CONTINUOUS
 62
8
 10
986.751202
 20
234.321152
 11
971.206448
 21
234.676561
  0
LINE
  8
CutLine
  6
CONTINUOUS
 62
8
 10
1021.475947
 20
234.321232
 11
1004.113575
 21
234.001012
  0
LINE
  8
CutLine
  6
CONTINUOUS
 62
8
 10
1004.113575
 20
234.001012
 11
986.751202
 21
234.321152
  0
LINE
  8
CutLine
  6
CONTINUOUS
 62
8
 10
1004.113575
 20
231.873940
 11
1020.647279
 21
231.872478
  0
LINE
  8
CutLine
  6
CONTINUOUS
 62
8
 10
1037.020701
 20
234.676715
 11
1021.475947
 21
234.321232
  0
LINE
  8
CutLine
  6
CONTINUOUS
 62
8
 10
1020.647279
 20
231.872478
 11
1036.346074
 21
232.098170
  0
LINE
  8
ValleyLine
  6
CONTINUOUS
 62
1
 10
1036.346074
 20
232.098170
 11
1037.020701
 21
234.676715
  0
LINE
  8
CutLine
  6
CONTINUOUS
 62
8
 10
1053.881225
 20
233.277065
 11
1037.020701
 21
234.676715
  0
LINE
  8
CutLine
  6
CONTINUOUS
 62
8
 10
1036.346074
 20
232.098170
 11
1052.181476
 21
230.436511
  0
LINE
  8
ValleyLine
  6
CONTINUOUS
 62
1
 10
1052.181476
 20
230.436511
 11
1053.881225
 21
233.277065
  0
LINE
  8
MountainLine
  6
CONTINUOUS
 62
5
 10
1067.648262
 20
225.260801
 11
1069.281081
 21
230.556760
  0
LINE
  8
CutLine
  6
CONTINUOUS
 62
8
 10
1052.181476
 20
230.436511
 11
1067.648262
 21
225.260801
  0
LINE
  8
CutLine
  6
CONTINUOUS
 62
8
 10
1072.627983
 20
231.166344
 11
1069.281081
 21
230.556760
  0
LINE
  8
CutLine
  6
CONTINUOUS
 62
8
 10
1067.648262
 20
225.260801
 11
1070.978440
 21
224.758560
  0
LINE
  8
CutLine
  6
CONTINUOUS
 62
8
 10
1070.978440
 20
224.758560
 11
1072.627983
 21
231.166344
  0
LINE
  8
CutLine
  6
CONTINUOUS
 62
8
 10
1069.281081
 20
230.556760
 11
1053.881225
 21
233.277065
  0
LINE
  8
CutLine
  6
CONTINUOUS
 62
8
 10
971.206448
 20
234.676561
 11
987.580031
 21
231.872518
  0
LINE
  8
CutLine
  6
CONTINUOUS
 62
8
 10
369.067440
 20
510.729692
 11
366.185159
 21
511.011962
  0
LINE
  8
CutLine
  6
CONTINUOUS
 62
8
 10
369.428663
 20
500.891568
 11
369.067440
 21
510.729692
  0
LINE
  8
MountainLine
  6
CONTINUOUS
 62
5
 10
366.185159
 20
511.011962
 11
366.683611
 21
500.413753
  0
LINE
  8
CutLine
  6
CONTINUOUS
 62
8
 10
366.683611
 20
500.413753
 11
369.428663
 21
500.891568
  0
LINE
  8
CutLine
  6
CONTINUOUS
 62
8
 10
369.667330
 20
460.280169
 11
369.662913
 21
477.622603
  0
LINE
  8
CutLine
  6
CONTINUOUS
 62
8
 10
369.662913
 20
477.622603
 11
366.945152
 21
477.339761
  0
LINE
  8
MountainLine
  6
CONTINUOUS
 62
5
 10
366.945152
 20
477.339761
 11
366.945572
 21
460.232413
  0
LINE
  8
CutLine
  6
CONTINUOUS
 62
8
 10
366.945572
 20
460.232413
 11
369.667330
 21
460.280169
  0
LINE
  8
CutLine
  6
CONTINUOUS
 62
8
 10
366.945346
 20
443.125064
 11
369.663085
 21
442.842250
  0
LINE
  8
CutLine
  6
CONTINUOUS
 62
8
 10
369.663085
 20
442.842250
 11
369.667330
 21
460.184684
  0
LINE
  8
CutLine
  6
CONTINUOUS
 62
8
 10
369.667330
 20
460.184684
 11
366.945572
 21
460.232413
  0
LINE
  8
MountainLine
  6
CONTINUOUS
 62
5
 10
366.945572
 20
460.232413
 11
366.945346
 21
443.125064
  0
LINE
  8
CutLine
  6
CONTINUOUS
 62
8
 10
366.911774
 20
429.890262
 11
369.641941
 21
429.838996
  0
LINE
  8
CutLine
  6
CONTINUOUS
 62
8
 10
369.641941
 20
429.838996
 11
369.639733
 21
442.670787
  0
LINE
  8
MountainLine
  6
CONTINUOUS
 62
5
 10
366.945346
 20
443.125064
 11
366.911774
 21
429.890262
  0
LINE
  8
CutLine
  6
CONTINUOUS
 62
8
 10
369.639733
 20
442.670787
 11
366.945346
 21
443.125064
  0
LINE
  8
CutLine
  6
CONTINUOUS
 62
8
 10
366.684068
 20
420.050949
 11
369.470268
 21
420.077552
  0
LINE
  8
CutLine
  6
CONTINUOUS
 62
8
 10
369.470268
 20
420.077552
 11
369.551214
 21
429.190409
  0
LINE
  8
MountainLine
  6
CONTINUOUS
 62
5
 10
366.911774
 20
429.890262
 11
366.684068
 21
420.050949
  0
LINE
  8
CutLine
  6
CONTINUOUS
 62
8
 10
369.551214
 20
429.190409
 11
366.911774
 21
429.890262
  0
LINE
  8
MountainLine
  6
CONTINUOUS
 62
5
 10
366.684068
 20
420.050949
 11
366.185718
 21
409.452650
  0
LINE
  8
CutLine
  6
CONTINUOUS
 62
8
 10
369.068041
 20
409.735103
 11
369.429123
 21
419.573148
  0
LINE
  8
CutLine
  6
CONTINUOUS
 62
8
 10
366.185718
 20
409.452650
 11
369.068041
 21
409.735103
  0
LINE
  8
CutLine
  6
CONTINUOUS
 62
8
 10
369.429123
 20
419.573148
 11
366.684068
 21
420.050949
  0
LINE
  8
CutLine
  6
CONTINUOUS
 62
8
 10
345.056256
 20
428.716157
 11
342.829099
 21
416.481847
  0
LINE
  8
CutLine
  6
CONTINUOUS
 62
8
 10
349.641113
 20
412.576310
 11
350.757960
 21
422.052331
  0
LINE
  8
CutLine
  6
CONTINUOUS
 62
8
 10
342.828642
 20
503.982531
 11
345.055895
 21
491.748293
  0
LINE
  8
CutLine
  6
CONTINUOUS
 62
8
 10
341.338039
 20
476.791520
 11
351.455807
 21
475.877169
  0
LINE
  8
CutLine
  6
CONTINUOUS
 62
8
 10
351.187033
 20
488.786011
 11
344.891862
 21
491.381542
  0
LINE
  8
CutLine
  6
CONTINUOUS
 62
8
 10
330.049886
 20
478.985422
 11
341.338039
 21
476.791520
  0
LINE
  8
CutLine
  6
CONTINUOUS
 62
8
 10
344.891862
 20
491.381542
 11
334.060388
 21
494.213334
  0
LINE
  8
CutLine
  6
CONTINUOUS
 62
8
 10
341.324803
 20
476.630847
 11
329.867786
 21
477.616934
  0
LINE
  8
CutLine
  6
CONTINUOUS
 62
8
 10
328.401891
 20
460.882273
 11
340.771206
 21
460.349849
  0
LINE
  8
CutLine
  6
CONTINUOUS
 62
8
 10
340.771206
 20
460.349849
 11
351.418915
 21
460.232325
  0
LINE
  8
CutLine
  6
CONTINUOUS
 62
8
 10
351.455807
 20
475.877169
 11
341.324803
 21
476.630847
  0
LINE
  8
CutLine
  6
CONTINUOUS
 62
8
 10
351.418915
 20
460.232325
 11
340.771207
 21
460.114675
  0
LINE
  8
CutLine
  6
CONTINUOUS
 62
8
 10
329.867744
 20
442.847475
 11
341.325007
 21
443.833686
  0
LINE
  8
CutLine
  6
CONTINUOUS
 62
8
 10
340.771207
 20
460.114675
 11
328.401898
 21
459.582120
  0
LINE
  8
CutLine
  6
CONTINUOUS
 62
8
 10
341.325007
 20
443.833686
 11
351.455984
 21
444.587480
  0
LINE
  8
CutLine
  6
CONTINUOUS
 62
8
 10
344.892223
 20
429.082879
 11
351.187033
 21
431.678471
  0
LINE
  8
CutLine
  6
CONTINUOUS
 62
8
 10
351.455984
 20
444.587480
 11
341.338243
 21
443.673028
  0
LINE
  8
CutLine
  6
CONTINUOUS
 62
8
 10
330.049852
 20
441.479013
 11
334.060781
 21
426.251146
  0
LINE
  8
CutLine
  6
CONTINUOUS
 62
8
 10
334.060781
 20
426.251146
 11
344.892223
 21
429.082879
  0
LINE
  8
CutLine
  6
CONTINUOUS
 62
8
 10
341.338243
 20
443.673028
 11
330.049852
 21
441.479013
  0
LINE
  8
MountainLine
  6
CONTINUOUS
 62
5
 10
366.945152
 20
477.339761
 11
366.911430
 21
490.574403
  0
LINE
  8
CutLine
  6
CONTINUOUS
 62
8
 10
345.055895
 20
491.748293
 11
351.187033
 21
488.786011
  0
LINE
  8
MountainLine
  6
CONTINUOUS
 62
5
 10
366.911430
 20
490.574403
 11
366.683611
 21
500.413753
  0
LINE
  8
CutLine
  6
CONTINUOUS
 62
8
 10
366.185159
 20
511.011962
 11
349.794624
 21
507.905144
  0
LINE
  8
CutLine
  6
CONTINUOUS
 62
8
 10
351.187033
 20
431.678471
 11
345.056256
 21
428.716157
  0
LINE
  8
CutLine
  6
CONTINUOUS
 62
8
 10
349.795151
 20
412.559422
 11
366.185718
 21
409.452650
  0
LINE
  8
CutLine
  6
CONTINUOUS
 62
8
 10
349.794624
 20
507.905144
 11
350.757524
 21
498.412199
  0
LINE
  8
CutLine
  6
CONTINUOUS
 62
8
 10
350.757960
 20
422.052331
 11
349.795151
 21
412.559422
  0
LINE
  8
CutLine
  6
CONTINUOUS
 62
8
 10
350.757524
 20
498.412199
 11
349.640642
 21
507.888261
  0
LINE
  8
CutLine
  6
CONTINUOUS
 62
8
 10
369.639557
 20
477.794077
 11
369.641630
 21
490.625874
  0
LINE
  8
CutLine
  6
CONTINUOUS
 62
8
 10
366.945152
 20
477.339761
 11
369.639557
 21
477.794077
  0
LINE
  8
CutLine
  6
CONTINUOUS
 62
8
 10
369.641630
 20
490.625874
 11
366.911430
 21
490.574403
  0
LINE
  8
CutLine
  6
CONTINUOUS
 62
8
 10
366.911430
 20
490.574403
 11
369.550850
 21
491.274476
  0
LINE
  8
CutLine
  6
CONTINUOUS
 62
8
 10
369.550850
 20
491.274476
 11
369.469812
 21
500.387194
  0
LINE
  8
CutLine
  6
CONTINUOUS
 62
8
 10
369.469812
 20
500.387194
 11
366.683611
 21
500.413753
  0
LINE
  8
CutLine
  6
CONTINUOUS
 62
8
 10
342.829099
 20
416.481847
 11
349.641113
 21
412.576310
  0
LINE
  8
CutLine
  6
CONTINUOUS
 62
8
 10
328.401898
 20
459.582120
 11
329.867744
 21
442.847475
  0
LINE
  8
CutLine
  6
CONTINUOUS
 62
8
 10
329.867786
 20
477.616934
 11
328.401891
 21
460.882273
  0
LINE
  8
CutLine
  6
CONTINUOUS
 62
8
 10
334.060388
 20
494.213334
 11
330.049886
 21
478.985422
  0
LINE
  8
CutLine
  6
CONTINUOUS
 62
8
 10
349.640642
 20
507.888261
 11
342.828642
 21
503.982531
  0
LINE
  8
CutLine
  6
CONTINUOUS
 62
8
 10
125.665056
 20
182.752536
 11
127.270915
 21
171.672775
  0
LINE
  8
CutLine
  6
CONTINUOUS
 62
8
 10
127.270915
 20
171.672775
 11
135.934549
 21
180.593464
  0
LINE
  8
CutLine
  6
CONTINUOUS
 62
8
 10
59.480603
 20
170.292025
 11
60.634148
 21
181.427921
  0
LINE
  8
CutLine
  6
CONTINUOUS
 62
8
 10
50.460916
 20
178.852622
 11
59.480603
 21
170.292025
  0
LINE
  8
CutLine
  6
CONTINUOUS
 62
8
 10
137.800625
 20
188.102966
 11
125.790044
 21
190.367489
  0
LINE
  8
CutLine
  6
CONTINUOUS
 62
8
 10
109.923168
 20
183.160470
 11
125.665056
 21
182.752536
  0
LINE
  8
CutLine
  6
CONTINUOUS
 62
8
 10
125.790044
 20
190.367489
 11
110.604784
 21
191.085768
  0
LINE
  8
CutLine
  6
CONTINUOUS
 62
8
 10
60.199195
 20
189.031541
 11
48.290775
 21
186.279874
  0
LINE
  8
CutLine
  6
CONTINUOUS
 62
8
 10
43.279343
 20
175.677443
 11
50.460916
 21
178.852622
  0
LINE
  8
CutLine
  6
CONTINUOUS
 62
8
 10
48.290775
 20
186.279874
 11
39.191621
 21
181.737622
  0
LINE
  8
CutLine
  6
CONTINUOUS
 62
8
 10
75.342461
 20
190.367489
 11
60.199195
 21
189.031541
  0
LINE
  8
CutLine
  6
CONTINUOUS
 62
8
 10
60.634148
 20
181.427921
 11
76.346425
 21
182.476666
  0
LINE
  8
CutLine
  6
CONTINUOUS
 62
8
 10
92.970608
 20
190.878602
 11
75.342461
 21
190.367489
  0
LINE
  8
CutLine
  6
CONTINUOUS
 62
8
 10
76.346425
 20
182.476666
 11
93.124999
 21
183.299167
  0
LINE
  8
CutLine
  6
CONTINUOUS
 62
8
 10
93.124999
 20
183.299167
 11
109.923168
 21
183.160470
  0
LINE
  8
CutLine
  6
CONTINUOUS
 62
8
 10
110.604784
 20
191.085768
 11
92.970608
 21
190.878602
  0
LINE
  8
CutLine
  6
CONTINUOUS
 62
8
 10
135.934549
 20
180.593464
 11
143.239536
 21
177.713320
  0
LINE
  8
CutLine
  6
CONTINUOUS
 62
8
 10
147.077162
 20
183.934928
 11
137.800625
 21
188.102966
  0
LINE
  8
CutLine
  6
CONTINUOUS
 62
8
 10
163.964015
 20
172.535976
 11
162.131785
 21
174.909726
  0
LINE
  8
CutLine
  6
CONTINUOUS
 62
8
 10
159.850382
 20
167.353438
 11
163.964015
 21
172.535976
  0
LINE
  8
MountainLine
  6
CONTINUOUS
 62
5
 10
162.131785
 20
174.909726
 11
157.443509
 21
168.964085
  0
LINE
  8
CutLine
  6
CONTINUOUS
 62
8
 10
157.443509
 20
168.964085
 11
159.850382
 21
167.353438
  0
LINE
  8
CutLine
  6
CONTINUOUS
 62
8
 10
162.131785
 20
174.909726
 11
147.077162
 21
183.934928
  0
LINE
  8
CutLine
  6
CONTINUOUS
 62
8
 10
143.239536
 20
177.713320
 11
157.443509
 21
168.964085
  0
LINE
  8
CutLine
  6
CONTINUOUS
 62
8
 10
24.516868
 20
172.107022
 11
22.782810
 21
169.660506
  0
LINE
  8
CutLine
  6
CONTINUOUS
 62
8
 10
22.782810
 20
169.660506
 11
27.104040
 21
164.649753
  0
LINE
  8
CutLine
  6
CONTINUOUS
 62
8
 10
27.104040
 20
164.649753
 11
29.443301
 21
166.357215
  0
LINE
  8
MountainLine
  6
CONTINUOUS
 62
5
 10
29.443301
 20
166.357215
 11
24.516868
 21
172.107022
  0
LINE
  8
CutLine
  6
CONTINUOUS
 62
8
 10
39.191621
 20
181.737622
 11
24.516868
 21
172.107022
  0
LINE
  8
CutLine
  6
CONTINUOUS
 62
8
 10
29.443301
 20
166.357215
 11
43.279343
 21
175.677443
  0
LINE
  8
CutLine
  6
CONTINUOUS
 62
8
 10
1104.535811
 20
286.104011
 11
1121.402790
 21
286.439518
  0
LINE
  8
CutLine
  6
CONTINUOUS
 62
8
 10
1092.254945
 20
284.999068
 11
1104.535811
 21
286.104011
  0
LINE
  8
CutLine
  6
CONTINUOUS
 62
8
 10
1104.063600
 20
289.118408
 11
1091.286206
 21
287.938118
  0
LINE
  8
CutLine
  6
CONTINUOUS
 62
8
 10
1121.402790
 20
289.453869
 11
1104.063600
 21
289.118408
  0
LINE
  8
CutLine
  6
CONTINUOUS
 62
8
 10
1121.402790
 20
286.439518
 11
1138.269768
 21
286.104011
  0
LINE
  8
CutLine
  6
CONTINUOUS
 62
8
 10
1151.519376
 20
287.938091
 11
1138.741979
 21
289.118408
  0
LINE
  8
CutLine
  6
CONTINUOUS
 62
8
 10
1138.269768
 20
286.104011
 11
1150.550470
 21
284.999094
  0
LINE
  8
CutLine
  6
CONTINUOUS
 62
8
 10
1138.741979
 20
289.118408
 11
1121.402790
 21
289.453869
  0
LINE
  8
CutLine
  6
CONTINUOUS
 62
8
 10
1091.286206
 20
287.938118
 11
1082.760046
 21
284.720150
  0
LINE
  8
CutLine
  6
CONTINUOUS
 62
8
 10
1084.915862
 20
282.772997
 11
1092.254945
 21
284.999068
  0
LINE
  8
CutLine
  6
CONTINUOUS
 62
8
 10
1160.045392
 20
284.720134
 11
1151.519376
 21
287.938091
  0
LINE
  8
CutLine
  6
CONTINUOUS
 62
8
 10
1150.550470
 20
284.999094
 11
1157.889712
 21
282.772983
  0
LINE
  8
CutLine
  6
CONTINUOUS
 62
8
 10
1168.806965
 20
280.230814
 11
1160.045392
 21
284.720134
  0
LINE
  8
CutLine
  6
CONTINUOUS
 62
8
 10
1157.889712
 20
282.772983
 11
1168.806965
 21
280.230814
  0
LINE
  8
CutLine
  6
CONTINUOUS
 62
8
 10
1082.760046
 20
284.720150
 11
1073.998642
 21
280.230685
  0
LINE
  8
CutLine
  6
CONTINUOUS
 62
8
 10
1073.998642
 20
280.230685
 11
1084.915862
 21
282.772997
  0
LINE
  8
CutLine
  6
CONTINUOUS
 62
8
 10
1043.198387
 20
480.075421
 11
1043.648269
 21
522.277854
  0
LINE
  8
CutLine
  6
CONTINUOUS
 62
8
 10
1040.979997
 20
564.140866
 11
1039.567865
 21
522.367931
  0
LINE
  8
CutLine
  6
CONTINUOUS
 62
8
 10
1039.567865
 20
522.367931
 11
1039.135205
 21
480.573536
  0
LINE
  8
CutLine
  6
CONTINUOUS
 62
8
 10
1043.648269
 20
522.277854
 11
1045.061184
 21
564.459027
  0
LINE
  8
CutLine
  6
CONTINUOUS
 62
8
 10
1040.233280
 20
600.000000
 11
1040.979997
 21
564.140866
  0
LINE
  8
CutLine
  6
CONTINUOUS
 62
8
 10
1045.061184
 20
564.459027
 11
1044.329214
 21
600.000000
  0
LINE
  8
CutLine
  6
CONTINUOUS
 62
8
 10
1040.371683
 20
436.470152
 11
1043.198387
 21
480.075421
  0
LINE
  8
CutLine
  6
CONTINUOUS
 62
8
 10
1039.135205
 20
480.573536
 11
1036.313185
 21
437.193780
  0
LINE
  8
CutLine
  6
CONTINUOUS
 62
8
 10
1037.099182
 20
420.204622
 11
1040.371683
 21
436.470152
  0
LINE
  8
CutLine
  6
CONTINUOUS
 62
8
 10
1036.313185
 20
437.193780
 11
1033.791073
 21
421.010586
  0
LINE
  8
CutLine
  6
CONTINUOUS
 62
8
 10
1030.077705
 20
374.822875
 11
1037.099182
 21
420.204622
  0
LINE
  8
CutLine
  6
CONTINUOUS
 62
8
 10
1033.791073
 20
421.010586
 11
1026.431610
 21
376.014081
  0
LINE
  8
CutLine
  6
CONTINUOUS
 62
8
 10
1042.214359
 20
276.309438
 11
1037.227352
 21
307.325029
  0
LINE
  8
CutLine
  6
CONTINUOUS
 62
8
 10
1033.612098
 20
307.148685
 11
1038.940236
 21
274.944173
  0
LINE
  8
CutLine
  6
CONTINUOUS
 62
8
 10
1038.940236
 20
274.944173
 11
1054.784255
 21
228.149435
  0
LINE
  8
CutLine
  6
CONTINUOUS
 62
8
 10
1057.952541
 20
229.833792
 11
1042.214359
 21
276.309438
  0
LINE
  8
CutLine
  6
CONTINUOUS
 62
8
 10
1037.227352
 20
307.325029
 11
1030.077705
 21
374.822875
  0
LINE
  8
CutLine
  6
CONTINUOUS
 62
8
 10
1026.431610
 20
376.014081
 11
1033.612098
 21
307.148685
  0
LINE
  8
CutLine
  6
CONTINUOUS
 62
8
 10
1100.171115
 20
185.947077
 11
1081.194974
 21
199.568302
  0
LINE
  8
CutLine
  6
CONTINUOUS
 62
8
 10
1079.001507
 20
196.463873
 11
1098.437509
 21
182.514252
  0
LINE
  8
CutLine
  6
CONTINUOUS
 62
8
 10
1098.437509
 20
182.514252
 11
1118.025171
 21
171.688516
  0
LINE
  8
CutLine
  6
CONTINUOUS
 62
8
 10
1119.275736
 20
175.663766
 11
1100.171115
 21
185.947077
  0
LINE
  8
CutLine
  6
CONTINUOUS
 62
8
 10
1175.617054
 20
153.295751
 11
1174.656160
 21
158.719687
  0
LINE
  8
CutLine
  6
CONTINUOUS
 62
8
 10
1174.656160
 20
158.719687
 11
1119.275736
 21
175.663766
  0
LINE
  8
CutLine
  6
CONTINUOUS
 62
8
 10
1118.025171
 20
171.688516
 11
1175.617054
 21
153.295751
  0
LINE
  8
CutLine
  6
CONTINUOUS
 62
8
 10
1081.194974
 20
199.568302
 11
1057.952541
 21
229.833792
  0
LINE
  8
CutLine
  6
CONTINUOUS
 62
8
 10
1054.784255
 20
228.149435
 11
1079.001507
 21
196.463873
  0
LINE
  8
CutLine
  6
CONTINUOUS
 62
8
 10
992.211338
 20
187.950703
 11
994.255550
 21
188.504430
  0
LINE
  8
CutLine
  6
CONTINUOUS
 62
8
 10
993.662998
 20
191.363575
 11
991.617815
 21
190.809938
  0
LINE
  8
CutLine
  6
CONTINUOUS
 62
8
 10
941.506998
 20
180.489568
 11
992.211338
 21
187.950703
  0
LINE
  8
ValleyLine
  6
CONTINUOUS
 62
1
 10
991.617815
 20
190.809938
 11
940.936339
 21
182.212111
  0
LINE
  8
CutLine
  6
CONTINUOUS
 62
8
 10
940.936339
 20
182.212111
 11
941.506998
 21
180.489568
  0
LINE
  8
CutLine
  6
CONTINUOUS
 62
8
 10
994.255550
 20
188.504430
 11
993.662998
 21
191.363575
  0
LINE
  8
CutLine
  6
CONTINUOUS
 62
8
 10
993.198655
 20
192.220693
 11
940.936339
 21
182.212111
  0
LINE
  8
CutLine
  6
CONTINUOUS
 62
8
 10
991.617815
 20
190.809938
 11
993.198655
 21
192.220693
  0
LINE
  8
CutLine
  6
CONTINUOUS
 62
8
 10
902.627157
 20
184.920886
 11
905.125470
 21
183.286773
  0
LINE
  8
CutLine
  6
CONTINUOUS
 62
8
 10
905.125470
 20
183.286773
 11
926.286605
 21
252.162694
  0
LINE
  8
CutLine
  6
CONTINUOUS
 62
8
 10
923.395865
 20
252.518170
 11
902.627157
 21
184.920886
  0
LINE
  8
CutLine
  6
CONTINUOUS
 62
8
 10
926.286605
 20
252.162694
 11
927.796034
 21
288.699355
  0
LINE
  8
CutLine
  6
CONTINUOUS
 62
8
 10
796.277459
 20
397.830762
 11
794.202857
 21
398.256970
  0
LINE
  8
CutLine
  6
CONTINUOUS
 62
8
 10
794.202857
 20
398.256970
 11
793.787568
 21
395.366814
  0
LINE
  8
CutLine
  6
CONTINUOUS
 62
8
 10
793.787568
 20
395.366814
 11
795.863091
 21
394.940674
  0
LINE
  8
CutLine
  6
CONTINUOUS
 62
8
 10
847.839358
 20
390.954461
 11
796.277459
 21
397.830762
  0
LINE
  8
CutLine
  6
CONTINUOUS
 62
8
 10
795.863091
 20
394.940674
 11
846.881665
 21
388.060001
  0
LINE
  8
CutLine
  6
CONTINUOUS
 62
8
 10
846.881665
 20
388.060001
 11
868.928901
 21
375.478718
  0
LINE
  8
CutLine
  6
CONTINUOUS
 62
8
 10
869.094753
 20
378.903381
 11
847.839358
 21
390.954461
  0
LINE
  8
CutLine
  6
CONTINUOUS
 62
8
 10
868.928901
 20
375.478718
 11
886.267020
 21
360.677708
  0
LINE
  8
CutLine
  6
CONTINUOUS
 62
8
 10
887.920547
 20
362.979685
 11
869.094753
 21
378.903381
  0
LINE
  8
CutLine
  6
CONTINUOUS
 62
8
 10
911.968896
 20
331.029940
 11
887.920547
 21
362.979685
  0
LINE
  8
CutLine
  6
CONTINUOUS
 62
8
 10
886.267020
 20
360.677708
 11
909.406236
 21
329.963570
  0
LINE
  8
CutLine
  6
CONTINUOUS
 62
8
 10
909.406236
 20
329.963570
 11
924.953398
 21
288.185983
  0
LINE
  8
CutLine
  6
CONTINUOUS
 62
8
 10
927.796034
 20
288.699355
 11
911.968896
 21
331.029940
  0
LINE
  8
CutLine
  6
CONTINUOUS
 62
8
 10
924.953398
 20
288.185983
 11
923.395865
 21
252.518170
  0
LINE
  8
CutLine
  6
CONTINUOUS
 62
8
 10
942.552942
 20
370.026152
 11
921.295314
 21
320.601921
  0
LINE
  8
CutLine
  6
CONTINUOUS
 62
8
 10
925.204866
 20
318.759826
 11
946.498402
 21
368.465973
  0
LINE
  8
CutLine
  6
CONTINUOUS
 62
8
 10
946.498402
 20
368.465973
 11
954.967112
 21
396.914459
  0
LINE
  8
CutLine
  6
CONTINUOUS
 62
8
 10
951.056466
 20
398.442891
 11
942.552942
 21
370.026152
  0
LINE
  8
CutLine
  6
CONTINUOUS
 62
8
 10
968.510320
 20
465.997714
 11
951.056466
 21
398.442891
  0
LINE
  8
CutLine
  6
CONTINUOUS
 62
8
 10
954.967112
 20
396.914459
 11
972.627625
 21
464.756235
  0
LINE
  8
CutLine
  6
CONTINUOUS
 62
8
 10
895.307692
 20
268.928524
 11
882.736399
 21
243.894172
  0
LINE
  8
CutLine
  6
CONTINUOUS
 62
8
 10
886.741138
 20
241.638528
 11
897.712563
 21
263.790268
  0
LINE
  8
CutLine
  6
CONTINUOUS
 62
8
 10
882.736399
 20
243.894172
 11
854.818567
 21
192.246236
  0
LINE
  8
CutLine
  6
CONTINUOUS
 62
8
 10
903.877574
 20
286.536438
 11
895.307692
 21
268.928524
  0
LINE
  8
CutLine
  6
CONTINUOUS
 62
8
 10
897.712563
 20
263.790268
 11
907.806752
 21
284.528992
  0
LINE
  8
CutLine
  6
CONTINUOUS
 62
8
 10
921.295314
 20
320.601921
 11
903.877574
 21
286.536438
  0
LINE
  8
CutLine
  6
CONTINUOUS
 62
8
 10
907.806752
 20
284.528992
 11
925.204866
 21
318.759826
  0
LINE
  8
CutLine
  6
CONTINUOUS
 62
8
 10
854.818567
 20
192.246236
 11
855.215816
 21
182.268054
  0
LINE
  8
CutLine
  6
CONTINUOUS
 62
8
 10
855.215816
 20
182.268054
 11
886.741138
 21
241.638528
  0
LINE
  8
CutLine
  6
CONTINUOUS
 62
8
 10
976.733927
 20
526.953865
 11
974.881595
 21
509.442068
  0
LINE
  8
CutLine
  6
CONTINUOUS
 62
8
 10
979.008834
 20
509.599370
 11
980.870543
 21
527.758973
  0
LINE
  8
CutLine
  6
CONTINUOUS
 62
8
 10
962.969874
 20
573.677806
 11
976.733927
 21
526.953865
  0
LINE
  8
CutLine
  6
CONTINUOUS
 62
8
 10
980.870543
 20
527.758973
 11
966.530050
 21
575.764114
  0
LINE
  8
CutLine
  6
CONTINUOUS
 62
8
 10
948.969844
 20
600.000000
 11
962.969874
 21
573.677806
  0
LINE
  8
CutLine
  6
CONTINUOUS
 62
8
 10
966.530050
 20
575.764114
 11
953.618128
 21
600.000000
  0
LINE
  8
CutLine
  6
CONTINUOUS
 62
8
 10
974.881595
 20
509.442068
 11
968.510320
 21
465.997714
  0
LINE
  8
CutLine
  6
CONTINUOUS
 62
8
 10
972.627625
 20
464.756235
 11
979.008834
 21
509.599370
  0
LINE
  8
CutLine
  6
CONTINUOUS
 62
8
 10
974.985822
 20
230.153865
 11
973.887462
 21
232.960612
  0
LINE
  8
CutLine
  6
CONTINUOUS
 62
8
 10
969.764387
 20
228.399474
 11
974.985822
 21
230.153865
  0
LINE
  8
CutLine
  6
CONTINUOUS
 62
8
 10
968.705735
 20
231.201436
 11
969.764387
 21
228.399474
  0
LINE
  8
ValleyLine
  6
CONTINUOUS
 62
1
 10
974.055433
 20
253.274998
 11
969.764387
 21
262.097435
  0
LINE
  8
CutLine
  6
CONTINUOUS
 62
8
 10
969.764387
 20
262.097435
 11
968.705735
 21
231.201436
  0
LINE
  8
CutLine
  6
CONTINUOUS
 62
8
 10
973.887462
 20
232.960612
 11
974.055433
 21
253.274998
  0
LINE
  8
CutLine
  6
CONTINUOUS
 62
8
 10
971.188730
 20
262.932945
 11
969.764387
 21
262.097435
  0
LINE
  8
CutLine
  6
CONTINUOUS
 62
8
 10
975.762476
 20
254.056151
 11
971.188730
 21
262.932945
  0
LINE
  8
CutLine
  6
CONTINUOUS
 62
8
 10
974.055433
 20
253.274998
 11
975.762476
 21
254.056151
  0
LINE
  8
CutLine
  6
CONTINUOUS
 62
8
 10
1085.507632
 20
244.866893
 11
1090.652438
 21
242.898805
  0
LINE
  8
CutLine
  6
CONTINUOUS
 62
8
 10
1090.652438
 20
242.898805
 11
1091.825447
 21
245.654454
  0
LINE
  8
CutLine
  6
CONTINUOUS
 62
8
 10
1086.720728
 20
247.625991
 11
1085.507632
 21
244.866893
  0
LINE
  8
ValleyLine
  6
CONTINUOUS
 62
1
 10
1087.390279
 20
267.930024
 11
1092.041141
 21
276.568127
  0
LINE
  8
CutLine
  6
CONTINUOUS
 62
8
 10
1092.041141
 20
276.568127
 11
1090.652438
 21
277.461628
  0
LINE
  8
CutLine
  6
CONTINUOUS
 62
8
 10
1085.716664
 20
268.780611
 11
1087.390279
 21
267.930024
  0
LINE
  8
CutLine
  6
CONTINUOUS
 62
8
 10
1090.652438
 20
277.461628
 11
1085.716664
 21
268.780611
  0
LINE
  8
CutLine
  6
CONTINUOUS
 62
8
 10
1091.825447
 20
245.654454
 11
1092.041141
 21
276.568127
  0
LINE
  8
CutLine
  6
CONTINUOUS
 62
8
 10
1087.390279
 20
267.930024
 11
1086.720728
 21
247.625991
  0
LINE
  8
CutLine
  6
CONTINUOUS
 62
8
 10
494.018478
 20
504.933721
 11
492.414161
 21
463.281117
  0
LINE
  8
CutLine
  6
CONTINUOUS
 62
8
 10
495.321339
 20
463.281117
 11
496.862927
 21
504.470746
  0
LINE
  8
CutLine
  6
CONTINUOUS
 62
8
 10
502.714203
 20
537.308875
 11
494.018478
 21
504.933721
  0
LINE
  8
CutLine
  6
CONTINUOUS
 62
8
 10
496.862927
 20
504.470746
 11
505.371249
 21
536.024676
  0
LINE
  8
CutLine
  6
CONTINUOUS
 62
8
 10
508.635171
 20
548.324758
 11
502.714203
 21
537.308875
  0
LINE
  8
CutLine
  6
CONTINUOUS
 62
8
 10
505.371249
 20
536.024676
 11
511.149364
 21
546.737883
  0
LINE
  8
CutLine
  6
CONTINUOUS
 62
8
 10
532.110357
 20
588.224238
 11
508.635171
 21
548.324758
  0
LINE
  8
CutLine
  6
CONTINUOUS
 62
8
 10
511.149364
 20
546.737883
 11
534.138755
 21
586.033802
  0
LINE
  8
CutLine
  6
CONTINUOUS
 62
8
 10
534.138755
 20
586.033802
 11
532.110357
 21
588.224238
  0
LINE
  8
CutLine
  6
CONTINUOUS
 62
8
 10
496.862927
 20
422.091326
 11
495.321339
 21
463.281117
  0
LINE
  8
CutLine
  6
CONTINUOUS
 62
8
 10
505.371227
 20
390.537236
 11
496.862927
 21
422.091326
  0
LINE
  8
CutLine
  6
CONTINUOUS
 62
8
 10
494.018417
 20
421.628352
 11
502.714202
 21
389.253197
  0
LINE
  8
CutLine
  6
CONTINUOUS
 62
8
 10
492.414161
 20
463.281117
 11
494.018417
 21
421.628352
  0
LINE
  8
CutLine
  6
CONTINUOUS
 62
8
 10
511.149339
 20
379.824168
 11
505.371227
 21
390.537236
  0
LINE
  8
CutLine
  6
CONTINUOUS
 62
8
 10
532.110234
 20
338.337764
 11
534.138672
 21
340.528045
  0
LINE
  8
CutLine
  6
CONTINUOUS
 62
8
 10
534.138672
 20
340.528045
 11
511.149339
 21
379.824168
  0
LINE
  8
CutLine
  6
CONTINUOUS
 62
8
 10
508.635182
 20
378.237301
 11
532.110234
 21
338.337764
  0
LINE
  8
CutLine
  6
CONTINUOUS
 62
8
 10
502.714202
 20
389.253197
 11
508.635182
 21
378.237301
  0
LINE
  8
CutLine
  6
CONTINUOUS
 62
8
 10
1006.264817
 20
244.319320
 11
1004.451790
 21
244.300834
  0
LINE
  8
CutLine
  6
CONTINUOUS
 62
8
 10
1015.446876
 20
193.891078
 11
1006.264817
 21
244.319320
  0
LINE
  8
CutLine
  6
CONTINUOUS
 62
8
 10
1004.451790
 20
244.300834
 11
1012.549992
 21
193.525663
  0
LINE
  8
CutLine
  6
CONTINUOUS
 62
8
 10
1012.549992
 20
193.525663
 11
1015.446876
 21
193.891078
  0
LINE
  8
CutLine
  6
CONTINUOUS
 62
8
 10
1088.065072
 20
262.249374
 11
1090.727010
 21
263.222278
  0
LINE
  8
CutLine
  6
CONTINUOUS
 62
8
 10
1090.727010
 20
263.222278
 11
1081.138888
 21
283.903791
  0
LINE
  8
CutLine
  6
CONTINUOUS
 62
8
 10
1077.796503
 20
284.665277
 11
1088.065072
 21
262.249374
  0
LINE
  8
CutLine
  6
CONTINUOUS
 62
8
 10
1081.138888
 20
283.903791
 11
1074.970327
 21
308.516256
  0
LINE
  8
CutLine
  6
CONTINUOUS
 62
8
 10
1071.924261
 20
308.373123
 11
1077.796503
 21
284.665277
  0
LINE
  8
CutLine
  6
CONTINUOUS
 62
8
 10
1079.166385
 20
359.888486
 11
1071.924261
 21
308.373123
  0
LINE
  8
CutLine
  6
CONTINUOUS
 62
8
 10
1074.970327
 20
308.516256
 11
1082.061596
 21
359.509566
  0
LINE
  8
CutLine
  6
CONTINUOUS
 62
8
 10
1082.061596
 20
359.509566
 11
1079.166385
 21
359.888486
  0
LINE
  8
CutLine
  6
CONTINUOUS
 62
8
 10
184.274390
 20
334.760354
 11
189.259310
 21
298.533891
  0
LINE
  8
CutLine
  6
CONTINUOUS
 62
8
 10
189.259310
 20
298.533891
 11
216.888646
 21
231.988477
  0
LINE
  8
CutLine
  6
CONTINUOUS
 62
8
 10
219.219985
 20
233.853220
 11
192.102849
 21
299.163259
  0
LINE
  8
CutLine
  6
CONTINUOUS
 62
8
 10
192.102849
 20
299.163259
 11
187.152857
 21
334.520263
  0
LINE
  8
CutLine
  6
CONTINUOUS
 62
8
 10
187.152857
 20
334.520263
 11
198.647372
 21
377.589451
  0
LINE
  8
CutLine
  6
CONTINUOUS
 62
8
 10
195.994901
 20
378.406722
 11
184.274390
 21
334.760354
  0
LINE
  8
CutLine
  6
CONTINUOUS
 62
8
 10
216.888646
 20
412.503040
 11
195.994901
 21
378.406722
  0
LINE
  8
CutLine
  6
CONTINUOUS
 62
8
 10
198.647372
 20
377.589451
 11
218.753898
 21
410.369196
  0
LINE
  8
CutLine
  6
CONTINUOUS
 62
8
 10
216.888646
 20
231.988477
 11
219.219985
 21
233.853220
  0
LINE
  8
CutLine
  6
CONTINUOUS
 62
8
 10
218.753898
 20
410.369196
 11
216.888646
 21
412.503040
  0
LINE
  8
CutLine
  6
CONTINUOUS
 62
8
 10
694.028382
 20
494.352982
 11
678.243234
 21
476.672625
  0
LINE
  8
CutLine
  6
CONTINUOUS
 62
8
 10
678.746604
 20
475.280094
 11
695.118003
 21
493.042629
  0
LINE
  8
CutLine
  6
CONTINUOUS
 62
8
 10
678.243234
 20
476.672625
 11
657.835434
 21
461.669479
  0
LINE
  8
CutLine
  6
CONTINUOUS
 62
8
 10
730.595220
 20
569.799557
 11
716.671068
 21
528.133506
  0
LINE
  8
CutLine
  6
CONTINUOUS
 62
8
 10
717.959132
 20
527.127731
 11
732.046968
 21
569.653409
  0
LINE
  8
CutLine
  6
CONTINUOUS
 62
8
 10
716.671068
 20
528.133506
 11
694.028382
 21
494.352982
  0
LINE
  8
CutLine
  6
CONTINUOUS
 62
8
 10
695.118003
 20
493.042629
 11
717.959132
 21
527.127731
  0
LINE
  8
CutLine
  6
CONTINUOUS
 62
8
 10
657.698000
 20
459.168557
 11
678.746604
 21
475.280094
  0
LINE
  8
CutLine
  6
CONTINUOUS
 62
8
 10
657.835434
 20
461.669479
 11
596.888416
 21
446.522861
  0
LINE
  8
CutLine
  6
CONTINUOUS
 62
8
 10
596.888416
 20
446.522861
 11
657.698000
 21
459.168557
  0
LINE
  8
CutLine
  6
CONTINUOUS
 62
8
 10
728.621011
 20
600.000000
 11
730.595220
 21
569.799557
  0
LINE
  8
CutLine
  6
CONTINUOUS
 62
8
 10
732.046968
 20
569.653409
 11
730.030190
 21
600.000000
  0
ENDSEC
  0
EOF
