  0
SECTION
  2
HEADER
  9
$ACADVER
  1
AC1009
  0
ENDSEC
  0
SECTION
  2
BLOCKS
  0
ENDSEC
  0
SECTION
  2
ENTITIES
  0
LINE
  8
CutLine
  6
CONTINUOUS
 62
8
 10
48.998929
 20
139.991142
 11
48.999465
 21
175.187541
  0
LINE
  8
CutLine
  6
CONTINUOUS
 62
8
 10
30.663137
 20
178.591176
 11
30.281244
 21
139.992974
  0
LINE
  8
CutLine
  6
CONTINUOUS
 62
8
 10
30.281244
 20
139.992974
 11
30.611244
 21
101.394757
  0
LINE
  8
CutLine
  6
CONTINUOUS
 62
8
 10
48.930492
 20
104.794576
 11
48.998929
 21
139.991142
  0
LINE
  8
CutLine
  6
CONTINUOUS
 62
8
 10
30.611244
 20
101.394757
 11
48.930492
 21
104.794576
  0
LINE
  8
CutLine
  6
CONTINUOUS
 62
8
 10
48.999465
 20
175.187541
 11
30.663137
 21
178.591176
  0
LINE
  8
CutLine
  6
CONTINUOUS
 62
8
 10
183.553963
 20
0.000000
 11
221.787129
 21
15.130589
  0
LINE
  8
CutLine
  6
CONTINUOUS
 62
8
 10
221.740067
 20
17.944341
 11
181.729123
 21
2.142856
  0
LINE
  8
CutLine
  6
CONTINUOUS
 62
8
 10
308.043503
 20
22.487737
 11
266.508527
 21
26.850261
  0
LINE
  8
CutLine
  6
CONTINUOUS
 62
8
 10
266.508527
 20
26.850261
 11
234.680868
 21
22.510566
  0
LINE
  8
CutLine
  6
CONTINUOUS
 62
8
 10
234.981876
 20
19.722712
 11
266.508523
 21
23.968554
  0
LINE
  8
CutLine
  6
CONTINUOUS
 62
8
 10
266.508523
 20
23.968554
 11
307.645993
 21
19.661479
  0
LINE
  8
CutLine
  6
CONTINUOUS
 62
8
 10
221.787129
 20
15.130589
 11
234.981876
 21
19.722712
  0
LINE
  8
CutLine
  6
CONTINUOUS
 62
8
 10
234.680868
 20
22.510566
 11
221.740067
 21
17.944341
  0
LINE
  8
CutLine
  6
CONTINUOUS
 62
8
 10
307.645993
 20
19.661479
 11
348.375375
 21
12.454089
  0
LINE
  8
CutLine
  6
CONTINUOUS
 62
8
 10
349.170263
 20
15.223996
 11
308.043503
 21
22.487737
  0
LINE
  8
CutLine
  6
CONTINUOUS
 62
8
 10
348.375375
 20
12.454089
 11
376.770509
 21
0.000000
  0
LINE
  8
CutLine
  6
CONTINUOUS
 62
8
 10
378.566090
 20
2.273285
 11
349.170263
 21
15.223996
  0
LINE
  8
CutLine
  6
CONTINUOUS
 62
8
 10
381.759383
 20
0.000000
 11
378.566090
 21
2.273285
  0
LINE
  8
CutLine
  6
CONTINUOUS
 62
8
 10
181.729123
 20
2.142856
 11
180.097938
 21
0.000000
  0
LINE
  8
CutLine
  6
CONTINUOUS
 62
8
 10
407.629515
 20
213.457522
 11
401.909984
 21
212.209309
  0
LINE
  8
CutLine
  6
CONTINUOUS
 62
8
 10
401.909984
 20
212.209309
 11
414.463797
 21
153.483757
  0
LINE
  8
CutLine
  6
CONTINUOUS
 62
8
 10
432.662971
 20
95.930938
 11
419.516425
 21
154.559993
  0
LINE
  8
CutLine
  6
CONTINUOUS
 62
8
 10
419.516425
 20
154.559993
 11
407.629515
 21
213.457522
  0
LINE
  8
CutLine
  6
CONTINUOUS
 62
8
 10
414.463797
 20
153.483757
 11
426.937262
 21
94.741087
  0
LINE
  8
CutLine
  6
CONTINUOUS
 62
8
 10
426.937262
 20
94.741087
 11
432.662971
 21
95.930938
  0
LINE
  8
CutLine
  6
CONTINUOUS
 62
8
 10
718.588776
 20
1.619138
 11
715.669669
 21
0.000000
  0
LINE
  8
CutLine
  6
CONTINUOUS
 62
8
 10
784.708732
 20
0.000000
 11
781.270093
 21
1.392647
  0
LINE
  8
CutLine
  6
CONTINUOUS
 62
8
 10
781.270093
 20
1.392647
 11
757.189974
 21
5.783343
  0
LINE
  8
CutLine
  6
CONTINUOUS
 62
8
 10
756.604769
 20
2.980603
 11
774.530685
 21
0.000000
  0
LINE
  8
CutLine
  6
CONTINUOUS
 62
8
 10
729.166010
 20
0.000000
 11
756.604769
 21
2.980603
  0
LINE
  8
CutLine
  6
CONTINUOUS
 62
8
 10
757.189974
 20
5.783343
 11
718.588776
 21
1.619138
  0
LINE
  8
CutLine
  6
CONTINUOUS
 62
8
 10
458.255954
 20
27.246397
 11
451.903470
 21
0.000000
  0
LINE
  8
CutLine
  6
CONTINUOUS
 62
8
 10
455.190269
 20
0.000000
 11
461.463857
 21
26.909287
  0
LINE
  8
CutLine
  6
CONTINUOUS
 62
8
 10
496.804659
 20
164.291666
 11
487.354673
 21
133.939829
  0
LINE
  8
CutLine
  6
CONTINUOUS
 62
8
 10
487.354673
 20
133.939829
 11
477.276442
 21
99.978114
  0
LINE
  8
CutLine
  6
CONTINUOUS
 62
8
 10
480.484302
 20
99.640835
 11
490.562894
 21
133.602658
  0
LINE
  8
CutLine
  6
CONTINUOUS
 62
8
 10
490.562894
 20
133.602658
 11
500.012403
 21
163.954567
  0
LINE
  8
CutLine
  6
CONTINUOUS
 62
8
 10
477.276442
 20
99.978114
 11
466.601812
 21
60.776778
  0
LINE
  8
CutLine
  6
CONTINUOUS
 62
8
 10
469.809746
 20
60.439824
 11
480.484302
 21
99.640835
  0
LINE
  8
CutLine
  6
CONTINUOUS
 62
8
 10
466.601812
 20
60.776778
 11
458.255954
 21
27.246397
  0
LINE
  8
CutLine
  6
CONTINUOUS
 62
8
 10
461.463857
 20
26.909287
 11
469.809746
 21
60.439824
  0
LINE
  8
CutLine
  6
CONTINUOUS
 62
8
 10
500.012403
 20
163.954567
 11
496.804659
 21
164.291666
  0
LINE
  8
CutLine
  6
CONTINUOUS
 62
8
 10
145.193313
 20
241.528215
 11
190.317391
 21
241.144231
  0
LINE
  8
CutLine
  6
CONTINUOUS
 62
8
 10
173.008593
 20
273.843152
 11
157.901967
 21
270.161363
  0
LINE
  8
CutLine
  6
CONTINUOUS
 62
8
 10
190.317549
 20
275.241211
 11
173.008593
 21
273.843152
  0
LINE
  8
CutLine
  6
CONTINUOUS
 62
8
 10
147.230042
 20
257.033291
 11
145.193313
 21
241.528215
  0
LINE
  8
CutLine
  6
CONTINUOUS
 62
8
 10
157.901967
 20
270.161363
 11
147.230042
 21
257.033291
  0
LINE
  8
CutLine
  6
CONTINUOUS
 62
8
 10
222.733131
 20
270.161373
 11
207.626504
 21
273.843158
  0
LINE
  8
CutLine
  6
CONTINUOUS
 62
8
 10
207.626504
 20
273.843158
 11
190.317549
 21
275.241211
  0
LINE
  8
CutLine
  6
CONTINUOUS
 62
8
 10
190.317391
 20
241.144231
 11
235.441631
 21
241.528215
  0
LINE
  8
CutLine
  6
CONTINUOUS
 62
8
 10
233.405060
 20
257.033290
 11
222.733131
 21
270.161373
  0
LINE
  8
CutLine
  6
CONTINUOUS
 62
8
 10
235.441631
 20
241.528215
 11
233.405060
 21
257.033290
  0
LINE
  8
ValleyLine
  6
CONTINUOUS
 62
1
 10
84.816625
 20
149.676395
 11
72.133323
 21
146.992756
  0
LINE
  8
CutLine
  6
CONTINUOUS
 62
8
 10
72.133323
 20
146.992756
 11
73.903768
 21
139.701310
  0
LINE
  8
CutLine
  6
CONTINUOUS
 62
8
 10
73.903768
 20
139.701310
 11
85.895980
 21
139.099320
  0
LINE
  8
CutLine
  6
CONTINUOUS
 62
8
 10
85.895980
 20
139.099320
 11
101.303308
 21
138.948784
  0
LINE
  8
ValleyLine
  6
CONTINUOUS
 62
1
 10
101.303308
 20
150.590121
 11
84.816625
 21
149.676395
  0
LINE
  8
CutLine
  6
CONTINUOUS
 62
8
 10
83.087973
 20
160.757659
 11
67.976643
 21
156.496987
  0
LINE
  8
CutLine
  6
CONTINUOUS
 62
8
 10
67.976643
 20
156.496987
 11
72.133323
 21
146.992756
  0
LINE
  8
CutLine
  6
CONTINUOUS
 62
8
 10
84.816625
 20
149.676395
 11
83.087973
 21
160.757659
  0
LINE
  8
CutLine
  6
CONTINUOUS
 62
8
 10
84.376457
 20
160.883040
 11
84.816625
 21
149.676395
  0
LINE
  8
CutLine
  6
CONTINUOUS
 62
8
 10
100.846458
 20
162.331191
 11
84.376457
 21
160.883040
  0
LINE
  8
CutLine
  6
CONTINUOUS
 62
8
 10
101.303308
 20
150.590121
 11
100.846458
 21
162.331191
  0
LINE
  8
CutLine
  6
CONTINUOUS
 62
8
 10
116.710315
 20
139.098884
 11
128.702538
 21
139.700530
  0
LINE
  8
ValleyLine
  6
CONTINUOUS
 62
1
 10
117.790286
 20
149.676261
 11
101.303308
 21
150.590121
  0
LINE
  8
CutLine
  6
CONTINUOUS
 62
8
 10
101.303308
 20
138.948784
 11
116.710315
 21
139.098884
  0
LINE
  8
CutLine
  6
CONTINUOUS
 62
8
 10
128.702538
 20
139.700530
 11
130.473353
 21
146.992269
  0
LINE
  8
ValleyLine
  6
CONTINUOUS
 62
1
 10
130.473353
 20
146.992269
 11
117.790286
 21
149.676261
  0
LINE
  8
CutLine
  6
CONTINUOUS
 62
8
 10
119.519128
 20
160.757242
 11
117.790286
 21
149.676261
  0
LINE
  8
CutLine
  6
CONTINUOUS
 62
8
 10
130.473353
 20
146.992269
 11
134.630302
 21
156.496311
  0
LINE
  8
CutLine
  6
CONTINUOUS
 62
8
 10
134.630302
 20
156.496311
 11
119.519128
 21
160.757242
  0
LINE
  8
CutLine
  6
CONTINUOUS
 62
8
 10
118.230528
 20
160.882653
 11
101.760399
 21
162.331181
  0
LINE
  8
CutLine
  6
CONTINUOUS
 62
8
 10
101.760399
 20
162.331181
 11
101.303308
 21
150.590121
  0
LINE
  8
CutLine
  6
CONTINUOUS
 62
8
 10
117.790286
 20
149.676261
 11
118.230528
 21
160.882653
  0
LINE
  8
CutLine
  6
CONTINUOUS
 62
8
 10
108.637863
 20
204.922987
 11
92.515965
 21
209.892083
  0
LINE
  8
CutLine
  6
CONTINUOUS
 62
8
 10
102.674417
 20
190.552643
 11
114.066693
 21
186.759019
  0
LINE
  8
CutLine
  6
CONTINUOUS
 62
8
 10
120.410773
 20
201.257597
 11
108.637863
 21
204.922987
  0
LINE
  8
CutLine
  6
CONTINUOUS
 62
8
 10
114.066693
 20
186.759019
 11
114.063168
 21
179.255709
  0
LINE
  8
CutLine
  6
CONTINUOUS
 62
8
 10
114.063168
 20
179.255709
 11
121.934063
 21
184.022054
  0
LINE
  8
CutLine
  6
CONTINUOUS
 62
8
 10
127.704988
 20
198.888110
 11
120.410773
 21
201.257597
  0
LINE
  8
CutLine
  6
CONTINUOUS
 62
8
 10
131.942931
 20
180.209138
 11
136.953356
 21
195.729919
  0
LINE
  8
MountainLine
  6
CONTINUOUS
 62
5
 10
136.953356
 20
195.729919
 11
127.704988
 21
198.888110
  0
LINE
  8
CutLine
  6
CONTINUOUS
 62
8
 10
136.953356
 20
195.729919
 11
138.906644
 21
198.473457
  0
LINE
  8
CutLine
  6
CONTINUOUS
 62
8
 10
138.906644
 20
198.473457
 11
127.704988
 21
198.888110
  0
LINE
  8
CutLine
  6
CONTINUOUS
 62
8
 10
121.934063
 20
184.022054
 11
114.975468
 21
178.001507
  0
LINE
  8
CutLine
  6
CONTINUOUS
 62
8
 10
114.975468
 20
178.001507
 11
120.449506
 21
169.189964
  0
LINE
  8
CutLine
  6
CONTINUOUS
 62
8
 10
120.449506
 20
169.189964
 11
131.942931
 21
180.209138
  0
LINE
  8
CutLine
  6
CONTINUOUS
 62
8
 10
87.939049
 20
195.055679
 11
102.674417
 21
190.552643
  0
LINE
  8
CutLine
  6
CONTINUOUS
 62
8
 10
92.515965
 20
209.892083
 11
76.396432
 21
214.868851
  0
LINE
  8
CutLine
  6
CONTINUOUS
 62
8
 10
76.396432
 20
214.868851
 11
64.604396
 21
218.472798
  0
LINE
  8
CutLine
  6
CONTINUOUS
 62
8
 10
61.678330
 20
202.919831
 11
73.227958
 21
199.636313
  0
LINE
  8
CutLine
  6
CONTINUOUS
 62
8
 10
73.227958
 20
199.636313
 11
87.939049
 21
195.055679
  0
LINE
  8
CutLine
  6
CONTINUOUS
 62
8
 10
53.636292
 20
205.090624
 11
57.453942
 21
196.718235
  0
LINE
  8
CutLine
  6
CONTINUOUS
 62
8
 10
57.453942
 20
196.718235
 11
61.678330
 21
202.919831
  0
LINE
  8
CutLine
  6
CONTINUOUS
 62
8
 10
64.604396
 20
218.472798
 11
57.243098
 21
220.624269
  0
LINE
  8
CutLine
  6
CONTINUOUS
 62
8
 10
47.822774
 20
223.225036
 11
43.218574
 21
207.578606
  0
LINE
  8
MountainLine
  6
CONTINUOUS
 62
5
 10
57.243098
 20
220.624269
 11
47.822774
 21
223.225036
  0
LINE
  8
CutLine
  6
CONTINUOUS
 62
8
 10
47.754523
 20
226.592182
 11
47.822774
 21
223.225036
  0
LINE
  8
CutLine
  6
CONTINUOUS
 62
8
 10
57.243098
 20
220.624269
 11
47.754523
 21
226.592182
  0
LINE
  8
CutLine
  6
CONTINUOUS
 62
8
 10
43.218574
 20
207.578606
 11
46.507080
 21
191.999556
  0
LINE
  8
CutLine
  6
CONTINUOUS
 62
8
 10
46.507080
 20
191.999556
 11
55.993736
 21
196.196030
  0
LINE
  8
CutLine
  6
CONTINUOUS
 62
8
 10
55.993736
 20
196.196030
 11
53.636292
 21
205.090624
  0
LINE
  8
CutLine
  6
CONTINUOUS
 62
8
 10
1040.074961
 20
7.602889
 11
1040.233280
 21
0.000000
  0
LINE
  8
CutLine
  6
CONTINUOUS
 62
8
 10
1044.329214
 20
0.000000
 11
1044.161432
 21
8.146716
  0
LINE
  8
CutLine
  6
CONTINUOUS
 62
8
 10
1038.269399
 20
23.881465
 11
1040.074961
 21
7.602889
  0
LINE
  8
CutLine
  6
CONTINUOUS
 62
8
 10
1044.161432
 20
8.146716
 11
1041.609847
 21
24.540804
  0
LINE
  8
CutLine
  6
CONTINUOUS
 62
8
 10
1032.902313
 20
69.158935
 11
1038.269399
 21
23.881465
  0
LINE
  8
CutLine
  6
CONTINUOUS
 62
8
 10
1041.609847
 20
24.540804
 11
1036.597429
 21
70.188146
  0
LINE
  8
CutLine
  6
CONTINUOUS
 62
8
 10
1053.068663
 20
168.070231
 11
1070.840009
 21
213.803262
  0
LINE
  8
CutLine
  6
CONTINUOUS
 62
8
 10
1067.749867
 20
215.627549
 11
1049.857952
 21
169.578507
  0
LINE
  8
CutLine
  6
CONTINUOUS
 62
8
 10
1043.114249
 20
137.640410
 11
1032.902313
 21
69.158935
  0
LINE
  8
CutLine
  6
CONTINUOUS
 62
8
 10
1036.597429
 20
70.188146
 11
1046.718179
 21
137.304804
  0
LINE
  8
CutLine
  6
CONTINUOUS
 62
8
 10
1049.857952
 20
169.578507
 11
1043.114249
 21
137.640410
  0
LINE
  8
CutLine
  6
CONTINUOUS
 62
8
 10
1046.718179
 20
137.304804
 11
1053.068663
 21
168.070231
  0
LINE
  8
CutLine
  6
CONTINUOUS
 62
8
 10
1191.717968
 20
284.808564
 11
1133.357493
 21
269.024531
  0
LINE
  8
CutLine
  6
CONTINUOUS
 62
8
 10
1134.428006
 20
264.997059
 11
1190.514189
 21
279.433419
  0
LINE
  8
CutLine
  6
CONTINUOUS
 62
8
 10
1190.514189
 20
279.433419
 11
1191.717968
 21
284.808564
  0
LINE
  8
CutLine
  6
CONTINUOUS
 62
8
 10
1133.357493
 20
269.024531
 11
1113.315541
 21
259.124599
  0
LINE
  8
CutLine
  6
CONTINUOUS
 62
8
 10
1114.889944
 20
255.608074
 11
1134.428006
 21
264.997059
  0
LINE
  8
CutLine
  6
CONTINUOUS
 62
8
 10
1113.315541
 20
259.124599
 11
1093.298615
 21
246.107216
  0
LINE
  8
CutLine
  6
CONTINUOUS
 62
8
 10
1095.349367
 20
242.900879
 11
1114.889944
 21
255.608074
  0
LINE
  8
CutLine
  6
CONTINUOUS
 62
8
 10
1093.298615
 20
246.107216
 11
1067.749867
 21
215.627549
  0
LINE
  8
CutLine
  6
CONTINUOUS
 62
8
 10
1070.840009
 20
213.803262
 11
1095.349367
 21
242.900879
  0
LINE
  8
CutLine
  6
CONTINUOUS
 62
8
 10
305.022856
 20
354.433345
 11
303.870003
 21
352.951748
  0
LINE
  8
CutLine
  6
CONTINUOUS
 62
8
 10
363.026586
 20
345.350529
 11
305.022856
 21
354.433345
  0
LINE
  8
CutLine
  6
CONTINUOUS
 62
8
 10
695.549596
 20
419.136535
 11
737.754423
 21
419.148960
  0
LINE
  8
CutLine
  6
CONTINUOUS
 62
8
 10
737.827228
 20
433.810285
 11
695.876952
 21
433.808192
  0
LINE
  8
CutLine
  6
CONTINUOUS
 62
8
 10
695.876952
 20
433.808192
 11
647.636206
 21
427.069917
  0
LINE
  8
CutLine
  6
CONTINUOUS
 62
8
 10
652.332074
 20
412.681339
 11
695.549596
 21
419.136535
  0
LINE
  8
CutLine
  6
CONTINUOUS
 62
8
 10
647.636206
 20
427.069917
 11
631.884715
 21
419.196726
  0
LINE
  8
CutLine
  6
CONTINUOUS
 62
8
 10
637.106700
 20
406.088562
 11
652.332074
 21
412.681339
  0
LINE
  8
CutLine
  6
CONTINUOUS
 62
8
 10
631.884715
 20
419.196726
 11
592.300764
 21
400.193806
  0
LINE
  8
CutLine
  6
CONTINUOUS
 62
8
 10
596.005514
 20
385.606945
 11
637.106700
 21
406.088562
  0
LINE
  8
CutLine
  6
CONTINUOUS
 62
8
 10
303.870003
 20
352.951748
 11
314.816433
 21
335.838065
  0
LINE
  8
CutLine
  6
CONTINUOUS
 62
8
 10
374.813580
 20
327.361470
 11
396.460590
 21
326.223098
  0
LINE
  8
CutLine
  6
CONTINUOUS
 62
8
 10
527.139487
 20
375.247807
 11
499.278632
 21
365.069875
  0
LINE
  8
CutLine
  6
CONTINUOUS
 62
8
 10
592.300764
 20
400.193806
 11
527.139487
 21
375.247807
  0
LINE
  8
CutLine
  6
CONTINUOUS
 62
8
 10
532.753225
 20
360.985341
 11
596.005514
 21
385.606945
  0
LINE
  8
CutLine
  6
CONTINUOUS
 62
8
 10
503.491106
 20
349.558683
 11
532.753225
 21
360.985341
  0
LINE
  8
CutLine
  6
CONTINUOUS
 62
8
 10
499.278632
 20
365.069875
 11
448.128088
 21
348.471127
  0
LINE
  8
CutLine
  6
CONTINUOUS
 62
8
 10
457.135750
 20
333.480378
 11
503.491106
 21
349.558683
  0
LINE
  8
CutLine
  6
CONTINUOUS
 62
8
 10
448.128088
 20
348.471127
 11
410.477034
 21
342.571500
  0
LINE
  8
CutLine
  6
CONTINUOUS
 62
8
 10
419.769290
 20
326.330025
 11
457.135750
 21
333.480378
  0
LINE
  8
CutLine
  6
CONTINUOUS
 62
8
 10
410.477034
 20
342.571500
 11
390.926269
 21
342.826931
  0
LINE
  8
CutLine
  6
CONTINUOUS
 62
8
 10
396.460590
 20
326.223098
 11
419.769290
 21
326.330025
  0
LINE
  8
CutLine
  6
CONTINUOUS
 62
8
 10
390.926269
 20
342.826931
 11
363.026586
 21
345.350529
  0
LINE
  8
CutLine
  6
CONTINUOUS
 62
8
 10
317.295408
 20
334.123741
 11
374.813580
 21
327.361470
  0
LINE
  8
CutLine
  6
CONTINUOUS
 62
8
 10
314.816433
 20
335.838065
 11
317.295408
 21
334.123741
  0
LINE
  8
CutLine
  6
CONTINUOUS
 62
8
 10
1160.033076
 20
331.485220
 11
1171.164813
 21
348.478938
  0
LINE
  8
CutLine
  6
CONTINUOUS
 62
8
 10
1157.535634
 20
329.797912
 11
1160.033076
 21
331.485220
  0
LINE
  8
CutLine
  6
CONTINUOUS
 62
8
 10
779.775566
 20
433.390649
 11
737.827228
 21
433.810285
  0
LINE
  8
CutLine
  6
CONTINUOUS
 62
8
 10
737.754423
 20
419.148960
 11
779.957038
 21
418.716453
  0
LINE
  8
CutLine
  6
CONTINUOUS
 62
8
 10
827.946870
 20
426.172527
 11
779.775566
 21
433.390649
  0
LINE
  8
CutLine
  6
CONTINUOUS
 62
8
 10
779.957038
 20
418.716453
 11
823.108005
 21
411.831415
  0
LINE
  8
CutLine
  6
CONTINUOUS
 62
8
 10
843.619165
 20
418.142998
 11
827.946870
 21
426.172527
  0
LINE
  8
CutLine
  6
CONTINUOUS
 62
8
 10
823.108005
 20
411.831415
 11
838.267014
 21
405.087441
  0
LINE
  8
CutLine
  6
CONTINUOUS
 62
8
 10
838.267014
 20
405.087441
 11
879.162314
 21
384.197763
  0
LINE
  8
CutLine
  6
CONTINUOUS
 62
8
 10
883.012074
 20
398.747025
 11
843.619165
 21
418.142998
  0
LINE
  8
CutLine
  6
CONTINUOUS
 62
8
 10
1078.269426
 20
322.762901
 11
1099.947242
 21
323.660295
  0
LINE
  8
CutLine
  6
CONTINUOUS
 62
8
 10
975.680065
 20
362.699044
 11
947.921820
 21
373.153746
  0
LINE
  8
CutLine
  6
CONTINUOUS
 62
8
 10
947.921820
 20
373.153746
 11
883.012074
 21
398.747025
  0
LINE
  8
CutLine
  6
CONTINUOUS
 62
8
 10
879.162314
 20
384.197763
 11
942.166429
 21
358.947852
  0
LINE
  8
CutLine
  6
CONTINUOUS
 62
8
 10
942.166429
 20
358.947852
 11
971.313328
 21
347.230538
  0
LINE
  8
CutLine
  6
CONTINUOUS
 62
8
 10
1026.687086
 20
345.583984
 11
975.680065
 21
362.699044
  0
LINE
  8
CutLine
  6
CONTINUOUS
 62
8
 10
971.313328
 20
347.230538
 11
1017.509662
 21
330.690444
  0
LINE
  8
CutLine
  6
CONTINUOUS
 62
8
 10
1064.420949
 20
339.260193
 11
1026.687086
 21
345.583984
  0
LINE
  8
CutLine
  6
CONTINUOUS
 62
8
 10
1017.509662
 20
330.690444
 11
1054.913550
 21
323.130040
  0
LINE
  8
CutLine
  6
CONTINUOUS
 62
8
 10
1084.003593
 20
339.300044
 11
1064.420949
 21
339.260193
  0
LINE
  8
CutLine
  6
CONTINUOUS
 62
8
 10
1111.928940
 20
341.520668
 11
1084.003593
 21
339.300044
  0
LINE
  8
CutLine
  6
CONTINUOUS
 62
8
 10
1054.913550
 20
323.130040
 11
1078.269426
 21
322.762901
  0
LINE
  8
CutLine
  6
CONTINUOUS
 62
8
 10
1170.027786
 20
349.972812
 11
1111.928940
 21
341.520668
  0
LINE
  8
CutLine
  6
CONTINUOUS
 62
8
 10
1099.947242
 20
323.660295
 11
1157.535634
 21
329.797912
  0
LINE
  8
CutLine
  6
CONTINUOUS
 62
8
 10
1171.164813
 20
348.478938
 11
1170.027786
 21
349.972812
  0
LINE
  8
CutLine
  6
CONTINUOUS
 62
8
 10
739.773378
 20
142.184030
 11
686.375510
 21
150.557028
  0
LINE
  8
CutLine
  6
CONTINUOUS
 62
8
 10
685.859090
 20
146.266171
 11
738.998310
 21
138.012689
  0
LINE
  8
CutLine
  6
CONTINUOUS
 62
8
 10
768.372838
 20
134.240234
 11
739.773378
 21
142.184030
  0
LINE
  8
CutLine
  6
CONTINUOUS
 62
8
 10
738.998310
 20
138.012689
 11
767.589296
 21
130.115026
  0
LINE
  8
CutLine
  6
CONTINUOUS
 62
8
 10
835.227335
 20
113.148327
 11
768.372838
 21
134.240234
  0
LINE
  8
CutLine
  6
CONTINUOUS
 62
8
 10
767.589296
 20
130.115026
 11
834.091047
 21
109.000764
  0
LINE
  8
CutLine
  6
CONTINUOUS
 62
8
 10
600.784825
 20
158.932261
 11
533.738966
 21
163.786821
  0
LINE
  8
CutLine
  6
CONTINUOUS
 62
8
 10
533.738966
 20
163.786821
 11
541.979468
 21
158.146720
  0
LINE
  8
CutLine
  6
CONTINUOUS
 62
8
 10
625.379739
 20
156.450675
 11
600.784825
 21
158.932261
  0
LINE
  8
CutLine
  6
CONTINUOUS
 62
8
 10
600.566550
 20
154.340909
 11
628.453707
 21
151.682471
  0
LINE
  8
CutLine
  6
CONTINUOUS
 62
8
 10
541.979468
 20
158.146720
 11
600.566550
 21
154.340909
  0
LINE
  8
CutLine
  6
CONTINUOUS
 62
8
 10
648.281030
 20
153.985423
 11
625.379739
 21
156.450675
  0
LINE
  8
CutLine
  6
CONTINUOUS
 62
8
 10
628.453707
 20
151.682471
 11
647.893834
 21
149.589836
  0
LINE
  8
CutLine
  6
CONTINUOUS
 62
8
 10
686.375510
 20
150.557028
 11
648.281030
 21
153.985423
  0
LINE
  8
CutLine
  6
CONTINUOUS
 62
8
 10
647.893834
 20
149.589836
 11
685.859090
 21
146.266171
  0
LINE
  8
CutLine
  6
CONTINUOUS
 62
8
 10
892.978132
 20
86.650501
 11
876.605601
 21
94.723700
  0
LINE
  8
CutLine
  6
CONTINUOUS
 62
8
 10
874.279037
 20
91.311061
 11
890.097920
 21
83.574166
  0
LINE
  8
CutLine
  6
CONTINUOUS
 62
8
 10
890.097920
 20
83.574166
 11
922.364041
 21
47.084835
  0
LINE
  8
CutLine
  6
CONTINUOUS
 62
8
 10
946.853607
 20
12.697115
 11
926.023288
 21
48.992023
  0
LINE
  8
CutLine
  6
CONTINUOUS
 62
8
 10
922.364041
 20
47.084835
 11
943.270652
 21
10.715352
  0
LINE
  8
CutLine
  6
CONTINUOUS
 62
8
 10
926.023288
 20
48.992023
 11
892.978132
 21
86.650501
  0
LINE
  8
CutLine
  6
CONTINUOUS
 62
8
 10
876.605601
 20
94.723700
 11
835.227335
 21
113.148327
  0
LINE
  8
CutLine
  6
CONTINUOUS
 62
8
 10
834.091047
 20
109.000764
 11
874.279037
 21
91.311061
  0
LINE
  8
CutLine
  6
CONTINUOUS
 62
8
 10
943.270652
 20
10.715352
 11
948.969844
 21
0.000000
  0
LINE
  8
CutLine
  6
CONTINUOUS
 62
8
 10
953.618128
 20
0.000000
 11
946.853607
 21
12.697115
  0
LINE
  8
CutLine
  6
CONTINUOUS
 62
8
 10
700.637040
 20
74.567505
 11
728.071486
 21
8.406344
  0
LINE
  8
CutLine
  6
CONTINUOUS
 62
8
 10
729.488797
 20
8.146382
 11
701.985550
 21
76.887404
  0
LINE
  8
CutLine
  6
CONTINUOUS
 62
8
 10
728.071486
 20
8.406344
 11
728.621011
 21
0.000000
  0
LINE
  8
CutLine
  6
CONTINUOUS
 62
8
 10
730.030190
 20
0.000000
 11
729.488797
 21
8.146382
  0
LINE
  8
CutLine
  6
CONTINUOUS
 62
8
 10
701.985550
 20
76.887404
 11
700.637040
 21
74.567505
  0
ENDSEC
  0
EOF
