  0
SECTION
  2
HEADER
  9
$ACADVER
  1
AC1009
  0
ENDSEC
  0
SECTION
  2
BLOCKS
  0
ENDSEC
  0
SECTION
  2
ENTITIES
  0
LINE
  8
CutLine
  6
CONTINUOUS
 62
8
 10
248.188051
 20
486.840320
 11
248.188051
 21
400.289454
  0
LINE
  8
CutLine
  6
CONTINUOUS
 62
8
 10
248.188051
 20
400.289454
 11
266.217627
 21
395.589666
  0
LINE
  8
CutLine
  6
CONTINUOUS
 62
8
 10
266.217627
 20
395.589666
 11
248.188051
 21
486.840320
  0
LINE
  8
CutLine
  6
CONTINUOUS
 62
8
 10
190.983864
 20
423.631086
 11
190.983864
 21
543.468966
  0
LINE
  8
CutLine
  6
CONTINUOUS
 62
8
 10
190.983864
 20
543.468966
 11
178.725760
 21
552.855965
  0
LINE
  8
CutLine
  6
CONTINUOUS
 62
8
 10
178.725760
 20
552.855965
 11
190.983864
 21
423.631086
  0
LINE
  8
CutLine
  6
CONTINUOUS
 62
8
 10
183.785980
 20
431.389449
 11
172.447849
 21
550.679958
  0
LINE
  8
CutLine
  6
CONTINUOUS
 62
8
 10
172.447849
 20
420.899249
 11
183.785980
 21
431.389449
  0
LINE
  8
CutLine
  6
CONTINUOUS
 62
8
 10
172.447849
 20
550.679958
 11
172.447849
 21
420.899249
  0
LINE
  8
CutLine
  6
CONTINUOUS
 62
8
 10
233.416125
 20
570.869415
 11
230.022116
 21
571.024123
  0
LINE
  8
CutLine
  6
CONTINUOUS
 62
8
 10
233.416125
 20
477.866193
 11
233.416125
 21
570.869415
  0
LINE
  8
CutLine
  6
CONTINUOUS
 62
8
 10
230.022116
 20
571.024123
 11
230.548393
 21
474.045562
  0
LINE
  8
CutLine
  6
CONTINUOUS
 62
8
 10
230.548393
 20
474.045562
 11
233.416125
 21
477.866193
  0
LINE
  8
CutLine
  6
CONTINUOUS
 62
8
 10
245.595653
 20
488.173865
 11
227.544969
 21
396.939157
  0
LINE
  8
CutLine
  6
CONTINUOUS
 62
8
 10
227.544969
 20
396.939157
 11
245.595653
 21
401.627277
  0
LINE
  8
CutLine
  6
CONTINUOUS
 62
8
 10
245.595653
 20
401.627277
 11
245.595653
 21
488.173865
  0
LINE
  8
CutLine
  6
CONTINUOUS
 62
8
 10
300.428659
 20
461.424547
 11
300.429829
 21
420.424952
  0
LINE
  8
CutLine
  6
CONTINUOUS
 62
8
 10
330.794260
 20
405.801493
 11
331.212631
 21
461.406669
  0
LINE
  8
CutLine
  6
CONTINUOUS
 62
8
 10
331.212631
 20
461.406669
 11
330.794260
 21
517.013336
  0
LINE
  8
CutLine
  6
CONTINUOUS
 62
8
 10
300.452194
 20
502.424026
 11
300.428659
 21
461.424547
  0
LINE
  8
CutLine
  6
CONTINUOUS
 62
8
 10
300.429829
 20
420.424952
 11
330.794260
 21
405.801493
  0
LINE
  8
CutLine
  6
CONTINUOUS
 62
8
 10
330.794260
 20
517.013336
 11
300.452194
 21
502.424026
  0
LINE
  8
CutLine
  6
CONTINUOUS
 62
8
 10
239.976331
 20
569.784037
 11
237.088043
 21
573.589446
  0
LINE
  8
CutLine
  6
CONTINUOUS
 62
8
 10
237.088043
 20
573.589446
 11
237.088043
 21
476.597448
  0
LINE
  8
CutLine
  6
CONTINUOUS
 62
8
 10
237.088043
 20
476.597448
 11
240.481157
 21
476.770637
  0
LINE
  8
CutLine
  6
CONTINUOUS
 62
8
 10
240.481157
 20
476.770637
 11
239.976331
 21
569.784037
  0
LINE
  8
CutLine
  6
CONTINUOUS
 62
8
 10
373.456462
 20
445.956593
 11
377.590243
 21
443.562232
  0
LINE
  8
CutLine
  6
CONTINUOUS
 62
8
 10
373.314193
 20
484.561570
 11
373.456462
 21
445.956593
  0
LINE
  8
CutLine
  6
CONTINUOUS
 62
8
 10
373.456695
 20
523.166081
 11
373.314193
 21
484.561570
  0
LINE
  8
CutLine
  6
CONTINUOUS
 62
8
 10
377.590243
 20
525.561309
 11
373.456695
 21
523.166081
  0
LINE
  8
CutLine
  6
CONTINUOUS
 62
8
 10
377.577891
 20
484.561825
 11
377.590243
 21
525.561309
  0
LINE
  8
CutLine
  6
CONTINUOUS
 62
8
 10
377.590243
 20
443.562232
 11
377.577891
 21
484.561825
  0
LINE
  8
CutLine
  6
CONTINUOUS
 62
8
 10
199.011605
 20
563.267133
 11
199.011605
 21
443.429254
  0
LINE
  8
CutLine
  6
CONTINUOUS
 62
8
 10
221.112675
 20
537.869660
 11
199.011605
 21
563.267133
  0
LINE
  8
CutLine
  6
CONTINUOUS
 62
8
 10
199.011605
 20
443.429254
 11
221.112675
 21
537.869660
  0
LINE
  8
CutLine
  6
CONTINUOUS
 62
8
 10
195.441046
 20
412.131220
 11
223.394763
 21
430.957636
  0
LINE
  8
CutLine
  6
CONTINUOUS
 62
8
 10
226.399698
 20
527.891060
 11
195.441046
 21
412.131220
  0
LINE
  8
CutLine
  6
CONTINUOUS
 62
8
 10
223.394763
 20
430.957636
 11
226.399698
 21
527.891060
  0
LINE
  8
CutLine
  6
CONTINUOUS
 62
8
 10
295.899103
 20
438.426246
 11
295.976240
 21
494.828572
  0
LINE
  8
CutLine
  6
CONTINUOUS
 62
8
 10
295.976240
 20
494.828572
 11
295.395766
 21
573.026058
  0
LINE
  8
CutLine
  6
CONTINUOUS
 62
8
 10
295.395766
 20
573.026058
 11
291.238971
 21
577.217158
  0
LINE
  8
CutLine
  6
CONTINUOUS
 62
8
 10
291.238971
 20
577.217158
 11
291.851436
 21
494.959376
  0
LINE
  8
CutLine
  6
CONTINUOUS
 62
8
 10
291.851436
 20
494.959376
 11
291.763337
 21
434.492149
  0
LINE
  8
CutLine
  6
CONTINUOUS
 62
8
 10
291.763337
 20
434.492149
 11
295.899103
 21
438.426246
  0
LINE
  8
CutLine
  6
CONTINUOUS
 62
8
 10
288.905771
 20
493.523086
 11
288.654213
 21
575.782779
  0
LINE
  8
CutLine
  6
CONTINUOUS
 62
8
 10
284.541821
 20
571.548257
 11
284.782571
 21
493.348975
  0
LINE
  8
CutLine
  6
CONTINUOUS
 62
8
 10
284.782571
 20
493.348975
 11
285.451913
 21
436.950568
  0
LINE
  8
CutLine
  6
CONTINUOUS
 62
8
 10
289.628766
 20
433.060121
 11
288.905771
 21
493.523086
  0
LINE
  8
CutLine
  6
CONTINUOUS
 62
8
 10
285.451913
 20
436.950568
 11
289.628766
 21
433.060121
  0
LINE
  8
CutLine
  6
CONTINUOUS
 62
8
 10
288.654213
 20
575.782779
 11
284.541821
 21
571.548257
  0
LINE
  8
CutLine
  6
CONTINUOUS
 62
8
 10
278.114726
 20
576.909056
 11
260.224798
 21
563.379387
  0
LINE
  8
CutLine
  6
CONTINUOUS
 62
8
 10
260.224798
 20
563.379387
 11
260.224798
 21
433.590787
  0
LINE
  8
CutLine
  6
CONTINUOUS
 62
8
 10
260.224798
 20
433.590787
 11
278.114726
 21
576.909056
  0
LINE
  8
CutLine
  6
CONTINUOUS
 62
8
 10
262.125127
 20
425.284023
 11
277.866487
 21
409.295172
  0
LINE
  8
CutLine
  6
CONTINUOUS
 62
8
 10
281.095661
 20
553.695273
 11
262.125127
 21
425.284023
  0
LINE
  8
CutLine
  6
CONTINUOUS
 62
8
 10
277.866487
 20
409.295172
 11
281.095661
 21
553.695273
  0
LINE
  8
CutLine
  6
CONTINUOUS
 62
8
 10
366.299327
 20
473.686398
 11
352.387037
 21
559.095610
  0
LINE
  8
CutLine
  6
CONTINUOUS
 62
8
 10
352.387037
 20
559.095610
 11
352.387037
 21
414.665087
  0
LINE
  8
CutLine
  6
CONTINUOUS
 62
8
 10
362.466184
 20
422.579591
 11
366.299327
 21
473.686398
  0
LINE
  8
CutLine
  6
CONTINUOUS
 62
8
 10
352.387037
 20
414.665087
 11
362.466184
 21
422.579591
  0
LINE
  8
CutLine
  6
CONTINUOUS
 62
8
 10
349.361084
 20
558.674754
 11
335.499283
 21
473.269267
  0
LINE
  8
CutLine
  6
CONTINUOUS
 62
8
 10
335.499283
 20
473.269267
 11
339.281822
 21
422.151655
  0
LINE
  8
CutLine
  6
CONTINUOUS
 62
8
 10
349.361084
 20
414.238551
 11
349.361084
 21
558.674754
  0
LINE
  8
CutLine
  6
CONTINUOUS
 62
8
 10
339.281822
 20
422.151655
 11
349.361084
 21
414.238551
  0
LINE
  8
CutLine
  6
CONTINUOUS
 62
8
 10
136.046927
 20
547.680750
 11
137.932184
 21
550.276122
  0
LINE
  8
CutLine
  6
CONTINUOUS
 62
8
 10
137.932184
 20
550.276122
 11
7.798433
 21
569.343822
  0
LINE
  8
CutLine
  6
CONTINUOUS
 62
8
 10
345.634300
 20
389.963393
 11
310.228008
 21
381.586808
  0
LINE
  8
CutLine
  6
CONTINUOUS
 62
8
 10
400.084181
 20
414.405538
 11
377.954082
 21
401.338476
  0
LINE
  8
CutLine
  6
CONTINUOUS
 62
8
 10
420.635911
 20
428.584252
 11
400.084181
 21
414.405538
  0
LINE
  8
CutLine
  6
CONTINUOUS
 62
8
 10
377.954082
 20
401.338476
 11
345.634300
 21
389.963393
  0
LINE
  8
CutLine
  6
CONTINUOUS
 62
8
 10
498.317458
 20
513.293168
 11
471.162222
 21
477.551896
  0
LINE
  8
CutLine
  6
CONTINUOUS
 62
8
 10
559.488301
 20
460.048402
 11
595.446028
 21
496.954194
  0
LINE
  8
CutLine
  6
CONTINUOUS
 62
8
 10
525.451830
 20
422.046544
 11
559.488301
 21
460.048402
  0
LINE
  8
CutLine
  6
CONTINUOUS
 62
8
 10
480.034404
 20
356.779141
 11
500.622837
 21
387.730452
  0
LINE
  8
CutLine
  6
CONTINUOUS
 62
8
 10
445.551830
 20
450.450855
 11
420.635911
 21
428.584252
  0
LINE
  8
CutLine
  6
CONTINUOUS
 62
8
 10
500.622837
 20
387.730452
 11
525.451830
 21
422.046544
  0
LINE
  8
CutLine
  6
CONTINUOUS
 62
8
 10
471.162222
 20
477.551896
 11
445.551830
 21
450.450855
  0
LINE
  8
CutLine
  6
CONTINUOUS
 62
8
 10
447.657222
 20
345.095118
 11
480.034404
 21
356.779141
  0
LINE
  8
CutLine
  6
CONTINUOUS
 62
8
 10
414.284168
 20
339.017668
 11
447.657222
 21
345.095118
  0
LINE
  8
CutLine
  6
CONTINUOUS
 62
8
 10
372.111828
 20
330.855872
 11
414.284168
 21
339.017668
  0
LINE
  8
CutLine
  6
CONTINUOUS
 62
8
 10
322.072793
 20
322.132189
 11
372.111828
 21
330.855872
  0
LINE
  8
CutLine
  6
CONTINUOUS
 62
8
 10
520.647440
 20
544.668637
 11
498.317458
 21
513.293168
  0
LINE
  8
CutLine
  6
CONTINUOUS
 62
8
 10
539.466917
 20
571.488550
 11
520.647440
 21
544.668637
  0
LINE
  8
CutLine
  6
CONTINUOUS
 62
8
 10
595.446028
 20
496.954194
 11
670.972698
 21
569.343822
  0
LINE
  8
CutLine
  6
CONTINUOUS
 62
8
 10
670.972698
 20
569.343822
 11
539.466917
 21
571.488550
  0
LINE
  8
CutLine
  6
CONTINUOUS
 62
8
 10
310.228008
 20
381.586808
 11
277.680684
 21
378.409389
  0
LINE
  8
CutLine
  6
CONTINUOUS
 62
8
 10
278.631034
 20
322.219366
 11
322.072793
 21
322.132189
  0
LINE
  8
CutLine
  6
CONTINUOUS
 62
8
 10
277.680684
 20
378.409389
 11
237.282961
 21
376.090960
  0
LINE
  8
CutLine
  6
CONTINUOUS
 62
8
 10
185.736108
 20
384.729607
 11
156.029217
 21
403.510021
  0
LINE
  8
CutLine
  6
CONTINUOUS
 62
8
 10
237.282961
 20
376.090960
 11
185.736108
 21
384.729607
  0
LINE
  8
CutLine
  6
CONTINUOUS
 62
8
 10
121.184219
 20
370.305803
 11
143.526814
 21
349.739126
  0
LINE
  8
CutLine
  6
CONTINUOUS
 62
8
 10
156.029217
 20
403.510021
 11
129.955918
 21
427.644006
  0
LINE
  8
CutLine
  6
CONTINUOUS
 62
8
 10
79.655417
 20
405.308056
 11
121.184219
 21
370.305803
  0
LINE
  8
CutLine
  6
CONTINUOUS
 62
8
 10
44.830429
 20
458.549350
 11
55.600046
 21
436.589650
  0
LINE
  8
CutLine
  6
CONTINUOUS
 62
8
 10
112.241829
 20
464.650651
 11
113.937434
 21
488.868180
  0
LINE
  8
CutLine
  6
CONTINUOUS
 62
8
 10
113.937434
 20
488.868180
 11
123.316885
 21
521.603277
  0
LINE
  8
MountainLine
  6
CONTINUOUS
 62
5
 10
7.798433
 20
569.343822
 11
7.073643
 21
567.399444
  0
LINE
  8
CutLine
  6
CONTINUOUS
 62
8
 10
7.073643
 20
567.399444
 11
36.589317
 21
479.301081
  0
LINE
  8
CutLine
  6
CONTINUOUS
 62
8
 10
36.589317
 20
479.301081
 11
44.830429
 21
458.549350
  0
LINE
  8
CutLine
  6
CONTINUOUS
 62
8
 10
129.955918
 20
427.644006
 11
112.241829
 21
464.650651
  0
LINE
  8
CutLine
  6
CONTINUOUS
 62
8
 10
55.600046
 20
436.589650
 11
79.655417
 21
405.308056
  0
LINE
  8
CutLine
  6
CONTINUOUS
 62
8
 10
143.526814
 20
349.739126
 11
205.021307
 21
330.317052
  0
LINE
  8
CutLine
  6
CONTINUOUS
 62
8
 10
205.021307
 20
330.317052
 11
278.631034
 21
322.219366
  0
LINE
  8
CutLine
  6
CONTINUOUS
 62
8
 10
123.316885
 20
521.603277
 11
136.046927
 21
547.680750
  0
LINE
  8
CutLine
  6
CONTINUOUS
 62
8
 10
7.798433
 20
569.343822
 11
6.069005
 21
568.818543
  0
LINE
  8
CutLine
  6
CONTINUOUS
 62
8
 10
6.069005
 20
568.818543
 11
7.073643
 21
567.399444
  0
LINE
  8
CutLine
  6
CONTINUOUS
 62
8
 10
295.384700
 20
580.954960
 11
326.765032
 21
573.923761
  0
LINE
  8
CutLine
  6
CONTINUOUS
 62
8
 10
402.606074
 20
486.731803
 11
398.178304
 21
522.302372
  0
LINE
  8
CutLine
  6
CONTINUOUS
 62
8
 10
398.178304
 20
522.302372
 11
387.424069
 21
543.114755
  0
LINE
  8
CutLine
  6
CONTINUOUS
 62
8
 10
387.424069
 20
543.114755
 11
361.153517
 21
568.006634
  0
LINE
  8
CutLine
  6
CONTINUOUS
 62
8
 10
361.153517
 20
568.006634
 11
329.016252
 21
581.450844
  0
LINE
  8
CutLine
  6
CONTINUOUS
 62
8
 10
326.765032
 20
573.923761
 11
355.562058
 21
560.844507
  0
LINE
  8
CutLine
  6
CONTINUOUS
 62
8
 10
355.562058
 20
560.844507
 11
379.639728
 21
538.749557
  0
LINE
  8
CutLine
  6
CONTINUOUS
 62
8
 10
379.639728
 20
538.749557
 11
390.136540
 21
519.393357
  0
LINE
  8
CutLine
  6
CONTINUOUS
 62
8
 10
390.136540
 20
519.393357
 11
393.592564
 21
486.685211
  0
LINE
  8
CutLine
  6
CONTINUOUS
 62
8
 10
329.016252
 20
581.450844
 11
295.110957
 21
589.499052
  0
LINE
  8
CutLine
  6
CONTINUOUS
 62
8
 10
295.110957
 20
589.499052
 11
267.663769
 21
590.787103
  0
LINE
  8
CutLine
  6
CONTINUOUS
 62
8
 10
270.794898
 20
581.048501
 11
295.384700
 21
580.954960
  0
LINE
  8
CutLine
  6
CONTINUOUS
 62
8
 10
393.592564
 20
486.685211
 11
402.606074
 21
486.731803
  0
LINE
  8
CutLine
  6
CONTINUOUS
 62
8
 10
295.110890
 20
382.592702
 11
329.016247
 21
390.640589
  0
LINE
  8
CutLine
  6
CONTINUOUS
 62
8
 10
295.377149
 20
391.183935
 11
270.793528
 21
391.036171
  0
LINE
  8
CutLine
  6
CONTINUOUS
 62
8
 10
267.662363
 20
381.304772
 11
295.110890
 21
382.592702
  0
LINE
  8
CutLine
  6
CONTINUOUS
 62
8
 10
326.768791
 20
398.151058
 11
295.377149
 21
391.183935
  0
LINE
  8
CutLine
  6
CONTINUOUS
 62
8
 10
402.606863
 20
485.358771
 11
393.593353
 21
485.405127
  0
LINE
  8
CutLine
  6
CONTINUOUS
 62
8
 10
393.593353
 20
485.405127
 11
390.137150
 21
452.697174
  0
LINE
  8
CutLine
  6
CONTINUOUS
 62
8
 10
398.178845
 20
449.788082
 11
402.606863
 21
485.358771
  0
LINE
  8
CutLine
  6
CONTINUOUS
 62
8
 10
390.137150
 20
452.697174
 11
379.639945
 21
433.341074
  0
LINE
  8
CutLine
  6
CONTINUOUS
 62
8
 10
387.424280
 20
428.975802
 11
398.178845
 21
449.788082
  0
LINE
  8
CutLine
  6
CONTINUOUS
 62
8
 10
379.639945
 20
433.341074
 11
355.562129
 21
411.246675
  0
LINE
  8
CutLine
  6
CONTINUOUS
 62
8
 10
361.153570
 20
404.084334
 11
387.424280
 21
428.975802
  0
LINE
  8
CutLine
  6
CONTINUOUS
 62
8
 10
355.562129
 20
411.246675
 11
326.768791
 21
398.151058
  0
LINE
  8
CutLine
  6
CONTINUOUS
 62
8
 10
329.016247
 20
390.640589
 11
361.153570
 21
404.084334
  0
LINE
  8
CutLine
  6
CONTINUOUS
 62
8
 10
140.777644
 20
486.044795
 11
142.033743
 21
421.355040
  0
LINE
  8
CutLine
  6
CONTINUOUS
 62
8
 10
142.033743
 20
421.355040
 11
176.310032
 21
402.246857
  0
LINE
  8
CutLine
  6
CONTINUOUS
 62
8
 10
270.793528
 20
391.036171
 11
222.927731
 21
397.220506
  0
LINE
  8
CutLine
  6
CONTINUOUS
 62
8
 10
215.142914
 20
388.270577
 11
267.662363
 21
381.304772
  0
LINE
  8
CutLine
  6
CONTINUOUS
 62
8
 10
222.927731
 20
397.220506
 11
187.630962
 21
410.544745
  0
LINE
  8
CutLine
  6
CONTINUOUS
 62
8
 10
176.310032
 20
402.246857
 11
215.142914
 21
388.270577
  0
LINE
  8
CutLine
  6
CONTINUOUS
 62
8
 10
187.630962
 20
410.544745
 11
153.538436
 21
425.992630
  0
LINE
  8
CutLine
  6
CONTINUOUS
 62
8
 10
153.538436
 20
425.992630
 11
153.421960
 21
486.044900
  0
LINE
  8
CutLine
  6
CONTINUOUS
 62
8
 10
153.421960
 20
486.044900
 11
153.537616
 21
546.097171
  0
LINE
  8
CutLine
  6
CONTINUOUS
 62
8
 10
142.033743
 20
550.734747
 11
140.777644
 21
486.044795
  0
LINE
  8
CutLine
  6
CONTINUOUS
 62
8
 10
153.537616
 20
546.097171
 11
187.629773
 21
561.545702
  0
LINE
  8
CutLine
  6
CONTINUOUS
 62
8
 10
176.308801
 20
569.843548
 11
142.033743
 21
550.734747
  0
LINE
  8
CutLine
  6
CONTINUOUS
 62
8
 10
267.663769
 20
590.787103
 11
215.141483
 21
583.820361
  0
LINE
  8
CutLine
  6
CONTINUOUS
 62
8
 10
215.141483
 20
583.820361
 11
176.308801
 21
569.843548
  0
LINE
  8
CutLine
  6
CONTINUOUS
 62
8
 10
187.629773
 20
561.545702
 11
222.926514
 21
574.870732
  0
LINE
  8
CutLine
  6
CONTINUOUS
 62
8
 10
222.926514
 20
574.870732
 11
270.794898
 21
581.048501
  0
ENDSEC
  0
EOF
